<?xml version="1.0" encoding="UTF-8" standalone="no"?>
<!-- Created with Inkscape (http://www.inkscape.org/) -->

<svg
   version="1.1"
   id="svg1"
   width="210mm"
   height="297mm"
   viewBox="0 0 793.70079 1122.5197"
   xml:space="preserve"
   sodipodi:docname="phlip.svg"
   inkscape:version="1.4.2 (ebf0e940d0, 2025-05-08)"
   xmlns:inkscape="http://www.inkscape.org/namespaces/inkscape"
   xmlns:sodipodi="http://sodipodi.sourceforge.net/DTD/sodipodi-0.dtd"
   xmlns="http://www.w3.org/2000/svg"
   xmlns:svg="http://www.w3.org/2000/svg"><sodipodi:namedview
     id="namedview1"
     pagecolor="#ffffff"
     bordercolor="#000000"
     borderopacity="0.25"
     inkscape:showpageshadow="2"
     inkscape:pageopacity="0.0"
     inkscape:pagecheckerboard="0"
     inkscape:deskcolor="#d1d1d1"
     inkscape:document-units="mm"
     inkscape:zoom="0.58529046"
     inkscape:cx="478.39495"
     inkscape:cy="402.36432"
     inkscape:window-width="1536"
     inkscape:window-height="888"
     inkscape:window-x="0"
     inkscape:window-y="0"
     inkscape:window-maximized="1"
     inkscape:current-layer="svg1" /><defs
     id="defs1" /><rect
     style="fill:#ffffff;stroke:#000000;stroke-width:3.02634;stroke-opacity:0"
     id="rect3"
     width="793.67157"
     height="1121.0096"
     x="0.014600953"
     y="1.5100514" /><g
     id="g3"
     transform="matrix(1.662089,0,0,1.662089,124.39518,187.83911)"><path
       id="path1"
       style="fill:#000000"
       d="m 161.06054,17.376348 c -5.88462,-0.192617 -12.62063,0.753385 -19.46289,2.863281 -20.2319,6.238752 -29.42386,15.293436 -29.44336,29.005859 -0.0116,8.173978 3.2231,21.187902 6.29101,25.3125 2.07364,2.787871 2.2147,3.645983 1.41602,8.597656 -2.26528,14.044316 0.7946,44.304846 8.36328,82.712886 3.30449,16.76898 3.77202,20.55215 2.74219,22.20117 -0.89505,1.4332 -0.96212,2.76924 -0.23828,4.78711 0.98903,2.75716 0.85744,2.88566 -8.90039,8.63672 -6.32595,3.72839 -10.61322,5.65112 -11.86328,5.32422 -2.71778,-0.71071 -7.66577,1.17951 -8.8418,3.37695 -2.82464,5.27791 0.15049,11.95885 5.32812,11.96485 3.05904,0.004 6.09556,2.97722 13.90039,13.61523 0.46576,0.63483 -3.0518,0.11498 -8.11914,-1.20117 -21.1335,-5.48906 -35.115024,-5.35874 -38.865234,0.36328 -2.49067,3.80024 -2.95254,22.99476 -0.82422,34.26172 2.46614,13.05519 3.52629,15.99908 6.8418,19.02735 l 3.07031,2.80664 -0.0859,18.80273 c -0.0998,21.50405 0.32512,23.17201 7.425774,29.10742 5.05566,4.226 5.22188,5.47914 1.83008,13.71289 -3.15062,7.64826 -3.1134,9.8569 0.20703,12.46875 l 2.6875,2.11328 -1.76758,11.20899 c -2.85134,18.07389 -9.294594,50.77497 -13.523434,68.63867 -13.34707,56.38142 -13.52991,58.15393 -6.33203,61.61133 l 4.25195,2.04297 -4.46093,7.45703 c -5.93648,9.92061 -7.21222,15.24459 -4.98438,20.8125 2.24044,5.59942 8.51568,10.7751 15.90625,13.11914 3.319484,1.05282 7.190844,1.9398 8.603514,1.9707 7.94273,0.17369 20.923,-7.28254 23.52735,-13.51562 0.79005,-1.89087 1.84284,-9.54833 2.33984,-17.01563 0.66534,-9.99634 1.32044,-14.03809 2.48437,-15.32422 1.28077,-1.41523 1.58285,-4.38922 1.58985,-15.66797 0.009,-13.87147 2.70187,-42.54742 5.43555,-57.86132 0.79115,-4.43198 1.70932,-10.5336 2.03906,-13.5586 1.32922,-12.19414 1.56276,-13 3.78515,-13 1.15191,0 5.98625,0.49946 10.74219,1.10938 l 8.64844,1.10742 2.12695,9.14258 c 3.76448,16.17573 4.40408,22.65871 4.85352,49.14062 0.2427,14.3 0.64859,26.98276 0.90234,28.1836 0.25376,1.20084 1.24777,2.41053 2.20899,2.68945 0.96123,0.27892 3.55082,0.97132 5.7539,1.53906 3.6284,0.93505 4.17728,1.51706 5.83399,6.18164 1.41967,3.99719 3.78078,7.08019 10.54687,13.77735 4.79413,4.74528 10.98981,9.85785 13.76953,11.36132 14.22702,7.69498 36.31559,8.07456 48.05469,0.82618 5.67205,-3.50224 8.71531,-9.36861 9.13086,-17.59766 0.61926,-12.26319 -3.25516,-15.56703 -19.26172,-16.42773 l -9.92187,-0.53321 -0.95704,-3 c -0.52716,-1.65 -4.22348,-10.65 -8.21289,-20 -7.51195,-17.60581 -12.79067,-32.84857 -16.45117,-47.5 -1.168,-4.675 -5.0604,-17.37073 -8.65039,-28.21289 -3.58999,-10.84216 -6.68808,-21.64216 -6.88281,-24 -0.19474,-2.35784 -1.01956,-7.8269 -1.83398,-12.15234 -1.28699,-6.83551 -1.29655,-8.99426 -0.0781,-16.5 0.77101,-4.74956 1.4023,-8.98624 1.4043,-9.41406 0.002,-0.42782 2.85751,-0.48414 6.34375,-0.12696 8.04311,0.82404 10.13733,-0.27215 13.23437,-6.92383 1.87558,-4.0283 2.40802,-6.85312 2.41602,-12.78906 0.0269,-21.02472 -9.954,-54.74778 -18.66995,-63.08008 -2.37041,-2.26606 -4.34889,-2.90588 -12.32227,-3.98437 -5.22396,-0.70661 -12.24249,-1.17142 -15.59766,-1.0332 -5.43562,0.22393 -6.73625,-0.13242 -11.93945,-3.26563 -3.21171,-1.93398 -8.33722,-4.4501 -11.38867,-5.5918 -6.8152,-2.54989 -6.65905,-2.41945 -15.65235,-13.01953 -6.90697,-8.141 -7.30038,-8.86533 -6.73242,-12.36523 0.58475,-3.60344 0.95589,-3.89098 12.10157,-9.375 10.84428,-5.33573 11.56208,-5.5505 12.60546,-3.76953 9.58508,16.36104 36.22421,42.36789 58.10547,56.72461 9.46621,6.21096 11.94854,6.88038 25.40039,6.86328 17.65447,-0.0225 31.26495,-4.19402 36.17383,-11.08789 3.23426,-4.5421 2.53,-7.75732 -2.70508,-12.3418 -2.5475,-2.2309 -11.66,-10.86088 -20.25,-19.17773 -8.59001,-8.31684 -19.62888,-18.66684 -24.52929,-23 -4.90041,-4.33315 -10.43675,-9.22696 -12.30469,-10.87696 l -3.39648,-3 1.60937,-3.8457 c 1.46663,-3.50441 1.4678,-4.05756 0.0312,-6.25 -0.86681,-1.32293 -2.26041,-2.4043 -3.09766,-2.4043 -1.15915,0 -1.39652,-0.77524 -0.99414,-3.25 1.23473,-7.59404 4.27814,-65.36892 3.73243,-70.86133 -0.24429,-2.45863 0.10709,-2.68053 6.03515,-3.802728 14.33091,-2.712888 25.88025,-8.032457 31.37109,-14.447266 9.29632,-10.860655 -0.18646,-17.176202 -34.57617,-23.029296 l -12.5,-2.126954 -0.18945,-7.27539 c -0.32877,-12.657701 -4.67587,-22.771743 -12.04297,-28.017578 -3.43552,-2.446311 -8.46694,-3.776134 -14.35156,-3.96875 z m -2.3418,1.970703 c 3.57134,-0.15388 6.80693,0.08936 9.4082,0.794922 10.43527,2.83041 17.01758,14.406291 17.01758,29.927734 v 8.837891 l -9.9375,4.123046 c -5.46554,2.268255 -14.57804,5.286788 -20.25,6.707032 -13.27532,3.324106 -33.57077,4.515161 -35.97461,2.111328 -2.2621,-2.262105 -4.94082,-13.962907 -5.01562,-21.91211 -0.0844,-8.974153 3.13,-14.54021 11.73437,-20.328124 8.58191,-5.772803 22.30358,-9.80008 33.01758,-10.261719 z m 5.58985,5.808593 c -5.51153,0 -14.68021,2.598172 -22.98633,6.515626 -8.24323,3.887796 -8.01696,2.985625 -3.48047,13.886718 3.25132,7.812886 5.10268,10.504215 8.75976,12.734375 3.79517,2.314366 13.10348,2.479346 20.24219,0.359375 7.80311,-2.317274 7.98217,-2.821403 5.46289,-15.294922 -3.68772,-18.258768 -3.6616,-18.201171 -7.99804,-18.201172 z m 1.44335,0.941407 c 0.43888,0.0058 0.73577,0.06779 0.86133,0.193359 0.82605,0.82605 5.53125,22.865584 5.53125,25.908203 0,2.246033 -0.69523,3.016773 -3.85547,4.28125 -5.53339,2.214025 -14.95172,2.914279 -19.14453,1.421875 -3.00578,-1.069886 -4.09341,-2.446351 -7.70312,-9.746094 -6.5448,-13.235247 -6.76608,-12.202016 3.48437,-16.304687 7.67747,-3.072855 17.75407,-5.794455 20.82617,-5.753906 z m 23.36524,32.77539 12.26367,2.269532 c 13.70275,2.535298 23.2906,5.240867 29.26367,8.259765 6.87811,3.47632 7.21466,6.039254 1.53516,11.71875 -5.24025,5.240256 -12.26451,8.684838 -23.94531,11.740235 -7.66455,2.004848 -12.70055,2.589605 -25.08985,2.916015 -13.95632,0.367696 -16.39633,0.169456 -24.5,-1.986328 -11.45913,-3.048423 -14.51741,-4.352589 -25.85547,-11.02539 -13.39314,-7.882283 -13.42864,-8.098956 -1.30078,-8.166016 15.87833,-0.0878 32.70667,-4.263889 50.89258,-12.628906 z M 122.8496,79.50916 c 0.54091,0.0072 1.33656,0.278833 2.08789,0.748047 1.70818,1.066771 1.91761,2.024688 1.49219,6.820313 -0.73014,8.230694 1.35843,41.32089 3.7207,58.94531 1.95381,14.577 5.47396,34.60923 6.59375,37.52734 0.28414,0.74047 -0.1298,1.59525 -0.91992,1.89844 -1.11168,0.4266 -1.9027,-1.63637 -3.49219,-9.12109 -2.92504,-13.77364 -7.87592,-41.10087 -9.36133,-51.67188 -1.30874,-9.31376 -1.82578,-43.833327 -0.67382,-44.986324 0.11217,-0.11227 0.30686,-0.16343 0.55273,-0.160156 z m 5.77149,3.646484 c 0.26146,0 4.64896,2.224118 9.75,4.94336 5.10104,2.719241 12.67445,5.873015 16.83007,7.007812 8.50041,2.321254 24.19777,3.989944 30.85352,3.279294 l 4.41016,-0.4707 -0.66211,21.86914 c -0.36433,12.02867 -1.18484,29.13909 -1.82422,38.02344 l -1.16211,16.15429 -8.08594,1.23438 c -4.44691,0.67888 -14.98039,2.97143 -23.4082,5.0957 -8.4278,2.12426 -15.69251,3.86328 -16.14258,3.86328 -1.81618,0 -8.36312,-41.20651 -10.00977,-63 -1.04788,-13.86863 -1.39615,-37.999996 -0.54882,-37.999996 z M 194.3457,98.15564 c 1.88338,0 1.95399,0.47947 1.36523,9.25 -0.34153,5.0875 -1.05708,18.69395 -1.58984,30.23633 -0.53277,11.54238 -1.26108,24.47988 -1.61719,28.75 -0.55695,6.67835 -0.90751,7.76367 -2.51172,7.76367 -1.64946,0 -1.80378,-0.60666 -1.3418,-5.25 1.88034,-18.89898 2.48724,-30.59819 2.49024,-47.91797 0.002,-10.81752 0.27748,-20.38001 0.61133,-21.25 0.33384,-0.86998 1.50127,-1.58202 2.59375,-1.58203 z m -17.75782,14.5 c -2.63858,0 -3.1192,0.51865 -4.64844,5 -1.14604,3.35841 -1.72049,8.28319 -1.74609,15 -0.0423,11.06347 1.14782,16.93011 3.74024,18.44141 2.58928,1.50948 4.74145,1.25962 7.34961,-0.85547 2.28218,-1.85077 2.36132,-2.3915 2.36132,-16.25 0,-12.66426 -0.24029,-14.74398 -2.05664,-17.83594 -1.61066,-2.74181 -2.69378,-3.5 -5,-3.5 z m 0.40821,1.01758 c 0.20108,-0.008 0.40127,0.0247 0.60156,0.10156 0.79694,0.30581 2.19696,2.51591 3.11133,4.91016 l 1.66211,4.35352 -5.24805,8.55859 c -2.88671,4.70726 -5.41259,8.55859 -5.61328,8.55859 -0.7265,0 -0.33064,-10.63701 0.60937,-16.37695 0.99932,-6.10214 2.93313,-10.03235 4.87696,-10.10547 z m -25.82227,1.81445 c -0.31843,-0.004 -0.63105,0.0414 -0.9375,0.13868 -6.67426,2.11833 -9.47842,27.42956 -4.03125,36.38671 1.5262,2.50964 2.58012,3.14258 5.23437,3.14258 4.50635,0 6.64067,-1.80156 7.73633,-6.52734 1.26235,-5.44479 1.19782,-16.31176 -0.13476,-22.52539 -1.28573,-5.99512 -4.78899,-10.58032 -7.86719,-10.61524 z m 0.21289,1.66211 c 1.18026,0.0534 2.4591,1.10659 3.76953,3.25586 1.08986,1.7875 1.97956,4.15 1.97656,5.25 -0.003,1.1 -2.76155,5.825 -6.13086,10.5 l -6.125,8.5 0.52735,-10 c 0.59495,-11.25595 2.9662,-17.6422 5.98242,-17.50586 z m 39.09961,59.03321 c 3.62255,-0.0135 5.91307,0.46881 6.32227,1.53515 0.82834,2.15862 -1.10147,6.02127 -3.9336,7.87696 -2.76907,1.81436 -12.62625,4.42967 -29.85156,7.91992 -6.80835,1.37952 -15.30339,2.80356 -18.87891,3.16406 -5.75937,0.58068 -6.82099,0.40484 -9.30468,-1.54883 -3.98823,-3.13714 -3.29987,-6.11062 1.80468,-7.78906 20.1066,-6.61129 42.97414,-11.11769 53.8418,-11.1582 z m 2.59766,11.79882 c 1.22917,-0.0372 2.14543,0.61025 4.14257,2.24024 1.87284,1.52853 3.18359,2.97329 2.91211,3.21094 -0.27149,0.23764 -2.71139,1.17345 -5.42187,2.07812 -2.71048,0.90467 -4.9605,1.63134 -5,1.61524 -0.0395,-0.0161 -1.55033,-1.37396 -3.35742,-3.01758 -2.8388,-2.58202 -3.04278,-3.06529 -1.5,-3.54688 0.98209,-0.30657 3.3994,-1.13335 5.37304,-1.83789 1.26279,-0.45078 2.11406,-0.71985 2.85157,-0.74219 z m -11.43946,3.35743 3.28516,3.13867 3.28516,3.13672 -6.45118,2.17578 c -3.54779,1.19676 -7.29759,2.44645 -8.33398,2.77539 -1.3205,0.41911 -2.89586,-0.44759 -5.26563,-2.89258 -1.85989,-1.91892 -3.03913,-3.83196 -2.61914,-4.25195 0.42,-0.41999 4.21423,-1.50942 8.43164,-2.42188 z m 20.11133,3.04101 5.14258,4.13867 c 2.82835,2.27536 5.16671,4.41279 5.19531,4.75196 0.0286,0.33918 -2.25869,1.57668 -5.08203,2.75 -2.82335,1.17333 -5.42728,2.13476 -5.78711,2.13476 -0.35984,0 -2.85403,-2.23485 -5.54297,-4.96484 -3.48831,-3.54161 -4.48077,-5.11161 -3.46289,-5.48242 0.78462,-0.28584 3.25189,-1.1518 5.48242,-1.92383 z m -38.68359,1.10156 3.03711,3.77735 c 1.66979,2.07783 3.03515,4.01096 3.03515,4.29492 0,0.001 1e-4,0.005 0,0.006 -0.0504,0.29558 -3.29365,1.46739 -7.25,2.61719 -3.9875,1.15886 -7.98625,2.31741 -8.88672,2.57422 -1.56938,0.44757 -9.86328,-7.73938 -9.86328,-9.73633 0,-0.47257 1.4625,-0.87629 3.25,-0.89649 1.7875,-0.0202 6.27214,-0.62106 9.96485,-1.33593 z m -29.63867,2.13672 c 0.12747,-0.006 0.2509,-0.005 0.37109,0 0.27472,0.0112 0.53263,0.0494 0.7793,0.11133 1.40878,0.35358 2.56054,0.94075 2.56054,1.30469 0,1.26179 -22.91184,12.07069 -23.51562,11.09375 -0.98523,-1.59414 0.0404,-2.44944 9.42773,-7.86719 5.66638,-3.27026 8.46479,-4.55877 10.37696,-4.64258 z m 55.80664,1.1543 5.03515,5.03516 5.03516,5.03515 -8.53906,2.98633 -8.53711,2.98633 -4.66211,-4.73438 c -2.5647,-2.60385 -4.41344,-5.13962 -4.10742,-5.63476 0.30601,-0.49514 3.98107,-1.97465 8.16601,-3.28711 z m -49.07032,0.85742 h 0.002 c 0.26369,-0.0471 2.45516,2.26394 5.09766,5.38867 5.94439,7.02919 29.93858,29.6699 38.03516,35.89063 3.04623,2.34047 9.27897,6.50297 13.84961,9.25 8.05748,4.84269 8.54389,4.99609 16.02148,4.99609 8.60679,0 24.06914,-3.48115 30.86328,-6.94726 2.3015,-1.17414 4.97778,-3.43902 5.94727,-5.03321 l 1.76172,-2.89843 3.69921,3.38867 c 2.64331,2.4216 3.69727,4.21942 3.69727,6.30273 0,5.32842 -7.75436,10.71704 -18.79883,13.0625 -2.91457,0.61895 -11.01457,1.11366 -18,1.10156 -10.11915,-0.0175 -13.51541,-0.39206 -16.71094,-1.84374 -13.42739,-6.0999 -51.20738,-40.12505 -60.81054,-54.76758 -2.57349,-3.92397 -4.67969,-7.45686 -4.67969,-7.84961 0,-0.0107 0.002,-0.0188 0.006,-0.0254 5.6e-4,-8.6e-4 0.003,-0.005 0.004,-0.006 l 0.002,-0.002 0.002,-0.002 0.002,-0.002 c 4.5e-4,-2.2e-4 0.003,-0.002 0.004,-0.002 h 0.002 c 5e-4,-1.3e-4 0.003,-0.001 0.004,-0.002 z m 30.00586,5.52539 c 0.86584,0 9.1821,8.44681 9.70703,9.85938 0.13095,0.35241 -3.06375,1.87812 -7.09961,3.39062 -4.03587,1.5125 -7.7576,2.75 -8.27148,2.75 -0.51388,0 -3.34201,-2.43783 -6.2832,-5.41601 l -5.34766,-5.41407 8.18359,-2.58593 c 4.50086,-1.42182 8.60105,-2.58399 9.11133,-2.58399 z m 43.52539,0 c 0.56004,0 3.18524,2.19948 5.83399,4.88867 l 4.8164,4.88868 -5.64062,2.11132 c -3.10256,1.16081 -6.25662,2.11133 -7.00977,2.11133 -0.75316,0 -3.19164,-2.17682 -5.41797,-4.83594 l -4.04687,-4.83398 5.22266,-2.16602 c 2.87325,-1.19087 5.68213,-2.16406 6.24218,-2.16406 z M 108.09569,208.224 c 1.25044,0.0381 2.45825,0.48364 3.41211,1.4375 3.65968,3.65968 2.69804,8.75928 -1.98828,10.54102 -1.37737,0.52367 -2.92525,0.95312 -3.43945,0.95312 -1.85632,0 -4.93555,-4.05494 -4.93555,-6.5 0,-3.55406 3.24966,-6.23164 6.41407,-6.42383 0.17979,-0.0109 0.35847,-0.0132 0.5371,-0.008 z m 92.18165,1.63672 4.38867,4.89844 c 2.41369,2.69327 4.40899,5.13592 4.43359,5.42969 0.0246,0.29377 -3.21758,1.80961 -7.20508,3.36718 -3.9875,1.55756 -7.74052,3.0236 -8.33984,3.25977 -0.59933,0.23617 -3.22016,-2.06325 -5.82422,-5.11133 -4.66551,-5.46104 -4.70054,-5.55532 -2.41016,-6.37891 1.27838,-0.45969 5.16646,-1.87738 8.64063,-3.15039 z m -93.07032,0.37695 c -0.58569,-0.0175 -1.20039,0.14169 -1.8125,0.52539 -2.36167,1.48045 -2.71725,4.7808 -0.73047,6.76758 1.96494,1.96494 2.57849,2.00475 4.88477,0.31836 3.16387,-2.31347 0.82092,-7.51701 -2.3418,-7.61133 z m -0.041,0.97266 c 0.44487,0.003 0.8505,0.45683 1.55274,1.4043 0.7988,1.07776 1.29932,2.42776 1.11133,3 -0.18799,0.57224 -1.2623,1.17717 -2.38672,1.34375 -2.71816,0.40269 -3.86902,-2.6682 -1.77344,-4.73047 0.68169,-0.67086 1.10356,-1.02006 1.49609,-1.01758 z m 117.97852,4.80859 2.83789,2.02149 c 5.35481,3.81297 5.54881,4.57425 2.04883,8.07422 -2.94156,2.94157 -3.05697,3.2985 -1.54297,4.8125 1.51399,1.51399 1.9617,1.47842 6.00976,-0.48828 l 4.37305,-2.125 5.22266,5.29101 c 6.80633,6.89194 6.64957,9.00643 -0.94922,12.78711 -3.025,1.50505 -9.1,3.61582 -13.5,4.69141 -8.77376,2.14477 -18.87329,3.24616 -22,2.39843 -1.1,-0.29823 -4.8612,-2.13514 -8.35938,-4.08203 l -6.36132,-3.54101 2.61132,-1.58399 c 1.43568,-0.87112 2.60938,-2.44255 2.60938,-3.49414 0,-1.75321 -0.5605,-1.86213 -6.75,-1.31054 -6.23026,0.55522 -6.97152,0.40641 -9.63281,-1.92383 -1.58582,-1.38855 -2.48582,-2.86042 -2,-3.27149 0.76877,-0.65049 8.5231,-3.78254 38.63281,-15.60547 z m -43.83594,0.91797 3.00977,2.85938 c 1.65528,1.57231 3.85215,4.03174 4.88281,5.46484 l 1.875,2.60547 -6.74023,2.64453 c -3.70703,1.4544 -6.95347,2.62883 -7.21485,2.61133 -0.26138,-0.0175 -2.95156,-2.25797 -5.97656,-4.98047 -6.29861,-5.66875 -6.29214,-5.6838 3.83203,-9.08008 z m -69.3418,4.05078 c 1.85547,-0.0766 23.38743,24.03698 27.54102,30.91797 0.46792,0.77517 0.19622,1.25 -0.71484,1.25 -2.78094,0 -28.42744,-30.62138 -26.91407,-32.13476 0.0211,-0.0211 0.0509,-0.0317 0.0879,-0.0332 z m 122.62891,3.78711 c 0.42424,0.003 0.80192,0.17481 1.19141,0.49805 1.94898,1.61752 1.69568,2.40811 -1.18946,3.72266 -5.49517,2.50377 -7.27964,0.74196 -2.81054,-2.77344 1.26202,-0.99271 2.10153,-1.45255 2.80859,-1.44727 z m -17.45117,3.88086 c -4.77028,0 -6.30129,0.43418 -8.36719,2.375 -1.39078,1.30657 -2.80612,3.63696 -3.14453,5.17774 -0.76315,3.4746 1.77471,8.71139 4.81445,9.93554 10.9444,4.40746 23.02725,-7.63332 15.11719,-15.06445 -2.12285,-1.9943 -3.6167,-2.42383 -8.41992,-2.42383 z m -0.11914,1.1211 c 4.96743,-0.07 10.11914,2.16407 10.11914,5.45117 0,2.79245 -2.65655,7.68218 -4.75977,8.75976 -5.67747,2.90886 -13.08252,1.41819 -14.61132,-2.9414 -1.29422,-3.69064 -0.0483,-7.57049 3.09375,-9.62891 1.68035,-1.10082 3.90028,-1.60883 6.1582,-1.64062 z m -130.17577,2.44922 c 6.15899,0.0552 14.76798,1.4021 24.55467,3.89062 10.58511,2.69154 12.08239,3.35399 15,6.64648 5.2207,5.89147 5.21784,6.00622 -0.20898,7.78125 -6.46206,2.11363 -6.68058,2.07839 -12.77539,-2.07812 -4.13031,-2.81678 -6.58298,-3.70504 -11.69727,-4.23438 -3.90794,-0.40449 -7.22101,-1.34926 -8.36523,-2.38476 -1.042,-0.943 -4.99099,-3.24399 -8.77538,-5.11524 l -6.880864,-3.40234 3.85351,-0.72266 c 1.46138,-0.27415 3.241924,-0.39925 5.294934,-0.38085 z m 130.83202,1.29492 c -1.14333,-0.0378 -2.53711,1.25821 -2.53711,2.74218 0,1.22634 0.70435,1.89258 2,1.89258 1.90672,0 2.83724,-2.83073 1.40234,-4.26562 -0.24484,-0.24485 -0.5451,-0.35856 -0.86523,-0.36914 z m -141.462884,1.63476 c 2.31185,0 12.339304,4.8935 15.847644,7.73438 l 2.41602,1.95703 -4.67969,2.33594 c -7.621244,3.80624 -7.494734,3.44128 -7.779294,22.72851 -0.13993,9.48444 -0.60915,17.24414 -1.04297,17.24414 -3.50773,0 -8.04833,-18.94392 -8.14843,-34 -0.09,-13.54409 0.74865,-18 3.38672,-18 z m 140.925774,0 c 0.55,0 1,0.45 1,1 0,0.55 -0.45,1 -1,1 -0.55,0 -1,-0.45 -1,-1 0,-0.55 0.45,-1 1,-1 z m -22.58594,5.1543 c 3.12353,-0.0939 3.63712,1.21314 0.65235,2.81055 -2.37414,1.27056 -4.11161,1.29195 -6.03711,0.0742 -2.04536,-1.29353 -0.8866,-2.11535 3.88867,-2.75585 0.55015,-0.0738 1.04987,-0.1155 1.49609,-0.12891 z m -59.26758,1.99023 c 1.78786,-0.12323 11.40953,4.361 14.54102,6.82422 2.18019,1.71494 2.28856,2.01691 0.69726,1.94141 -5.08195,-0.24108 -12.03057,-3.0054 -14.12304,-5.61719 -1.23127,-1.53691 -1.80051,-2.94204 -1.26367,-3.12305 0.0409,-0.0138 0.0908,-0.0214 0.14843,-0.0254 z m -33.34375,3.39649 c 1.08975,0.0325 2.139,0.17268 3.11524,0.43554 3.60772,0.97147 16.57406,9.45728 21.79492,14.26368 3.74825,3.45069 5.77325,14.92365 5.78125,32.75976 0.004,8.525 -0.3348,16.71775 -0.75195,18.20703 -0.43949,1.56901 -2.61753,3.98719 -5.17969,5.75 -4.12926,2.841 -5.02226,3.04297 -13.49219,3.04297 h -9.07031 l 0.006,-2.75 c 0.003,-1.5125 1.15196,-8.6 2.55273,-15.75 1.40078,-7.15 2.72327,-17.275 2.93946,-22.5 l 0.39257,-9.5 -0.98437,7 c -0.54122,3.85 -2.36703,14.97833 -4.05859,24.73047 -1.69155,9.75215 -2.82276,18.38987 -2.51368,19.19531 0.39976,1.04177 1.51587,1.31094 3.86524,0.92969 4.47537,-0.72626 31.1997,1.31669 42.2793,3.23242 8.38855,1.45043 25.13267,7.13294 24.08984,8.17578 -0.89698,0.89698 -30.12815,10.30926 -38.06836,12.25782 -14.36469,3.52515 -29.19511,2.03607 -38.79102,-3.89453 -1.90581,-1.17785 -5.25126,-4.07777 -7.43358,-6.44532 l -3.96875,-4.30468 -0.722664,-35.55664 c -0.39785,-19.55647 -0.43515,-37.09837 -0.082,-38.98047 1.024134,-5.45908 10.672544,-10.52613 18.300774,-10.29883 z m 39.25977,4.73437 c 0.1978,-0.005 0.45348,0.0438 0.77148,0.13867 0.91691,0.27369 4.81602,1.25168 8.66602,2.17188 3.85,0.92019 7.5625,2.37552 8.25,3.23438 2.06988,2.58577 1.49602,7.62288 -1.20117,10.5332 -2.19559,2.36908 -5.14233,3.15314 -8.04883,2.14062 -0.55,-0.1916 -3.55415,-1.05926 -6.67578,-1.92773 -5.50099,-1.53041 -20.82422,-10.8016 -20.82422,-12.59961 0,-0.4889 2.33775,-1.58362 5.19336,-2.43164 5.17707,-1.53743 5.19909,-1.53363 7.93945,1.0918 3.17281,3.03975 6.433,2.63971 5.56445,-0.68164 -0.30362,-1.16105 -0.22817,-1.65545 0.36524,-1.66993 z m 21.37109,0.91797 c 0.77366,0.0265 1.59742,0.0876 2.45313,0.1836 3.08706,0.34638 8.8455,0.97973 12.79492,1.4082 4.62918,0.50222 7.88616,1.41809 9.16797,2.57812 2.72217,2.46353 8.51578,13.76022 11.0957,21.63672 3.60153,10.99548 7.10798,30.42725 7.17578,39.76563 0.0676,9.30781 -0.97582,13.3703 -4.36133,16.98437 -3.83228,4.09102 -14.78391,2.26023 -34.2207,-5.71875 -8.13328,-3.33879 -18.40097,-5.55594 -30.97656,-6.68945 -11.46841,-1.03371 -11.76565,-1.46141 -3.89063,-5.59961 9.32229,-4.89872 22.94331,-8.74219 30.98243,-8.74219 8.35095,0 20.58698,2.48688 26.63476,5.41406 2.63381,1.27486 4.64087,1.81513 4.45899,1.20118 -0.18187,-0.61395 -2.20078,-1.99243 -4.48438,-3.06446 -3.98831,-1.87231 -4.21089,-2.22712 -5.68945,-9 -0.84658,-3.87797 -1.69219,-13.13521 -1.87891,-20.57226 -0.18672,-7.43704 -0.81525,-14.37351 -1.39648,-15.41211 -1.67402,-2.99132 -0.53657,24.56725 1.39062,33.68555 0.90119,4.26388 1.44117,7.95138 1.19922,8.19336 -0.24195,0.24194 -3.75518,-0.12009 -7.80664,-0.80274 l -7.36523,-1.24023 0.19336,-8.95118 c 0.15716,-7.28758 -0.39811,-11.18148 -2.98243,-20.95117 -1.74587,-6.6 -3.4822,-13.81699 -3.85937,-16.03711 -0.85121,-5.01042 -1.71386,-6.45524 -3.87695,-6.49414 -1.47431,-0.0265 -1.45005,-0.17134 0.19531,-1.12695 0.86313,-0.50129 2.72589,-0.72796 5.04687,-0.64844 z m -31.71484,11.6211 4.39062,2.24609 c 5.14998,2.63278 13.16454,4.91093 17.33594,4.92773 1.81108,0.007 3.97659,-0.97728 5.62305,-2.55468 l 2.67773,-2.56446 2.23242,8.26953 c 3.03107,11.23332 4.21928,20.3466 3.45704,26.49219 l -0.63672,5.13086 -6.64844,0.65625 c -3.65733,0.36099 -11.05303,2.13208 -16.43555,3.93555 -7.68094,2.57358 -9.64577,2.94202 -9.13281,1.71289 0.35947,-0.86133 0.87483,-6.96641 1.14648,-13.56641 0.45543,-11.0652 -0.79255,-23.06968 -3.36132,-32.34179 z m 46.43164,71.4746 c 1.15076,-0.005 2.15126,0.20457 3.22656,0.62696 2.75329,1.08152 2.85029,1.33493 2.23438,5.85742 -1.7649,12.95935 -1.71374,20.7631 0.18359,28.42383 l 1.90625,7.69922 -6.65039,2.01953 c -3.65736,1.11089 -9.5519,2.66908 -13.09961,3.46289 -17.81365,3.98585 -39.40137,1.9867 -53.00781,-4.9082 -4.4855,-2.27298 -19.62772,-13.63733 -21.18164,-15.89649 -0.40672,-0.5913 -0.45767,-1.74922 -0.11133,-2.57422 0.34634,-0.825 1.72274,-4.41918 3.05859,-7.98633 1.33586,-3.56714 2.53762,-6.59425 2.66993,-6.72656 l 0.002,-0.002 c 0.16873,-0.11639 2.71085,0.70991 5.67968,1.84766 4.06284,1.55698 7.97155,2.11903 15.43946,2.2246 5.5,0.0777 10.33033,0.59262 10.73437,1.14258 1.24426,1.69359 0.84798,6.72098 -0.89062,11.27344 -1.51063,3.9556 -1.51812,4.47993 -0.0781,5.91992 0.90663,0.9066 2.2983,1.3048 3.26562,0.9336 1.33522,-0.51237 1.55585,-1.42455 1.06055,-4.38672 -0.34393,-2.05692 -0.89483,-6.30745 -1.22461,-9.44336 -0.59449,-5.65326 -0.57675,-5.70539 2.26562,-6.29492 1.57668,-0.32701 8.94219,-2.55361 16.36719,-4.94727 7.425,-2.39367 14.44813,-4.63342 15.60742,-4.97656 1.91802,-0.56773 2.17783,-0.10411 2.88672,5.14843 1.14697,8.4985 1.01626,12.38976 -0.53906,16.01954 -1.21392,2.83301 -1.19381,3.44291 0.15039,4.78711 0.91786,0.9179 2.25446,1.26583 3.30859,0.86132 2.01783,-0.77431 1.95716,-2.01376 -0.86523,-17.70312 -0.97048,-5.39484 -1.59098,-9.98324 -1.37891,-10.19531 0.21207,-0.21206 2.39768,-0.90768 4.85743,-1.54688 1.67132,-0.4343 2.97228,-0.65515 4.12304,-0.66016 z m -7.42188,21.91407 c 0.2256,-0.009 0.32826,0.48534 0.40625,1.54687 0.0909,1.2375 0.21063,2.77435 0.26563,3.41602 0.055,0.64166 -0.46289,1.35481 -1.15039,1.58398 -1.4971,0.49903 -1.67306,-3.54798 -0.25,-5.75 0.33373,-0.51642 0.56389,-0.79053 0.72851,-0.79687 z m -39.9121,3.99609 c 0.10942,-0.002 0.17567,0.0945 0.18164,0.30078 0.0159,0.55 0.30117,2.0125 0.63281,3.25 0.44329,1.65413 0.17483,2.25 -1.01367,2.25 -1.78991,0 -2.12027,-2.67416 -0.61719,-5 0.33322,-0.51562 0.63404,-0.79663 0.81641,-0.80078 z m -33.53516,9.23633 c 0.50445,-0.0157 3.00083,1.55042 5.79687,3.65234 7.70691,5.79367 11.49526,7.54685 22.46289,10.39649 15.94927,4.14396 33.14685,3.44058 50.84766,-2.08008 4.33898,-1.35327 7.98147,-2.33433 8.09375,-2.18164 1.01203,1.37628 12.19308,36.21238 15.01367,46.77734 5.57881,20.89623 9.06256,30.90245 18.125,52.05664 8.50276,19.84774 9.4954,23.29997 6.96875,24.26953 -4.08215,1.56647 -25.68977,1.74785 -35.69531,0.29883 -13.12243,-1.90041 -24.68948,-4.48591 -25.42969,-5.68359 -0.30679,-0.4964 -0.6996,-12.72349 -0.87304,-27.17188 -0.31976,-26.63814 -1.62137,-38.48251 -5.99805,-54.58007 -1.51386,-5.56802 -1.47925,-5.64709 2.90625,-6.43164 0.0859,-0.0154 0.1402,-0.0323 0.16211,-0.0508 9.5e-4,-0.001 0.004,-0.004 0.006,-0.006 l 0.002,-0.002 c 4.7e-4,-9.5e-4 0.002,-0.005 0.002,-0.006 8e-5,-4.8e-4 10e-4,-0.005 0.002,-0.006 -7e-5,-4.9e-4 -0.001,-0.005 -0.002,-0.006 -2.2e-4,-4.9e-4 -0.002,-0.005 -0.002,-0.006 -7.5e-4,-0.001 -0.005,-0.005 -0.006,-0.006 -0.23335,-0.22673 -4.1791,-0.62196 -9.66406,-0.94336 -6.32501,-0.3706 -13.05234,-1.12972 -14.94922,-1.6875 -4.29631,-1.2633 -4.65133,-0.75487 -5.4961,7.85547 -0.35637,3.63232 -1.5211,12.00547 -2.58789,18.60547 -3.42516,21.19071 -5.07617,37.56006 -5.66797,56.18555 l -0.57812,18.1875 -2.61133,1.05078 c -1.43547,0.57779 -6.65937,1.50218 -11.60937,2.05469 -10.68624,1.19278 -10.65846,1.19341 -21.500004,-0.50196 -13.23996,-2.07042 -14.0002,-2.51653 -14,-8.20312 2.4e-4,-6.76396 4.86876,-30.83939 11.98437,-59.27344 3.112494,-12.43754 8.807954,-41.37618 11.867194,-60.29687 1.04895,-6.48753 2.10877,-11.99745 2.35547,-12.24414 0.0154,-0.0154 0.0406,-0.0224 0.0742,-0.0234 z m 139.58008,131.56445 c 13.92283,0 18.68969,3.3745 18.4668,13.07032 -0.24847,10.80835 -4.66145,16.65996 -15.4375,20.4707 -10.73354,3.7957 -26.56163,2.35242 -38.47461,-3.50977 -9.97809,-4.91006 -27.97516,-24.80415 -25.06836,-27.71093 0.24416,-0.24417 6.45372,0.30433 13.79883,1.2207 15.71062,1.96005 33.44216,1.04618 36.68945,-1.89258 1.37996,-1.24884 3.80923,-1.64844 10.02539,-1.64844 z m -119.83594,9.2793 c 0.88047,-0.0249 0.87022,1.36477 0.45703,6.85742 -1.75981,23.39337 -1.45343,21.76186 -4.81445,25.58984 -1.73198,1.97263 -5.8532,4.86419 -9.1582,6.42774 -6.92661,3.27688 -10.93695,3.49573 -18.1875,0.99023 -9.976234,-3.44738 -15.293774,-8.59029 -16.039064,-15.51367 -0.45354,-4.21318 -0.51456,-4.06057 7.87891,-19.65039 l 2.43359,-4.51953 4.45313,0.83203 c 4.960474,0.92685 29.457234,0.31478 32.218744,-0.80469 0.30425,-0.12334 0.55463,-0.20324 0.75781,-0.20898 z" /><path
       id="path1-1"
       style="fill:#000000;stroke-width:0.354126"
       d="m 159.4117,32.788873 c -0.25355,0.477204 3.61745,9.451474 3.6291,12.24708 0.002,0.548426 -0.1567,0.679446 -1.54585,1.272638 -1.24122,0.530031 -2.27799,0.816608 -2.409,0.666062 -0.0471,-0.05417 -0.25083,-0.736333 -0.45304,-1.515411 -1.43713,-5.536808 -3.56103,-11.494527 -4.29517,-11.887421 -0.31358,-0.167825 -5.36567,0.21765 -8.78697,1.904136 -0.57069,0.495603 -0.40915,1.225926 0.0815,2.763838 1.62735,5.766288 2.73042,12.096989 9.1381,14.296446 2.06599,0.443032 9.98022,0.187555 12.68004,-2.523835 0.82563,-0.829145 0.96075,-1.57896 0.6308,-3.490076 -0.69736,-3.689336 -3.15978,-14.621574 -3.74737,-15.539344 -0.1045,-0.163309 -4.86615,1.70061 -4.92214,1.805887 z m 4.46324,-0.956564 c 0.0663,0.107451 1.1515,4.862221 1.26088,5.524915 0.0795,0.481611 1.66746,7.807148 1.87921,8.669164 0.0689,0.280468 0.15358,0.97067 0.18814,1.534085 0.0948,1.544876 -0.16131,1.895971 -2.01478,2.758996 -1.2062,0.561633 -2.22373,0.858182 -3.73215,1.087971 -4.21315,0.507083 -8.56359,0.780316 -11.15221,-3.149092 -1.25389,-2.122275 -1.82165,-3.496798 -2.45951,-5.955125 -0.37768,-1.45558 -1.18823,-4.208055 -1.6821,-5.713043 -0.0864,-0.263169 -0.0629,-0.340223 0.14733,-0.477931 0.19219,-0.125927 3.95296,-1.191716 4.20524,-1.191716 0.37042,0 2.9593,10.748348 4.49435,12.238088 0.69899,0.678346 1.50994,0.945424 2.87728,0.948257 1.31004,0.0028 2.28124,-0.231004 4.00881,-0.964855 1.75184,-0.74417 2.0546,-1.062844 2.05281,-2.158648 -0.003,-1.566476 -1.57183,-6.749871 -3.36418,-11.112772 -0.60133,-1.406353 -0.46502,-1.01235 1.04218,-1.528534 1.1822,-0.398476 2.14509,-0.677254 2.2487,-0.50976 z m -10.12993,2.130987 c 0.0935,6.87e-4 0.17265,0.0091 0.2144,0.02488 0.16085,0.06114 0.66978,1.104214 1.38124,2.827473 0.38685,0.937034 0.64621,1.735102 1.81765,5.600996 0.49974,1.649154 1.23875,4.425345 1.23875,4.654124 0,0.149506 -0.0896,0.201966 -0.34374,0.201966 -0.18895,0 -0.36258,-0.06388 -0.38595,-0.141789 -0.068,-0.226485 -0.83938,-2.841441 -1.31828,-4.469457 -0.76812,-2.611044 -2.81584,-7.731565 -3.04189,-8.174633 l -0.22826,-0.448191 0.36382,-0.05396 c 0.10016,-0.01484 0.2087,-0.02213 0.30226,-0.02143 z m -1.35565,0.195046 c 0.28503,0.02146 0.57156,0.713255 2.2783,5.163182 0.36643,0.955361 1.30768,4.041063 2.0798,6.817615 0.078,0.280467 0.1786,0.624731 0.2234,0.764965 0.10612,0.332078 -0.055,0.328621 -0.80093,-0.01866 -0.81252,-0.37832 -1.08312,-0.834296 -1.75334,-2.955431 -0.31508,-0.997218 -1.12936,-3.530029 -1.80935,-5.627969 -0.68,-2.097941 -1.23668,-3.840105 -1.23668,-3.871869 0,-0.03177 0.16609,-0.09133 0.36866,-0.132104 0.20256,-0.04077 0.45463,-0.09835 0.56024,-0.127955 0.0311,-0.0087 0.0604,-0.01399 0.0899,-0.01176 z" /></g><text
     xml:space="preserve"
     style="font-size:112.769px;font-family:Nasalization;-inkscape-font-specification:Nasalization;text-align:start;writing-mode:lr-tb;direction:ltr;text-anchor:start;fill:#000000;stroke-width:13.3588"
     x="224.8775"
     y="144.67427"
     id="text1"><tspan
       sodipodi:role="line"
       id="tspan1"
       x="224.8775"
       y="144.67427"
       style="font-size:112.769px;stroke-width:13.3588">PHLIP</tspan></text></svg>
