<?xml version="1.0" encoding="UTF-8" standalone="no"?>
<!-- Created with Inkscape (http://www.inkscape.org/) -->

<svg
   version="1.1"
   id="svg1"
   width="210mm"
   height="297mm"
   viewBox="0 0 793.7008 1122.5196"
   xml:space="preserve"
   sodipodi:docname="scope.svg"
   inkscape:version="1.4.2 (ebf0e940d0, 2025-05-08)"
   xmlns:inkscape="http://www.inkscape.org/namespaces/inkscape"
   xmlns:sodipodi="http://sodipodi.sourceforge.net/DTD/sodipodi-0.dtd"
   xmlns="http://www.w3.org/2000/svg"
   xmlns:svg="http://www.w3.org/2000/svg"><sodipodi:namedview
     id="namedview1"
     pagecolor="#ffffff"
     bordercolor="#000000"
     borderopacity="0.25"
     inkscape:showpageshadow="2"
     inkscape:pageopacity="0.0"
     inkscape:pagecheckerboard="0"
     inkscape:deskcolor="#d1d1d1"
     inkscape:document-units="mm"
     inkscape:zoom="0.41386281"
     inkscape:cx="111.14794"
     inkscape:cy="506.20639"
     inkscape:window-width="1536"
     inkscape:window-height="888"
     inkscape:window-x="0"
     inkscape:window-y="0"
     inkscape:window-maximized="1"
     inkscape:current-layer="svg1" /><defs
     id="defs1" /><rect
     style="fill:#ffffff;stroke:#000000;stroke-width:0.312921;stroke-dasharray:none;stroke-opacity:0"
     id="rect2"
     width="793.53357"
     height="1122.1852"
     x="0.16725557"
     y="0.16725557" /><g
     id="g2"
     transform="matrix(3.4485019,0,0,3.4485019,-70.432802,5.4614079)"><path
       id="path2"
       style="fill:none;stroke:#000000;stroke-width:1.0675;stroke-dasharray:none"
       d="m 179.24414,181.58434 -0.49609,0.63867 c -0.74029,0.95574 -1.43626,3.45734 -1.96094,7.04102 -0.51102,3.49038 -1.37525,15.14038 -1.14062,15.375 0.81358,0.81359 1.82749,-1.31461 2.15625,-4.52344 0.13985,-1.36509 0.42118,-2.35087 0.76953,-2.69922 0.62059,-0.62059 3.60222,-1.42912 4.29297,-1.16406 0.24963,0.0958 0.55242,0.82646 0.67187,1.62304 0.2584,1.7231 0.8619,2.39054 1.60547,1.77344 0.47641,-0.39534 0.45397,-1.74659 -0.0586,-3.56836 -0.11623,-0.41314 0.11925,-0.5916 0.98437,-0.7539 1.03981,-0.19506 1.13672,-0.30724 1.13672,-1.31446 v -1.09961 l -1.46875,0.0957 -1.46875,0.0957 -1.18945,-3.35938 c -1.30539,-3.68475 -2.56809,-6.52953 -3.33788,-7.52148 z m 0.11914,4.37891 c 9.8e-4,-1.6e-4 0.003,3e-5 0.004,0 0.39592,0.03 3.05356,6.33968 2.69141,6.77539 l -0.002,0.002 h -0.002 c -0.0722,0.0624 -0.9587,0.20828 -1.9707,0.32226 l -1.83985,0.20704 c -0.0371,-2.46735 0.43007,-4.94149 1.10742,-7.29883 l 0.002,-0.002 0.002,-0.002 c 8.9e-4,-3.9e-4 0.005,-0.002 0.006,-0.002 z" /><path
       style="fill:#000000"
       d="m 140.48,310.52785 c -9.76471,-0.84742 -10.22058,-0.94193 -12.33742,-2.55776 l -1.47249,-1.12397 -1.33504,0.49787 c -4.30838,1.60668 -14.97244,2.22536 -23.19312,1.34556 -5.382627,-0.57607 -7.00908,-1.19872 -8.323043,-3.18629 -0.745109,-1.12709 -0.857573,-1.62004 -0.848983,-3.72123 0.0083,-2.0275 0.162772,-2.72723 0.948371,-4.29562 1.755384,-3.50451 4.83585,-5.41103 9.041725,-5.59599 2.44258,-0.10742 3.12027,-0.35584 2.32,-0.85043 -0.43965,-0.27171 -0.40176,-1.94852 0.15295,-6.76956 0.74976,-6.51618 1.14743,-15.70012 1.42505,-32.91044 0.14195,-8.8 0.22044,-16.04452 0.17443,-16.09895 -0.046,-0.0544 -1.18604,0.64161 -2.53339,1.54674 -2.87192,1.92931 -4.15727,2.38752 -5.299038,1.88903 -0.926081,-0.40433 -4.061785,-3.93686 -4.872494,-5.48912 -0.729065,-1.39594 -1.43002,-5.35901 -1.691836,-9.56533 l -0.211481,-3.39763 -1.917115,-1.88237 c -2.432102,-2.38802 -3.279351,-3.95532 -2.986209,-5.52408 0.300435,-1.6078 5.328146,-17.13003 7.371496,-22.75828 3.727691,-10.26765 7.910097,-20.09765 8.779677,-20.63508 0.18038,-0.11148 0.32796,-0.38551 0.32796,-0.60896 0,-0.39525 -5.530451,-5.21829 -8.761238,-7.64056 -0.883669,-0.66253 -1.711377,-1.37401 -1.839349,-1.58108 -0.852724,-1.37974 5.723483,-7.29476 10.120857,-9.10328 0.79041,-0.32507 1.4017,-0.69509 1.35842,-0.82226 -0.0433,-0.12717 -2.06502,-1.36443 -4.49277,-2.74947 l -4.414073,-2.51826 -1.665922,0.45234 c -4.473717,1.21471 -12.635503,-0.79495 -18.638715,-4.58937 -2.241746,-1.41693 -2.670697,-1.86497 -4.561068,-4.76402 -4.638883,-7.11414 -5.399318,-9.45267 -5.078912,-15.61891 0.23534,-4.52914 0.90892,-7.77387 2.7695,-13.34109 5.308113,-15.882921 9.076438,-20.959659 19.203272,-25.870908 2.376,-1.152297 5.261052,-2.715286 6.411226,-3.473308 1.683196,-1.109309 2.775843,-1.5361 5.600002,-2.187376 1.92982,-0.445035 4.75718,-0.897051 6.28302,-1.00448 2.55419,-0.179833 3.02377,-0.112919 5.92,0.843575 4.1974,1.386213 8.81106,3.578168 10.86232,5.160702 2.72709,2.103935 3.86051,4.060521 4.61909,7.973721 0.35809,1.847244 0.83974,3.453172 1.0752,3.584944 2.44382,1.36763 14.77681,11.98464 18.91489,16.28312 6.34174,6.58756 11.07171,12.89057 15.82658,21.09001 1.27578,2.2 2.95308,4.792 3.72733,5.76 9.57241,11.96784 18.18147,24.06139 21.27383,29.88434 l 1.17065,2.20433 2.42217,0.0357 c 1.44045,0.0212 2.58112,0.1947 2.81433,0.42805 0.53281,0.53313 0.86793,3.12831 0.896,6.93853 l 0.0234,3.17092 -1.31847,1.74631 c -0.72516,0.96047 -2.43345,2.89781 -3.7962,4.30519 l -2.47772,2.55889 0.31303,2.92388 c 0.95948,8.96207 -3.62035,38.02001 -6.47534,41.08448 -1.92359,2.06474 -11.78738,2.93486 -18.72705,1.652 -1.36834,-0.25295 -1.90887,-0.24666 -2.07626,0.0242 -0.45091,0.72959 -1.12077,12.14919 -1.07013,18.24322 0.0499,6.00759 0.54763,12.27871 1.55918,19.64557 0.50078,3.64703 1.22789,6.83435 2.59776,11.38731 1.78495,5.93256 2.93022,11.03397 2.57549,11.47209 -0.18925,0.23373 -1.03023,0.77265 -1.86885,1.19762 l -1.52477,0.77265 0.501,1.19906 c 0.98253,2.35153 -0.20499,7.82137 -2.33478,10.75423 -1.41199,1.9444 -2.99169,2.67298 -7.46689,3.44384 -3.31949,0.57178 -10.95623,0.97968 -13.77,0.73549 z m 10.82779,-1.90368 c 4.45384,-0.54496 7.51648,-1.2294 8.58797,-1.91923 0.38267,-0.24637 1.17467,-1.42074 1.76001,-2.60971 0.96976,-1.96987 1.06423,-2.42078 1.06423,-5.07933 0,-3.94991 -0.16827,-4.12635 -2.96478,-3.10877 -3.40115,1.23759 -8.58649,2.32517 -12.13383,2.54496 -2.86992,0.17783 -3.5328,0.11375 -5.55714,-0.53716 -1.39143,-0.44741 -2.93365,-1.24112 -3.90791,-2.01123 l -1.60939,-1.27215 -1.62095,0.37416 c -6.62907,1.53018 -9.52602,10.04872 -4.29054,12.61645 2.60715,1.27867 13.927,1.82736 20.67233,1.00201 z m -29.72466,-1.8829 c 1.31072,-0.27132 2.85872,-0.65027 3.44,-0.84211 1.04163,-0.34377 1.05708,-0.37729 1.07092,-2.32398 0.0187,-2.62637 0.75375,-4.53701 2.93853,-7.63795 0.30377,-0.43115 0.27253,-0.77316 -0.15193,-1.66326 l -0.53433,-1.12049 -3.23239,1.08856 c -6.23214,2.09877 -10.70349,2.23004 -15.83393,0.46486 -4.00084,-1.37654 -7.13361,-1.58858 -9.354554,-0.63315 -2.252737,0.9691 -4.370774,3.27421 -5.021315,5.46482 -0.618306,2.08206 -0.631006,2.90421 -0.06537,4.2317 1.329363,3.11988 4.497546,3.78779 17.001239,3.58417 4.95238,-0.0806 8.13958,-0.28123 9.74313,-0.61317 z m 31.28954,-10.1405 c 5.14195,-1.34681 12.88733,-4.84757 12.88733,-5.82483 0,-0.2148 -0.44223,-1.53902 -0.98274,-2.9427 -0.93964,-2.44021 -2.57082,-8.2799 -3.84164,-13.75325 -2.23888,-9.64274 -3.10692,-23.98573 -2.16413,-35.75865 0.20783,-2.59525 0.31209,-4.78444 0.23167,-4.86485 -0.0804,-0.0804 -1.22101,0.1276 -2.53468,0.46224 -5.29827,1.3497 -15.01863,2.75586 -22.1665,3.20663 -5.85213,0.36906 -9.9247,0.082 -14.30198,-1.00819 -3.40658,-0.84842 -5.33569,-1.697 -8.56059,-3.76569 -1.39883,-0.89732 -2.60095,-1.63127 -2.67137,-1.63101 -0.0704,2.6e-4 -0.15918,6.08426 -0.19725,13.52 -0.0943,18.42394 -0.64331,30.39108 -1.89444,41.29548 -0.48714,4.24574 -0.48372,4.44135 0.0885,5.07499 0.82077,0.90886 3.90019,2.41952 6.10018,2.99254 2.43216,0.6335 8.11214,0.62698 10.26306,-0.0118 2.28084,-0.67734 7.18838,-2.96912 7.00239,-3.27006 -0.0842,-0.13619 -0.47843,-3.19828 -0.87612,-6.80464 -1.02611,-9.3049 -0.92074,-17.59692 0.37406,-29.43702 0.49481,-4.52472 0.76802,-5.35322 1.84318,-5.58936 0.90401,-0.19856 3.17472,0.18629 5.06133,0.85781 l 1.01292,0.36054 0.231,3.38551 c 0.12705,1.86203 0.0446,9.46762 -0.18315,16.90131 -0.22778,7.43369 -0.32484,15.92969 -0.21567,18.88 0.23118,6.24794 0.21518,6.2173 3.88392,7.43818 4.22375,1.40558 7.07084,1.4759 11.61073,0.28679 z m -20.35803,-2.53845 c 0.70902,-0.36171 1.98721,-0.74034 2.84041,-0.84139 1.51796,-0.17978 1.5487,-0.20517 1.4309,-1.18233 -0.41333,-3.42882 -0.43141,-6.87768 -0.0975,-18.59861 0.21131,-7.4181 0.26777,-15.30172 0.1299,-18.14011 l -0.24385,-5.02012 -0.97499,-0.33988 c -1.11242,-0.38779 -3.73835,-0.44598 -4.28694,-0.095 -0.38549,0.24664 -1.0923,6.98246 -1.73719,16.5551 -0.35866,5.32398 -0.24319,9.91715 0.34592,13.76 0.16188,1.056 0.51542,3.83823 0.78563,6.18272 0.49817,4.32235 0.40409,5.21737 -0.58845,5.59825 -0.38343,0.14713 -0.35294,0.39128 0.18455,1.47764 0.35413,0.71577 0.70656,1.30139 0.78318,1.30139 0.0766,0 0.71942,-0.29595 1.42845,-0.65767 z m -30.33067,-57.45923 c 1.26282,-0.81229 2.90803,-1.97393 3.65603,-2.58142 1.30459,-1.05952 1.36,-1.17703 1.36,-2.88432 0,-1.58458 -0.12284,-1.91576 -1.12,-3.01949 -0.616,-0.68184 -1.12,-1.50595 -1.12,-1.83136 0,-0.51002 -0.35495,-0.61902 -2.57271,-0.79004 -3.490311,-0.26915 -4.88901,-0.74364 -6.580125,-2.23222 -0.789231,-0.69471 -1.506808,-1.19127 -1.594616,-1.10346 -0.08781,0.0878 0.0074,2.44555 0.211536,5.23943 0.340836,4.66442 0.439111,5.17136 1.201865,6.19978 0.910671,1.22786 3.904704,4.48 4.124437,4.48 0.07565,0 1.170763,-0.6646 2.433583,-1.4769 z M 140.48,235.48175 c 8.08228,-0.92165 18.88,-3.10298 18.88,-3.81409 0,-0.16922 -0.66,-0.30767 -1.46668,-0.30767 -4.03017,0 -10.8478,-2.74495 -13.5641,-5.46126 -3.08416,-3.08416 -3.84006,-5.5089 -3.84542,-12.33523 l -0.004,-4.8365 -3.05324,-1.47611 c -3.51674,-1.7002 -3.76738,-2.06065 -4.38645,-6.3081 l -0.36734,-2.52033 1.42351,-3.27867 c 1.6062,-3.69941 2.17723,-4.25025 5.57991,-5.38259 l 2.04237,-0.67966 0.19603,-1.82077 c 0.16215,-1.50597 1.04609,-6.37358 1.67437,-9.22029 0.13704,-0.6209 -0.24597,-0.52136 -4.43959,1.15376 -2.52426,1.00831 -6.80702,2.60129 -9.51725,3.53997 l -4.92768,1.70668 0.19979,9.45955 c 0.21135,10.00686 0.5556,15.56498 1.36877,22.09955 0.87321,7.01698 2.70899,15.03911 4.28053,18.70538 l 0.64554,1.50597 3.28037,-0.20971 c 1.8042,-0.11534 4.50436,-0.34929 6.00036,-0.51988 z m -8.4,-15.02739 c -0.689,-0.40131 -0.74167,-1.98523 -0.0842,-2.53092 0.74231,-0.61606 2.04,-0.13079 2.28752,0.85542 0.16451,0.65547 0.0481,0.98276 -0.51058,1.43512 -0.82844,0.67083 -0.92918,0.68514 -1.69279,0.24038 z m -1.99988,-15.12928 c -0.94503,-1.4423 0.50502,-2.92157 1.94134,-1.98045 0.92529,0.60627 1.00139,1.4745 0.19335,2.20577 -0.81601,0.73847 -1.55425,0.66055 -2.13469,-0.22532 z m -1.10406,-12.82573 c -0.21026,-0.25336 -0.3359,-0.86536 -0.27918,-1.36 0.18807,-1.64016 2.82312,-1.30803 2.82312,0.35583 0,1.34378 -1.70389,2.01636 -2.54394,1.00417 z m 1.09769,42.78064 c -0.62609,-1.49369 -1.83663,-5.72094 -2.55718,-8.92975 -2.03408,-9.05833 -3.01415,-18.5486 -3.25825,-31.55024 l -0.19074,-10.16 h -0.75379 c -0.83021,0 -0.97679,-0.65179 -0.45514,-2.02385 0.27564,-0.72498 0.19103,-0.82661 -1.09801,-1.3189 -1.5342,-0.58592 -5.21171,-2.96496 -9.47742,-6.13109 -1.51623,-1.12539 -2.82818,-2.04616 -2.91543,-2.04616 -0.50494,0 -2.10879,17.17123 -3.29335,35.25952 -0.39468,6.02669 -0.42654,8.56816 -0.15552,12.40517 0.18747,2.6541 0.47317,5.17367 0.6349,5.59904 0.37083,0.97537 6.12461,5.02269 9.12618,6.41954 3.66697,1.70651 8.93749,2.94953 12.75424,3.00801 1.66667,0.0255 1.84824,-0.0333 1.63951,-0.53129 z m 32.77555,-4.76728 c 1.75125,-0.18304 2.0374,-0.31216 2.44694,-1.10411 0.82797,-1.60112 0.6806,-1.72271 -2.17953,-1.79818 -3.38271,-0.0893 -6.90706,-1.00296 -10.34234,-2.68127 -5.51461,-2.69417 -8.66915,-7.43341 -8.40106,-12.62135 l 0.10669,-2.06474 -1.12,-0.44776 -1.12,-0.44777 -0.26148,1.80623 c -0.14381,0.99343 -0.17801,3.46223 -0.076,5.48623 0.15664,3.10756 0.31875,3.95315 1.04216,5.43592 2.7754,5.68879 11.36457,9.32941 19.9046,8.4368 z m 14.1107,-0.28324 c 4.10901,-0.65955 4.00264,-0.60688 4.75417,-2.35385 1.14966,-2.67246 3.62651,-13.52162 3.18724,-13.96088 -0.0764,-0.0764 -1.06647,0.0165 -2.20016,0.20644 -2.20016,0.36864 -9.54552,0.17702 -13.04597,-0.34032 l -2.02473,-0.29925 -1.73405,1.33919 c -0.95373,0.73656 -1.73461,1.50883 -1.73528,1.71616 -0.002,0.7429 1.94336,8.91709 2.28187,9.58619 0.36003,0.71163 0.12526,3.01478 -0.41151,4.03684 -0.27282,0.5195 0.002,0.55991 3.79717,0.55872 2.25019,-7.1e-4 5.45925,-0.22087 7.13125,-0.48924 z m -12.14569,-5.86702 c -0.36074,-1.07083 -0.81087,-3.06646 -1.0003,-4.43471 -0.49335,-3.56368 -0.34024,-3.41613 -2.44404,-2.3554 -2.88059,1.45238 -5.76212,2.26814 -8.76522,2.48144 -2.44756,0.17384 -2.82405,0.12691 -3.37119,-0.42023 -0.33875,-0.33875 -1.33089,-2.55489 -2.20474,-4.92474 l -1.58882,-4.30882 -0.0984,1.54075 c -0.17553,2.74897 0.47692,4.84919 2.23585,7.19721 0.88255,1.17812 1.91467,2.40515 2.29359,2.72672 1.22271,1.03765 6.41627,3.37985 8.63584,3.8946 2.5638,0.59459 6.73378,1.05581 6.8682,0.75966 0.0523,-0.11523 -0.20006,-1.08564 -0.56079,-2.15648 z M 104.64,223.72571 c 0,-0.66755 -0.42221,-1.33683 -1.5645,-2.48 -2.65242,-2.65447 -2.98755,-5.06222 -2.26755,-16.29118 0.67704,-10.55894 2.19575,-26.22831 3.05055,-31.47422 0.26884,-1.64983 0.42033,-3.06815 0.33666,-3.15182 -0.62431,-0.62431 -8.475774,19.47047 -12.51487,32.03015 -1.729739,5.37867 -2.084172,6.8183 -1.820905,7.39611 0.179794,0.3946 1.483797,1.6324 2.897786,2.75065 1.413989,1.11826 2.51057,2.09352 2.436847,2.16725 -0.19927,0.19927 -1.418581,-0.65898 -3.7686,-2.65265 -1.153995,-0.979 -2.170475,-1.78001 -2.258845,-1.78001 -0.08837,0 -0.334945,0.77874 -0.547944,1.73052 -0.354182,1.58265 -0.330145,1.82295 0.281313,2.8123 1.416381,2.29176 7.957525,7.92008 10.053914,8.65088 0.951885,0.33183 4.319174,1.07595 5.286144,1.16816 0.23557,0.0225 0.4,-0.3377 0.4,-0.87614 z m -0.17363,-5.10047 c -0.1197,-1.37212 -0.0511,-5.08012 0.15238,-8.24 0.43627,-6.77409 1.87299,-25.34557 2.10311,-27.18524 0.0881,-0.704 0.45075,-3.42491 0.80599,-6.04647 0.35524,-2.62155 0.6068,-4.7933 0.55902,-4.82611 -1.19129,-0.81797 -1.70982,-1.12742 -1.88916,-1.12742 -0.48161,0 -1.28834,6.69919 -2.85159,23.68 -1.20141,13.05028 -1.51038,20.36791 -0.95731,22.67334 0.34231,1.42692 1.62713,3.56665 2.14163,3.56665 0.0845,0 0.0556,-1.12264 -0.0641,-2.49475 z M 156.8,218.03662 c 6.03415,-1.69577 12.53685,-6.70961 14.82606,-11.4315 1.43362,-2.95707 1.8504,-4.8618 1.87228,-8.55653 0.0145,-2.45772 -0.12735,-3.38944 -0.77496,-5.08859 -0.43602,-1.144 -1.47877,-3.88 -2.31722,-6.08 -0.83845,-2.2 -2.23797,-6.304 -3.11005,-9.12 -2.26525,-7.31461 -3.2485,-9.53243 -4.82397,-10.88098 -1.26908,-1.08628 -1.98631,-1.37214 -2.20547,-0.87902 -0.0587,0.132 -0.89867,0.87952 -1.86667,1.66115 -2.43984,1.97012 -3.1595,2.82342 -3.35743,3.98093 -1.09959,6.43052 -1.4286,13.44094 -0.91561,19.50963 l 0.20695,2.44829 h 4.11305 c 2.5287,0 4.11304,0.12326 4.11304,0.32 0,0.18485 -1.11497,0.33371 -2.64,0.35246 -7.71773,0.0949 -8.47645,0.73565 -8.86615,7.48754 -0.19073,3.30464 -0.22006,3.42211 -0.47942,1.92 -0.32995,-1.91099 0.19769,-6.07375 0.95564,-7.53947 0.6344,-1.22679 0.49231,-1.39599 -0.94573,-1.12621 -1.62489,0.30483 -2.83449,1.47643 -3.89463,3.7723 -0.84911,1.83883 -0.92936,2.31854 -0.92572,5.53338 l 0.004,3.51999 2.02136,5.27679 c 1.11175,2.90223 2.18996,5.39272 2.39601,5.53441 0.5153,0.35435 4.47652,-0.0137 6.61464,-0.61457 z m 28.17783,-5.12645 c 0.43667,-0.43667 2.26642,-10.19321 2.20817,-23.09045 -0.009,-1.95206 -0.19281,-3.57364 -0.49687,-4.37972 -0.51515,-1.36572 -2.35877,-6.6661 -2.36523,-6.8 -0.002,-0.044 -0.53706,-0.08 -1.18876,-0.08 -1.43804,0 -11.64222,-2.05216 -13.54849,-2.72473 -0.75154,-0.26516 -1.44367,-0.40487 -1.53807,-0.31048 -0.27391,0.27391 1.74642,6.57469 3.96548,12.36714 2.68101,6.9983 2.83882,7.68986 2.60612,11.42116 -0.30101,4.82686 -1.54523,8.03097 -4.50052,11.58973 -0.78936,0.95055 -1.362,1.80146 -1.27253,1.89093 0.66375,0.66374 15.4765,0.77066 16.13074,0.11642 z m -40.36224,-5.52462 c -0.19673,-0.91731 -0.30653,-2.91832 -0.24401,-4.4467 0.0959,-2.34405 0.27039,-3.08859 1.11526,-4.75835 1.04564,-2.06655 0.98485,-2.3405 -0.5193,-2.3405 -1.29182,0 -4.80754,-1.31225 -4.80754,-1.79443 0,-0.34308 0.19071,-0.42818 0.64,-0.28557 0.56693,0.17993 0.64,0.0575 0.64,-1.07227 0,-0.70146 0.0962,-1.526 0.21371,-1.8323 0.18606,-0.48486 0.0722,-0.52899 -0.88,-0.3411 -0.60154,0.1187 -1.83013,0.57454 -2.7302,1.01299 -1.52189,0.74135 -1.71867,0.97694 -2.80981,3.36397 -1.49985,3.28114 -1.62517,3.97615 -1.17896,6.5385 0.53601,3.07801 0.85488,3.58048 2.87666,4.5331 2.34084,1.10295 7.83115,3.30123 7.94947,3.1829 0.0508,-0.0508 -0.0685,-0.84293 -0.26528,-1.76024 z m 3.48351,-12.59217 c 0.25213,-0.3038 0.10611,-0.5394 -0.57744,-0.9317 -0.80079,-0.45959 -0.93777,-0.46548 -1.09828,-0.0472 -0.36372,0.94783 -0.1813,1.38553 0.57744,1.38553 0.41845,0 0.91268,-0.18298 1.09828,-0.40662 z m -1.74191,-6.2371 c 1.69686,-8.6631 3.2205,-12.68187 6.42358,-16.94291 1.33571,-1.77689 4.19075,-4.43452 5.81813,-5.41584 1.04767,-0.63176 0.18943,-0.87467 -1.64213,-0.46478 -2.69483,0.60307 -5.95516,2.37981 -7.60646,4.14518 -3.5179,3.76093 -5.72083,10.99605 -6.18911,20.32708 l -0.2157,4.29809 0.76725,0.14487 c 0.42199,0.0797 0.91125,0.16281 1.08725,0.18473 0.176,0.0219 0.87674,-2.80247 1.55719,-6.27642 z m 7.12785,3.15383 c -0.63746,-6.12367 -0.48968,-15.18536 0.30316,-18.59011 l 0.18629,-0.8 -0.66037,0.8 c -1.04383,1.26453 -2.76523,4.73734 -3.68398,7.43215 -0.92026,2.69924 -2.75014,10.07385 -2.75014,11.08337 0,0.40644 0.53313,0.95799 1.50082,1.55269 1.41859,0.87179 1.60464,0.90561 3.39569,0.61717 l 1.89487,-0.30516 z M 189.16983,182.8 c 3.14747,-3.26394 5.33811,-6.18446 5.53549,-7.37981 0.16926,-1.02505 -0.26767,-7.01775 -0.5298,-7.26645 -0.0525,-0.0498 -1.06752,-0.1936 -2.25552,-0.31946 -2.02822,-0.21488 -2.16,-0.18947 -2.16,0.41645 0,0.90066 -2.06104,5.72974 -3.38098,7.92171 -0.60446,1.0038 -1.09902,1.94862 -1.09902,2.09959 0,0.22049 0.73746,2.57918 1.76587,5.64797 0.22247,0.66384 0.59133,0.46934 2.12396,-1.12 z m -58.67745,-1.19209 c 5.18552,-1.88928 9.58511,-3.57744 12.11531,-4.64874 1.4517,-0.61466 1.7135,-0.87498 2.20093,-2.18841 1.51998,-4.09576 4.26299,-7.20874 7.91972,-8.9879 2.02473,-0.98512 5.23371,-1.94286 6.50965,-1.94286 0.56304,0 1.10782,-0.7189 2.7281,-3.6 1.9792,-3.51934 4.82672,-9.76696 5.25054,-11.52 l 0.21276,-0.88 h -3.26443 c -5.64302,0 -12.42281,1.7904 -19.49749,5.14888 -8.63153,4.09754 -11.87208,7.55874 -15.23888,16.27649 -0.62403,1.61581 -2.20874,5.44735 -3.52159,8.51454 -1.31285,3.06718 -2.387,5.70985 -2.387,5.8726 0,0.4 1.34608,0.005 6.97238,-2.0446 z M 122.76225,179.44 c -0.38907,-2.14123 -1.15655,-9.42002 -1.15934,-10.99535 -0.002,-1.26393 0.19468,-1.91802 0.86706,-2.88 0.75053,-1.07378 0.88668,-1.62861 0.99171,-4.04134 0.12167,-2.79479 0.12114,-2.79701 -0.78996,-3.29759 -0.50145,-0.27551 -4.43529,-2.19394 -8.74187,-4.26318 l -7.83016,-3.76226 -3.36984,2.34374 c -3.672534,2.55427 -6.860553,5.22435 -7.366502,6.16972 -0.46532,0.86946 0.423455,1.80013 6.983142,7.31232 9.38136,7.88326 18.51498,14.42613 20.16913,14.44814 0.31744,0.004 0.38435,-0.27633 0.24663,-1.0342 z m 3.47113,-5.46118 c 0.97164,-2.38791 1.76591,-4.53002 1.76504,-4.76024 -10e-4,-0.30609 -0.73578,-0.43871 -2.73354,-0.49349 l -2.73196,-0.0749 0.16481,1.0349 c 0.0906,0.5692 0.31796,2.40291 0.50516,4.07491 0.56095,5.01029 0.67773,5.60786 0.9877,5.05397 0.1519,-0.27142 1.07115,-2.44724 2.04279,-4.83515 z m 60.98991,-1.4294 c 1.9006,-4.33367 1.95131,-5.25808 0.437,-7.96591 -1.86836,-3.34095 -7.02878,-10.93271 -11.06493,-16.27819 -5.72326,-7.57989 -9.37229,-12.27506 -9.46668,-12.18067 -0.0478,0.0478 0.14824,0.77664 0.43552,1.61977 0.61018,1.79077 0.4578,5.27092 -0.32634,7.45325 -0.48484,1.34935 -0.483,1.35888 0.29995,1.55539 1.21311,0.30447 1.29343,1.42103 0.30344,4.21816 -0.90065,2.54475 -3.79141,8.53729 -5.55854,11.52286 -0.55149,0.93174 -1.00271,1.82805 -1.00271,1.99178 0,0.16374 0.396,0.50372 0.88,0.75551 1.74384,0.90722 2.9427,2.77246 4.54615,7.07312 l 0.8331,2.2345 2.39038,0.56569 c 3.74759,0.88689 11.55406,2.45809 12.79037,2.5743 1.56804,0.1474 2.80249,-1.26147 4.50329,-5.13956 z m -57.43166,-7.74003 1.58846,-3.19061 -3.53004,-1.3799 -3.53005,-1.37989 -0.19921,2.8905 c -0.10957,1.58978 -0.37207,3.44401 -0.58333,4.12051 -0.21126,0.67651 -0.3032,1.31092 -0.20432,1.4098 0.25194,0.25194 2.36631,0.63949 3.72845,0.6834 1.13492,0.0366 1.15087,0.0182 2.73004,-3.15381 z m 8.12596,-9.76779 c 6.90999,-4.59375 19.12983,-8.8016 25.56035,-8.8016 h 2.2574 l 0.30603,-1.2 c 0.65298,-2.56038 0.70823,-3.29671 0.38243,-5.09724 -0.39369,-2.17574 -4.9744,-13.02618 -8.2539,-16.70483 C 132.25058,94.163962 128.46676,88.528425 129.16031,100.32 c 0.19148,3.25558 -0.1486,4.14328 -1.1009,6.88 -1.99833,5.7428 -5.27816,11.94351 -8.97089,16.96 -3.19136,4.33538 -10.89263,11.79767 -16.68855,16.17067 -1.144,0.86315 -2.27123,1.75479 -2.50495,1.98144 -0.233724,0.22664 -0.718524,0.56919 -1.077333,0.76122 -0.549035,0.29384 -0.583101,0.41588 -0.215047,0.77042 1.65154,1.5909 19.32454,10.39454 28.59733,14.24549 l 5.12,2.12632 1.69158,-1.8509 c 0.93036,-1.018 2.68807,-2.51337 3.90601,-3.32306 z M 94.070503,143.18253 c 4.579273,-1.0793 15.641637,-9.5646 21.401617,-16.41594 2.57807,-3.06655 5.23071,-6.90834 5.28848,-7.65925 0.0452,-0.58692 -12.04885,-6.99061 -12.22404,-6.47255 -0.0569,0.16824 -1.13684,1.85633 -2.39987,3.75132 -3.82912,5.74499 -10.89286,12.16699 -16.413042,14.92192 -2.632061,1.31357 -6.676188,2.42151 -9.792487,2.68277 -1.702004,0.14269 -2.171159,0.29276 -2.171159,0.69452 0,1.06577 1.689022,5.65685 2.266962,6.16203 1.109203,0.96956 7.96106,2.73668 10.853038,2.79904 0.616,0.0133 2.051725,-0.19545 3.190501,-0.46386 z M 79.028989,140.4 c -0.0061,-0.044 -0.491448,-1.448 -1.078647,-3.12 l -1.067636,-3.04 -1.801352,-0.096 c -1.034005,-0.0551 -1.801352,0.0383 -1.801352,0.21917 0,0.77154 0.761643,2.20398 1.699627,3.19653 1.522715,1.61129 4.132133,3.44157 4.04936,2.84027 z m -0.308987,-6.96521 c 1.848,-0.17858 4.434052,-0.60383 5.746783,-0.94501 2.295782,-0.59667 6.38774,-2.23875 6.40375,-2.56978 0.0043,-0.088 -0.526607,-0.448 -1.179695,-0.8 -1.736501,-0.93594 -2.941032,-2.85081 -3.370535,-5.35823 -0.313407,-1.82966 -0.264673,-2.71668 0.357621,-6.50912 1.269984,-7.73964 4.081337,-14.84876 7.561597,-19.121148 3.674259,-4.510537 11.306407,-7.55992 16.288527,-6.507991 l 1.24804,0.263513 -0.20222,-1.93474 c -0.11122,-1.064108 -0.43269,-2.948052 -0.71438,-4.186544 -0.43758,-1.923867 -0.74848,-2.51037 -2.13485,-4.027279 -2.7989,-3.062438 -5.51636,-3.934882 -10.381287,-3.332916 -4.861635,0.60156 -10.822685,2.954922 -14.983351,5.915277 -2.419337,1.721381 -5.488947,4.912905 -7.005638,7.283874 -2.656246,4.15238 -7.48335,16.639874 -8.687941,22.475304 -0.839648,4.06752 -0.97845,8.93331 -0.319867,11.21312 0.715486,2.4768 2.445588,5.75301 3.837492,7.26688 1.271019,1.38238 1.730706,1.43575 7.535954,0.87479 z m 15.877226,-5.94351 c 4.933175,-3.62335 10.518762,-10.08764 13.340212,-15.43884 3.04342,-5.77217 4.92565,-13.778764 4.18816,-17.815488 -0.27558,-1.508391 -0.34238,-1.585731 -1.72613,-1.998289 -1.80703,-0.538756 -4.15894,-0.292148 -7.35947,0.771673 -2.64406,0.878858 -3.942061,1.57825 -6.029494,3.248831 -1.33805,1.070846 -1.381996,1.162038 -1.186913,2.462944 0.421602,2.811449 -1.336202,9.804329 -2.945178,11.716489 -1.215896,1.44501 -2.239899,1.7398 -3.305866,0.9517 l -0.865798,-0.64011 -0.200912,0.7049 c -0.675875,2.37133 -1.527814,7.17557 -1.685912,9.50718 -0.15963,2.35421 -0.08919,2.94404 0.520966,4.36238 0.755391,1.75596 1.848585,2.98028 3.356165,3.75873 1.066546,0.55073 0.877865,0.62775 3.90017,-1.5921 z m 6.623692,-14.52663 c -1.586322,-0.65478 -1.720291,-2.09189 -0.58874,-6.31551 1.38414,-5.16642 3.59307,-8.691909 5.79177,-9.243747 1.02665,-0.257671 1.58643,-0.01123 2.23991,0.986102 0.48289,0.736988 0.49844,1.091925 0.14445,3.297195 -0.50202,3.12746 -1.92068,7.38474 -3.00868,9.02882 -1.30461,1.9714 -3.10549,2.85524 -4.57871,2.24714 z m 3.73908,-9.80846 c 1.144,-0.40682 2.38765,-0.74339 2.76367,-0.74793 0.56285,-0.007 0.72174,-0.26214 0.89909,-1.44485 0.27436,-1.829545 -0.3076,-3.165992 -1.43614,-3.298011 -1.41802,-0.165884 -2.92002,1.178448 -4.22643,3.782781 -1.353,2.69719 -1.43535,3.04372 -0.64019,2.69398 0.308,-0.13547 1.496,-0.57916 2.64,-0.98597 z M 123.83549,113.52 c 3.50095,-7.27816 3.65601,-8.00426 3.42825,-16.053194 -0.27287,-9.64326 -1.17427,-12.530813 -4.94876,-15.853009 -2.05657,-1.810134 -3.96792,-2.789391 -9.7048,-4.972153 -4.39317,-1.671508 -4.14147,-1.685384 -6.93236,0.382178 l -1.04218,0.772075 1.68218,0.875324 c 2.05518,1.069414 4.47442,4.097976 5.18508,6.491008 0.26713,0.899523 0.7206,3.310007 1.00771,5.356632 0.94805,6.758057 0.22771,12.560649 -2.29096,18.454299 -0.60481,1.41524 -1.09965,2.71966 -1.09965,2.8987 0,0.17905 2.12705,1.30158 4.72677,2.49453 2.59972,1.19295 5.29972,2.5158 6,2.93966 0.70028,0.42387 1.39069,0.77141 1.53425,0.77231 0.14356,9e-4 1.24807,-2.05036 2.45447,-4.55836 z m -29.986013,-10.96 1.508126,-0.64 0.0012,-1.84 c 6.6e-4,-1.012002 -0.11839,-1.840002 -0.264554,-1.840002 -0.474451,0 -3.254247,4.246062 -3.254247,4.970772 0,0.11141 0.112804,0.15456 0.250674,0.0959 0.137871,-0.0587 0.929331,-0.39466 1.758801,-0.74666 z m 1.830525,-24.800002 c 0,-0.176 -0.0635,-0.32 -0.141114,-0.32 -0.07761,0 -0.230112,0.144 -0.338886,0.32 -0.108774,0.176 -0.04527,0.32 0.141115,0.32 0.186387,0 0.338885,-0.144 0.338885,-0.32 z m 10.426258,-1.591187 c 1.2224,-0.85629 1.66989,-1.333402 1.36159,-1.451709 -0.59825,-0.229568 -10.172963,1.672178 -10.724825,2.130183 -0.232662,0.193093 -0.423038,0.441446 -0.423056,0.551895 -1.8e-5,0.11045 1.792207,0.165785 3.982721,0.122967 l 3.98276,-0.07785 z"
       id="path1" /></g><text
     xml:space="preserve"
     style="font-size:112.769px;font-family:Nasalization;-inkscape-font-specification:Nasalization;text-align:start;writing-mode:lr-tb;direction:ltr;text-anchor:start;fill:#000000;stroke:none;stroke-width:8.64861;stroke-dasharray:none"
     x="197.30566"
     y="144.06131"
     id="text1"><tspan
       sodipodi:role="line"
       id="tspan1"
       x="197.30566"
       y="144.06131"
       style="stroke:none;stroke-width:8.64861">SCOPE</tspan></text></svg>
