<?xml version="1.0" encoding="UTF-8" standalone="no"?>
<!-- Created with Inkscape (http://www.inkscape.org/) -->

<svg
   version="1.1"
   id="svg1"
   width="210mm"
   height="297mm"
   viewBox="0 0 793.7008 1122.5196"
   sodipodi:docname="echo.svg"
   inkscape:version="1.4.2 (ebf0e940d0, 2025-05-08)"
   xmlns:inkscape="http://www.inkscape.org/namespaces/inkscape"
   xmlns:sodipodi="http://sodipodi.sourceforge.net/DTD/sodipodi-0.dtd"
   xmlns="http://www.w3.org/2000/svg"
   xmlns:svg="http://www.w3.org/2000/svg">
  <sodipodi:namedview
     id="namedview1"
     pagecolor="#ffffff"
     bordercolor="#000000"
     borderopacity="0.25"
     inkscape:showpageshadow="2"
     inkscape:pageopacity="0.0"
     inkscape:pagecheckerboard="0"
     inkscape:deskcolor="#d1d1d1"
     inkscape:zoom="0.46535019"
     inkscape:cx="137.53083"
     inkscape:cy="708.0689"
     inkscape:window-width="1536"
     inkscape:window-height="888"
     inkscape:window-x="0"
     inkscape:window-y="0"
     inkscape:window-maximized="1"
     inkscape:current-layer="svg1"
     inkscape:document-units="mm" />
  <defs
     id="defs1" />
  <rect
     style="fill:#ffffff;stroke:#000000;stroke-width:1.5412;stroke-opacity:0"
     id="rect1"
     width="793.70081"
     height="1122.5197"
     x="0"
     y="5.6843419e-14" />
  <g
     id="g4"
     transform="matrix(3.4624894,0,0,3.4624894,605.28642,35.85346)">
    <path
       id="path3"
       style="fill:#000000"
       d="m -90.572266,17.740234 c -0.481012,-0.0031 -1.003587,0.204203 -1.591796,0.623047 -1.557378,1.108948 -1.875092,4.069008 -0.601563,5.603516 0.212691,0.256277 0.54619,3.385641 0.806641,7.568359 0.244254,3.922603 0.663965,8.778206 0.93164,10.791016 0.726652,5.464116 0.848221,5.030477 -2.019531,7.144531 -1.375682,1.014127 -2.958343,2.291135 -3.517578,2.837891 -0.996742,0.974501 -1.015625,1.052099 -1.015625,3.939453 0,1.61999 0.354003,8.192386 0.787109,14.603515 1.309802,19.3885 1.55123,25.764406 1.332031,35.015628 -0.112593,4.752 -0.29428,10.00767 -0.404296,11.67969 l -0.199219,3.04101 1.242187,0.6875 c 0.683066,0.37882 1.853563,0.87076 2.601563,1.0918 0.736312,0.21757 1.340663,0.48566 1.359375,0.60156 v 0.002 0.002 c 0,0.11279 -0.52007,0.39496 -1.15625,0.625 -0.63618,0.23005 -1.680493,0.87718 -2.320313,1.43945 -0.63982,0.56228 -2.140187,1.49532 -3.333984,2.07227 -3.608195,1.74369 -9.744245,8.00167 -20.818355,21.23437 -6.47268,7.73434 -9.81947,10.29098 -14.98633,11.44727 -2.31283,0.51759 -3.70892,0.0709 -5.75586,-1.84375 -1.84766,-1.72827 -2.66177,-3.70245 -3.17383,-7.69532 -0.48537,-3.78464 -0.0253,-7.95361 1.33008,-12.04101 l 1.0332,-3.11719 1.15039,0.25781 c 1.89303,0.4246 3.86098,0.2478 4.7832,-0.43164 0.89413,-0.65873 2.58887,-3.43324 2.60157,-4.25976 0.005,-0.33351 0.93265,-0.76952 2.94726,-1.38282 8.83744,-2.69034 11.49485,-4.22823 13.19532,-7.64062 1.09501,-2.19739 1.05535,-3.80827 -0.16407,-6.88086 -1.98377,-4.99859 -5.90782,-12.81873 -6.25781,-12.46875 -0.0828,0.0828 0.27671,2.29122 0.79883,4.90625 1.18759,5.94801 1.36678,7.2227 1.07812,7.67383 -0.32373,0.50593 -4.14035,2.3592 -7.86718,3.82031 l -3.15821,1.23633 -0.60351,-0.74414 c -0.72387,-0.89395 -0.72852,-1.23279 -0.11524,-6.75196 0.74274,-6.68428 0.43898,-6.02251 3.7793,-8.24023 1.61403,-1.07159 3.41555,-2.18721 4.00391,-2.47852 1.31871,-0.65292 1.17754,-0.89771 -0.27735,-0.48046 -0.59695,0.17121 -2.60359,0.53583 -4.45898,0.80859 -6.59499,0.96954 -9.15883,2.28112 -10.60938,5.42969 -0.69992,1.51926 -0.79364,5.72592 -0.27148,12.15625 0.18255,2.24832 0.25967,4.15829 0.17187,4.24609 -0.0878,0.0878 -0.83016,-0.009 -1.64843,-0.21484 -1.97234,-0.49665 -2.65625,-0.038 -3.99414,2.67968 -0.85753,1.74262 -0.99821,2.33325 -0.85547,3.59961 0.13938,1.23657 0.007,1.8413 -0.72071,3.28516 -2.31918,4.60366 -3.71707,11.57552 -3.43164,17.10547 0.33522,6.4946 2.33047,11.55921 6.01172,15.25976 2.6417,2.65555 4.2911,3.30106 8.4707,3.31446 2.70554,0.009 3.05312,-0.0692 5.2793,-1.17383 3.74222,-1.85689 10.23959,-7.91844 17.53906,-16.36328 4.07767,-4.71751 14.208529,-13.4904 18.195317,-15.75586 0.971002,-0.55181 1.097007,-0.5542 2.144531,-0.0547 0.611672,0.29169 1.803099,0.61875 2.648438,0.72656 1.26372,0.16118 1.818764,0.0501 3.125,-0.61914 l 1.589843,-0.81445 0.726563,0.68359 c 0.97675,0.91761 3.634487,4.80501 4.773437,6.98047 l 0.921875,1.75977 0.101563,7.99804 c 0.12672,10.04455 -0.153382,12.37909 -1.818359,15.19922 -0.676142,1.14526 -2.334907,3.95419 -3.685547,6.24219 -1.35064,2.288 -2.415958,4.43718 -2.367188,4.77539 0.05195,0.36026 0.486418,0.74288 1.048828,0.92383 0.527943,0.16986 0.995475,0.33707 1.039063,0.37109 -0.04014,0.19331 -1.205459,1.93557 -2.220703,3.74805 -2.625112,4.68658 -7.849205,15.21458 -11.333985,22.8418 -10.144336,22.20312 -13.233656,27.83856 -19.640626,35.82226 -1.63044,2.03169 -2.93945,3.96334 -2.93945,4.33985 0,0.43527 1.10247,1.75969 3.07226,3.6914 l 3.07227,3.01172 -0.74414,0.48828 c -0.99196,0.6493 -2.41566,1.81229 -3.87891,3.08594 l -0.0293,-0.002 c -0.21178,0.18904 -0.43096,0.42189 -0.64454,0.61914 -0.82946,0.74167 -1.68754,1.48879 -2.40625,2.20508 l 0.10352,0.01 c -4.62392,4.74669 -9.20543,10.82338 -11.35352,15.35547 -0.91895,1.93893 -0.9253,2.76663 -0.0195,2.76563 0.28917,-3.8e-4 3.33363,-0.36238 6.76563,-0.80665 17.31566,-2.24144 26.558123,-4.41554 28.953123,-6.81054 2.0908,-2.09081 3.403805,-5.55767 4.146485,-10.95117 l 0.03906,-0.28321 -0.125,-0.01 c 8.76e-4,-0.0109 0.0011,-0.0223 0.002,-0.0332 0.0963,-1.21873 -0.195868,-1.08264 4.535156,-2.09961 3.510777,-0.75466 3.839983,-1.14754 4.320313,-5.13671 0.96347,-8.0018 3.309898,-17.83877 8.205078,-34.40235 4.59858,-15.55998 6.589189,-20.10173 9.105469,-20.77929 1.90169,-0.51208 8.554913,0.56501 9.339843,1.51171 0.65504,0.79005 0.419096,4.25673 -0.833984,12.24805 -0.62094,3.96 -1.712634,11.65437 -2.427734,17.09961 -1.29712,9.87717 -2.231141,15.30093 -3.712891,21.57813 -0.430751,1.8248 -0.695804,3.58999 -0.589844,3.92382 0.10595,0.33383 1.203137,1.41395 2.439453,2.40039 l 2.248047,1.79493 -0.24414,2.92187 c -0.04845,0.58062 -0.08752,1.12223 -0.117188,1.62891 l -0.04297,-0.004 c -0.203116,3.03638 -0.0078,4.71034 0.654297,6.07813 3.662488,4.93361 8.54824,8.33219 13.970703,10.96875 4.172692,1.95212 12.889124,5.36428 16.214844,6.34765 1.45273,0.42957 2.954461,0.78983 3.337891,0.79883 1.02327,0.025 1.768796,-0.86219 1.566406,-1.86328 -0.09345,-0.46222 -0.457747,-2.56934 -0.810547,-4.68359 -0.68644,-4.11372 -1.93147,-8.18758 -3.36914,-11.03516 -0.204636,-0.40531 -0.672718,-1.08604 -0.994141,-1.625 l 0.0059,-0.0566 c -0.477634,-0.81947 -1.006544,-1.65993 -1.595703,-2.54492 -1.13783,-1.70916 -2.507762,-3.4777 -3.044922,-3.92969 l -0.976562,-0.82227 1.201172,-0.50195 c 2.06733,-0.86379 2.104934,-1.24742 0.746093,-7.83789 -1.483499,-7.19508 -1.89051,-10.81748 -2.40039,-21.39258 -0.67545,-14.00896 -1.029683,-17.93 -2.283203,-25.32617 -1.19188,-7.03255 -1.624209,-12.21783 -1.261719,-15.11914 0.152538,-1.22085 0.236997,-1.63079 0.654297,-1.89063 l 0.660156,-0.27343 0.0078,-0.002 c 0.175985,-0.0585 0.347018,-0.13051 0.511718,-0.21289 l 0.195313,-0.0801 c 2.51548,-1.04043 2.952747,-3.09152 1.591797,-7.4629 -1.28396,-4.12408 -1.501574,-5.16533 -1.777344,-8.54296 -0.53914,-6.60327 0.842199,-20.52051 2.505859,-25.25391 0.5616,-1.59786 1.931071,-3.91224 3.494141,-5.9082 0.50413,-0.64375 0.685786,-0.68784 1.566406,-0.38086 0.95629,0.33337 1.088968,0.62186 3.304688,7.1289 6.60558,19.39906 13.449435,35.54229 18.5410154,43.74024 2.13433,3.43651 5.376235,7.89693 7.609375,10.46875 1.53843991,1.77176 1.6862256,2.06582 1.3535156,2.6875 -0.52565,0.98219 -0.19815125,3.67211 0.57421875,4.71679 0.58236995,0.78766 0.64782185,1.38452 0.66992185,6.09766 0.01349,2.87266 0.1881719,6.03342 0.3886719,7.02539 0.3814,1.88746 1.4255939,3.98876 2.4335937,4.90039 1.6514501,1.49355 8.2047718,4.00834 14.8886718,5.71094 2.16893,0.5525 4.195906,1.07436 4.503906,1.16016 1.38967,0.3871 0.276725,-0.88897 -2.890625,-3.31446 -5.21876,-3.99642 -8.705624,-7.08343 -9.076171,-8.03515 -0.192801,-0.4952 -0.278823,-2.38224 -0.203126,-4.46289 0.15255,-4.19387 0.647258,-5.27775 2.492188,-5.45899 2.24231,-0.22027 7.829199,2.54985 8.755859,4.3418 0.25747,0.49789 1.066105,2.91537 1.796875,5.37304 2.05997,6.92803 3.233268,10.38868 3.523438,10.38868 0.31093,0 0.438317,-0.77827 1.179687,-7.19922 0.31821,-2.75603 0.56036,-7.25331 0.56836,-10.56055 0.01251,-5.30575 -0.04648,-5.90598 -0.732422,-7.60547 -0.40957,-1.01474 -1.109351,-2.27896 -1.556641,-2.81054 -1.49353,-1.77496 -2.221911,-1.95338 -9.355468,-2.29493 l -6.582032,-0.3164 -0.904297,-1.08789 c -1.2053388,-1.45002 -1.9626396,-1.83277 -4.0312496,-2.03516 -1.70476,-0.16679 -1.7670279,-0.20786 -3.3613282,-2.31055 -4.9925999,-6.58465 -12.8516179,-21.97394 -20.3984372,-39.93945 -3.68955,-8.78314 -6.000105,-14.52489 -6.521485,-16.20508 -0.40071,-1.29132 -0.38728,-1.34834 0.5625,-2.24023 1.26727,-1.19002 2.159063,-3.14805 2.164063,-4.75391 0.0053,-1.73261 -1.224591,-4.25382 -2.712891,-5.56054 -1.21688,-1.06844 -1.239249,-1.0742 -3.880859,-0.93555 -2.13683,0.11215 -3.021613,0.32638 -4.507813,1.08594 l -1.847656,0.94335 -5.734375,-0.16601 c -6.77697,-0.19728 -7.688762,-0.65117 -2.513672,-1.25 4.43129,-0.51275 9.449865,-1.48101 12.177735,-2.34961 1.18261,-0.37656 2.312728,-0.65599 2.511718,-0.62109 0.6181,0.10823 5.149653,-4.98331 6.007813,-6.75 0.93893,-1.93297 1.543851,-4.60976 2.238281,-9.90821 l 0.492188,-3.75195 1.34375,-1.20898 c 2.28827,-2.05796 3.197815,-3.089366 3.666015,-4.158208 0.35354,-0.8071 0.448453,-2.951601 0.439453,-9.919921 -0.01206,-9.38914 -0.337841,-14.873602 -0.925781,-15.582032 -0.1951,-0.23508 -0.949291,-0.522502 -1.675781,-0.638671 l -1.322266,-0.210938 0.216797,-4.869141 c 0.24717,-5.5538 0.765143,-13.041111 1.001953,-14.484375 l 0.160157,-0.974609 -3.441407,-0.703125 c -4.15476,-0.849069 -10.548557,-1.663462 -23.123047,-2.943359 -5.192,-0.528468 -12.247687,-1.265613 -15.679687,-1.638672 -8.33369,-0.905874 -20.532448,-0.998716 -26.054688,-0.199219 -2.098188,0.303771 -3.878198,0.488989 -3.955078,0.412109 -0.07688,-0.07688 -0.271466,-1.91186 -0.43164,-4.078125 -0.160174,-2.166265 -0.579809,-6.877445 -0.933594,-10.46875 l -0.642578,-6.529296 0.71289,-0.761719 c 1.063895,-1.132464 1.249685,-4.55305 0.298829,-5.503907 -0.425384,-0.425381 -0.864691,-0.639475 -1.345704,-0.642578 z m -0.167968,0.638672 c 0.02222,-6.25e-4 0.04386,5.81e-4 0.06641,0.002 0.216467,0.01273 0.450535,0.115205 0.77539,0.289063 0.508116,0.271934 0.580166,0.600661 0.462891,2.128906 -0.08209,1.069786 -0.356511,2.049966 -0.671875,2.398438 -1.191833,1.316961 -2.673828,0.248035 -2.673828,-1.929688 0,-1.048912 0.189812,-1.525098 0.847656,-2.134766 0.553235,-0.51272 0.859992,-0.744525 1.19336,-0.753906 z m -0.640625,6.369141 c 0.278965,0 0.579185,0.32275 0.666015,0.71875 0.133841,0.610388 1.060653,11.110206 1.603516,18.160156 0.113998,1.480448 0.0273,2.311456 -0.302734,2.880859 -0.216183,0.372969 -0.414721,0.636278 -0.482422,0.654297 h -0.002 -0.002 -0.002 -0.002 -0.002 -0.002 v -0.002 h -0.002 l -0.002,-0.002 v -0.002 h -0.002 c -0.0011,-0.002 -0.0032,-0.007 -0.0039,-0.0098 -0.02151,-0.088 -0.08764,-0.646728 -0.148437,-1.242187 -0.0608,-0.595459 -0.331494,-3.11507 -0.59961,-5.599609 -0.268116,-2.484542 -0.568268,-5.884641 -0.667968,-7.556641 -0.0997,-1.672 -0.264756,-4.157484 -0.367188,-5.521485 -0.159849,-2.128571 -0.115023,-2.478515 0.320313,-2.478515 z M -73.580078,45.8125 c 6.42404,0.0036 10.601762,0.288803 21.919922,1.492188 4.048,0.430396 9.159375,0.93816 11.359375,1.128906 9.55864,0.828759 22.876265,2.595772 23.359375,3.099609 0.088,0.09177 -1.415034,1.662341 -3.339844,3.490235 l -3.5,3.324218 -1.939453,-0.04492 c -1.06719,-0.02442 -4.603375,-0.301644 -7.859375,-0.615234 -21.50377,-2.07105 -42.467429,-3.32579 -50.074219,-2.998047 -1.76369,0.07599 -5.410053,0.19062 -8.103515,0.255859 l -4.898438,0.119141 0.09766,-0.988281 c 0.08276,-0.842271 0.620259,-1.386207 3.617188,-3.66211 1.936,-1.470221 3.903352,-2.875879 4.371094,-3.123046 1.459428,-0.7712 8.663434,-1.482116 14.990234,-1.478516 z m 42.408203,4.820312 c -0.822738,-0.02454 -1.795917,0.331071 -2.433594,0.96875 -1.15431,1.154312 -1.20718,2.343607 -0.15039,3.400391 1.49046,1.490467 4.135595,0.732721 4.515625,-1.292969 0.19568,-1.043107 -0.239109,-2.322723 -0.949219,-2.796875 -0.265897,-0.177543 -0.60845,-0.268141 -0.982422,-0.279297 z m -0.117187,0.673829 c 0.527425,0.0052 0.995021,0.205623 1.238281,0.660156 0.46151,0.862343 0.09632,2.46156 -0.654297,2.863281 -1.33943,0.716843 -3.195313,-0.100387 -3.195313,-1.40625 0,-1.20276 1.450989,-2.128545 2.611329,-2.117187 z m 14.130859,2.095703 -0.212891,2.873047 c -0.59918,8.05092 -1.510307,25.115209 -1.810547,33.912109 -0.4297,12.59018 -1.346028,20.90715 -2.736328,24.84766 -0.49961,1.41607 -2.093341,3.65433 -4.238281,5.95117 -0.69853,0.748 -1.447752,1.36133 -1.664062,1.36133 -0.278052,0 -0.340138,-0.39989 -0.210938,-1.36133 0.10052,-0.748 0.271396,-3.59036 0.378906,-6.31836 0.10751,-2.728 0.480418,-8.05584 0.830078,-11.83985 0.76146,-8.24055 1.501058,-22.336867 1.773438,-33.794917 l 0.199219,-8.353515 3.845703,-3.638672 z m -79.558594,2.3125 13.248047,0.0098 c 16.18536,0.01024 15.092019,-0.05702 56.199219,3.458985 2.27357,0.19447 2.306197,0.208064 1.841797,0.871094 -0.36149,0.516089 -0.473563,1.728542 -0.476563,5.164062 -0.0057,7.82968 -1.035296,28.961582 -1.753906,36.007815 -0.24231,2.376 -0.598486,7.12855 -0.791016,10.56055 -0.59263,10.56383 -0.625506,10.84399 -1.347656,11.23047 -1.15116,0.61608 -7.991362,1.91036 -13.544922,2.56445 -5.19321,0.61163 -17.150996,1.01455 -21.759765,0.73242 -10.125611,-0.61984 -23.540439,-3.08537 -28.572266,-5.25 l -1.644531,-0.70703 0.144531,-1.32422 c 0.08052,-0.7289 0.299675,-5.28693 0.486328,-10.12696 0.403348,-10.459004 0.103378,-19.044162 -1.447266,-41.279292 -0.251617,-3.608 -0.487274,-7.764678 -0.521484,-9.236328 z m 3.832031,4.507812 c -1.056729,0.87395 -1.178688,2.469061 -0.705078,9.150391 0.689676,9.72942 0.810551,13.666142 0.958985,31.212893 l 0.136718,16.1582 3.38086,0.87109 c 4.911177,1.26537 17.927528,2.99456 26.892578,3.57227 3.5481,0.22864 14.68746,-0.14749 18.3125,-0.61914 2.88821,-0.37578 8.651017,-1.6431 11.634765,-2.55664 0.358631,-0.10981 0.526207,-0.59915 0.566407,-1.66211 0.14681,-3.88121 0.704455,-13.52817 1.041015,-18.001954 0.20523,-2.728 0.388502,-11.72519 0.408204,-19.99414 l 0.03711,-15.035157 -0.931641,-0.447265 c -0.56552,-0.27179 -2.890252,-0.564831 -5.919922,-0.744141 -6.57292,-0.389 -16.649723,-1.118693 -24.189453,-1.751953 -8.19418,-0.68823 -30.843707,-0.796874 -31.623047,-0.152344 z m 11.345704,0.251953 c 9.98708,0.06488 15.717301,0.323234 27.638671,1.246094 3.344,0.25887 9.636525,0.677478 13.984375,0.929688 7.66282,0.4445 9.007906,0.665653 9.259766,1.527343 0.06572,0.22489 0.03278,6.818391 -0.07227,14.650391 -0.16678,12.43412 -0.396142,17.750678 -1.507812,35.019535 l -0.22461,3.50195 -2.880859,0.75 c -1.584,0.41213 -4.462437,1.04335 -6.398437,1.4043 -2.91886,0.54418 -5.105602,0.67461 -12.800782,0.75781 -5.104,0.0552 -9.78439,0.0419 -10.40039,-0.0293 -0.616,-0.0712 -3.279922,-0.35011 -5.919922,-0.61914 -7.52251,-0.76657 -17.892242,-2.37295 -20.640625,-3.19726 -0.418743,-0.12559 -0.48569,-2.52359 -0.53125,-18.787114 -0.03698,-13.20247 -0.200946,-20.803295 -0.560547,-26.046875 -0.65907,-9.61037 -0.658726,-9.594104 0.212891,-10.458984 0.717524,-0.71196 0.753765,-0.713938 10.841797,-0.648438 z M -86.103516,65.125 c -0.468259,-0.0016 -0.972423,0.16804 -1.603515,0.53125 -1.516039,0.87251 -2.033495,0.869567 -2.65625,-0.01953 -0.393538,-0.56186 -0.498047,-0.600808 -0.498047,-0.179688 0.602866,1.45373 1.54975,1.642852 2.855469,0.859375 0.714442,-0.43555 1.465011,-0.624168 2.160156,-0.542968 1.27575,0.148927 1.423122,-0.283154 0.201172,-0.589844 -0.151368,-0.03799 -0.302898,-0.05807 -0.458985,-0.05859 z m 15.046875,5.431641 c -1.359876,0.0073 -2.225672,0.966159 -2.923828,3.205078 -0.64541,2.06976 -1.201172,6.361463 -1.201172,9.277343 V 85.1875 l -1.519531,0.201172 c -0.836,0.10997 -1.736,0.228472 -2,0.263672 -0.58559,0.07813 -0.629423,-0.209017 0.654297,4.214844 l 1.060547,3.654296 2.101562,0.132813 c 2.22437,0.14105 10.275661,-0.01393 10.462891,-0.201172 0.06065,-0.06064 0.403509,-1.539199 0.761719,-3.287109 0.3582,-1.74791 0.729972,-3.430282 0.826172,-3.738282 0.15196,-0.4864 0.614192,-0.560546 3.513672,-0.560546 1.778759,-10e-7 3.252148,0.102173 3.351562,0.228515 l 0.002,0.002 0.002,0.002 v 0.002 0.002 l 0.002,0.002 v 0.002 c 0.0099,0.132 0.128762,1.713485 0.263672,3.515625 0.13492,1.80214 0.341475,3.372734 0.458985,3.490234 0.43201,0.43201 3.369825,0.715775 7.609375,0.734375 3.76388,0.0165 4.419728,-0.05696 4.861328,-0.544922 0.28073,-0.3102 1.143338,-2.29059 1.917969,-4.40039 l 1.408203,-3.835938 -2.578125,-0.160156 -2.578125,-0.158203 0.08398,-4.160156 c 0.11934,-5.8706 -0.903802,-9.424789 -2.794922,-9.705079 -1.99376,-0.29549 -3.444664,3.466463 -4.146484,10.757813 -0.15745,1.63571 -0.338697,3.019972 -0.404297,3.076172 -0.06562,0.05615 -3.612859,0.198406 -7.88086,0.316406 l -7.759765,0.214844 -0.0059,-3.609375 c -0.008,-4.57408 -0.454169,-7.69765 -1.361329,-9.53125 -0.63292,-1.27931 -0.846276,-1.450963 -1.910156,-1.539063 -0.09516,-0.0079 -0.186685,-0.0122 -0.277344,-0.01172 z m 0.134766,0.386718 c 0.973808,-0.0227 1.768891,1.157887 2.285156,3.427735 0.96195,4.2294 0.900727,4.415312 -2.496093,7.839844 -1.64501,1.658428 -3.104744,3.015624 -3.246094,3.015624 -0.42535,10e-7 0.08476,-8.334417 0.636718,-10.398437 0.61205,-2.28873 1.201369,-3.264917 2.261719,-3.748047 0.192002,-0.08748 0.378259,-0.132514 0.558594,-0.136719 z m 23.435547,0.28711 c 0.141146,-0.0026 0.276249,0.03359 0.404297,0.111328 0.85471,0.51888 1.694323,2.516953 2.064453,4.908203 l 0.341797,2.201172 -1.84375,2.027344 c -1.01364,1.11556 -2.224185,2.566416 -2.691407,3.222656 -0.467207,0.65625 -1.102156,1.195219 -1.410156,1.199219 -0.47034,0.0057 -0.558781,-0.288565 -0.550781,-1.833985 0.01352,-2.47379 1.050166,-8.318527 1.728516,-9.748047 0.630817,-1.329339 1.345397,-2.076739 1.957031,-2.08789 z m 30.316406,0.876953 h 1.041016 c 0.69378,0 1.112222,0.186877 1.257812,0.560547 0.34179,0.87718 0.892963,17.485245 0.695313,20.947265 -0.20391,3.57178 -0.542239,4.394571 -2.574219,6.267578 -0.80158,0.738878 -1.538672,1.343748 -1.638672,1.343748 h -0.002 -0.002 l -0.002,-0.002 h -0.002 v -0.002 h -0.002 l -0.002,-0.002 c -0.08641,-0.12316 -0.08312,-1.477716 0.01172,-3.113278 0.09955,-1.716 0.322937,-7.152078 0.498047,-12.080078 0.17511,-4.928 0.408821,-10.075453 0.519531,-11.439453 z m -23.18164,13.304687 c 0.165148,0.13197 -2.221583,6.776788 -2.632813,7.330079 -0.19657,0.26447 -1.064127,0.576269 -1.929687,0.693359 -1.460271,0.19755 -1.557462,0.168372 -1.332032,-0.398438 0.2344,-0.58937 0.910512,-3.851586 1.294922,-6.253906 l 0.185547,-1.162109 2.152344,-0.148438 c 1.18382,-0.0814 2.201419,-0.108741 2.261719,-0.06055 z m -11.46875,0.134766 v 1.392578 c -10e-7,0.76544 0.0932,2.493284 0.207031,3.839844 l 0.207031,2.447265 h -1.267578 c -2.10744,0 -2.365405,-0.395607 -2.578125,-3.960937 -0.21305,-3.57113 -0.138638,-3.704891 2.070312,-3.712891 z m 0.810546,0 c 0.0026,-2.78e-4 0.0054,0 0.0078,0 0.07761,0 0.140625,0.144312 0.140625,0.320313 0,0.175999 -0.151511,0.320312 -0.337891,0.320312 -0.18642,0 -0.251348,-0.144312 -0.142578,-0.320312 0.105381,-0.170502 0.252433,-0.3117 0.332031,-0.320313 z m -16.402343,0.320313 h 1.875 c 1.28749,-10e-7 1.876993,0.12587 1.876953,0.40039 -6e-5,0.39236 -0.810842,4.900756 -1.107422,6.160156 -0.12335,0.52376 -0.451205,0.65325 -1.802734,0.71875 -1.64791,0.07983 -1.649647,0.07831 -1.472657,-0.80664 0.09755,-0.48777 0.279647,-2.143458 0.404297,-3.679688 z M -78.669922,86.1875 h 1.71875 1.71875 l 0.201172,2.160156 c 0.11074,1.188 0.2803,2.699375 0.375,3.359375 0.17033,1.1865 0.159562,1.199219 -0.923828,1.199219 -1.05958,0 -1.112844,-0.06043 -1.621094,-1.839844 -0.28905,-1.012 -0.738657,-2.523375 -0.998047,-3.359375 z m -5.695312,10.011719 c -1.286358,0.03617 -2.553993,0.46211 -2.775391,1.039062 -0.102221,0.26638 0.09926,0.767235 0.447266,1.115235 1.29701,1.29701 4.953125,0.5778 4.953125,-0.97461 0,-0.67096 -0.206114,-0.832365 -1.371094,-1.078125 -0.39512,-0.08335 -0.82512,-0.113618 -1.253906,-0.101562 z m -0.121094,0.453125 c 0.388323,-0.01809 0.790852,8.85e-4 1.169922,0.0625 1.45935,0.23721 1.663078,0.927912 0.455078,1.539062 -1.50454,0.76117 -3.839844,0.331029 -3.839844,-0.707031 0,-0.464602 1.049876,-0.840251 2.214844,-0.894531 z m 22.763672,0.792968 -0.002,0.002 h -0.002 l -0.002,0.002 -0.002,0.002 -0.002,0.002 c -2.71e-4,7.2e-4 -0.0017,0.0051 -0.002,0.0059 v 0.002 0.002 c 4.3e-5,0.0015 2.4e-5,0.0029 0,0.0039 -0.0035,0.1315 0.513911,0.815031 1.150391,1.519531 1.48675,1.645647 2.81568,1.725837 5.05664,0.304688 0.820318,-0.520229 1.412518,-1.033445 1.34961,-1.164063 -5.93e-4,-0.001 -0.0032,-0.0049 -0.0039,-0.0059 l -0.002,-0.002 -0.002,-0.002 c -0.10902,-0.109021 -0.520707,0.09505 -0.916015,0.455078 -1.081871,0.98534 -1.998112,1.375 -3.232422,1.375 -0.91897,0 -1.313677,-0.237975 -2.253907,-1.359375 -0.558564,-0.666188 -1.030505,-1.139974 -1.128906,-1.142579 h -0.002 -0.002 z m 25.761718,1.222657 c -2.120659,0 -2.485779,0.577763 -1.099609,1.744141 1.44311,1.2143 4.439453,0.93989 4.439453,-0.40625 0,-0.818828 -1.297283,-1.337891 -3.339844,-1.337891 z m -0.511718,0.330078 c 0.255613,0.0039 0.575677,0.02178 0.976562,0.05078 2.25446,0.16307 3.04901,0.695352 2.09375,1.400393 -0.34164,0.25215 -0.989093,0.45231 -1.439453,0.44531 -1.11549,-0.0174 -2.580078,-0.85563 -2.580078,-1.476562 0,-0.317565 0.182379,-0.431687 0.949219,-0.419921 z m -89.968754,3.302733 c 0.15928,-0.005 0.26996,0.007 0.3086,0.0293 0.001,7.6e-4 0.003,0.001 0.004,0.002 v 0.002 h 0.002 v 0.002 0.002 0.002 0.002 c -9e-5,5e-4 -10e-4,0.005 -0.002,0.006 -0.0563,0.14777 -1.17383,0.98279 -2.58789,1.92382 l -2.71875,1.8086 -0.35547,3.09375 c -0.93642,8.14905 -0.94896,8.47181 -0.39453,9.65429 0.28882,0.616 0.78447,1.16787 1.10157,1.22657 1.30471,0.24134 10.8189,-3.93733 11.38867,-5.00196 0.34859,-0.65135 0.0496,-3.58887 -0.76758,-7.54492 -0.28046,-1.35752 -0.45065,-2.53117 -0.38477,-2.63867 v -0.002 l 0.002,-0.002 c 0.29432,-0.29432 5.27748,10.71893 5.78906,12.79493 0.53114,2.1554 -2.01318,6.45957 -4.60352,7.78711 -0.792,0.40589 -3.58348,1.4595 -6.20117,2.33984 -5.79767,1.94977 -7.54621,2.06968 -10.16211,0.70312 -1.18847,-0.62086 -1.93204,-1.28061 -2.41992,-2.15039 -0.38728,-0.69048 -0.58494,-1.33122 -0.43945,-1.42382 0.1455,-0.0926 0.14045,-1.60914 -0.0117,-3.36914 -0.15221,-1.76001 -0.31473,-5.43216 -0.36133,-8.16016 -0.0801,-4.68944 -0.0458,-5.02333 0.64648,-6.13672 1.12908,-1.81576 2.72381,-3.0319 4.76563,-3.63281 1.7368,-0.51115 6.17477,-1.27816 7.40234,-1.31641 z m 37.238285,21.37305 c 1.183324,-0.0381 2.297095,0.26962 3.0625,0.98437 1.08962,1.01752 2.232601,3.07001 2.488281,4.46875 0.40586,2.22038 -1.140714,5.01727 -3.263672,5.9043 -2.150905,0.8987 -5.48147,0.21733 -6.935546,-1.41797 -1.65898,-1.86574 -1.913836,-5.03218 -0.574219,-7.14453 1.082236,-1.70651 3.250449,-2.73147 5.222656,-2.79492 z m -52.785155,0.39062 c 0.0674,-0.003 0.13616,-0.003 0.20703,0 0.16199,0.007 0.3341,0.0281 0.51758,0.0625 0.99511,0.18668 1.27075,0.42976 1.75195,1.54102 1.10396,2.54942 3.63783,4.33676 6.16992,4.35156 0.92889,0.005 1.19932,0.13487 1.19532,0.56836 -0.008,0.84567 -1.33003,2.98567 -2.23438,3.61719 -1.5934,1.1127 -3.40117,0.93865 -7.60156,-0.73438 -3.17429,-1.26433 -4.034,-3.58256 -2.52149,-6.80273 0.86982,-1.85185 1.50531,-2.56078 2.51563,-2.60352 z m 56.945311,0.36524 c 0.0562,-0.0527 1.829407,0.24497 3.941407,0.66211 2.111997,0.41715 4.744659,0.85515 5.849609,0.97265 1.10495,0.1175 2.086287,0.33709 2.179687,0.48828 0.25754,0.4167 -8.46012,-0.003 -10.58789,-0.50976 -0.57474,-0.13684 -1.636603,-1.37528 -1.382813,-1.61328 z m 58.460938,2.00586 c 1.454025,0.0763 2.217342,0.62802 3.232422,2.02929 1.0232,1.41249 1.480383,3.47873 1.126953,5.08789 -0.265,1.20654 -2.096581,3.33939 -3.494141,4.06836 -3.20377,1.6711 -6.781793,0.61497 -8.064453,-2.38281 -0.57301,-1.33919 -0.564295,-4.61403 0.01563,-6.00195 0.61164,-1.46387 2.580164,-2.44848 5.464844,-2.73242 0.673532,-0.0663 1.234075,-0.0938 1.71875,-0.0684 z m -45.222657,0.26953 c 0.08906,1e-5 0.188464,0.004 0.302735,0.01 12.04591,0.60526 16.035845,0.68665 20.078125,0.41016 l 4.5625,-0.31055 0.720703,0.82422 c 0.94347,1.08059 0.996176,3.69229 0.103516,5.15625 -1.15374,1.89211 -5.527781,4.19539 -9.337891,4.91797 -4.96446,0.94149 -10.491314,-0.75909 -14.427734,-4.44141 -2.38603,-2.23202 -2.902726,-3.20492 -2.759766,-5.20117 0.08378,-1.16993 0.13439,-1.36532 0.757812,-1.36523 z m -24.123046,0.0293 -0.212891,1.42187 c -0.242961,1.62018 0.461881,4.80606 1.257813,5.68555 0.27642,0.30544 0.501953,0.63151 0.501953,0.72461 v 0.002 0.002 0.002 l -0.002,0.002 c -0.05082,0.1205 -0.880645,0.70715 -1.886719,1.32812 -1.038528,0.64102 -2.297356,1.16316 -2.798828,1.16016 -1.368934,-0.008 -2.787974,-1.08728 -3.746094,-2.84766 l -0.85743,-1.57422 1.5254,-1.4414 c 1.94232,-1.8347 2.759862,-2.45749 4.671874,-3.56641 z m 12.685546,0.12304 c 0.0943,-0.004 0.244013,0.0324 0.455079,0.0898 0.39983,0.1089 2.634795,0.29229 4.966797,0.4082 3.821967,0.18998 4.240234,0.26791 4.240234,0.79687 0,0.41405 -0.772414,0.9748 -2.621094,1.9043 -1.44103,0.72454 -3.755631,2.02334 -5.144531,2.88477 -1.3889,0.86142 -2.650873,1.5664 -2.802735,1.5664 h -0.002 -0.002 c -10e-4,-1.6e-4 -0.0049,-0.002 -0.0059,-0.002 -9.83e-4,-3.3e-4 -0.0049,-0.002 -0.0059,-0.002 h -0.002 -0.002 v -0.002 h -0.002 l -0.002,-0.002 -0.002,-0.002 c -0.0866,-0.0855 0.133085,-0.662 0.527344,-1.35157 0.84583,-1.47935 1.053074,-3.97454 0.458984,-5.5371 -0.208842,-0.54932 -0.262142,-0.74422 -0.05469,-0.75196 z m 39.355469,1.54297 c 1.26206,-0.0607 9.186885,0.0813 9.271485,0.16602 7.12e-4,9.4e-4 0.0033,0.005 0.0039,0.006 0.03585,0.0789 -0.05578,0.46639 -0.214844,0.88476 -0.25191,0.66257 -0.647548,0.86338 -2.330078,1.19336 -1.11412,0.2185 -3.033625,0.72601 -4.265625,1.12695 -1.232,0.40094 -2.497513,0.83821 -2.814453,0.97071 -0.50616,0.21159 -0.545403,0.12882 -0.320313,-0.67969 0.14095,-0.50626 0.227207,-1.53325 0.191407,-2.28125 -0.05191,-1.08465 0.04378,-1.36582 0.478515,-1.38672 z m -29.726562,0.71875 0.345703,1.04883 c 0.19005,0.57584 0.847327,1.63275 1.460937,2.34961 1.04775,1.22406 1.077304,1.31528 0.470703,1.50781 -0.355249,0.11275 -2.465299,1.4203 -4.6875,2.9043 -2.222189,1.484 -4.056725,2.69159 -4.078124,2.68359 -0.0972,-0.0366 -3.249079,-4.26245 -3.330079,-4.46484 -0.08414,-0.21022 3.588681,-2.50775 7.994141,-4.99805 z m 38.052734,1.86914 h 0.002 0.002 0.002 0.002 l 0.002,0.002 h 0.002 l 0.002,0.002 c 0.114656,0.0757 0.221839,0.904 0.240234,1.90429 l 0.03516,1.90821 -2.115235,0.69922 c -2.15627,0.71181 -3.332425,1.21283 -8.640625,3.68359 -1.65371,0.76974 -3.058791,1.40039 -3.121094,1.40039 l -0.002,-0.002 h -0.002 l -0.002,-0.002 c -0.05825,-0.0794 -0.107422,-0.9536 -0.107422,-2.00781 0,-1.90818 0.05185,-2.04139 0.990235,-2.5957 0.54391,-0.3213 1.44391,-0.97805 2,-1.46094 1.04741,-0.90957 4.529688,-2.18348 8.310546,-3.03906 1.198921,-0.27131 2.279311,-0.49258 2.400391,-0.49219 z m -109.777343,1.45899 c 0.18452,0.005 0.44157,0.1873 0.86328,0.57812 0.48167,0.4464 1.5161,1.05655 2.29883,1.35547 0.78274,0.29893 1.37872,0.70139 1.32422,0.89453 -0.0545,0.19314 -0.37398,1.1732 -0.70899,2.17773 l -0.60937,1.82618 -1.30469,-0.16407 c -0.71821,-0.0904 -2.07417,0.0428 -3.01367,0.29493 l -1.70899,0.45703 0.21485,-1.16016 c 0.20471,-1.1042 1.78226,-5.16073 2.35937,-6.06641 0.0731,-0.11467 0.15201,-0.1808 0.25,-0.1914 0.0117,-0.001 0.0229,-0.002 0.0352,-0.002 z m 41.26953,0.32812 0.64258,1.42578 c 0.77727,1.72491 2.13176,3.04239 3.496092,3.40039 l 1.009766,0.26563 -3.791018,3.11914 c -2.08564,1.716 -3.92802,3.12109 -4.09375,3.12109 -0.48486,0 -2.43656,-2.31221 -2.90429,-3.4414 -0.49757,-1.20123 -0.40169,-1.35539 3.43359,-5.50391 z m 33.28711,1.4375 0.197266,1.1875 c 0.10796,0.65318 0.197218,2.57535 0.199218,4.27344 l 0.0039,3.08789 -3.275391,2.3125 c -1.80147,1.27134 -3.437076,2.37332 -3.634766,2.44922 -0.23352,0.0896 -0.41748,-0.58735 -0.52539,-1.93164 -0.11744,-1.46299 -0.447993,-2.58824 -1.126953,-3.8418 l -0.960938,-1.77344 3.5625,-2.37304 c 1.95864,-1.3051 4.010477,-2.60257 4.560547,-2.88282 z m 1.041016,0.2832 1.611328,1.10938 c 0.88673,0.60995 2.120044,1.29332 2.740234,1.51758 l 1.126953,0.40625 -0.09961,16.4082 c -0.05491,9.02442 -0.180697,16.40792 -0.279297,16.4082 -0.09857,2.8e-4 -1.178961,-0.48643 -2.400391,-1.08203 -1.22144,-0.59561 -2.513173,-1.17112 -2.871093,-1.27929 -1.75664,-0.53092 -2.086499,-2.88451 -1.261719,-8.99805 0.93963,-6.9648 1.433594,-13.48012 1.433594,-18.93555 z m 34.521484,1.17383 c 0.257624,0.0149 0.358784,0.1367 0.470703,0.33985 0.17472,0.31716 0.776358,1.03776 1.335938,1.60156 l 1.017578,1.02539 -0.935547,0.89648 c -0.51452,0.4922 -1.215661,1.3456 -1.556641,1.89649 -0.50377,0.81391 -1.172842,1.19922 -3.576172,2.05664 -1.6267,0.58034 -4.686105,1.82105 -6.796875,2.75781 -2.11078,0.93677 -3.874719,1.70313 -3.919922,1.70313 -0.0452,0 -0.08203,-1.52258 -0.08203,-3.38282 v -3.38086 l 3.601563,-1.70117 c 1.98,-0.93549 5.173776,-2.22957 7.097656,-2.875 2.05385,-0.68903 2.914378,-0.96227 3.343749,-0.9375 z m -15.320312,1.5332 c 0.472585,-0.0164 0.483581,1.28051 0.53125,13.76758 l 0.05273,13.93555 -0.69336,-0.006 c -0.949728,-0.008 -3.41658,-1.60513 -5.33789,-3.45703 -1.59019,-1.53239 -1.593797,-1.54587 -1.591797,-3.59766 0.0012,-1.13235 0.306104,-4.0029 0.677734,-6.3789 0.44888,-2.86991 0.668197,-5.72628 0.654297,-8.51172 l -0.02148,-4.19336 2.46289,-0.66016 c 1.354721,-0.3627 2.751516,-0.75118 3.103516,-0.86328 0.05932,-0.0189 0.113221,-0.0335 0.16211,-0.0352 z m -12.47461,0.9336 c 0.128702,-0.003 0.307499,0.031 0.552734,0.0898 0.484001,0.11611 0.929935,0.25244 0.990235,0.30274 l 0.002,0.002 v 0.002 h 0.002 v 0.002 l 0.002,0.002 v 0.002 0.002 0.002 c -0.0084,0.077 -0.384887,0.32838 -0.886718,0.58789 -0.980742,0.50735 -0.990235,0.50643 -0.990235,-0.30078 0,-0.49926 0.04498,-0.6865 0.328125,-0.69336 z m 3.376953,0.58789 c 0.269845,-0.0151 0.557351,-0.0128 0.876953,0.006 l 1.658204,0.0977 0.08594,2.5586 0.08594,2.56055 -2.326171,1.35742 c -1.27895,0.74623 -2.793235,1.6602 -3.365235,2.03125 l -1.039062,0.67383 v -3.86524 -3.86719 l 1.61914,-0.82031 c 0.936773,-0.47467 1.594762,-0.68714 2.404297,-0.73242 z m 34.261719,0.1875 c 0.41399,-0.0176 0.667481,0.35437 1.066406,1.51562 l 0.550782,1.59961 -1.294922,2.16016 c -0.695772,1.16016 -1.350051,2.11411 -1.476563,2.1582 h -0.002 v 0.002 h -0.002 -0.002 -0.002 -0.002 l -0.002,-0.002 -0.002,-0.002 h -0.002 c -0.251328,-0.18272 -2.236328,-6.03522 -2.236328,-6.61133 0,-0.18808 0.611375,-0.42768 1.359375,-0.53125 0.748,-0.10356 1.631911,-0.22995 1.962891,-0.28125 0.02912,-0.005 0.05639,-0.007 0.08398,-0.008 z m -119.79492,0.77539 c 0.2726,-0.0104 0.54794,-0.0103 0.81445,0.004 1.59705,0.0838 1.80604,0.17284 1.74414,0.73632 -0.49731,4.52434 -0.86691,6.30891 -1.33594,6.46485 -0.28304,0.0941 -1.10758,0.44716 -1.83398,0.7832 -0.7264,0.33604 -1.86515,1.13819 -2.5293,1.7832 l -1.20703,1.17188 0.17383,-3.50195 c 0.096,-1.92626 0.35572,-4.20281 0.57617,-5.0586 0.33747,-1.31005 0.57469,-1.62705 1.5,-2.01367 0.48443,-0.20244 1.27986,-0.33788 2.09766,-0.36914 z m 34.6289,0.24023 0.93164,1.79297 c 0.51256,0.98675 1.24087,2.02912 1.61915,2.31446 0.68044,0.51325 0.6551,0.55287 -2.47657,3.71093 -1.74102,1.75568 -3.53181,3.67021 -3.97851,4.25586 -0.4467,0.58566 -0.90256,1.05974 -1.01367,1.05274 -1.23167,-0.0781 -3.52652,-2.77766 -3.04493,-3.58203 0.13364,-0.22321 1.69216,-2.11754 3.46289,-4.21094 1.77073,-2.09341 3.50738,-4.15028 3.85938,-4.57031 z m 87.123051,3.24219 1.783203,4.375 1.78125,4.375 -0.798828,1.4668 c -0.43872,0.80607 -1.13851,1.8909 -1.55664,2.41211 l -0.759766,0.94922 -0.373047,-0.96094 c -0.20423,-0.528 -0.955312,-2.66087 -1.669922,-4.74023 l -1.298828,-3.78126 0.695313,-0.93945 c 0.3824,-0.51722 1.034015,-1.43986 1.447265,-2.04883 z m -47.05664,0.41797 c 0.10516,0.10516 -0.541763,8.60065 -0.664063,8.7207 -0.02336,0.0229 -1.389849,0.92293 -3.037109,2 -1.64726,1.07707 -3.128856,1.95899 -3.291016,1.95899 h -0.002 -0.002 l -0.002,-0.002 c -0.001,-3.7e-4 -0.0029,-0.002 -0.0039,-0.002 h -0.002 c -0.158365,-0.10019 -0.2412,-1.73763 -0.191406,-3.90039 l 0.08984,-3.90625 3.490234,-2.49609 c 1.92016,-1.37363 3.547035,-2.44125 3.615235,-2.37305 z m 34.103515,0.24609 c 0.05723,-4.1e-4 0.09332,0.009 0.105469,0.0274 0.004,0.008 0.0052,0.021 0,0.0332 -0.20241,0.47507 -1.328004,4.2072 -1.683594,5.58008 -0.24499,0.94587 -0.613055,1.21197 -3.791015,2.73047 -1.936,0.92506 -4.31325,2.1072 -5.28125,2.6289 -0.968,0.52171 -1.868,0.9989 -2,1.0586 h -0.002 -0.002 l -0.002,0.002 h -0.002 v -0.002 h -0.002 -0.002 -0.002 l -0.002,-0.002 c -5e-4,-3.6e-4 -0.0046,-0.003 -0.0059,-0.004 -0.12063,-0.1344 -0.21875,-1.66528 -0.21875,-3.5586 v -3.67187 l 2.960938,-1.29492 c 3.744117,-1.63853 9.099872,-3.52133 9.929687,-3.52735 z m -20.730468,0.55664 0.109374,1.0586 c 0.09864,0.96089 -0.406726,5.07701 -0.785156,6.39844 -0.08501,0.29685 -1.375287,1.41136 -2.867187,2.47851 -1.49191,1.06715 -2.779482,1.94141 -2.863281,1.94141 -0.08382,0 -0.152344,-1.78677 -0.152344,-3.9707 v -3.97071 l 3.279297,-1.96679 z m -86.707028,3.04883 c 0.35826,-3.1e-4 0.41933,0.47133 0.57617,2.51172 0.11231,1.4611 0.42092,3.38621 0.68554,4.27735 l 0.48047,1.61914 -1.32226,1.39062 c -0.72739,0.76465 -1.64186,2.11527 -2.03321,3.00195 l -0.71093,1.61329 -0.66407,-1.29883 c -0.64846,-1.27112 -2.06924,-5.9815 -2.42968,-8.05469 -0.1541,-0.88636 -0.002,-1.24354 0.99023,-2.3418 1.10348,-1.22141 2.59952,-2.18485 4.12695,-2.65625 0.11917,-0.0368 0.21811,-0.0624 0.30079,-0.0625 z m 24.7539,3.2168 c 0.10193,-3.8e-4 0.15995,0.068 0.19727,0.18555 0.10535,0.33194 0.84326,1.17486 1.63867,1.875 l 1.44531,1.27343 -4.1289,4.17774 c -2.27154,2.29812 -4.28648,4.17969 -4.47657,4.17969 -0.46386,0 -1.95899,-1.80795 -2.58984,-3.13086 l -0.50781,-1.06641 1.10742,-0.82812 c 0.60947,-0.45576 2.50632,-2.2368 4.21484,-3.95704 1.97702,-1.99053 2.76664,-2.70774 3.09961,-2.70898 z m 80.46094,0.88477 c 0.04799,9.3e-4 0.08479,0.0106 0.105469,0.0312 l 0.002,0.002 v 0.002 c 0.0762,0.11468 -0.0085,1.2724 -0.19336,2.60156 -0.187809,1.35026 -0.341796,3.06651 -0.341796,3.8125 0,1.34961 -0.0071,1.35697 -1.519532,1.74805 -0.836,0.21616 -3.05054,1.15509 -4.919922,2.08594 l -3.398437,1.69336 -0.199219,-2.10547 c -0.10934,-1.15775 -0.200172,-2.72759 -0.201172,-3.48828 l -0.002,-1.38281 4.720703,-2.22461 c 2.596,-1.22302 4.985417,-2.37412 5.310547,-2.5586 0.243855,-0.13835 0.492756,-0.2196 0.636719,-0.21679 z m 19.097656,1.52929 h 0.002 0.002 c 0.0927,-0.002 0.987022,1.97181 1.988282,4.38477 l 1.820312,4.38672 -1.349609,2.54687 c -0.74271,1.40062 -1.494662,2.59425 -1.669922,2.65235 h -0.002 -0.002 -0.002 c -0.19696,-0.01 -1.160813,-2.12375 -2.16211,-4.75391 l -1.849609,-4.85742 0.837891,-1.14063 c 0.459869,-0.62777 1.147986,-1.60791 1.529296,-2.17773 0.375343,-0.56092 0.75718,-1.02476 0.857422,-1.04102 z m -51.845703,0.0508 -0.01953,1.01368 c -0.04123,1.9806 -0.837491,6.7375 -1.144531,6.83984 -0.17165,0.0572 -1.512466,0.90314 -2.978516,1.87891 l -2.666016,1.77343 0.205079,-1.01953 c 0.112207,-0.56116 0.206937,-2.26129 0.210937,-3.7793 l 0.0059,-2.76171 3.19336,-1.97266 z m 13.296875,0.0332 c 0.03029,0.0399 -0.01361,1.68426 -0.09961,3.65429 l -0.15625,3.58203 -2.542969,1.61915 c -1.39822,0.88997 -2.604087,1.61718 -2.679688,1.61718 -0.07562,0 -0.136718,-1.50224 -0.136718,-3.33789 v -3.33789 l 2.779297,-1.93359 c 1.52948,-1.0642 2.805635,-1.90318 2.835938,-1.86328 z m -83.728518,3.43359 h 0.002 0.002 0.002 c 0.1318,0.0123 1.04861,0.80258 2.04492,1.76758 1.06005,1.02675 2.22689,1.84968 2.78321,1.96094 0.49405,0.0988 0.90382,0.20841 0.95312,0.2539 l 0.002,0.002 h 0.002 v 0.002 l 0.002,0.002 v 0.002 c 0,0.039 -0.2418,0.55453 -0.53711,1.14649 -0.57108,1.14476 -0.73457,3.62486 -0.35156,5.3418 0.22519,1.00974 0.20092,1.04012 -0.80078,1.01562 -2.03165,-0.0497 -3.79269,-0.96457 -5.88086,-3.05273 -1.11711,-1.11711 -2.02744,-2.28445 -2.02344,-2.59571 0.0122,-0.98584 1.16703,-3.16822 2.39844,-4.53125 0.64377,-0.71257 1.26818,-1.29634 1.40234,-1.31445 z m 13.79297,1.91992 c 0.13275,0 0.42286,0.43749 0.64453,0.97266 0.22167,0.53517 0.83754,1.57156 1.36719,2.30273 l 0.96289,1.32813 -1.08789,0.92383 c -1.91334,1.62518 -3.69057,2.75485 -5.38281,3.42187 -0.90655,0.35733 -2.34579,0.65039 -3.19727,0.65039 -1.47794,0 -1.55709,-0.0453 -1.74805,-1 -0.33986,-1.69945 -0.22127,-3.73138 0.29102,-5.01172 0.45903,-1.14722 0.61222,-1.25035 2.43555,-1.62695 1.07038,-0.22108 2.74091,-0.75264 3.71093,-1.18164 0.97005,-0.429 1.87116,-0.7793 2.00391,-0.7793 z m 88.669923,1.61719 c 0.03989,-9.4e-4 0.07052,0.006 0.08398,0.0156 l 0.002,0.002 c 0.0544,0.0685 0.03448,1.59596 -0.04492,3.39453 -0.13215,2.99477 -0.202475,3.28803 -0.828125,3.48437 -0.37575,0.11792 -7.891785,3.79441 -16.703125,8.16993 -8.81133,4.37552 -16.083456,7.93591 -16.160157,7.91211 -1.658338,-0.51498 -7.666572,-2.73411 -7.820312,-2.88868 -0.53584,-0.53875 11.624421,-6.96328 25.087891,-13.2539 2.9329,-1.37081 3.769731,-1.64054 4.269531,-1.37305 0.89242,0.4776 1.994076,0.10185 2.416016,-0.82422 0.227797,-0.49996 1.174756,-1.20446 2.535156,-1.88867 2.110453,-1.06144 6.481367,-2.72605 7.162109,-2.75 z m -18.5,0.63672 1.154297,1.13867 c 0.6352,0.62578 1.777603,1.59082 2.539062,2.14453 l 1.384766,1.00586 -1.064453,0.48242 c -0.58546,0.26482 -2.864453,1.32664 -5.064453,2.36133 -2.2,1.03468 -4.091135,1.93691 -4.203125,2.00391 -0.34238,0.20488 -0.586797,-1.2033 -0.591797,-3.40235 l -0.0039,-2.09179 2.923828,-1.82227 z m -14.625,0.70703 c 0.04218,0.0434 0.120228,1.36077 0.173828,2.92773 l 0.09766,2.84961 -4.498047,2.42969 c -2.47396,1.33704 -4.899262,2.69913 -5.388672,3.02539 -0.54006,0.36003 -0.78719,0.42112 -0.63086,0.15821 0.14167,-0.23826 0.97122,-1.57926 1.84375,-2.98047 0.87254,-1.40122 1.781352,-3.01395 2.019532,-3.58399 0.31185,-0.74636 1.2543,-1.57746 3.36914,-2.9707 1.61525,-1.06411 2.971472,-1.89887 3.013672,-1.85547 z m 57.253906,1.875 c 0.127276,-0.0145 0.209123,0.1232 0.306641,0.35547 0.16796,0.40007 1.12353,2.50384 2.125,4.67383 l 1.822266,3.94531 -0.748047,1.9043 c -0.41057,1.04765 -1.054421,2.40527 -1.431641,3.01562 -0.37722,0.61036 -0.804219,1.10938 -0.949219,1.10938 -0.23096,0 -4.484375,-9.62396 -4.484375,-10.14649 0,-0.11051 0.755688,-1.33202 1.679688,-2.71484 1.024124,-1.53266 1.436706,-2.11483 1.679687,-2.14258 z m -24.517578,4.28711 c 0.312619,-0.0104 0.362669,0.40056 0.373047,2.00586 0.0077,1.18247 0.128461,2.7465 0.269531,3.47461 l 0.25586,1.32422 -2.75,1.04101 c -3.00068,1.13616 -10.896958,5.11714 -15.710938,7.92188 -1.672,0.97415 -3.327687,1.93871 -3.679687,2.14258 -0.352,0.20392 -0.999453,0.31364 -1.439453,0.24414 -1.07842,-0.17046 -8.055588,-1.92048 -8.892579,-2.23047 -0.54433,-0.20161 0.229047,-0.6991 4.191407,-2.69531 6.05268,-3.04937 26.42326,-12.92926 27.18164,-13.1836 0.07743,-0.026 0.14328,-0.043 0.201172,-0.0449 z m -32.246093,0.0918 3.173828,1.55273 c 1.74568,0.85365 3.17664,1.6262 3.18164,1.7168 0.0045,0.0906 -2.25957,1.29531 -5.03125,2.67773 -2.77168,1.38243 -6.386553,3.36155 -8.033203,4.39649 -1.64665,1.03494 -3.085549,1.86083 -3.199219,1.83593 -1.2247,-0.26794 -3.886718,-1.38086 -3.886718,-1.625 0,-0.1732 0.609478,-1.30003 1.355468,-2.5039 l 1.355469,-2.18946 5.542969,-2.92968 z m 61.402343,5.9707 c 0.286524,-0.005 0.9564174,1.25294 2.9042971,5.2168 1.57153,3.19801 2.8574219,5.96634 2.8574219,6.15234 0,0.18601 -0.4535225,1.2675 -1.0078125,2.4043 -0.55428,1.13681 -1.2410606,2.27783 -1.5253906,2.53515 -0.4615,0.41765 -0.5810444,0.35917 -1.1152344,-0.55273 -1.38546,-2.36503 -4.9271345,-9.07344 -5.1152345,-9.6875 -0.14499,-0.47335 0.203374,-1.28924 1.208984,-2.82031 0.778061,-1.18461 1.510124,-2.53453 1.626954,-3 0.03871,-0.15423 0.08942,-0.24663 0.166015,-0.24805 z m -28.25,1.45312 c 0.43973,0 1.448786,4.29574 1.041016,4.43164 -1.21383,0.40461 -7.812742,3.83725 -10.513672,5.46876 -3.01127,1.81891 -3.330073,1.93737 -5.064453,1.89257 -2.448682,-0.0633 -6.917442,-0.6084 -7.113281,-0.85937 -6.47e-4,-0.001 -0.0034,-0.005 -0.0039,-0.006 -3.69e-4,-9.8e-4 -0.0017,-0.005 -0.002,-0.006 v -0.002 l -0.002,-0.002 v -0.002 c 0.04529,-0.82813 20.060493,-10.91602 21.658203,-10.91602 z m 1.390625,5.23047 c 0.665759,0.0112 0.612088,0.78788 0.617188,2.34375 0.002,0.59651 -0.01914,1.04443 -0.0957,1.40235 l -0.128907,-0.01 c -0.03166,0.16969 -0.07325,0.31924 -0.123046,0.43945 -0.928838,0.75382 -1.924642,1.34779 -2.972657,1.81055 -0.801819,0.1807 -2.000129,0.33448 -4.347656,0.61719 -3.19669,0.38492 -5.769625,0.42306 -5.765625,0.0859 0.0031,-0.28463 1.047166,-0.87241 7.878906,-4.43946 2.886675,-1.5072 4.271741,-2.2612 4.9375,-2.25 z m -46.496094,0.14844 c 0.377817,-0.0121 2.007239,0.47441 3.78125,1.13477 1.883318,0.70104 5.969002,2.15059 11.039063,3.52343 2.891006,0.81735 5.662344,1.47181 8.296875,1.95899 2.344095,0.66333 4.72738,0.93399 7.132812,0.98242 3.139415,0.29229 6.242204,0.34614 9.119141,0.0332 1.78037,-0.19369 3.339754,-0.35194 3.464844,-0.35156 0.1251,3.8e-4 0.23514,2.41371 0.244141,5.36133 0.01304,4.08391 0.182494,6.23482 0.708984,9.03906 1.57374,8.38238 1.966365,12.52458 2.640625,27.83985 0.38692,8.78872 0.943498,13.78313 2.205078,19.80273 1.44764,6.90742 1.475249,7.27441 0.605469,7.83594 -0.40527,0.26163 -1.888875,0.78563 -3.296875,1.16406 -1.85414,0.49834 -3.750027,0.71883 -6.878907,0.79883 -6.140658,0.15704 -9.590568,-0.30815 -12.886718,-1.73633 -1.3868,-0.60087 -6.122106,-3.98278 -6.916016,-4.93945 -0.38094,-0.45904 -0.279815,-1.26659 0.734375,-5.83399 1.402329,-6.31538 2.394826,-12.31321 3.541016,-21.41211 0.46558,-3.696 1.350307,-9.95992 1.966797,-13.91992 1.20038,-7.71057 1.621206,-12.19447 1.273437,-13.58008 -0.28115,-1.1202 -1.393635,-1.57058 -5.671875,-2.29297 -4.539331,-0.76648 -5.630634,-0.47614 -7.115234,1.89063 -0.98711,1.57364 -2.759766,5.30593 -2.896485,6.09766 -0.03473,0.20112 -0.391942,1.22915 -0.794921,2.28515 -1.00026,2.62118 -5.603966,17.99527 -6.802735,22.71875 -1.064942,4.19615 -1.572532,6.11662 -2.326172,8.80078 -0.782921,2.78843 -1.734009,7.83097 -2.261719,12 -0.74038,5.84929 -0.563338,5.44986 -2.662109,6.02539 -2.157024,0.59151 -4.871277,1.06278 -7.742187,1.34375 -2.19195,0.21452 -10.086906,-0.98051 -13.107426,-1.98437 -2.45399,-0.81557 -5.37391,-2.6142 -7.95117,-4.89649 -2.95094,-2.61318 -3.81768,-3.88544 -3.12109,-4.58203 0.25626,-0.25626 1.69617,-2.00632 3.19922,-3.88867 3.68062,-4.60943 7.26488,-10.4672 10.83007,-17.69531 3.03495,-6.15303 3.83284,-7.85776 8.724614,-18.64258 4.735981,-10.44135 12.033424,-24.54977 12.865235,-24.87305 0.01373,-0.005 0.03341,-0.007 0.05859,-0.008 z m 79.6894536,5.15625 0.7324219,1.21289 c 0.40219,0.66678 1.6451719,2.68273 2.76367188,4.48047 l 2.03515622,3.26953 -0.84765622,1.69141 c -0.46621,0.93026 -1.07058688,1.94395 -1.34179688,2.25195 -0.2264488,0.25717 -0.3140221,0.42386 -0.2636719,0.50391 -2.4974215,-3.06879 -5.27759,-6.33218 -5.9023437,-7.49024 -0.29978,-0.55567 -0.2003263,-0.90128 0.5898437,-2.08008 0.52117,-0.7775 1.2375569,-1.96017 1.5917969,-2.62695 z m 5.9433594,9.72852 1.8847656,1.92578 1.8847656,1.92578 -0.5644531,1.2539 c -0.3111,0.68994 -1.0201887,1.60087 -1.5742187,2.02344 -0.55402,0.42258 -1.0837344,0.76758 -1.1777344,0.76758 -0.1607894,0 -1.90294407,-2.47447 -3.3007812,-4.19336 0.027554,0.0223 0.073692,0.0332 0.1367187,0.0332 0.21088,0 0.906515,-0.83937 1.546875,-1.86718 z m 4.7011719,2.77734 c 0.00522,-7.7e-4 0.010316,0 0.015625,0 0.82127,0 2.490525,0.98312 3.296875,1.94141 0.8081201,0.9604 0.8844321,1.25428 0.7636721,2.92382 -0.16033,2.21654 -1.4121653,4.26497 -3.1406252,5.13477 -2.3832101,1.19928 -5.7773125,0.38162 -6.60156255,-1.58984 -0.454,-1.08589 -0.57856687,-3.03668 -0.21679687,-3.39844 0.11770999,-0.11772 0.46767372,0.0166 0.77734372,0.29687 0.67996,0.61535 1.5181382,0.40171 2.8613281,-0.72851 1.1982101,-1.00821 2.0079094,-2.52446 1.9746094,-3.69531 -0.013427,-0.47197 0.1076012,-0.86093 0.2695313,-0.88477 z m 5.1035151,2.875 2.160157,0.15625 c 1.188,0.0853 3.952398,0.23518 6.142578,0.33398 4.91919,0.22192 6.303692,0.73333 7.476562,2.76172 1.39879,2.41908 1.85175,4.56303 1.84375,8.75196 -0.0067,3.65147 -1.108775,16.39394 -1.447265,16.73242 -0.20635,0.20635 -0.207533,0.20247 -2.064453,-6.01172 -2.20035,-7.3635 -2.77884,-8.79098 -3.96875,-9.79883 -2.06689,-1.75066 -7.1035,-3.59096 -8.71875,-3.18555 -1.61972,0.40652 -2.746695,4.9172 -2.240235,8.97071 0.17216,1.37799 0.467905,2.08211 1.234375,2.95508 1.08132,1.23156 4.692581,4.31252 8.494141,7.24414 1.235611,0.95283 1.925873,1.63053 1.83789,1.77343 -7.96e-4,10e-4 -0.0011,0.003 -0.002,0.004 -0.01491,0.0115 -0.04095,0.0186 -0.07422,0.0176 -0.87626,-0.0276 -7.841247,-2.01614 -11.154297,-3.18555 -4.4572009,-1.57327 -6.5160321,-2.78537 -7.5761721,-4.45703 -1.39434,-2.19865 -1.5953605,-3.24964 -1.7753907,-9.34961 l -0.1660156,-5.65234 2.53125,0.17187 c 2.1331,0.1462 2.7304782,0.0726 3.7988282,-0.47265 0.6972799,-0.35587 1.5122268,-0.91621 1.8105468,-1.2461 0.9675304,-1.06992 1.8426094,-3.43351 1.8496094,-4.99219 z m -125.083982,52.86133 c 0.62807,-0.009 1.2804,0.34632 2.49023,0.91406 1.63058,0.76519 3.82022,1.44829 6.04102,1.88477 1.91598,0.37656 3.57309,0.77231 3.68164,0.88086 l 0.002,0.002 0.002,0.002 c 0.0378,0.0529 0.0201,0.284 -0.041,0.63477 h -0.004 c -0.11167,0.52167 -0.32406,1.33838 -0.58398,2.23242 -0.10646,0.36619 -0.10078,0.49048 -0.19336,0.8457 -0.002,0.007 -0.004,0.0148 -0.006,0.0215 h 0.002 c -0.27828,1.0708 -0.58398,2.25565 -0.58398,2.55468 0,0.47867 -0.31635,0.89195 -0.92188,1.20508 -1.36417,0.70544 -1.86087,2.72495 -0.81445,3.31055 0.45524,0.25475 0.45651,0.46077 0.0215,2.12695 -0.26498,1.01469 -0.52779,1.88821 -0.58399,1.94141 -0.14654,0.13868 -9.60615,2.00077 -12.22461,2.40625 -1.21174,0.18764 -4.95605,0.69488 -8.32031,1.12695 -3.36426,0.43206 -6.44189,0.86103 -6.83789,0.95313 -0.92643,0.21551 -0.90563,-0.13614 0.12304,-2.17578 1.78249,-3.53427 6.50806,-10.00476 10.1504,-13.89844 0.89536,-0.95713 2.67112,-2.55702 4.37304,-3.99805 l -0.14453,-0.0117 c 0.0405,-0.034 0.0807,-0.068 0.12109,-0.10156 2.46896,-2.05172 3.334,-2.84417 4.25196,-2.85742 z m 53.189451,3.71679 c 0.0048,-5.6e-4 0.01011,1.4e-4 0.01563,0 0.21323,-0.005 0.968425,0.26952 1.802735,0.66407 3.984655,1.89876 4.80321,2.29481 5.958984,2.27734 0.01005,0.225 -0.02199,0.90956 -0.08203,1.68359 -0.102551,1.3207 -0.263472,1.70853 -0.769532,1.86915 -0.351528,0.11157 -0.845939,0.70147 -1.099609,1.30859 -0.382971,0.91656 -0.392104,1.25023 -0.04883,1.96875 0.23119,0.48389 0.729909,0.9096 1.130859,0.9668 0.681501,0.0972 0.716797,0.24464 0.716797,2.96093 0,1.96367 -0.110724,2.90706 -0.332031,2.83399 -0.581477,-0.40698 -1.171921,-0.79946 -1.732422,-1.24024 -0.225592,-0.18488 -2.716203,-2.26491 -3.679687,-3.27539 -1.628359,-1.78494 -2.195031,-2.75395 -2.289063,-4.94726 -0.01653,-0.30246 0.01,-0.74517 0.0098,-1.0918 0.0064,-0.6058 0.0057,-1.17299 0.04883,-1.97461 9.85e-4,-0.0183 0.0029,-0.0364 0.0039,-0.0547 l -0.0332,-0.002 c 0.106788,-2.08923 0.260496,-3.85044 0.34375,-3.93359 l 0.002,-0.002 c 0.0074,-0.005 0.01869,-0.01 0.0332,-0.0117 z m -40.398441,0.0996 c 0.0423,-0.019 1.619471,0.0182 3.50391,0.084 l 3.425781,0.11914 -0.15039,0.9082 -0.140625,-0.0117 -0.115235,1.08204 c -0.05806,0.54133 -0.140224,1.09003 -0.24414,1.63671 -0.03145,0.1496 -0.06359,0.29616 -0.0957,0.44141 h 0.0059 c -0.712495,3.37298 -2.207886,6.62046 -3.738281,7.9082 -0.49279,0.41466 -1.87253,1.07666 -3.06641,1.47071 -1.19387,0.39406 -2.35031,0.78218 -2.57031,0.86328 -0.48644,0.17928 -0.48863,0.28474 0.0547,-1.75586 0.30309,-1.13847 0.76259,-1.94156 1.43555,-2.50781 1.14396,-0.96258 1.3917,-2.75991 0.45313,-3.28516 -0.49252,-0.27563 -0.45919,-0.57474 0.40039,-3.61719 0.3346,-1.18427 0.67433,-2.21329 0.9082,-2.77734 l -0.24414,-0.0195 c 0.0981,-0.33391 0.1624,-0.53218 0.17773,-0.53907 z m 63.695316,1.69922 c 0.459405,-0.002 0.6661,0.14256 1.03125,0.42969 0.877534,0.69027 2.040069,2.18387 3.21875,4.01563 l -0.08984,-0.008 c 0.473279,0.68804 0.907941,1.35557 1.308594,2.01172 0.30608,0.53168 0.606246,1.07511 0.896485,1.62305 l 0.0059,-0.0606 c 0.893222,1.64577 1.597081,3.277 2.205078,5.06641 1.01426,2.98506 2.711336,11.75312 2.378906,12.29101 -0.37473,0.60631 -1.96006,0.29558 -6.6875,-1.30859 -6.381511,-2.26521 -12.800615,-4.50626 -18.435546,-8.01562 l -0.865235,-0.63868 v -3.20508 c 0,-2.7773 0.08586,-3.28899 0.640625,-3.84374 0.918489,-0.91848 0.828605,-2.36493 -0.197266,-3.17188 -0.77635,-0.61068 -0.822719,-0.78274 -0.625,-2.36523 l 0.212891,-1.70704 c 0.860306,-0.0731 2.07452,-0.25645 4.609375,-0.24804 4.17845,0.14868 5.489723,0.0776 7.845703,-0.42383 1.375355,-0.29277 2.08747,-0.43989 2.546875,-0.44141 z m -15.746094,4.99219 c 0.170666,0.002 0.340074,0.13666 0.638672,0.39453 0.86806,0.74966 1.137992,1.75916 0.638672,2.39453 -0.62751,0.7985 -1.704372,0.98899 -2.289062,0.4043 -0.73372,-0.73373 -0.634289,-1.84237 0.238281,-2.66211 0.38514,-0.36182 0.580016,-0.53295 0.773437,-0.53125 z m -49.593752,0.61328 c 0.0498,0.002 0.0964,0.01 0.13867,0.0234 0.63987,0.20755 0.5297,1.55872 -0.18945,2.32422 -1.13223,1.2052 -2.21094,1.0047 -2.21094,-0.41016 0,-0.71212 1.51483,-1.96446 2.26172,-1.9375 z" />
    <text
       xml:space="preserve"
       style="font-size:6.08865px;font-family:'Adwaita Sans';-inkscape-font-specification:'Adwaita Sans';text-align:start;writing-mode:lr-tb;direction:ltr;text-anchor:start;fill:#000000;stroke:#000000;stroke-width:0.239711;stroke-opacity:0"
       x="-83.184395"
       y="67.048309"
       id="text4"><tspan
         id="tspan4"
         x="-83.184395"
         y="67.048309"
         style="fill:#000000;stroke-width:0.239711">$</tspan></text>
  </g>
</svg>
