<?xml version="1.0" encoding="UTF-8" standalone="no"?>
<!-- Created with Inkscape (http://www.inkscape.org/) -->

<svg
   version="1.1"
   id="svg1"
   width="210.00002mm"
   height="296.99997mm"
   viewBox="0 0 793.70085 1122.5196"
   xmlns="http://www.w3.org/2000/svg"
   xmlns:svg="http://www.w3.org/2000/svg">
  <defs
     id="defs1" />
  <g
     id="g1">
    <rect
       style="fill:#ffffff;stroke:#000000;stroke-width:2.56499;stroke-opacity:0"
       id="rect1"
       width="792.75592"
       height="1121.5748"
       x="0.94488001"
       y="0.94488001" />
    <path
       style="fill:#000000;stroke-width:1.485"
       d="m 463.14969,1054.9229 c 0,-1.5028 1.33648,-7.9581 2.96998,-14.3449 1.63349,-6.387 2.96998,-13.3622 2.96998,-15.5007 0,-10.3743 -18.63385,-37.9566 -39.00254,-57.7326 l -6.60075,-6.4087 -0.82912,26.4561 c -0.67659,21.5884 -1.50577,29.0077 -4.50673,40.3252 -2.02268,7.628 -4.34412,14.5357 -5.15876,15.3504 -0.98491,0.9848 -4.64709,-1.0831 -10.93017,-6.1719 -21.08391,-17.0762 -31.08991,-22.1868 -73.30366,-37.4394 -8.9842,-3.2462 -25.02212,-7.8086 -35.63981,-10.1388 -35.76799,-7.8497 -47.48223,-10.347 -56.01205,-11.941 -4.67078,-0.8729 -9.85874,-2.7135 -11.52881,-4.0901 -2.9616,-2.4414 -2.97891,-2.7779 -0.70199,-13.6406 1.61862,-7.722 5.12027,-16.3744 11.41882,-28.21488 18.35743,-34.50971 29.96651,-60.4897 40.14567,-89.84201 7.14107,-20.5918 10.35908,-35.29529 18.03781,-82.41705 8.06413,-49.48683 12.78266,-72.24154 19.68135,-94.9117 2.87963,-9.46286 5.14692,-19.20993 5.03842,-21.66017 -0.10855,-2.45024 -0.40931,-11.80569 -0.66847,-20.78989 -0.51585,-17.88231 -3.64195,-29.55058 -13.46005,-50.2403 -8.91037,-18.77679 -24.43129,-40.50863 -26.49667,-37.0997 -1.47668,2.43724 -18.61763,49.19881 -23.85032,65.06513 -2.96298,8.98419 -7.7545,26.69273 -10.64779,39.35228 -2.89332,12.65956 -7.32085,32.0387 -9.83897,43.06477 -6.54413,28.65489 -7.09738,45.55291 -2.09063,63.85465 10.49455,38.36173 11.51222,47.29787 5.67055,49.79229 -1.43636,0.61331 -11.60148,1.249 -22.5892,1.41259 l -19.97764,0.29748 -4.78518,6.23333 c -5.62687,7.32974 -7.3801,14.52913 -8.81137,36.1827 -1.04482,15.80694 -3.0153,21.89299 -6.40918,19.79544 -0.96492,-0.59633 -5.08187,-7.71502 -9.14878,-15.81927 -4.0669,-8.10425 -7.88946,-14.77932 -8.49457,-14.83347 -0.60512,-0.0541 -5.44381,-0.26975 -10.75266,-0.47913 -16.59495,-0.65448 -30.34597,-9.83454 -39.96023,-26.67712 -7.466404,-13.07988 -7.403445,-14.05723 1.85194,-28.74851 4.52138,-7.17689 9.31593,-15.83412 10.65455,-19.23827 l 2.43386,-6.18938 -9.18966,-10.88803 c -10.65634,-12.62577 -12.52828,-16.06316 -11.32858,-20.80223 0.48045,-1.89791 8.78791,-11.46969 18.46101,-21.27064 13.37533,-13.5521 20.73299,-22.62119 30.72135,-37.86729 7.22362,-11.02607 18.26967,-26.72986 24.54675,-34.89732 24.91375,-32.41662 35.39144,-50.7648 45.34757,-79.41111 3.82527,-11.0063 9.64407,-25.35967 12.93066,-31.89638 3.2866,-6.53671 7.60917,-17.5196 9.60572,-24.40638 9.3213,-32.15236 27.38427,-55.14876 40.60255,-51.6921 2.29648,0.60054 3.43756,-0.31433 4.97172,-3.98609 2.30374,-5.51363 10.34293,-12.79432 14.12719,-12.79432 1.4269,0 8.17585,1.67061 14.99767,3.71247 6.82184,2.04187 13.59178,3.71249 15.04432,3.71249 3.59183,0 4.88753,-7.67039 3.29126,-19.48393 l -1.25817,-9.31128 -14.10742,-7.29943 c -15.03316,-7.7784 -26.99887,-15.86946 -30.1749,-20.40388 -1.86525,-2.66303 -2.50304,-2.67934 -16.13616,-0.41235 -18.59679,3.0924 -26.96865,1.92497 -33.1429,-4.62162 -2.50145,-2.65231 -5.41278,-7.43402 -6.46962,-10.62599 -2.21229,-6.68185 -4.00831,-32.7273 -2.6343,-38.20184 0.96528,-3.84592 13.52638,-12.01721 33.83753,-22.01211 8.40941,-4.13818 10.36032,-5.86267 13.13122,-11.60725 10.33908,-21.43476 35.61563,-50.72575 58.59784,-67.90445 13.78986,-10.30762 31.62734,-19.07333 46.42964,-22.81652 l 12.15413,-3.07352 9.02375,3.64486 c 15.12689,6.11002 25.43825,13.05322 37.93911,25.54647 20.67038,20.65776 33.10279,43.02554 38.98801,70.14531 2.03357,9.37101 2.11207,12.97056 0.55486,25.44807 -3.68766,29.54857 -13.35038,55.94094 -25.82353,70.53327 -7.48522,8.75695 -20.59121,17.6921 -34.2898,23.37744 -9.93302,4.1225 -11.73721,4.39148 -26.52788,3.95483 l -15.87001,-0.4685 -0.92679,4.95073 c -0.50974,2.72289 -0.52935,6.76034 -0.0435,8.97209 l 0.88324,4.02137 11.45859,-1.83944 c 6.30221,-1.0117 14.95063,-2.83535 19.21869,-4.05257 8.57744,-2.44622 13.51936,-1.66384 21.79414,3.45026 6.86356,4.24191 11.59642,11.98161 20.25725,33.12693 9.33438,22.78976 16.69168,35.57224 38.25148,66.4575 26.06246,37.33551 38.52203,51.06389 58.20873,64.13634 20.45554,13.583 35.49288,20.35122 53.85634,24.24042 8.98882,1.90374 17.20256,4.34872 18.25276,5.43329 3.68539,3.80601 9.56545,16.56482 9.56545,20.75551 0,5.1497 -0.54484,5.11843 34.82276,1.99854 15.98388,-1.40998 25.68771,-1.70293 26.588,-0.80263 2.14555,2.14554 -5.86374,8.86825 -19.59227,16.44503 l -12.0316,6.64025 -0.0435,6.68187 c -0.0416,6.37155 0.4449,7.14485 10.4734,16.6506 5.78429,5.48282 10.14784,10.5659 9.69677,11.29576 -1.89461,3.06545 -39.30842,18.08898 -45.04789,18.08898 h -5.90328 l -0.86357,22.64613 c -1.00917,26.46372 -3.09112,38.2391 -6.7606,38.23737 -4.00057,-0.002 -19.98755,-8.10937 -32.07678,-16.26711 -18.03704,-12.17125 -36.56948,-28.38122 -52.15814,-45.62169 -20.80459,-23.00909 -29.00824,-36.28436 -40.82853,-66.06944 -7.28303,-18.35191 -17.4331,-38.09246 -33.29334,-64.75119 -10.73932,-18.05118 -15.38688,-23.07692 -14.58426,-15.77093 1.49191,13.58019 1.8608,35.69663 0.85001,50.96102 l -1.2218,18.45101 4.69775,9.02134 c 2.58377,4.96172 9.47592,17.3744 15.31587,27.58372 17.73469,31.00348 40.73711,79.0559 55.02926,114.95695 7.44987,18.71369 18.45844,45.10943 24.46349,58.65719 17.36041,39.16612 30.0624,69.95048 32.79037,79.47023 3.06543,10.69741 2.28199,23.05881 -1.99246,31.43741 -10.4584,20.5002 -45.27326,55.2352 -76.039,75.8647 -11.69622,7.8427 -37.28461,22.7414 -39.05805,22.7414 -0.5702,0 -1.03673,-1.2295 -1.03673,-2.7324 z m 33.41231,-19.2175 c 5.71722,-3.6559 12.90087,-8.6221 15.96367,-11.0358 5.51412,-4.3456 5.56848,-4.493 5.54521,-15.03 -0.0587,-26.5327 -7.80029,-84.04369 -16.97366,-126.09277 -12.90849,-59.17039 -51.5998,-206.65757 -55.19638,-210.4029 -0.33855,-0.35254 -2.79468,1.47112 -5.45807,4.05257 -4.79959,4.65194 -18.06354,10.87268 -27.4701,12.88339 -3.63052,0.77604 -4.69308,1.6778 -4.1382,3.51202 2.19469,7.2548 3.6585,17.46932 4.50347,31.42524 0.51922,8.57582 1.59682,24.61373 2.39468,35.6398 3.82306,52.83385 6.039,100.17417 6.84678,146.27171 l 0.88474,50.48974 15.77491,16.3349 c 17.80511,18.4372 27.36829,31.9658 30.76447,43.5212 2.3429,7.9715 1.80679,13.1303 -3.41358,32.8478 -0.93146,3.5181 -0.70873,3.4683 9.31142,-2.0827 5.64613,-3.1278 14.94343,-8.6782 20.66064,-12.3342 z m -81.77249,-8.4924 c 7.28564,-27.4132 6.53795,-123.33927 -2.03139,-260.61608 -0.79026,-12.65956 -1.86747,-30.83201 -2.39381,-40.38323 -0.52634,-9.55123 -1.74257,-20.91142 -2.70278,-25.24486 l -1.7458,-7.87902 -11.10655,-0.93682 c -6.10861,-0.51525 -15.11604,-2.384 -20.01651,-4.15277 -4.90047,-1.76877 -9.91232,-3.55445 -11.13744,-3.96817 -1.92428,-0.64982 -2.15943,2.038 -1.72754,19.7452 0.82748,33.92668 -3.13827,80.1097 -10.17626,118.50686 -2.3953,13.06794 -6.39687,36.45656 -8.89242,51.97473 -2.49554,15.51815 -7.18758,41.91389 -10.42675,58.65718 -7.21709,37.30538 -10.43973,58.35448 -9.12346,59.59158 0.54677,0.5138 7.67661,3.4073 15.84406,6.43 33.89167,12.543 45.03207,18.4072 64.57684,33.9925 3.66417,2.9218 7.11881,4.8356 7.67698,4.2527 0.55815,-0.5829 2.08042,-5.0693 3.38283,-9.9698 z m 130.86074,-31.4587 c 24.23184,-24.2318 34.77051,-40.5887 34.79929,-54.0112 0.021,-9.73985 -3.7021,-19.76345 -28.92607,-77.87921 -12.40723,-28.5861 -27.4789,-64.33727 -33.49263,-79.44707 -10.37679,-26.07223 -34.14608,-75.40849 -53.11431,-110.24571 l -8.68379,-15.94874 -4.10079,6.26343 -4.10077,6.26342 9.17138,29.7327 c 5.04426,16.35298 9.76413,31.73744 10.4886,34.18768 3.25988,11.02533 35.61127,145.67393 38.35513,159.63663 9.62299,48.96857 16.41363,107.99907 13.91525,120.96417 l -0.84638,4.3924 6.31434,-5.0011 c 3.47291,-2.7505 12.57225,-11.2589 20.22075,-18.9074 z M 328.22917,944.0535 c 3.19208,-17.1517 9.44132,-52.56876 13.8872,-78.70462 4.44589,-26.13586 9.05836,-52.86571 10.24995,-59.39967 5.80112,-31.80993 9.90634,-125.44296 5.50202,-125.49174 -2.79717,-0.031 -20.45758,-15.45713 -26.7578,-23.37257 -4.06031,-5.10129 -7.68895,-8.77664 -8.06365,-8.16746 -1.46,2.37374 -8.56835,30.35183 -12.84923,50.57398 -2.47435,11.68833 -7.51065,39.75468 -11.19181,62.36967 -7.12008,43.74185 -10.97628,60.38853 -19.50094,84.1829 -8.19364,22.87043 -24.98527,60.23633 -37.03687,82.41705 -7.61057,14.00706 -11.62973,23.31246 -13.33933,30.88406 -1.34575,5.9602 -2.11882,11.1647 -1.71791,11.5656 0.40089,0.4009 5.99358,1.7293 12.42822,2.9521 12.31738,2.3406 51.99487,11.1193 69.614,15.402 l 10.39494,2.5267 1.28871,-8.2766 c 0.70879,-4.5521 3.90042,-22.3098 7.0925,-39.4614 z M 178.04342,847.07009 c 0.0206,-11.77448 2.90089,-32.93521 5.15846,-37.89768 1.17804,-2.58952 3.83132,-6.76054 5.89619,-9.26898 l 3.75431,-4.56078 -14.43681,-5.83416 C 160.34395,782.20543 150.09775,775.61683 136.02839,762.25234 129.94573,756.4744 124.6179,751.747 124.18876,751.747 c -0.42914,0 -1.16546,1.53477 -1.63626,3.4106 -0.4708,1.87581 -4.55272,9.54261 -9.07093,17.03731 -4.51822,7.49471 -8.21494,14.66936 -8.21494,15.94367 0,1.27432 1.69403,5.65995 3.76452,9.74585 8.6205,17.01175 22.53019,26.62717 38.5189,26.62717 5.30583,0 10.23859,0.85006 11.95962,2.06099 1.61104,1.13355 5.88954,8.11521 9.50779,15.51479 3.61825,7.39958 7.12654,13.11516 7.79621,12.70128 0.66966,-0.41387 1.22305,-3.88724 1.22975,-7.71857 z m 59.19609,-56.01441 c 1.72237,-1.6133 1.63933,-3.69056 -0.53903,-13.48184 -1.41631,-6.36606 -4.16933,-16.90088 -6.1178,-23.41069 -1.94847,-6.50982 -4.27667,-17.56844 -5.17377,-24.57474 -1.89345,-14.78762 -0.34264,-25.29287 11.96451,-81.04835 8.29381,-37.57369 12.863,-52.35311 32.36655,-104.69193 23.53904,-63.16831 28.83201,-84.49287 23.52111,-94.763 -1.3457,-2.60229 -2.94493,-4.73146 -3.55385,-4.73146 -1.71726,0 -37.67779,76.93451 -54.14068,115.82937 -8.12396,19.19352 -25.99282,62.62953 -39.70858,96.52448 -24.33464,60.13676 -41.20745,100.49205 -45.43229,108.66201 -2.0462,3.95689 -1.93786,4.16231 4.54869,8.62517 11.72451,8.06669 33.92494,16.97146 47.95036,19.2333 9.73743,1.57033 31.81095,0.17295 34.31478,-2.17232 z m 383.31932,-17.72619 c 0,-0.38081 -2.59524,-4.70775 -5.76724,-9.61541 -11.29919,-17.48208 -16.39853,-35.60089 -18.75815,-66.65098 -0.82708,-10.88341 -1.57279,-14.02106 -3.4846,-14.66172 -8.36296,-2.8024 -24.91564,-12.11192 -35.07849,-19.72877 -34.8934,-26.15188 -52.59603,-48.90477 -84.73147,-108.90392 l -6.21929,-11.61183 -4.48579,7.94839 c -2.46718,4.37161 -5.51391,8.80165 -6.77051,9.84453 -2.00885,1.6672 -1.51635,3.00607 4.07885,11.08841 14.28574,20.63588 30.78823,51.65042 41.30475,77.62748 12.89081,31.84186 21.22211,45.08342 42.59271,67.69586 21.87716,23.14843 47.17946,43.41229 66.27796,53.08011 8.72185,4.41508 11.04127,5.23179 11.04127,3.88785 z m 5.64104,-32.71993 0.60754,-25.24486 -7.50038,-3.37878 c -5.06076,-2.27975 -9.33738,-5.76108 -13.14799,-10.70292 -3.10618,-4.0283 -6.01521,-7.35264 -6.46449,-7.38742 -1.09373,-0.0846 1.10619,22.37287 3.19411,32.60656 2.32337,11.38776 6.04853,20.71658 13.41051,33.58367 5.36393,9.37494 6.54738,10.64957 7.80769,8.40921 0.817,-1.45232 1.75885,-14.00079 2.09301,-27.88546 z m -470.09733,7.05371 c 4.57854,-10.4135 14.79054,-34.97155 22.69333,-54.57346 49.63626,-123.11659 62.3476,-153.05486 88.17014,-207.66215 11.52505,-24.37218 20.95463,-44.92076 20.95463,-45.6635 0,-2.03032 -8.35238,-1.62328 -13.8532,0.67512 -2.66634,1.11405 -6.76519,4.28822 -9.10856,7.0537 -5.63226,6.64676 -14.94739,26.94353 -18.78427,40.92909 -1.69262,6.16963 -5.97458,16.98789 -9.51551,24.04059 -3.5409,7.05269 -9.0964,20.56656 -12.34556,30.03083 -9.74876,28.39657 -20.37489,47.23881 -44.38093,78.69623 -6.59566,8.64294 -17.89489,24.68084 -25.1094,35.6398 -9.863,14.98206 -17.82166,24.76804 -32.07943,39.44491 -10.42918,10.73575 -18.96214,20.55274 -18.96214,21.81554 0,4.65306 38.35307,48.50695 42.42247,48.50695 0.86559,0 5.31989,-8.52014 9.89843,-18.93365 z m 502.94969,-42.21375 c 9.45659,-4.22821 17.4349,-7.86625 17.72959,-8.0845 0.29469,-0.21825 -3.88185,-4.62317 -9.28121,-9.78871 -9.33806,-8.93369 -9.81699,-9.72787 -9.81699,-16.27884 0,-6.15584 -0.31528,-6.8045 -2.96998,-6.11028 -6.48551,1.696 -2.43877,-2.11111 6.31122,-5.93752 9.65829,-4.2236 28.61538,-15.63029 27.624,-16.62167 -0.31299,-0.313 -5.57055,0.0367 -11.68343,0.77713 -6.11289,0.74043 -22.47453,1.94857 -36.35921,2.68477 -13.88468,0.73618 -26.39977,1.82163 -27.81133,2.41209 -1.79117,0.74925 -3.90739,-0.26735 -7.00527,-3.36525 -5.55537,-5.55535 -5.51911,-5.66557 -6.84057,20.79164 l -1.01685,20.35831 7.76654,9.76032 c 9.78513,12.29715 17.63081,16.68408 30.33611,16.96256 4.01111,0.0879 11.17479,-2.265 23.01738,-7.56005 z M 416.79799,685.67616 c 13.857,-4.37743 22.55602,-9.87374 29.4845,-18.62924 6.25345,-7.90248 7.25392,-11.63882 4.96975,-18.55991 l -1.78489,-5.40826 -2.90157,4.77125 c -4.76878,7.84164 -16.96499,18.73757 -25.82666,23.07318 -11.37209,5.56385 -27.11938,6.66193 -36.41691,2.53941 -13.73719,-6.09108 -54.52848,-39.64606 -60.98627,-50.16739 l -2.73437,-4.45498 -0.006,8.18945 c -0.0118,17.89219 21.24228,43.18594 45.87994,54.59926 18.60423,8.61838 32.35177,9.72404 50.32204,4.04723 z m 181.42057,-44.23585 c 0.79866,-6.3551 2.76366,-14.51967 4.36665,-18.14347 l 2.91453,-6.58877 -5.46414,-0.91364 c -24.59001,-4.11166 -58.15696,-23.80727 -78.54204,-46.08506 -13.92283,-15.21552 -16.62974,-18.73289 -37.27456,-48.43478 -18.06644,-25.99235 -24.64144,-37.85454 -34.51373,-62.26755 -4.0716,-10.06861 -9.06137,-20.81263 -11.08834,-23.87559 -4.26516,-6.44508 -13.29909,-11.57656 -20.32909,-11.5474 -9.70206,0.0402 -15.18462,3.14251 -8.59786,4.86499 1.69828,0.44411 2.98331,0.0414 3.00113,-0.94056 0.0171,-0.94446 4.24544,6.97619 9.39622,17.60146 5.15078,10.62526 14.11776,27.35023 19.9266,37.16661 14.05383,23.74958 22.44816,41.52774 23.87748,50.56949 1.80901,11.44371 33.82699,67.7206 50.61498,88.96416 15.6539,19.80847 45.74566,44.57982 66.18515,54.48317 l 11.87993,5.75606 1.09747,-14.52719 c 0.6036,-7.98995 1.75094,-19.72683 2.54962,-26.08193 z m -194.99473,0.78853 c -0.98268,-30.32618 -2.28623,-44.00127 -5.66216,-59.39967 -1.36833,-6.24123 -2.30251,-7.79621 -4.68369,-7.79621 -8.56102,0 -21.29876,-12.57007 -27.931,-27.56334 -4.93934,-11.16618 -5.24806,-34.84433 -0.60977,-46.76735 2.48191,-6.37993 -10.72592,-16.85068 -31.63149,-25.07648 l -7.93212,-3.12109 0.98219,6.34313 c 5.42097,35.00954 12.19947,61.46808 21.38611,83.47642 6.3246,15.15182 5.11184,14.53295 23.93828,12.21555 7.90711,-0.97331 8.02545,-0.93633 3.71249,1.16026 -2.45024,1.1911 -7.68907,2.62468 -11.64187,3.18574 -6.7877,0.96343 -7.14154,1.2353 -6.37073,4.89485 0.44887,2.13111 1.53572,18.57616 2.41522,36.54457 l 1.59909,32.66982 5.51414,4.84882 c 8.31456,7.31135 24.88821,15.19856 31.93719,15.19856 h 5.9766 z m 17.60358,24.16368 c 3.26699,-1.91221 8.59379,-5.783 11.83732,-8.60171 l 5.89736,-5.12495 -0.32806,-31.76275 c -0.18042,-17.4695 -0.74875,-36.01827 -1.26292,-41.21948 l -0.93487,-9.45676 -6.49067,0.88965 c -3.85739,0.52872 -6.49067,0.2987 -6.49067,-0.56695 0,-0.80112 2.1718,-1.46681 4.82623,-1.47931 8.78629,-0.0414 9.37336,-1.90749 9.10282,-28.93461 -0.12994,-12.98194 -1.07246,-21.38472 -3.4716,-30.95033 -3.69093,-14.71614 -11.54149,-35.09732 -17.31144,-44.94301 -2.10275,-3.58803 -3.17418,-6.52371 -2.38101,-6.52371 2.16803,0 11.31671,18.34437 16.45975,33.00413 7.22819,20.60324 9.59157,36.13601 8.70461,57.20913 -0.42111,10.00513 -0.46894,18.19115 -0.10632,18.19115 0.36265,0 2.46384,-0.94536 4.66933,-2.10079 6.17121,-3.23303 13.18511,-11.27039 16.61822,-19.04314 2.70257,-6.11875 2.88755,-7.86188 1.41824,-13.36492 -3.73152,-13.97568 -16.45982,-38.05931 -34.54607,-65.36572 l -10.5793,-15.97251 -3.43287,5.57756 c -5.6992,9.25986 -13.94477,27.27993 -14.74826,32.2312 -0.60504,3.72847 0.14197,5.61176 3.76399,9.48912 14.62393,15.65497 15.15316,50.60497 1.04612,69.08619 l -5.09041,6.66883 2.86539,13.84574 c 2.43939,11.78713 5.72524,56.29132 5.83096,78.97513 0.0257,5.50022 0.19026,5.68946 4.11042,4.72464 2.24605,-0.55279 6.75672,-2.56961 10.0237,-4.48182 z m -63.64418,-44.21107 c -0.54718,-15.72234 -1.40648,-31.76026 -1.90954,-35.63981 -0.88018,-6.78773 -1.09748,-7.0537 -5.7626,-7.0537 -7.2181,0 -24.51695,-5.71186 -30.1319,-9.94917 -6.68017,-5.04116 -5.15253,-5.75161 2.84169,-1.32155 6.13677,3.40075 22.07643,8.30073 27.0023,8.30073 1.69852,0 0.83273,-3.21004 -3.70408,-13.73329 -7.37552,-17.10762 -14.94017,-44.71731 -19.42866,-70.91125 l -3.43525,-20.04739 -10.24541,-5.61128 c -5.63499,-3.08621 -11.0125,-5.31693 -11.95002,-4.95718 -0.93752,0.35977 -2.14109,3.8387 -2.67459,7.73097 -1.03597,7.55828 -9.60392,37.77536 -14.40889,50.81672 l -2.90494,7.88444 5.00915,4.73799 c 15.98069,15.11554 38.07996,62.68294 38.07996,81.96489 0,5.50246 0.90422,6.88789 10.76619,16.49569 10.1684,9.90634 21.81524,19.87929 23.21588,19.87929 0.34957,0 0.18789,-12.86375 -0.35929,-28.5861 z m 87.30685,-2.72073 c 1.20593,-29.83614 -0.36362,-49.39543 -4.01989,-50.09485 -2.42626,-0.46413 -2.57129,0.75393 -1.85468,15.57548 0.42757,8.84344 1.19479,26.77091 1.70493,39.83884 1.1216,28.73132 2.88426,26.48259 4.16964,-5.31947 z m 181.59148,23.88187 c 3.31116,0 3.5336,-0.41566 2.58271,-4.82622 -1.36436,-6.32857 -7.70861,-17.13179 -11.13877,-18.96755 -1.49127,-0.7981 -4.37067,-1.45109 -6.39867,-1.45109 -2.98711,0 -4.12416,1.19845 -5.98795,6.31121 -3.44683,9.45539 -3.42218,10.35713 0.43089,15.76825 3.36263,4.72239 3.91653,4.94341 10.22192,4.07915 3.66666,-0.50256 8.2971,-0.91375 10.28987,-0.91375 z M 399.36177,567.53656 c 5.57799,-5.97125 10.09059,-18.38496 11.26096,-30.97769 1.25857,-13.54163 -3.3442,-29.574 -10.56287,-36.79266 -4.47059,-4.4706 -5.73445,-4.92282 -13.75845,-4.92282 -7.42718,0 -9.7995,0.69822 -14.88221,4.38011 -5.48162,3.97087 -6.14428,5.16216 -7.09235,12.7503 -1.68238,13.46533 -0.10455,28.76603 3.74621,36.3293 6.84283,13.43982 17.38644,23.74032 24.31497,23.75433 1.50998,0.003 4.64816,-2.03134 6.97374,-4.52087 z m -11.82408,-14.88354 c -21.83109,-23.90201 -8.77408,-62.23459 7.08276,-46.37774 7.59889,7.59887 9.96788,33.32587 4.11155,44.65077 -3.38687,6.54948 -6.36937,7.00959 -11.19431,1.72697 z m 9.83652,-3.97867 c 2.87963,-6.7304 3.12139,-20.57014 0.54485,-31.19007 -2.01439,-8.30275 -8.41438,-14.85054 -12.85122,-13.14797 -6.23736,2.39351 -12.73172,29.12704 3.7584,46.56553 4.34834,4.59842 5.78798,4.22326 8.54797,-2.22749 z m -12.75819,-56.66463 8.88508,-0.8788 3.53402,-10.13246 c 1.9437,-5.57287 6.92268,-16.09247 11.06442,-23.37694 4.14171,-7.28445 7.5304,-14.86094 7.5304,-16.83662 0,-4.58682 -7.30577,-10.84563 -14.16105,-12.13168 -4.75006,-0.89111 -17.82443,0.26166 -20.30901,1.79065 -1.47421,0.90723 1.78327,7.64556 4.13169,8.54674 1.111,0.42633 3.3199,-1.58586 5.20835,-4.74454 1.80355,-3.01664 3.5472,-4.72863 3.8748,-3.8044 0.32759,0.92424 -1.29595,4.93371 -3.60787,8.90995 -2.31192,3.97625 -6.07636,11.45576 -8.36543,16.62115 -3.90116,8.80321 -3.99994,9.51007 -1.57664,11.28202 4.37055,3.19583 0.24584,3.72102 -7.54599,0.96078 -9.95145,-3.52526 -24.91369,-11.19042 -34.86842,-17.86309 -4.4921,-3.01107 -12.17694,-7.70647 -17.07741,-10.43426 -10.58853,-5.89395 -10.37166,-5.73527 -9.30135,-6.80558 0.46535,-0.46535 3.5572,0.53702 6.8708,2.22749 7.84104,4.00019 8.60573,3.90704 11.34049,-1.38141 2.20648,-4.26684 2.17211,-4.45496 -0.81377,-4.45496 -1.71464,0 -8.09421,-1.67062 -14.17683,-3.71249 -13.50605,-4.53382 -14.17335,-4.54761 -17.97728,-0.37125 -6.59276,7.23824 -7.00578,9.7294 -2.98476,18.00294 2.03503,4.18725 4.02275,8.61676 4.41715,9.84336 0.87989,2.73647 17.96431,11.86124 36.26005,19.36647 16.37696,6.71811 26.48205,13.39436 30.44827,20.11659 2.86532,4.85637 3.023,4.91721 6.6252,2.55695 2.02952,-1.32978 7.68831,-2.81326 12.57509,-3.29661 z m -3.9352,-39.04988 c 3.7956,-8.72874 4.4834,-11.55229 2.95677,-12.13812 -4.77423,-1.83205 -7.23922,-8.68676 -7.43045,-20.6629 l -0.18978,-11.88505 -10.26481,-2.68378 c -5.64562,-1.47609 -13.94014,-3.9571 -18.43224,-5.51338 l -8.16745,-2.82959 0.51058,12.9328 c 0.45515,11.52895 0.0955,13.75182 -3.313,20.47823 -2.10295,4.15002 -4.58583,8.01658 -5.51748,8.59237 -3.10927,1.92162 39.56787,26.86208 43.64171,25.50415 0.69298,-0.23101 3.48576,-5.53863 6.20615,-11.79473 z m 41.56022,-4.28919 c -1.30632,-2.52614 -2.75049,-4.21762 -3.20926,-3.75883 -0.85388,0.85387 3.48949,8.3518 4.83799,8.3518 0.41052,0 -0.32242,-2.06684 -1.62873,-4.59297 z M 394.51055,394.2352 c -20.07424,-19.46586 -31.85051,-38.90621 -38.45599,-63.48341 -4.65176,-17.30798 -4.74855,-50.09755 -0.19735,-66.8609 6.11286,-22.51538 16.16273,-43.5447 29.40931,-61.53891 l 6.91685,-9.39584 -4.82115,0.96421 c -7.10859,1.42172 -30.83764,13.00426 -41.70897,20.35881 -5.2087,3.52374 -17.05714,13.79721 -26.32986,22.82993 -18.36909,17.89366 -34.54002,40.0422 -38.26721,52.41275 -2.35041,7.80104 -1.6373,15.60332 4.08636,44.70967 4.89268,24.88052 6.50963,29.04494 13.74467,35.399 19.48531,17.11268 69.04173,35.82245 95.41107,36.02197 l 12.08065,0.0914 z m 30.32406,7.40703 c 3.83744,-1.30348 11.52227,-5.46537 17.0774,-9.24863 18.07022,-12.30655 28.78909,-32.50991 35.98671,-67.82919 5.02559,-24.66104 3.97274,-35.74237 -5.79626,-61.00533 -6.28171,-16.24471 -14.83679,-28.61897 -31.1758,-45.09331 -11.84389,-11.94199 -16.29057,-15.32386 -27.19276,-20.68114 l -13.03351,-6.40457 -5.98569,5.83121 c -6.80275,6.62721 -19.33279,25.49553 -23.70577,35.69727 -2.7176,6.33992 -2.74123,6.77285 -0.31835,5.83422 12.46447,-4.82876 28.24985,-0.52493 41.0788,11.2 10.2494,9.36737 16.05269,18.50472 20.83738,32.80862 3.17225,9.48354 3.81307,14.14482 3.81307,27.73615 0,32.59373 -4.73316,51.29253 -15.31443,60.50111 -7.30563,6.35787 -19.46699,12.4453 -24.9041,12.46585 -2.10993,0.007 -4.33571,0.51398 -4.94619,1.12447 -0.61048,0.61048 3.45469,5.51526 9.0337,10.89953 11.06548,10.6792 11.17292,10.70618 24.5458,6.16374 z m -17.97843,-27.15266 c 19.64666,-10.02297 23.44499,-18.05584 26.00995,-55.00697 1.80946,-26.06714 -5.72888,-48.05142 -22.06615,-64.35213 -13.12695,-13.09758 -27.61469,-17.45698 -40.34219,-12.13909 -3.99483,1.66915 -5.44916,3.50816 -7.33975,9.2812 -4.97196,15.18216 -6.84444,26.93113 -6.86582,43.08001 -0.0414,31.306 8.1886,57.92114 24.20389,78.27286 4.42577,5.62414 4.69124,5.73161 12.23444,4.95309 4.24076,-0.43769 10.61531,-2.27773 14.16563,-4.08897 z m -37.23361,-43.66576 c -2.47028,-6.49734 -4.41913,-29.27564 -3.09691,-36.19699 1.10152,-5.76612 0.90303,-6.55609 -1.93526,-7.70207 -2.83371,-1.14415 -2.69928,-1.29166 1.29231,-1.41832 4.33342,-0.13751 4.37395,-0.20591 1.485,-2.5072 -2.93954,-2.34159 -2.93672,-2.358 0.27534,-1.60186 1.97881,0.46582 3.55433,-0.0413 4.03711,-1.29942 0.43549,-1.13485 2.80036,-2.06337 5.25526,-2.06337 3.44264,0 4.98256,1.00388 6.73334,4.3895 2.93782,5.6811 5.41848,29.86987 4.04123,39.40571 -1.12267,7.77321 -3.01568,9.57758 -12.52376,11.93729 -3.46754,0.86057 -4.28106,0.4302 -5.56366,-2.94327 z m 7.88549,-27.68432 c 7.3414,-4.86273 7.83101,-6.23392 5.3788,-15.06374 -1.80812,-6.51062 -6.10646,-9.61842 -8.80533,-6.36649 -4.15868,5.0109 -7.98679,26.02516 -4.74093,26.02516 0.67671,0 4.35208,-2.06772 8.16746,-4.59493 z m 34.06074,29.23604 c -5.37034,-1.23163 -6.55371,-2.21444 -8.10412,-6.73047 -4.03681,-11.75849 -1.50121,-36.75269 4.4157,-43.52676 2.51433,-2.87855 8.51248,-3.48348 10.03961,-1.01251 0.53921,0.87243 2.00964,1.19126 3.26767,0.70851 1.8973,-0.72806 1.96729,-0.4921 0.41047,1.38375 -1.03228,1.24382 -1.29386,2.26396 -0.58129,2.26701 3.44579,0.0148 1.56022,44.65048 -2.00432,47.44662 -0.6353,0.49835 -3.98496,0.25708 -7.44372,-0.53615 z m 3.6899,-35.49144 c 1.92226,-1.74455 3.34123,-4.76928 3.34123,-7.12237 0,-4.68259 -3.58747,-8.99684 -6.53935,-7.8641 -2.49853,0.95878 -6.40842,9.85044 -7.74631,17.61628 l -1.01418,5.88691 4.30868,-2.74222 c 2.36979,-1.50821 5.81225,-4.10674 7.64993,-5.7745 z m -139.24163,66.97708 c 8.21669,-1.40901 10.28481,-2.2745 9.75823,-4.08373 -4.73602,-16.27234 -11.21959,-51.58105 -11.21959,-61.10054 0,-3.18582 -0.27674,-5.7924 -0.61497,-5.7924 -1.69304,0 -34.86297,19.54802 -36.48378,21.50098 -2.41719,2.91256 -2.11388,20.90744 0.54398,32.27281 2.30837,9.87077 5.7042,15.64732 10.28274,17.49156 4.68392,1.8867 15.71726,1.77185 27.73339,-0.28868 z m -37.10117,-27.8215 c 2.66256,-1.55903 19.62888,-6.05834 22.48923,-5.96394 2.68391,0.0887 -19.63214,7.32589 -22.48923,7.29348 -1.97998,-0.0224 -1.97998,-0.1702 0,-1.32954 z"
       id="path1" />
  </g>
</svg>
