<?xml version="1.0" encoding="UTF-8" standalone="no"?>
<!-- Created with Inkscape (http://www.inkscape.org/) -->

<svg
   version="1.1"
   id="svg1"
   width="210mm"
   height="297mm"
   viewBox="0 0 793.70081 1122.5197"
   sodipodi:docname="tina.svg"
   inkscape:version="1.4.2 (ebf0e940d0, 2025-05-08)"
   xmlns:inkscape="http://www.inkscape.org/namespaces/inkscape"
   xmlns:sodipodi="http://sodipodi.sourceforge.net/DTD/sodipodi-0.dtd"
   xmlns="http://www.w3.org/2000/svg"
   xmlns:svg="http://www.w3.org/2000/svg">
  <defs
     id="defs1" />
  <sodipodi:namedview
     id="namedview1"
     pagecolor="#ffffff"
     bordercolor="#000000"
     borderopacity="0.25"
     inkscape:showpageshadow="2"
     inkscape:pageopacity="0.0"
     inkscape:pagecheckerboard="0"
     inkscape:deskcolor="#d1d1d1"
     inkscape:zoom="0.58539464"
     inkscape:cx="346.77461"
     inkscape:cy="277.59052"
     inkscape:window-width="1536"
     inkscape:window-height="888"
     inkscape:window-x="0"
     inkscape:window-y="0"
     inkscape:window-maximized="1"
     inkscape:current-layer="g1"
     inkscape:document-units="mm">
    <inkscape:page
       x="0"
       y="0"
       width="793.70081"
       height="1122.5198"
       id="page2"
       margin="0"
       bleed="0" />
  </sodipodi:namedview>
  <g
     inkscape:groupmode="layer"
     inkscape:label="Image"
     id="g1">
    <rect
       style="fill:#ffffff;stroke:#000000;stroke-width:0.619473;stroke-opacity:0"
       id="rect14"
       width="793.76868"
       height="1122.5876"
       x="-0.067869157"
       y="-0.067869157" />
    <path
       style="fill:#000000"
       d="m 361.0332,519.01758 v 1.36523 h 1.125 c -0.3879,-0.44096 -0.76291,-0.89556 -1.125,-1.36523 z"
       id="path14" />
    <g
       id="g17"
       transform="matrix(0.62014211,0,0,0.62014211,50.146044,144.36187)">
      <g
         id="g15">
        <path
           style="fill:#000000"
           d="m 418.55859,464.61914 c -0.84064,0 -1.95967,1.31765 -7.96484,9.38477 -6.38968,8.49969 -12.99219,16.84261 -19.47461,25.32421 -9.52201,12.0109 -10.02524,12.70767 -10.28516,14.2461 -0.28662,1.23022 -0.5709,1.77963 -0.48437,1.86328 l 0.002,0.002 c 0.10342,0.0721 0.62369,-0.36201 1.98828,-1.05078 0.65286,-0.30312 1.81753,-1.29189 2.58789,-2.19922 6.2409,-7.3506 34.87327,-44.93656 35.05079,-46.01172 0.1413,-0.85584 -0.4987,-1.55859 -1.41993,-1.55859 z"
           id="path10" />
        <path
           style="fill:#000000"
           d="m 400.24609,452.03125 c -0.0278,-3.7e-4 -0.0551,0.002 -0.084,0.004 -1.24926,0.0908 -3.59777,2.51333 -8.64063,8.74414 -7.50437,9.27217 -17.92369,23.08434 -20.06836,26.60547 -0.54259,0.89082 -1.63004,3.7495 -1.65624,4.35351 -0.009,0.21417 0.40526,-0.002 1.75976,-0.91601 1.00257,-0.67662 2.57196,-2.48154 4.89648,-5.63282 5.5277,-7.49373 13.24603,-17.49503 17.43946,-22.59765 4.76107,-5.79332 7.26172,-9.11681 7.26172,-9.65235 0,-0.22172 -0.18039,-0.54733 -0.40039,-0.72461 -0.14522,-0.11701 -0.31333,-0.18101 -0.50782,-0.18359 z"
           id="path9" />
      </g>
      <g
         id="g16">
        <path
           style="fill:#000000"
           d="m 537.04102,448.76562 c -0.6158,0.0282 -2.28533,1.50897 -7.81055,6.87305 -7.6791,7.45513 -28.60201,28.63692 -34.36133,34.78516 -1.95375,2.08569 -3.70681,4.28153 -4.11328,5.15429 -0.38954,0.83644 -0.93176,1.77208 -1.20508,2.08008 -0.28137,0.31707 -0.34504,0.56055 -0.14648,0.56055 0.1929,0 0.42412,-0.11605 0.51172,-0.25781 0.0876,-0.14179 0.95027,-0.65883 1.91796,-1.14844 1.44096,-0.72906 4.3373,-3.53955 16,-15.52734 7.83213,-8.05045 17.21808,-17.5777 20.85938,-21.17188 3.64129,-3.59417 7.17968,-7.23217 7.86133,-8.08398 1.37741,-1.72123 1.59878,-2.9336 0.5957,-3.25196 -0.0325,-0.0103 -0.0683,-0.0136 -0.10937,-0.0117 z"
           id="path8" />
        <path
           style="fill:#000000"
           d="m 574.26367,436.81445 c -0.17548,0.007 -0.36215,0.0392 -0.55859,0.10157 -0.62746,0.19915 -49.76494,49.94867 -61.53125,63.54296 -7.44808,7.66756 -10.71092,11.25338 -11.45899,12.59375 -0.50874,0.91155 -0.842,1.63795 -0.8125,1.75 2.8e-4,8.2e-4 0.002,0.003 0.002,0.004 v 0.002 l 0.002,0.002 0.002,0.002 0.002,0.002 h 0.002 l 0.002,0.002 h 0.002 0.002 c 4.4e-4,-4e-5 0.005,-4e-5 0.006,0 h 0.002 v -0.002 h 0.002 c 0.002,-8e-4 0.003,-0.001 0.004,-0.002 3.33218,-1.44516 4.46495,-2.47156 18.625,-16.88867 7.87892,-8.02196 17.11585,-17.53653 20.52734,-21.14453 22.86926,-24.18659 31.79357,-33.50033 34.50196,-36.00782 1.51633,-1.40385 1.96679,-2.02814 1.96679,-2.7246 0,-0.79003 -0.52862,-1.26179 -1.28906,-1.23243 z"
           id="path7" />
      </g>
      <path
         style="fill:#000000"
         d="m 433.82628,1561.73 c -2.2171,-0.9786 -2.9549,-2.7769 -3.6888,-8.9912 -0.3118,-2.64 -0.653,-5.736 -0.7582,-6.88 -0.8625,-9.3771 -1.6382,-17.1082 -2.4402,-24.32 -1.2437,-11.1847 -1.2058,-10.7856 -1.4434,-15.2 -0.1137,-2.112 -0.2696,-4.2 -0.3465,-4.64 -0.077,-0.4401 -0.2077,-4.184 -0.2907,-8.32 -0.1683,-8.3899 -0.093,-9.0172 2.1167,-17.6 2.3284,-9.0448 9.3475,-24.9517 13.2404,-30.006 1.5424,-2.0025 1.7122,-2.3546 1.2211,-2.5312 -6.7977,-2.4452 -26.4401,-13.0927 -32.86,-17.8124 -2.6487,-1.9473 -4.0321,-3.9376 -4.0265,-5.793 0,-1.5108 0.63,-2.9778 6.1468,-14.4174 4.2031,-8.7154 6.6883,-14.484 9.2369,-21.44 0.8382,-2.288 3.0577,-8.264 4.932,-13.28 14.599,-39.0686 18.8471,-53.0416 30.2076,-99.36 7.4548,-30.3946 7.2415,-29.3591 12.359,-60 5.0577,-30.2831 6.3972,-40.3237 7.3642,-55.2001 0.5044,-7.7596 0.5666,-24.7822 0.1212,-33.12 -0.2864,-5.3595 -0.8904,-14.5383 -1.0949,-16.64 -0.1297,-1.332 -0.4992,-6.1853 -0.9746,-12.8 -0.763,-10.6145 -1.0332,-19.1762 -0.9647,-30.56 l 0.077,-12.8 0.9888,-3.52 c 2.8127,-10.0133 8.0903,-22.96 13.3056,-32.64 2.8427,-5.2763 7.703,-12.3447 10.7268,-15.59998 l 1.4119,-1.52 h -1.7238 c -4.6992,0.01 -18.4176,1.6923 -23.6438,2.9012 -1.496,0.346 -4.016,1.04418 -5.6,1.55158 -1.584,0.5073 -3.9068,1.1756 -5.1618,1.4849 -2.2216,0.5477 -2.3099,0.5461 -3.3487,-0.061 -1.7578,-1.0266 -2.3389,-2.3843 -2.3011,-5.37638 0.041,-3.2754 0.4739,-5.7301 1.8932,-10.744 2.405,-8.4964 7.7107,-21.00952 12.4871,-29.45023 1.2481,-2.20559 4.6865,-7.82159 7.6409,-12.48 10.934,-17.2404 16.3729,-26.38842 20.0924,-33.79427 l 1.4474,-2.88194 -1.2483,-4.29681 c -0.6865,-2.36325 -1.4102,-5.08881 -1.6081,-6.05681 -0.3909,-1.9123 -2.4305,-9.59487 -4.5024,-16.96 -0.718,-2.552 -2.7283,-8.48731 -4.4673,-13.18957 -3.6463,-9.85897 -5.3066,-14.89907 -8.9371,-27.12907 -3.9243,-13.21989 -6.175,-19.08113 -12.3497,-32.16136 -9.3447,-19.79544 -23.2401,-43.53894 -31.5196,-53.85856 -2.6741,-3.33306 -8.0215,-9.11599 -9.2156,-9.96626 l -0.901,-0.64157 -1.2894,1.9932 c -2.1209,3.27855 -11.4275,15.93643 -16.8761,22.95319 -2.8017,3.608 -9.6424,12.464 -15.2017,19.68 -5.5592,7.216 -12.4125,16.072 -15.2295,19.68 -11.7533,15.05326 -28.0053,37.2231 -37.8851,51.68 -2.5259,3.696 -7.5014,10.968 -11.0567,16.16 -17.5063,25.565 -31.4434,48.2381 -41.8978,68.16 -3.7617,7.1682 -5.6124,11.21543 -12.8039,28 -11.9537,27.89916 -12.7642,29.57724 -22.334,46.24004 -3.5487,6.179 -13.3553,22.4214 -15.3598,25.44 -2.4991,3.7635 -4.5016,6.2143 -5.8955,7.2154 l -1.4146,1.0158 1.1481,0.7802 c 2.4466,1.6625 11.719,5.5466 16.7019,6.9963 4.4566,1.2965 8.474,1.6945 19.4719,1.9291 5.6309,0.1202 10.5542,0.3386 10.9405,0.4855 0.3864,0.1469 0.8596,0.5607 1.0516,0.9195 0.7867,1.4699 -1.1339,3.3052 -8.4867,8.1097 -6.3889,4.1746 -10.8035,5.9465 -17.7435,7.1216 -3.6151,0.6121 -7.5833,0.7044 -22.08,0.514 -8.7446,-0.1149 -11.3614,0.098 -14.5108,1.183 -1.8724,0.6448 -1.4623,-0.3487 -3.3888,8.2099 -0.5546,2.464 -1.8852,7.432 -2.9568,11.04 -3.316,11.1641 -6.0713,17.734 -9.7967,23.36 -4.132,6.2401 -15.7977,16.634 -30.0739,26.795 -21.4507,15.2675 -27.3282,19.1054 -39.593,25.8535 -2.816,1.5493 -8.7542,4.8866 -13.196,7.4161 -9.3123,5.3032 -13.5776,7.4381 -15.3266,7.6713 -1.579799,0.2141 -2.997399,-0.7772 -2.997399,-2.0926 0,-1.0795 2.4481,-5.0254 6.287099,-10.1337 13.0254,-17.3322 18.8462,-28.3115 22.4898,-42.421 2.2548,-8.7314 3.383,-16.2945 5.15,-34.5252 2.207,-22.7706 4.1981,-36.4858 6.5742,-45.2847 0.1431,-0.5296 -0.1477,-0.8025 -1.6295,-1.5293 -3.0794,-1.5102 -5.0888,-3.299 -10.6323,-9.465 -2.9476,-3.2785 -7.1648,-7.833 -9.3715,-10.121 -4.1412,-4.2937 -7.4704,-8.2928 -8.8303,-10.6072 -2.3373,-3.9777 -0.7029,-8.0554 6.666,-16.6303 1.8131,-2.1098 8.1925,-9.50448 14.1765,-16.43268 21.1837,-24.52613 24.8084,-29.1176 41.2987,-52.31421 10.0803,-14.17973 14.8898,-20.08772 22.6831,-27.86404 5.4881,-5.47614 10.7371,-9.70767 20.2703,-16.34115 15.3376,-10.67237 21.0546,-15.08958 27.0266,-20.88191 6.9309,-6.72247 11.5359,-12.5882 20.8876,-26.60564 8.2379,-12.3481 19.1717,-27.02207 32.7573,-43.96283 6.2279,-7.76604 13.7804,-17.28808 16.7833,-21.16008 3.0029,-3.872 7.132,-9.128 9.1759,-11.68 8.7158,-10.88256 17.4882,-22.8732 28.7958,-39.36 11.802,-17.20749 19.3108,-27.9412 27.1988,-38.88 3.9344,-5.456 8.8634,-12.33881 10.9534,-15.29515 l 3.8001,-5.37515 -5.3381,-5.50485 c -7.0139,-7.23283 -11.5711,-12.5642 -20.2705,-23.71399 -7.8488,-10.05965 -16.5854,-20.48537 -23.2212,-27.71085 -6.9311,-7.547 -6.8634,-7.46481 -6.8725,-8.35041 -0.01,-0.99725 0.8853,-1.88959 1.8965,-1.88959 0.4041,0 2.3367,0.49843 4.2948,1.10763 1.9581,0.6092 6.6561,2.06601 10.4401,3.23735 19.7727,6.12069 32.7047,11.35611 55.04,22.28253 15.7999,7.72933 30.7265,16.41452 37.5286,21.83639 1.8967,1.51186 5.0828,4.33204 7.0803,6.26706 l 3.6318,3.51823 2.0396,-0.46825 c 1.1219,-0.25754 5.4237,-0.90781 9.5597,-1.44504 8.2544,-1.07219 22.7441,-3.43577 27.52,-4.48908 8.4372,-1.86082 22.72,-6.08189 22.72,-6.71455 0,-0.54057 -4.4129,-10.82203 -5.6306,-13.11857 l -1.2494,-2.35621 -12.64,0.0194 c -15.7091,0.0241 -21.3772,-0.35405 -35.2,-2.34824 -7.4402,-1.07338 -12.6283,-2.04573 -22.1778,-4.15654 -18.6713,-4.12708 -28.3411,-8.29752 -37.9822,-16.38111 -7.3518,-6.16412 -13.5443,-13.79828 -19.5254,-24.07097 -2.7233,-4.67729 -10.0952,-19.33477 -12.3925,-24.64 -4.3508,-10.04715 -11.7709,-30.49242 -15.9105,-43.84 -3.4387,-11.08755 -4.3277,-14.40964 -6.3796,-23.84 -0.6127,-2.816 -1.834,-8.072 -2.7139,-11.68 -4.7356,-19.41778 -5.2326,-21.67273 -6.7354,-30.56 -0.5357,-3.168 -1.4109,-7.272 -1.9448,-9.12 -1.1565,-4.00317 -1.917,-8.10631 -1.9204,-10.36191 0,-1.59677 -1.0545,-7.46783 -2.6763,-14.93537 -2.2717,-10.45958 -5.4066,-32.33382 -7.4041,-51.66272 -0.4808,-4.65228 -1.1171,-16.95076 -1.1171,-21.5907 0,-5.59119 0.2614,-6.72929 1.5454,-6.72929 0.302,0 0.8264,-0.51494 1.1653,-1.1443 1.3736,-2.55071 8.8114,-8.13079 14.0669,-10.5535 4.1043,-1.89206 13.4465,-3.67355 24.9824,-4.76397 1.056,-0.0998 5.232,-0.5318 9.28,-0.95995 4.048,-0.42815 8.296,-0.86914 9.44,-0.97998 1.144,-0.11083 4.6,-0.48835 7.68,-0.83893 6.5395,-0.74436 12.5378,-1.36559 19.68,-2.03818 6.3093,-0.59417 6.2697,-0.59018 17.44,-1.75407 5.016,-0.52264 10.56,-1.09614 12.32,-1.27445 3.0414,-0.30811 12.7252,-1.02105 20,-1.47242 1.848,-0.11466 3.41,-0.25508 3.471,-0.31204 0.061,-0.057 -0.5149,-0.42147 -1.28,-0.81002 -2.8833,-1.46435 -10.1109,-6.58903 -12.1344,-8.60385 -2.3196,-2.30973 -3.8016,-4.94412 -4.0573,-7.21225 -0.2486,-2.2053 0.9871,-4.39361 4.1742,-7.39207 4.6568,-4.38129 12.6306,-10.87296 20.1302,-16.38857 2.6242,-1.9299 3.1289,-2.44481 3.2666,-3.33205 0.9373,-6.04132 2.2752,-34.83618 1.9891,-42.8094 -0.1042,-2.904 -0.277,-12.552 -0.3839,-21.44 -0.107,-8.888 -0.2442,-17.384 -0.305,-18.88 -0.061,-1.496 -0.1396,-7.544 -0.1751,-13.44 -0.072,-11.96604 -0.3887,-18.46169 -1.0811,-22.17617 -0.5785,-3.10421 -2.1614,-6.44202 -4.6053,-9.71112 -2.0735,-2.77361 -9.3637,-10.03654 -12.369,-12.32259 -4.4532,-3.38746 -13.1159,-7.80861 -20.5355,-10.48058 -2.4946,-0.89835 -6.1295,-2.35251 -8.0775,-3.23146 -1.9481,-0.87895 -3.6706,-1.59809 -3.8277,-1.59809 -0.1571,0 -0.5133,0.34733 -0.7914,0.77183 -0.6121,0.93413 -2.9304,1.52131 -9.0183,2.2841 -7.0478,0.88307 -14.1456,-0.14232 -19.4903,-2.81572 -2.3317,-1.16631 -5.2398,-3.88392 -6.3356,-5.92062 -0.5219,-0.97 -2.0019,-6.264617 -4.0924,-14.639577 -3.7497,-15.0225 -4.9915,-19.12379 -7.7239,-25.50935 -3.4931,-8.16355 -3.8069,-9.68555 -2.3263,-11.28322 1.2037,-1.29876 2.159,-1.04352 9.9676,2.66306 10.6555,5.05796 19.4655,10.07904 25.2718,14.40311 6.493,4.83546 11.3977,12.04382 13.4221,19.7264 0.762,2.8914 0.853,3.86131 0.9438,10.057337 l 0.1005,6.85734 1.8565,0.69813 c 1.0211,0.38398 2.8646,1.20497 4.0966,1.82444 1.232,0.61947 4.328,1.8835 6.88,2.80895 7.1832,2.60491 14.4451,6.39888 22.1019,11.54712 7.2933,4.90382 13.2693,11.142 16.062,16.76668 2.2342,4.49984 2.6638,7.94459 2.9331,23.52 0.099,5.72 0.2695,15.656 0.3792,22.08 0.1098,6.424 0.2431,11.75574 0.2962,11.8483 0.092,0.16031 0.4499,11.8595 0.5918,19.3517 0.037,1.936 -0.03,5.248 -0.1491,7.36 -0.1186,2.112 -0.31,6.288 -0.4253,9.28 -0.1152,2.992 -0.2772,6.52 -0.3598,7.84 -0.083,1.32 -0.2966,4.848 -0.4753,7.84 -0.1787,2.992 -0.3974,6.16 -0.4862,7.04 -0.089,0.88 -0.2269,2.248 -0.3072,3.04 -0.547,5.39624 -0.5496,5.5197 -0.1107,5.26136 0.2361,-0.13905 1.239,-0.79664 2.2286,-1.46131 6.8167,-4.57862 16.4187,-8.95653 21.9289,-9.99812 4.9959,-0.94437 12.7246,-0.94307 18.7087,0.003 1.0672,0.16875 1.1744,0.11215 1.385,-0.73107 0.1255,-0.5027 1.0655,-3.14599 2.0889,-5.87399 1.0233,-2.728 3.0201,-8.776 4.4371,-13.44 7.4706,-24.588 11.8423,-35.71977 23.2491,-59.2 2.8643,-5.896 6.567,-13.528 8.2281,-16.96 3.7618,-7.77209 11.3195,-22.10892 17.6011,-33.38882 2.6306,-4.72385 4.7359,-8.63547 4.6784,-8.69249 -0.057,-0.057 -0.8965,0.23816 -1.8645,0.65597 -2.3252,1.0036 -3.4876,0.97384 -5.6891,-0.14569 -4.3994,-2.23716 -5.4734,-4.73856 -9.6813,-22.548347 -2.5111,-10.6279 -2.3162,-11.89414 2.8986,-18.82785 5.2342,-6.95966 12.0858,-12.82436 29.0474,-24.8634 9.5064,-6.74751 11.0294,-7.40167 12.676,-5.44482 1.2276,1.45896 1.1281,3.17823 -0.9248,15.97545 -0.607,3.784 -1.5522,9.832 -2.1005,13.44 -2.3446,15.42944 -4.6197,24.53403 -7.7193,30.891047 -0.8106,1.6626 -1.2969,2.25485 -2.2509,2.74153 -0.6692,0.34143 -2.1886,1.24382 -3.3764,2.00531 -1.1879,0.76148 -3.1335,1.92386 -4.3236,2.58306 -1.6178,0.896 -2.3529,1.53433 -2.9123,2.5288 -11.3124,20.10846 -14.9953,26.99774 -22.2655,41.65025 -20.2789,40.87026 -24.3212,50.52211 -32.6338,77.92 -1.4151,4.664 -3.5652,11.11956 -4.7779,14.34569 -1.3962,3.71421 -2.0733,5.91254 -1.8458,5.99341 0.1976,0.0702 2.1592,0.50088 4.3592,0.95697 7.0383,1.45914 18.9875,4.57247 25.92,6.75339 8.6543,2.72257 13.1176,4.78183 17.3183,7.99029 2.1995,1.67988 4.4942,4.19022 5.2108,5.70032 1.1063,2.33128 0.8479,3.37966 -2.4141,9.79389 -2.3007,4.52409 -8.6189,17.51974 -9.155,18.83041 -0.044,0.10759 9.46,0.19563 21.12,0.19563 20.9502,0 58.6054,0.39012 60.1056,0.62272 0.4259,0.066 5.1412,0.21643 10.4783,0.3342 5.3372,0.11777 10.0172,0.26174 10.4,0.31992 0.3829,0.0582 2.9281,0.1987 5.6561,0.31227 2.728,0.11357 5.608,0.2674 6.4,0.34185 0.792,0.0744 3.528,0.28448 6.08,0.46674 9.9541,0.71087 27.9021,2.54679 31.4225,3.21423 2.3934,0.45377 3.738,1.14406 4.1519,2.13144 0.2067,0.49314 0.7724,1.76063 1.257,2.81663 1.5357,3.34589 4.4248,13.44769 5.2168,18.24 1.568,9.48906 2.2208,22.01589 2.2512,43.19999 0.026,18.04774 -0.2448,22.69592 -2.2545,38.72 -2.1256,16.94783 -5.365,34.77303 -8.9149,49.05558 -4.4822,18.03341 -8.6853,31.93161 -15.6968,51.90442 -8.7887,25.03521 -15.8336,41.17238 -26.6607,61.06941 -2.3117,4.2483 -3.6004,6.9716 -3.71,7.83999 -0.092,0.73183 -0.2446,5.0746 -0.3382,9.6506 -0.327,15.98139 -0.963,28.47025 -1.9474,38.24 -0.098,0.968 -0.6865,5.85924 -1.3088,10.86943 -0.9216,7.42009 -1.0514,9.13553 -0.6998,9.25012 0.2375,0.0774 1.4397,1.09934 2.6717,2.27104 1.232,1.1717 4.184,3.77363 6.56,5.78206 11.6919,9.88313 31.7551,27.80456 40.5055,36.18148 2.83,2.70923 12.406,11.99171 21.28,20.62775 27.9949,27.24421 30.0152,29.14457 41.166,38.72213 12.4572,10.69962 24.3776,19.91616 40.7296,31.49087 4.8354,3.42275 10.0697,7.20011 11.6316,8.39415 1.562,1.19403 2.9163,2.17096 3.0095,2.17096 0.4811,0 -1.1275,-14.82355 -2.5175,-23.2 -2.8313,-17.06137 -7.228,-32.45995 -15.8068,-55.36 -9.0526,-24.16484 -13.5534,-33.88461 -22.9226,-49.50233 -7.0396,-11.73458 -13.5474,-21.27687 -24.2909,-35.61766 -9.9294,-13.25404 -12.7432,-16.30157 -19.9844,-21.64444 -6.5666,-4.84515 -7.6757,-5.99621 -7.3595,-7.63793 0.469,-2.43558 2.4919,-3.38272 8.7995,-4.12002 6.3696,-0.74456 17.7294,-0.95897 27.5628,-0.52024 l 5.2372,0.23366 -0.8,-0.86707 c -0.9529,-1.03285 -5.4567,-4.56171 -7.04,-5.51615 -4.6106,-2.77927 -10.7594,-5.17463 -21.2228,-8.26758 -20.7379,-6.13004 -27.9508,-7.30676 -48.8572,-7.97051 -7.4854,-0.23766 -11.3731,-0.63987 -12.3459,-1.27728 -1.3277,-0.86995 -1.4172,-2.81686 -0.1654,-3.59863 0.9442,-0.58964 8.8341,-3.59417 11.7113,-4.45974 10.1474,-3.0527 30.7243,-7.65647 44.96,-10.05913 14.4959,-2.44658 19.5504,-4.79422 23.1124,-10.73504 2.2211,-3.70449 2.8202,-7.29758 2.6344,-15.7999 -0.119,-5.44852 -0.8945,-11.5863 -2.5471,-20.16 -0.5937,-3.08 -1.7308,-9.2 -2.527,-13.6 -2.5444,-14.06249 -3.817,-17.89064 -8.0291,-24.15196 -3.2052,-4.7647 -4.8605,-6.42214 -8.9436,-8.95564 -3.5526,-2.20433 -4.02,-2.65254 -4.02,-3.85534 0,-0.83761 1.5068,-1.91706 2.6759,-1.91706 1.2288,0 8.098,2.11281 18.7641,5.77146 35.6461,12.22712 67.6712,27.53486 78.069,37.31638 7.7196,7.26204 9.9514,14.07367 8.5293,26.03216 -0.2825,2.376 -0.7959,6.696 -1.1408,9.6 -0.3449,2.904 -0.9986,9.384 -1.4525,14.4 -0.4539,5.016 -1.1121,11.28 -1.4626,13.92 -0.3505,2.64 -1.0138,7.608 -1.474,11.04 -1.0227,7.62719 -1.1448,15.17705 -0.3028,18.72 1.246,5.24314 5.5423,16.11192 8.203,20.75226 0.8753,1.52649 1.5914,3.0605 1.5914,3.40891 0,0.48677 0.8336,1.05154 3.5992,2.43856 12.6563,6.34733 18.8075,12.20636 23.7714,22.6422 2.6733,5.62018 3.844,9.63876 5.2315,17.95807 1.7287,10.36495 3.585,30.39325 4.0337,43.51999 0.1022,2.992 0.2572,6.232 0.3444,7.2 0.2968,3.29676 0.3922,30.5379 0.1288,36.8 -0.329,7.82207 -0.9259,19.16902 -1.1194,21.28 -0.081,0.88 -0.2983,3.688 -0.4837,6.24 -1.5211,20.9389 -3.577,34.46771 -6.7015,44.09721 -2.4494,7.54925 -8.4236,20.17696 -12.5399,26.50601 -4.2009,6.45906 -8.9561,10.06518 -15.2045,11.53052 -3.4603,0.81146 -14.0203,0.80236 -19.3,-0.0166 -11.3426,-1.75949 -25.302,-5.66523 -34.4,-9.62488 -17.2578,-7.51103 -37.7781,-21.3368 -57.7919,-38.93783 -31.0297,-27.28896 -39.4582,-34.38935 -52.9281,-44.58788 -2.288,-1.73233 -4.7756,-3.65082 -5.5281,-4.26331 -1.5115,-1.23034 -1.8515,-1.21719 -1.3686,0.0529 0.1767,0.46468 0.7781,2.96866 1.3366,5.56438 1.333,6.19637 1.4401,11.15912 0.3191,14.78572 -1.4104,4.56271 -4.2811,9.25349 -8.2151,13.42379 -1.9278,2.04354 -2.0639,2.28575 -2.0639,3.67298 0,2.54645 -3.8987,16.74885 -19.2038,69.95701 -6.8148,23.69181 -7.4874,26.60413 -6.2535,27.07764 0.2545,0.0977 1.0338,1.92913 1.7317,4.06995 0.698,2.14083 1.8766,5.76441 2.6191,8.05241 3.1075,9.57528 7.9926,19.15174 19.1139,37.46949 11.3168,18.63976 18.6146,32.27025 25.5122,47.65055 2.4473,5.45698 4.0008,9.78648 3.9992,11.14548 0,2.1379 -2.0031,4.0575 -4.2229,4.0519 -0.5807,0 -2.6399,-0.2147 -4.5759,-0.4738 -4.9428,-0.6615 -9.3629,-0.6131 -12.48,0.1367 -1.408,0.3387 -6.592,2.0074 -11.52,3.7082 -4.928,1.7008 -9.644,3.3222 -10.48,3.6031 -0.836,0.2808 -1.52,0.7069 -1.52,0.9469 0,0.6912 1.8706,8.4272 2.3797,9.8415 2.1857,6.0718 8.5452,22.8309 9.796,25.8152 2.549,6.0814 8.5254,18.6651 16.1595,34.0248 8.0871,16.2713 12.2454,24.1655 15.6927,29.7909 1.3047,2.1289 2.3721,3.9876 2.3721,4.1303 0,0.8186 15.586,26.0998 31.4657,51.0388 6.3317,9.944 14.491,22.76 18.1317,28.48 8.3792,13.1649 12.5409,19.5661 24.8612,38.24 44.307,67.1563 49.1441,74.0545 66.6429,95.04 6.1451,7.3696 9.0479,10.6388 17.7578,20 3.1932,3.432 10.1922,11.0443 15.5533,16.9162 5.3611,5.8718 11.7395,12.8558 14.1743,15.52 9.26837,10.1414 11.33617,13.5195 10.16347,16.604 l -0.2897,0.7618 4.4459,-0.1419 c 8.9273,-0.2849 22.0467,1.6645 37.2534,5.5354 10.154,2.5848 16.7225,5.0667 35.36,13.361 5.72,2.5456 11.624,5.0767 13.12005,5.6247 1.496,0.5479 5.3803,1.9516 8.6317,3.1191 8.6132,3.093 10.5308,4.2039 11.0879,6.4234 0.6417,2.5569 -4.5596,7.4812 -15.4516,14.6287 -13.27855,8.7134 -27.33705,15.0566 -41.20145,18.5901 -14.3426,3.6553 -27.137,5.1083 -45.1466,5.1269 -12.8029,0.013 -16.16927,-0.2438 -27.67997,-2.1134 -13.6806,-2.222 -24.9717,-5.0244 -39.9145,-9.9065 -14.8757,-4.8602 -23.6443,-9.0072 -31.7452,-15.0137 -6.0639,-4.4961 -9.6023,-8.6491 -13.1247,-15.4044 l -2.2779,-4.3687 -2.3089,-0.2179 c -13.8761,-1.3101 -26.8091,-4.4213 -35.2311,-8.4752 -5.1017,-2.4557 -8.8988,-5.1444 -12.8609,-9.1064 -4.4523,-4.4523 -6.5655,-7.6319 -10.8618,-16.3432 -5.4491,-11.0487 -8.9377,-19.4785 -17.2822,-41.76 -7.3982,-19.7547 -10.8551,-28.8034 -15.0788,-39.4699 -2.032,-5.1315 -5.9706,-15.2341 -8.7526,-22.4501 -2.7819,-7.216 -6.568,-17.008 -8.4136,-21.76 -10.0543,-25.8879 -15.7893,-40.8725 -19.5938,-51.1954 -19.0105,-51.581 -29.3214,-77.078 -38.9532,-96.3246 -4.8833,-9.7578 -15.8023,-33.4232 -19.3379,-41.9118 -0.9511,-2.2836 -3.0193,-6.5856 -4.5961,-9.5602 -1.5767,-2.9745 -2.8668,-5.7413 -2.8668,-6.1485 0,-0.636 -0.214,-0.7741 -1.52,-0.9808 -3.22,-0.5097 -27.9864,-0.2226 -35.4961,0.4114 l -2.2961,0.1939 0.3226,0.838 c 0.4841,1.2572 -0.1335,7.1006 -4.0457,38.278 -2.8493,22.707 -5.1409,42.0636 -7.3687,62.24 -1.8338,16.6082 -3.6022,38.9176 -4.9462,62.4 -0.1763,3.08 -0.3917,6.824 -0.4787,8.32 -0.087,1.496 -0.2365,4.232 -0.3321,6.08 -0.096,1.848 -0.2441,4.44 -0.3299,5.76 -0.2174,3.3477 -1.0408,19.1139 -1.27,24.32 -0.1047,2.376 -0.2482,5.04 -0.319,5.92 -0.071,0.88 -0.2175,4.48 -0.3258,8 -0.1084,3.52 -0.2534,6.976 -0.3223,7.68 -0.2968,3.0337 -0.3998,30.8679 -0.132,35.68 0.2568,4.6144 1.6293,22.2034 2.0476,26.24 0.082,0.792 0.3058,3.096 0.4971,5.12 1.1919,12.6112 3.3156,29.7994 5.7679,46.682 1.4414,9.9231 1.2683,12.3493 -1.2214,17.113 -2.8834,5.5169 -10.2346,10.7068 -21.3512,15.0739 -2.112,0.8296 -3.93,1.6036 -4.0399,1.7198 -0.11,0.1162 -0.2862,2.1553 -0.3916,4.5313 -0.4151,9.3543 -3.0992,24.0158 -5.9167,32.32 -2.5194,7.4254 -7.6934,17.1392 -14.914,28 -9.871,14.8473 -16.5471,22.7809 -25.9239,30.8071 -10.3375,8.8486 -31.1948,19.6282 -41.9658,21.6891 -2.9922,0.5725 -6.6894,0.5794 -7.9681,0.015 z m 7.3281,-3.215 c 5.8633,-1.1219 13.8524,-4.4718 24.9225,-10.4503 8.8061,-4.7557 13.6016,-8.2834 20.829,-15.3222 6.5937,-6.4215 11.0886,-11.9793 18.7953,-23.2394 5.2143,-7.6186 7.2594,-11.0228 10.7461,-17.8876 3.8456,-7.5716 5.2426,-11.1683 6.791,-17.4847 2.4216,-9.8783 3.6865,-17.6212 4.0843,-25.003 l 0.2032,-3.771 -0.8927,0.3394 c -1.4435,0.5489 -9.2359,2.4551 -14.2468,3.4851 -22.3583,4.5961 -43.5831,3.542 -63.4963,-3.1534 -2.0989,-0.7058 -3.8327,-1.2485 -3.8529,-1.2061 -0.02,0.042 -0.4229,0.6022 -0.8949,1.2441 -3.2155,4.3726 -10.7275,20.9575 -12.806,28.2729 -2.3457,8.2557 -2.6216,10.0766 -2.5935,17.12 0.031,7.7137 0.7498,18.0816 2.042,29.44 1.2281,10.7947 1.8032,17.1249 2.3986,26.4 0.617,9.6129 0.7088,10.3059 1.4661,11.0631 0.7659,0.7659 3.0243,0.819 6.505,0.1531 z m 496.19187,-83.8177 c 17.3795,-1.6335 32.1507,-5.2279 44.781,-10.8971 11.8656,-5.3258 23.19295,-12.143 31.21205,-18.7843 3.2366,-2.6805 4.1749,-3.9298 3.3488,-4.4585 -0.5455,-0.3492 -5.7517,-2.3793 -13.1018,-5.1091 -5.64495,-2.0965 -10.06235,-3.9562 -20.45605,-8.6119 -15.6993,-7.0323 -25.6282,-10.3386 -40.363,-13.441 -12.1658,-2.5615 -21.4786,-3.6584 -29.741,-3.5032 -2.376,0.045 -4.464,0.023 -4.64,-0.049 -0.176,-0.072 -2.91197,1.1676 -6.07997,2.7536 -9.5741,4.7932 -12.1387,5.9417 -19.3181,8.6514 -5.7886,2.1847 -12.5647,4.1872 -20.3619,6.0173 -17.1704,4.0301 -26.1546,5.0811 -43.76,5.1193 -5.94,0.013 -10.8,0.074 -10.8,0.1361 0,0.062 0.7211,1.5043 1.6024,3.2053 4.0982,7.9094 12.0494,14.7998 23.5176,20.3799 5.8537,2.8483 9.0374,4.1085 17.12,6.7766 20.5927,6.7979 40.6911,11.1495 57.11997,12.3674 4.0234,0.2982 24.9865,-0.089 29.92,-0.5528 z m -445.75997,-26.7631 c 11.6065,-0.8679 23.759,-3.1014 33.12,-6.0871 9.1432,-2.9161 16.4269,-6.1193 20.64,-9.0768 1.144,-0.8031 2.5959,-1.8093 3.2265,-2.2361 1.7122,-1.1587 2.824,-2.6256 4.1888,-5.5266 1.8723,-3.9796 1.8678,-4.4939 -0.1628,-18.6688 -2.8928,-20.1928 -3.911,-28.6054 -5.4805,-45.28 -1.538,-16.3392 -2.1363,-24.1008 -2.3929,-31.04 -0.257,-6.9501 -0.1692,-25.2948 0.1493,-31.2 0.09,-1.672 0.2375,-5.56 0.3274,-8.64 0.09,-3.08 0.3744,-9.344 0.6323,-13.92 0.7222,-12.8153 1.3797,-24.9947 1.9089,-35.36 1.5503,-30.3662 4.1962,-63.1506 6.8826,-85.2801 0.3419,-2.816 1.1975,-10.16 1.9014,-16.32 0.704,-6.16 1.4314,-12.28 1.6167,-13.6 0.1852,-1.32 0.7575,-5.856 1.2718,-10.08 0.5143,-4.224 1.2982,-10.488 1.7421,-13.92 2.1501,-16.6248 2.8328,-22.0112 3.4067,-26.88 0.622,-5.2767 0.7715,-6.2241 1.1296,-7.1573 0.1656,-0.4316 -0.2546,-0.49 -3.2072,-0.4456 -3.2752,0.049 -3.4283,0.021 -4.2403,-0.7912 -0.8104,-0.8105 -0.8223,-0.8732 -0.3123,-1.6516 0.9034,-1.3787 1.7385,-1.4856 17.8119,-2.2799 19.0605,-0.9418 33.8666,-0.2686 37.2355,1.6931 1.1448,0.6666 1.4342,1.6771 0.6928,2.4185 -0.4609,0.461 -0.4057,0.6367 0.6239,1.9855 3.2158,4.213 9.4646,17.2066 23.5398,48.9485 1.0146,2.288 3.3127,7.256 5.107,11.04 5.6088,11.8286 8.8803,19.5895 15.0404,35.68 1.5498,4.048 3.7794,9.808 4.9548,12.8 3.5432,9.0195 11.1343,28.948 12.4942,32.8001 0.4038,1.144 1.8386,5.032 3.1885,8.64 1.3498,3.608 3.4345,9.224 4.6325,12.48 1.1981,3.256 4.9875,13.12 8.4209,21.92 3.4334,8.8 9.0086,23.2 12.3892,32 3.3807,8.8 7.9233,20.4792 10.0948,25.9537 4.443,11.2014 9.2601,23.794 17.0022,44.4463 12.0272,32.0829 18.7208,46.5494 24.6816,53.3429 7.6348,8.7016 18.7328,13.9077 35.3023,16.5604 10.1895,1.6314 12.4666,1.7752 27.9596,1.7667 17.1976,-0.01 21.1535,-0.3394 34.72,-2.8953 18.1815,-3.4253 27.6408,-6.3381 43.52,-13.4011 8.1441,-3.6224 8.91697,-4.018 9.63527,-4.931 1.4649,-1.8624 0.3735,-3.634 -6.87317,-11.1563 -5.337,-5.54 -8.667,-9.1037 -12.2021,-13.0584 -3.6499,-4.0831 -16.2166,-17.812 -18.7351,-20.4679 -7.1119,-7.4994 -16.8232,-18.5424 -23.6121,-26.8498 -7.6056,-9.3068 -13.0363,-16.5892 -21.945,-29.4275 -2.4263,-3.4966 -5.3287,-7.6726 -6.4499,-9.28 -3.5257,-5.055 -14.9777,-22.553 -15.901,-24.2957 -0.4857,-0.9169 -1.0729,-1.811 -1.3049,-1.987 -0.911,-0.6911 -28.2002,-42.183 -42.5137,-64.64 -8.8943,-13.9548 -18.8183,-29.6401 -18.8183,-29.7434 0,-0.065 -0.9482,-1.535 -2.1072,-3.2672 -3.5479,-5.3027 -16.6112,-26.5227 -17.069,-27.7269 -0.1545,-0.4063 -0.6301,-1.1625 -1.0569,-1.6806 -2.9757,-3.6119 -16.0629,-27.3062 -26.1487,-47.342 -6.034,-11.987 -7.9852,-15.976 -13.0336,-26.6459 -7.1324,-15.0744 -14.8397,-36.8129 -15.9668,-45.0341 -0.1206,-0.88 -0.2698,-1.6891 -0.3315,-1.798 -0.062,-0.1089 -1.4474,0.1979 -3.0792,0.6819 -4.8779,1.4465 -25.6475,6.3145 -30.8071,7.2206 -3.7148,0.6523 -5.4511,0.8069 -7.68,0.6841 -9.1261,-0.5032 -21.4271,-5.1085 -34.4,-12.8789 -13.3781,-8.0131 -21.5317,-11.0815 -38.56,-14.5108 -11.8327,-2.383 -30.8167,-5.02438 -40.5088,-5.63618 l -3.0687,-0.1938 -1.983,2.1198 c -3.3988,3.63328 -6.0088,7.26188 -10.6967,14.87128 -5.266,8.5478 -12.8946,27.3741 -14.7006,36.2792 -0.668,3.2936 -0.7222,4.4013 -0.7222,14.7608 0,11.9558 0.2098,17.6541 0.9602,26.08 2.1511,24.155 2.8556,38.3139 2.6191,52.64 -0.3377,20.4486 -1.5235,30.4133 -9.0255,75.8401 -2.4181,14.6424 -6.2519,32.6751 -10.5451,49.6 -11.6905,46.0869 -19.91,73.0422 -30.3954,99.68 -1.9744,5.016 -4.8562,12.432 -6.4039,16.48 -1.5477,4.048 -3.6035,9.16 -4.5685,11.36 -1.9709,4.4936 -6.9773,14.5873 -9.393,18.9378 -2.1068,3.7942 -2.2358,4.5005 -1.0513,5.753 3.2184,3.4032 23.8652,14.8046 34.5234,19.0642 5.5757,2.2284 6.3237,2.4829 11.52,3.9199 12.3557,3.4167 24.8269,4.7239 36.64,3.8405 z m -380.0023,-266.9641 c 3.3427,-1.9408 8.4547,-4.8227 11.36,-6.4044 15.1996,-8.275 24.5823,-14.3135 39.4171,-25.3684 2.5822,-1.9242 5.6052,-4.1466 6.7179,-4.9386 5.6062,-3.9905 16.8748,-13.4214 21.2645,-17.7966 7.0078,-6.9847 10.7363,-15.1355 16.4304,-35.918 1.0522,-3.8406 2.0086,-7.2317 2.1253,-7.5358 0.1167,-0.304 0.019,-0.9143 -0.2179,-1.3563 -0.6132,-1.1458 0.067,-2.2084 2.2666,-3.5394 4.3932,-2.6588 8.427,-3.1377 23.9984,-2.8492 10.9357,0.2026 11.9247,0.1741 15.52,-0.4469 7.3044,-1.2618 10.7004,-2.6628 17.76,-7.3266 l 3.68,-2.4312 -9.6,-0.1971 c -8.0828,-0.1659 -10.1196,-0.3062 -12.8875,-0.8876 -5.5133,-1.1579 -10.9854,-3.0766 -17.7383,-6.2195 -3.7133,-1.7282 -5.9276,-3.1956 -6.4058,-4.245 l -0.3511,-0.7708 h -6.7487 c -8.2531,0 -15.2337,-0.3997 -25.3086,-1.4354 -19.9438,-2.0504 -23.8435,-1.8717 -35.9956,1.6492 -6.7812,1.9647 -9.6026,2.5885 -12.8613,2.8437 l -2.7769,0.2175 -0.5307,3.0841 c -0.2919,1.6962 -0.8008,4.596 -1.1309,6.444 -1.5819,8.857 -2.9689,20.0969 -4.6202,37.44 -0.9216,9.6801 -1.4697,14.2007 -2.2888,18.88 -2.5882,14.7846 -6.2169,26.2453 -11.2464,35.52 -3.0872,5.6929 -9.7153,15.5876 -16.4479,24.5541 l -3.4195,4.5541 1.9791,-0.9942 c 1.0885,-0.5467 4.7141,-2.5819 8.0568,-4.5226 z m 42.2423,-131.9918 c 10.1196,-3.0549 15.7108,-3.9736 22.56,-3.707 1.848,0.072 7.68,0.5527 12.96,1.0684 13.4251,1.311 18.3004,1.6066 27.84,1.688 9.1711,0.078 9.4339,0.032 11.1255,-1.9788 1.8218,-2.1651 21.3637,-35.2421 25.9185,-43.8702 2.2527,-4.26728 7.6624,-15.62808 8.0758,-16.95998 0.7003,-2.256 13.7319,-32.30783 16.1661,-37.28002 3.4146,-6.97493 7.9807,-15.33821 16.2025,-29.67633 7.1025,-12.38618 9.8088,-16.85142 21.8697,-36.08367 11.9117,-18.99436 11.9515,-19.05473 27.962,-42.4 6.9497,-10.13349 21.1051,-29.0909 35.3635,-47.36 7.4391,-9.53174 24.6731,-31.76181 29.6742,-38.27671 1.9568,-2.54911 5.3048,-6.74005 7.44,-9.31322 2.1352,-2.57317 3.8822,-4.80486 3.8822,-4.95933 0,-0.15447 -0.5943,-0.85007 -1.3206,-1.54579 -1.5668,-1.50086 -3.1594,-3.87174 -3.1594,-4.70349 0,-1.87547 2.1314,-3.65587 3.9589,-3.30697 3.2218,0.61509 13.1811,9.39308 20.1806,17.78686 8.1844,9.81467 19.9859,29.38626 30.5828,50.71865 8.0885,16.28287 11.394,24.4844 15.6709,38.88286 3.6872,12.41302 5.3012,17.35049 8.4196,25.75714 3.7014,9.97818 4.1467,11.63541 6.1483,22.88 2.1535,12.09874 3.0959,16.67936 4.1425,20.13639 0.449,1.48302 0.8164,2.97009 0.8164,3.30462 0,0.80441 -1.6992,2.47899 -2.5154,2.47899 -0.5,0 -1.0537,0.80783 -2.4675,3.6 -3.8256,7.55556 -8.2451,15.01854 -17.576,29.68 -7.1627,11.25465 -8.5837,13.65534 -11.3408,19.16082 -6.1281,12.2364 -10.6724,25.208 -11.1362,31.7876 l -0.174,2.4684 2.205,-1.0949 c 5.0407,-2.5032 11.6778,-4.1988 19.9649,-5.1005 15.731,-1.7118 24.8681,-1.5722 40.32,0.6159 3.08,0.4362 8.264,1.1653 11.52,1.6204 14.9335,2.087 27.8957,5.11518 37.0773,8.66178 4.7627,1.8396 8.5144,3.7377 16.4218,8.308 8.4163,4.8644 14.9362,8.0432 19.8456,9.6758 3.9729,1.3211 8.2273,2.4314 8.4527,2.206 0.067,-0.067 -0.039,-1.6943 -0.237,-3.6157 -0.3707,-3.605 -0.2148,-11.1627 0.3327,-16.1336 0.3905,-3.5449 0.6121,-7.44888 0.8357,-14.71998 0.2655,-8.6346 1.2766,-21.77583 3.0284,-39.36002 1.2457,-12.50331 1.3717,-17.25212 1.1544,-43.52 -0.3243,-39.21759 -1.0647,-57.72606 -3.0849,-77.12 -0.3575,-3.432 -0.8248,-8.112 -1.0384,-10.4 l -0.3884,-4.16 -1.6592,-0.20251 c -3.2696,-0.3991 -6.4333,-1.68015 -15.2802,-6.18728 -12.9184,-6.58148 -23.9029,-11.8011 -33.0215,-15.69119 -16.6009,-7.0822 -29.6828,-14.27911 -45.4792,-25.02 -19.556,-13.29733 -31.5212,-21.5621 -45.0398,-31.11041 -8.096,-5.7183 -17.672,-12.42445 -21.28,-14.90257 -3.608,-2.47812 -10.736,-7.37446 -15.84,-10.88076 -27.8538,-19.1347 -32.0477,-22.32326 -41.8855,-31.84443 -2.5464,-2.46446 -4.7774,-4.48084 -4.9578,-4.48084 -0.1804,0 -1.1674,1.26 -2.1933,2.8 -3.6441,5.47025 -8.3345,12.18065 -18.173,25.99999 -3.1952,4.488 -10.8977,15.576 -17.1167,24.64 -12.6426,18.4263 -15.1681,21.96782 -24.645,34.56 -6.7432,8.95991 -24.0172,31.15131 -29.891,38.4 -10.3652,12.79162 -13.1674,16.33521 -19.1052,24.16 -3.6061,4.752 -7.7345,10.18973 -9.1742,12.08385 -1.4397,1.89412 -5.23,7.36612 -8.4228,12.16 -6.9207,10.39085 -10.8111,15.65158 -15.5567,21.03615 -8.1083,9.19992 -13.878,14.03699 -31.1188,26.0888 -16.3789,11.44925 -20.9522,15.42204 -30.3803,26.3912 -4.0623,4.72621 -7.3794,9.12018 -15.7025,20.8 -13.3761,18.77059 -18.401,25.27763 -29.7572,38.53452 -11.2532,13.1365 -15.4693,18.00868 -20.7584,23.98848 -8.4367,9.5384 -8.9375,10.1443 -9.8031,11.8599 -0.9432,1.8695 -0.9991,2.8636 -0.2385,4.242 0.308,0.5581 3.4304,4.0119 6.9386,7.675 3.5083,3.6631 8.6034,9.1571 11.3226,12.209 5.1051,5.7297 6.4489,6.9401 9.1788,8.2672 1.4748,0.717 1.8878,0.7675 5.28,0.6467 3.3864,-0.1207 4.1906,-0.2853 10.08,-2.0632 z m 435.4261,-56.93348 c -1.6086,-0.7928 -2.6799,-2.8755 -2.6688,-5.1884 0.011,-2.4152 0.5728,-3.738 2.2147,-5.2196 1.6994,-1.5335 3.0909,-1.8047 4.796,-0.9348 1.7038,0.8692 2.5143,1.956 2.9668,3.978 0.5258,2.3496 -0.01,4.1655 -1.7027,5.7779 -1.3252,1.2618 -2.9545,2.1267 -3.9818,2.1135 -0.3137,0 -1.0445,-0.241 -1.6242,-0.5266 z m 3.3742,-1.8711 c 1.7642,-0.1075 3.1271,-2.6291 2.6265,-4.8592 -0.3495,-1.5565 -2.1748,-3.2958 -3.4589,-3.2958 -1.9201,0 -3.5679,2.1429 -3.5679,4.64 0,2.5348 1.3981,4.2623 3.04,3.7562 0.352,-0.1085 0.9641,-0.217 1.3603,-0.2412 z m -0.1166,-45.24495 c -3.1663,-1.93077 -3.3749,-9.28269 -0.3608,-12.71562 1.3195,-1.50284 2.6081,-2.1083 4.4869,-2.1083 3.0233,0 4.3953,1.87775 4.3793,5.99385 -0.015,3.9019 -1.6844,7.91145 -3.4878,8.37756 -0.4282,0.1107 -1.1482,0.39414 -1.6,0.62988 -1.1389,0.59434 -2.2463,0.53686 -3.4176,-0.17737 z m 2.7563,-2.22758 c 0,-0.58055 1.7011,-1.97354 2.212,-1.81138 1.1486,0.36454 1.8819,-2.79337 1.3352,-5.75032 -0.4207,-2.27607 -0.9234,-2.85851 -2.4304,-2.8158 -1.5113,0.0428 -2.5666,0.78607 -3.38,2.38052 -1.3868,2.7183 -1.0138,6.87188 0.7266,8.09088 0.61,0.42724 1.5366,0.37062 1.5366,-0.0939 z m 1.76,-48.41505 c -1.1547,-0.63709 -2.4468,-2.00484 -3.1245,-3.30744 -0.9091,-1.7472 -1.1631,-6.03554 -0.4404,-7.43308 0.8857,-1.71284 3.6241,-2.93077 5.6091,-2.49478 2.9363,0.64491 5.1977,6.07922 3.7138,8.92444 -0.2629,0.50411 -0.478,1.27911 -0.478,1.72221 0,1.26255 -1.9957,2.9636 -3.4628,2.95148 -0.6474,-0.005 -1.4652,-0.16863 -1.8172,-0.36283 z m 3.2301,-4.02744 c 1.0472,-2.3441 0.9414,-4.33521 -0.3181,-5.98651 -1.1569,-1.51676 -2.6752,-1.57947 -4.086,-0.16873 -0.9076,0.90766 -0.9513,1.06391 -0.7373,2.64 0.3352,2.46971 1.0723,4.06068 2.1997,4.74818 1.6075,0.98026 2.0325,0.80213 2.9417,-1.23294 z m -28.8301,-60.92273 c -7.4268,-0.57657 -18.2479,-2.38823 -25.76,-4.31273 -14.5517,-3.72794 -30.284,-10.16283 -39.2,-16.03378 -7.5083,-4.94403 -12.1037,-9.42799 -16.6587,-16.25473 -3.5303,-5.29103 -8.916,-17.05332 -9.7814,-21.36225 -0.457,-2.2758 -0.1613,-4.07378 0.6701,-4.07378 1.6724,0 3.6062,3.03516 6.7281,10.56 3.7229,8.97369 6.9895,14.0713 12.6215,19.69645 8.1638,8.15383 17.473,13.15839 35.4006,19.03106 12.3003,4.02932 24.7824,6.55338 40.4496,8.17949 4.8098,0.49922 5.5132,0.64695 6.16,1.29374 0.9435,0.94347 0.9255,1.87306 -0.055,2.85381 -0.7346,0.73453 -0.9887,0.78255 -3.92,0.74072 -1.724,-0.0246 -4.7186,-0.1677 -6.6546,-0.318 z m 58.24,194.30483 c 6.7415,-1.4035 24.4017,-5.6957 29.12,-7.0774 2.288,-0.67 7.544,-2.394 11.68,-3.8311 10.4702,-3.6381 14.4739,-4.9588 17.44,-5.7529 3.7123,-0.994 8.228,-1.1666 12.9503,-0.4951 2.1432,0.3047 3.9372,0.5047 3.9866,0.4443 0.2256,-0.2756 -8.7793,-19.26098 -12.5212,-26.39888 -4.5318,-8.64473 -6.765,-12.58204 -17.0334,-30.03102 -11.3619,-19.30704 -17.1086,-31.72242 -18.8928,-40.8165 -0.3126,-1.59359 -0.4519,-1.80775 -1.3529,-2.08 -1.7407,-0.52594 -2.2338,-1.60182 -2.6617,-5.80737 -0.6534,-6.42071 -0.033,-9.3517 7.2057,-34.01613 1.7303,-5.896 3.8912,-13.456 4.802,-16.8 0.9108,-3.344 3.3593,-12.056 5.4411,-19.36 3.8158,-13.38779 6.7163,-23.82049 6.7163,-24.15758 0,-0.10043 -0.7889,0.40017 -1.753,1.11245 -3.639,2.68828 -15.2266,9.91133 -18.8277,11.73618 -3.4202,1.73311 -6.1932,0.38297 -5.0218,-2.44503 0.4925,-1.18888 1.2663,-1.75925 7.3625,-5.42687 11.6018,-6.9799 17.1067,-11.0068 21.8083,-15.95312 6.5952,-6.93842 9.0447,-12.56839 8.255,-18.973 -0.8324,-6.74958 -3.4184,-15.34955 -9.3256,-31.01303 -1.4935,-3.96 -3.3504,-9 -4.1265,-11.2 -0.8672,-2.4581 -3.4773,-8.11742 -6.7712,-14.68145 -2.948,-5.8748 -5.36,-11.01948 -5.36,-11.43262 0,-1.05663 1.2641,-1.8378 2.3227,-1.43532 1.6131,0.61331 8.8751,11.40217 11.9091,17.69299 1.753,3.63482 12.6482,31.93605 12.6482,32.85494 0,0.17494 3.492,2.95511 7.76,6.17815 15.2488,11.51532 26.1462,20.57198 49.8699,41.44576 14.1993,12.49361 16.8562,14.71135 24.7144,20.62922 17.6822,13.31624 34.6518,22.78204 49.1757,27.4307 7.2327,2.31494 17.8112,4.68345 25.28,5.66015 4.886,0.63893 13.435,0.47373 16.5975,-0.32074 6.6415,-1.66843 10.4543,-5.45683 16.1247,-16.02178 6.2507,-11.64612 10.1893,-23.82225 12.2141,-37.76 1.3197,-9.08394 2.6653,-24.7991 3.7675,-44 0.5267,-9.17466 0.5221,-39.86331 -0.01,-51.04 -1.1093,-23.40324 -3.6184,-45.39336 -6.1529,-53.92475 -2.6167,-8.80839 -6.9437,-15.80964 -12.5652,-20.33113 -6.3619,-5.11698 -16.9434,-10.46095 -28.378,-14.33173 -9.776,-3.30934 -30.2259,-9.4404 -38.08,-11.41674 -11.9038,-2.99538 -31.1045,-4.80106 -46.2286,-4.34745 -9.448,0.28337 -17.3775,1.13465 -16.9539,1.82009 0.096,0.15567 1.5716,1.24944 3.2787,2.43061 8.516,5.89239 12.0414,9.49354 21.401,21.86111 8.9718,11.85524 17.6619,24.39056 23.6068,34.05246 10.883,17.68756 16.1559,28.76062 25.2546,53.03394 8.0417,21.4535 11.6625,33.37338 14.8898,49.01744 2.6552,12.87075 2.9859,15.6564 3.1471,26.50541 0.141,9.49313 -0.3638,19.29346 -1.1431,22.19074 -0.3355,1.24756 -1.7284,1.82115 -2.5142,1.03536 -0.4582,-0.45828 -0.4741,-0.65488 -0.1145,-1.42354 0.2709,-0.57919 0.4871,-3.05264 0.6167,-7.05583 0.2066,-6.3805 0.1875,-6.79599 -0.3125,-6.79599 -0.4722,0 -10.95,-6.80985 -17.1779,-11.16448 -24.4095,-17.0673 -43.3992,-32.9849 -68.39,-57.32623 -4.224,-4.11422 -13.08,-12.75233 -19.68,-19.1958 -15.1781,-14.81815 -21.0135,-20.32283 -30.4,-28.67712 -8.3949,-7.47175 -21.3793,-18.8784 -25.5733,-22.46582 -1.5107,-1.2922 -3.5709,-3.15596 -4.5783,-4.1417 -1.0074,-0.98574 -1.8894,-1.72848 -1.9601,-1.65055 -0.071,0.0779 -0.6603,3.52571 -1.3104,7.66171 -3.8438,24.45458 -9.4609,46.10163 -20.7045,79.79028 -7.5712,22.6853 -13.9505,38.94707 -22.1553,56.47693 l -2.4465,5.22722 0.342,3.57278 c 0.1881,1.96503 0.8357,7.74878 1.439,12.85278 2.5839,21.86064 3.8051,50.41016 3.9353,92 0.055,17.65325 -0.113,21.92368 -1.3627,34.59182 -2.4522,24.8572 -3.0825,32.3862 -3.7079,44.2882 -0.1849,3.52 -0.5639,8.77598 -0.8422,11.67998 -0.4893,5.1077 -0.4507,12.7107 0.085,16.72 l 0.2031,1.52 h 2.2784 c 1.2684,0 4.2643,-0.416 6.7584,-0.9353 z m -14.56,-213.14896 c 0,-0.36183 -0.3198,-0.79259 -0.7259,-0.97758 -0.3992,-0.1819 -1.0831,-0.86282 -1.5198,-1.51314 -1.4287,-2.12768 -7.118,-7.7571 -10.8743,-10.75982 -2.024,-1.61797 -7.9821,-6.08757 -13.2403,-9.93245 -10.3164,-7.54354 -14.1304,-10.44923 -24.9997,-19.04575 -3.872,-3.06237 -11.36,-8.9532 -16.64,-13.09073 -5.28,-4.13754 -13.056,-10.25454 -17.28,-13.59335 -4.224,-3.33881 -9.984,-7.87518 -12.8,-10.08081 -14.2144,-11.13344 -22.3875,-18.87238 -35.52,-33.63297 -3.52,-3.9564 -9.1958,-10.0764 -12.613,-13.59999 -3.4171,-3.5236 -9.2643,-9.64654 -12.9937,-13.60654 -9.8299,-10.43749 -14.4001,-14.49229 -22.1052,-19.61223 -7.2696,-4.83049 -16.5789,-10.00993 -30.5281,-16.98496 -20.7909,-10.39612 -28.7882,-13.75834 -47.355,-19.90913 -6.5972,-2.18553 -12.1922,-3.97368 -12.4332,-3.97368 -0.2411,0 0.6207,1.12677 1.915,2.50394 6.6893,7.11773 13.441,15.15382 22.325,26.5719 7.8455,10.08348 10.2981,13.0323 15.6066,18.76416 4.5921,4.95832 20.0781,20.10804 24.5816,24.04782 6.2656,5.4813 10.3543,8.39303 51.8353,36.91397 3.1654,2.17644 10.1494,7.0713 15.52,10.87749 12.1991,8.64559 19.058,13.41766 29.4447,20.48606 4.488,3.05418 11.7086,8.0407 16.0458,11.08116 16.2349,11.38091 27.5839,18.01877 40.9142,23.93024 13.5853,6.02451 32.6811,15.12362 40,19.0599 10.3198,5.55023 12.2343,6.51166 13.36,6.70931 0.044,0.008 0.08,-0.27705 0.08,-0.63282 z m 1.9705,-14.07314 c 0.616,-4.47615 0.7236,-6.61974 0.7071,-14.08 -0.011,-4.84 -0.1716,-10.33571 -0.3575,-12.21269 -0.3231,-3.26089 -0.3953,-3.48863 -1.6229,-5.12 -1.6845,-2.2384 -4.7535,-7.43461 -6.8016,-11.51589 -1.6595,-3.30692 -5.6847,-13.2653 -7.3282,-18.12992 l -0.8982,-2.6585 -3.432,6.3385 c -3.6716,6.7812 -4.0069,7.28161 -5.3405,7.97126 -1.7828,0.92192 -3.8738,0.29283 -7.4235,-2.23343 -2.1399,-1.52296 -5.6079,-3.54641 -5.7553,-3.35809 -0.051,0.0653 0.039,1.70276 0.2005,3.63876 0.5964,7.15073 -0.5879,20.25256 -2.394,26.48631 -0.2907,1.00338 -0.2645,1.27252 0.1554,1.6 0.2777,0.21653 5.0894,3.83939 10.6926,8.05079 5.6032,4.21141 12.2184,9.27828 14.7004,11.25972 4.8292,3.85521 10.5551,9.34179 12.3238,11.80879 l 1.0834,1.51116 0.382,-2.03838 c 0.2101,-1.12112 0.7089,-4.41439 1.1085,-7.31839 z m 7.9479,-8 c 6.9417,-15.96949 12.3966,-30.90912 20.1482,-55.18132 10.7117,-33.5412 14.0702,-48.0028 19.0287,-81.93867 2.2334,-15.28463 3.3991,-29.44648 3.859,-46.88 0.1,-3.784 0.2486,-7.888 0.3305,-9.12 0.1237,-1.8596 0.082,-2.13762 -0.2479,-1.63713 -0.9346,1.41965 -1.9276,2.43713 -2.3783,2.43713 -0.2665,0 -1.171,0.612 -2.01,1.36 -0.8389,0.748 -2.7437,2.07313 -4.2327,2.94474 l -2.7074,1.58474 -2.0158,3.67808 c -3.9486,7.20458 -24.9582,41.99923 -28.5396,47.26529 -3.2954,4.84562 -4.1129,5.72552 -5.0837,5.47165 -0.5528,-0.14456 -0.7733,0.0418 -1.1684,0.98741 -1.2919,3.09201 -3.0497,13.71216 -3.6127,21.82809 -0.5899,8.50156 -0.3627,28.03391 0.4652,39.99999 0.5913,8.54611 0.8904,12.14523 1.3031,15.68 1.6412,14.05534 3.3687,30.36306 3.6923,34.85481 0.363,5.03717 0.2354,17.47962 -0.2299,22.42519 -0.1077,1.144 -0.1223,2.008 -0.033,1.92 0.09,-0.088 1.6341,-3.544 3.432,-7.68 z m -50.2545,-22.24 c 0.8547,-4.70954 1.1497,-12.08623 0.8264,-20.66519 l -0.2361,-6.2652 -5.1671,-3.07396 c -2.8419,-1.69068 -7.2338,-4.08589 -9.7597,-5.32268 -2.5259,-1.2368 -4.7933,-2.41531 -5.0387,-2.61891 -0.3318,-0.27542 -3.7845,-0.31041 -13.4873,-0.13669 -14.0018,0.25069 -14.0066,0.25036 -21.7834,-1.47742 -1.6402,-0.36439 -3.0411,-0.60354 -3.1132,-0.53145 -0.1655,0.1655 15.1058,12.21351 24.0043,18.93779 7.8051,5.89799 22.0904,17.10014 28.329,22.21487 2.7724,2.2729 4.3916,3.4039 4.5235,3.1595 0.113,-0.20936 0.519,-2.10866 0.9023,-4.22066 z m 40.3632,-17.46002 c -1.5462,-12.57076 -1.8409,-15.38499 -2.2592,-21.57998 -0.649,-9.61017 -0.7227,-10.97199 -1.1604,-21.44 -0.1104,-2.64 -0.2475,-4.85124 -0.3047,-4.91388 -0.057,-0.0626 -0.9721,1.61805 -2.0332,3.73485 -1.0611,2.1168 -2.0683,3.93466 -2.2383,4.03969 -0.1843,0.11389 -0.2342,1.3448 -0.1238,3.04984 0.297,4.58291 -0.5344,8.53695 -3.0239,14.38321 -1.2713,2.98517 -1.2893,2.58819 0.3277,7.22629 1.1531,3.30751 4.5565,11.94409 6.0319,15.30675 1.8936,4.31579 5.8413,11.65157 5.9589,11.07323 0.056,-0.27502 -0.4728,-5.17102 -1.175,-10.88 z m -21.1138,-11.257 c 5.3321,-9.9458 7.1927,-13.76431 8.3331,-17.1012 1.0462,-3.06145 1.0727,-3.2686 1.0392,-8.10178 -0.028,-4.01516 -0.1657,-5.43541 -0.7234,-7.45573 -1.7834,-6.46101 -4.7573,-9.77495 -12.0422,-13.41906 -3.9199,-1.96085 -8.5848,-3.05379 -16.5184,-3.8701 -6.6519,-0.68442 -11.3445,0.0227 -16.2515,2.44896 -3.1057,1.53559 -5.3703,3.54392 -5.5254,4.89997 -0.1103,0.96514 -0.063,1.38332 1.1788,10.47866 0.4298,3.14749 0.7164,5.82804 0.6368,5.95678 -0.2097,0.33935 0.4906,3.83473 0.9939,4.96052 0.6204,1.38765 1.9954,6.88692 1.9794,7.91632 -0.018,1.1374 0.8759,1.84431 3.9015,3.0867 3.3989,1.39563 17.7162,9.55935 24.8049,14.14368 2.8656,1.85323 4.2944,2.56651 4.6846,2.3387 0.1126,-0.0657 1.6915,-2.89279 3.5087,-6.28242 z m -43.8805,-12.26646 c 2.372,-0.0964 4.3535,-0.21614 4.4034,-0.26601 0.05,-0.0499 -0.1343,-0.72514 -0.4093,-1.50059 -0.275,-0.77545 -0.9198,-3.06592 -1.4329,-5.08992 -0.591,-2.33114 -1.1421,-3.83384 -1.5035,-4.09972 -2.1926,-1.61307 -17.1547,-9.91127 -20.0482,-11.119 -4.1743,-1.74236 -9.2988,-4.3816 -12.4945,-6.43498 -1.6983,-1.09124 -6.2254,-5.42654 -18.0278,-17.26418 -8.668,-8.69386 -15.76,-15.9425 -15.76,-16.10808 0,-0.16558 -0.3562,-0.68542 -0.7916,-1.1552 l -0.7916,-0.85414 -5.0484,0.82314 c -2.7766,0.45272 -8.4594,1.26298 -12.6284,1.80058 -4.1691,0.53759 -7.8752,1.08662 -8.2359,1.22005 -0.5969,0.2208 -0.451,0.47221 1.6233,2.79707 1.2535,1.40496 5.8962,6.29847 10.317,10.87447 4.4208,4.57599 11.2652,11.91999 15.2099,16.31999 10.0595,11.22094 19.7339,20.77976 27.1443,26.82025 2.1603,1.76095 2.3216,1.83543 3.0218,1.39537 0.4068,-0.25568 0.9556,-0.42264 1.2196,-0.37102 0.264,0.0516 2.928,0.60046 5.92,1.21966 2.992,0.61919 5.872,1.19212 6.4,1.27317 1.0894,0.16725 15.4026,-0.0163 21.9128,-0.28091 z m 0.7973,-15.73652 c -0.6134,-3.50657 -1.7501,-12.48755 -1.7501,-13.82749 0,-2.16052 0.8101,-3.67881 3.0599,-5.73505 2.0383,-1.86285 6.5553,-4.20193 9.5801,-4.96091 4.6357,-1.16317 8.2832,-1.32901 13.7288,-0.6242 l 1.5688,0.20305 -0.1769,-4.6077 c -0.3047,-7.93479 -2.5066,-15.66359 -6.0535,-21.24769 -1.8821,-2.96309 -2.1893,-4.48 -0.9072,-4.48 0.6636,0 1.2217,0.62746 3.273,3.68 1.3602,2.024 2.8939,4.76 3.4084,6.08 2.0651,5.29864 3.4473,13.2565 3.1644,18.21845 l -0.1599,2.80516 3.237,0.56531 c 4.2501,0.74221 6.8941,1.72521 11.5505,4.29419 5.0996,2.81348 7.8509,5.45415 9.7073,9.31688 0.719,1.496 1.4883,3.404 1.7096,4.24 0.2214,0.836 0.5198,1.52 0.6633,1.52 0.1434,0 1.3137,-2.12769 2.6005,-4.7282 l 2.3396,-4.7282 0.219,-7.1918 c 0.1205,-3.95549 0.2972,-7.98379 0.3927,-8.95179 1.08,-10.94172 2.7207,-18.37904 4.9354,-22.37256 0.5284,-0.9529 0.9064,-1.78689 0.84,-1.85331 -0.2847,-0.28469 -13.5535,-2.37577 -21.8008,-3.43568 -9.4149,-1.20996 -23.0773,-3.05711 -28.4645,-3.84838 -1.7515,-0.25725 -3.2506,-0.40163 -3.3314,-0.32083 -0.081,0.0808 1.0355,2.49311 2.4806,5.3607 2.7368,5.43059 2.8924,6.14299 1.4223,6.51195 -1.1436,0.28703 -2.077,-0.75176 -3.9476,-4.39347 -4.264,-8.30113 -7.6766,-17.91768 -8.2835,-23.34262 -0.1591,-1.42225 -0.3552,-2.65176 -0.4356,-2.73223 -0.081,-0.0805 -3.5875,0.28578 -7.7933,0.81389 -14.9312,1.87485 -30.7901,3.53185 -33.807,3.53231 -0.836,1.2e-4 -1.52,0.0494 -1.52,0.10949 0,0.0601 1.3428,2.7601 2.984,6 1.6412,3.23991 3.5469,7.54674 4.2348,9.57074 1.1386,3.34983 1.2512,3.98145 1.256,7.04 0,2.98837 -0.09,3.56401 -0.8592,5.20453 -0.8791,1.87606 -1.7359,2.53052 -2.9108,2.2233 -1.1615,-0.30376 -1.3476,-1.47648 -0.5291,-3.33433 0.5635,-1.27891 0.7498,-2.29776 0.761,-4.16171 0.01,-1.36555 -0.1399,-2.62303 -0.3317,-2.81475 -0.2487,-0.24871 -0.8346,-0.1506 -2.0757,0.34756 -4.5151,1.81227 -17.7058,5.35543 -24.9293,6.69628 -4.9926,0.92674 -5.2104,0.99946 -3.975,1.32742 1.5372,0.40809 7.2513,5.71877 20.295,18.86228 13.9847,14.09163 14.6641,14.60835 25.3329,19.26663 4.5461,1.98491 11.7242,5.94384 16.5871,9.14819 1.32,0.8698 2.5044,1.59341 2.632,1.60803 0.1276,0.0146 0.1627,-0.36944 0.078,-0.85344 z m 72.9394,-59.85715 c 0.8632,-1.35456 4.3759,-7.14284 7.806,-12.86284 3.4302,-5.72 9.1855,-15.12241 12.7897,-20.89425 3.6041,-5.77184 6.4867,-10.56052 6.4057,-10.64152 -0.081,-0.081 -2.2846,0.80341 -4.897,1.96535 -5.9449,2.64422 -14.9842,6.04406 -20.6339,7.76075 -4.91,1.49192 -13.6075,3.84713 -15.52,4.20267 -0.704,0.13088 -5.744,1.11847 -11.2,2.19464 -13.0285,2.56984 -22.2438,4.20855 -31.84,5.66199 -4.312,0.65309 -7.9495,1.28677 -8.0833,1.40818 -0.4514,0.40965 0.7227,5.91294 2.1948,10.28671 0.8042,2.38948 1.5583,4.50013 1.6759,4.69032 0.1175,0.1902 3.6695,0.78954 7.8932,1.33189 33.5132,4.30325 37.0601,4.79579 45.1194,6.2655 3.168,0.57772 5.976,1.06009 6.24,1.07193 0.264,0.0118 1.1863,-1.08675 2.0495,-2.44132 z m -114.8495,-20.08892 c 12.3735,-0.73416 34.8517,-3.23105 53.28,-5.91839 16.2181,-2.36502 46.9858,-8.07157 47.6998,-8.84697 0.4075,-0.44261 4.6444,-11.24467 7.5027,-19.12856 6.8977,-19.02543 19.3721,-58.00251 24.496,-76.5398 2.7993,-10.12703 7.9871,-32.09292 7.9798,-33.78769 -9e-4,-0.21588 -0.6744,-0.60851 -1.4966,-0.87251 -2.9459,-0.94592 -3.3206,-2.36403 -3.0616,-11.58862 0.1336,-4.75684 0.08,-6.42582 -0.2183,-6.78508 -0.2175,-0.26206 -1.1393,-0.68601 -2.0486,-0.94212 -5.2533,-1.47968 -10.6341,-2.10574 -20.0971,-2.33828 l -8.2038,-0.2016 -0.3432,1.56785 c -0.1888,0.86232 -1.0068,4.95185 -1.8178,9.08785 -7.3682,37.57477 -9.757,48.82722 -13.9601,65.76 -4.511,18.17308 -6.9625,25.63169 -11.4641,34.88 -7.268,14.93148 -17.038,21.54896 -36.8094,24.93213 -12.6037,2.15669 -29.048,3.10979 -42.8886,2.48582 -7.5648,-0.34104 -35.7283,-2.74248 -47.4994,-4.05016 -17.4668,-1.94042 -26.562,-5.28882 -37.4497,-13.787 -2.9848,-2.32977 -7.9098,-7.22553 -9.7786,-9.72071 -2.8869,-3.85442 -5.5873,-9.22387 -8.1373,-16.18008 -0.8387,-2.288 -2.5303,-6.68 -3.7592,-9.76 -1.9684,-4.93384 -5.5306,-14.33156 -6.8684,-18.1201 l -0.4661,-1.32009 -2.4552,-0.38553 c -6.969,-1.09433 -13.7669,-3.48241 -18.17,-6.38315 -3.4319,-2.26093 -7.2095,-6.11649 -9.0837,-9.27125 -3.2316,-5.43962 -12.4607,-26.7184 -17.9214,-41.31988 -1.81,-4.84 -3.4046,-8.92685 -3.5434,-9.08188 -0.377,-0.42095 0.2678,2.28798 5.6653,23.80188 5.5311,22.04603 6.6014,25.81776 10.8392,38.19497 9.8492,28.76654 16.5716,44.55228 25.9027,60.82516 5.1475,8.97702 9.0359,14.20015 14.303,19.2125 10.8744,10.34832 20.4053,14.96309 39.7363,19.23992 26.7802,5.9249 46.7401,7.72957 70.1368,6.34137 z m 346.8828,-11.57392 c -3.1552,-6.32732 -6.9039,-16.99566 -7.5431,-21.46734 -0.5457,-3.81747 -0.208,-11.86987 0.7872,-18.77266 0.4568,-3.168 1.4049,-12.04201 2.107,-19.72002 0.702,-7.67802 1.5546,-16.17401 1.8946,-18.88 1.5542,-12.37052 1.7701,-15.24799 1.358,-18.09822 -0.7941,-5.49239 -2.5009,-8.65761 -6.9285,-12.84872 -4.2364,-4.01012 -11.082,-8.3502 -23.198,-14.70753 -12.4292,-6.52165 -37.0788,-16.60321 -57.7467,-23.61809 -2.2806,-0.77408 -4.1903,-1.40742 -4.2436,-1.40742 -0.053,0 0.523,0.7613 1.2809,1.69177 4.1259,5.06542 7.5879,11.62501 9.156,17.34823 0.9597,3.50237 2.1136,9.08234 3.077,14.88 0.2779,1.672 1.0688,5.992 1.7577,9.6 2.208,11.56386 2.8787,17.15672 2.8787,24.00351 0,10.60093 -1.5373,15.28681 -6.72,20.48256 -4.5444,4.55588 -9.4453,6.41906 -22.72,8.63737 -12.2169,2.04156 -35.4011,7.01932 -43.2685,9.28997 -2.4136,0.69662 -4.4656,1.26659 -4.56,1.26659 -0.094,0 -0.1715,0.12199 -0.1715,0.2711 0,0.1491 3.636,0.37249 8.08,0.49642 8.073,0.22513 17.1718,1.03362 22.3144,1.98278 10.6849,1.97209 31.0941,7.9595 39.017,11.44638 6.1189,2.69294 11.9294,7.26401 14.2265,11.19184 1.0366,1.77256 1.4007,2.14076 2.24,2.26478 0.5512,0.0815 3.4501,0.43755 6.4421,0.79132 11.2005,1.32432 17.5578,2.97955 49.8785,12.98672 5.3865,1.66776 11.0122,3.63965 12.2607,4.2975 0.033,0.0171 -0.7129,-1.51684 -1.6564,-3.40884 z m -235.8893,-5.55778 c 10.9523,-2.97794 31.8086,-11.28076 35.366,-14.07908 0.4218,-0.33173 0.9819,-0.60314 1.2447,-0.60314 1.1078,0 6.7958,-3.66418 6.7958,-4.37783 0,-0.57341 6.1124,-12.5194 7.7316,-15.11048 1.912,-3.05971 8.7301,-16.61313 11.9283,-23.71169 14.5333,-32.25733 29.0266,-77.53725 34.8763,-108.96 3.5416,-19.02425 5.735,-34.98073 6.5982,-48 0.8488,-12.80223 0.1162,-51.39397 -1.1451,-60.31999 -0.5626,-3.98177 -2.5072,-11.76411 -4.2737,-17.10359 -0.9862,-2.9807 -1.4178,-3.88011 -1.9582,-4.08002 -1.1592,-0.42879 -16.6896,-2.14951 -28.3174,-3.13746 -5.2344,-0.44474 -18.844,-1.2398 -18.9871,-1.1092 -0.059,0.0538 -0.092,7.63358 -0.074,16.84401 0.047,23.83526 -0.318,29.95962 -3.3459,56.10625 -3.919,33.84007 -6.1157,48.51203 -8.9808,59.98219 -0.5911,2.36621 -1.0149,4.36195 -0.9419,4.43499 0.073,0.073 1.7071,0.31429 3.6312,0.5361 4.0636,0.46845 5.2374,1.02001 6.1287,2.87973 1.3224,2.75963 1.2043,5.01775 -0.8291,15.84699 -1.2996,6.92115 -2.4759,11.78344 -3.1981,13.21883 -0.2825,0.56164 -1.0298,1.55989 -1.6606,2.21833 -1.2378,1.29206 -2.2659,1.62187 -5.1739,1.65993 l -1.7514,0.0229 -0.2615,1.6 c -0.9544,5.83884 -5.4481,24.38431 -8.5678,35.36 -3.9972,14.06273 -14.586,47.83573 -18.6611,59.52 -5.4858,15.72876 -9.0717,25.46934 -11.2208,30.48 -0.3392,0.79097 -0.3927,1.2 -0.1569,1.2 0.1968,0 2.5387,-0.593 5.2043,-1.31778 z m -85.0735,-15.81453 c 10.7968,-0.74155 21.8787,-2.65189 27.3601,-4.71643 5.5023,-2.07241 11.3392,-5.74037 14.4169,-9.05982 4.6845,-5.05234 9.8374,-15.61076 13.4386,-27.53597 3.1654,-10.48206 8.0458,-30.82194 11.6855,-48.70084 1.3138,-6.45405 2.883,-14.03863 3.4871,-16.85463 1.7886,-8.33813 5.3796,-26.73885 5.2446,-26.87386 -0.069,-0.0687 -3.0021,-0.21282 -6.5188,-0.32036 -3.5167,-0.10754 -6.8578,-0.26657 -7.4247,-0.35341 -0.8774,-0.13439 -1.0541,-0.0489 -1.188,0.57488 -3.6903,17.19381 -10.4652,34.62307 -17.6893,45.50851 -2.4611,3.70848 -7.5298,8.98929 -10.6091,11.05313 -8.1615,5.47012 -19.4641,8.11926 -34.6029,8.1103 -7.2419,-0.004 -10.0771,-0.31422 -15.9515,-1.74381 -9.1736,-2.23246 -16.8245,-5.58294 -22.4817,-9.84512 -6.4793,-4.88164 -9.2013,-9.80372 -11.4326,-20.67329 -0.682,-3.32237 -2.0975,-12.79992 -2.4734,-16.56142 -0.119,-1.19044 -0.3073,-2.21799 -0.4186,-2.28343 -0.2132,-0.12547 -4.4824,0.48248 -13.0462,1.85786 -4.3937,0.70563 -7.1524,1.00742 -11.636,1.2729 -0.8941,0.0529 -0.7115,-1.13519 -1.6048,10.43712 -0.4208,5.45143 -1.5895,12.68219 -2.7411,16.96 -2.3991,8.91142 -4.8128,12.16093 -11.7906,15.87291 -7.8573,4.17983 -18.6815,6.1883 -33.4177,6.20077 -6.9963,0.006 -7.4587,0.0421 -7.2313,0.56632 0.1337,0.308 1.2824,3.368 2.5527,6.8 1.2702,3.432 3.0629,8.112 3.9837,10.4 0.9208,2.288 2.4677,6.32 3.4376,8.96 2.105,5.73004 4.6008,11.1058 6.5558,14.1207 3.8809,5.98499 13.2211,13.67527 21.5776,17.766 3.7396,1.83062 10.7973,3.74927 16.7581,4.55571 11.5156,1.55796 46.7974,4.76138 56,5.08455 5.1423,0.18057 19.3479,-0.13887 25.76,-0.57927 z m -43.5641,-46.84291 c -1.2563,-0.33972 -2.9908,-0.97574 -3.8545,-1.41339 -1.9598,-0.99311 -4.845,-3.55519 -5.0863,-4.51672 -0.1774,-0.70685 -0.2608,-0.71996 -3.7583,-0.59076 -1.9672,0.0727 -5.3005,0.34002 -7.4072,0.59411 -4.463,0.53826 -10.4997,0.60754 -11.3906,0.13072 -0.7753,-0.41491 -0.8127,-1.78885 -0.059,-2.16777 0.308,-0.15485 2.1289,-0.31487 4.0465,-0.3556 1.9176,-0.0407 4.2936,-0.20628 5.28,-0.36787 0.9864,-0.16158 1.9015,-0.29463 2.0335,-0.29565 0.132,-10e-4 0.24,-0.26475 0.24,-0.58607 0,-0.83207 1.0789,-1.73042 3.8997,-3.24703 5.7477,-3.09023 14.5101,-4.18939 20.9003,-2.62171 3.4444,0.84501 8.3026,2.42826 10.688,3.48317 1.5985,0.70692 1.8932,0.73856 3.9321,0.42221 3.6029,-0.55901 4.5522,0.56209 2.9572,3.49253 -1.7589,3.23176 -5.2286,5.7405 -10.5373,7.61903 -3.1385,1.11057 -8.6161,1.30453 -11.8841,0.4208 z m 11.0428,-3.36385 c 3.8941,-1.33584 8.3992,-4.20417 7.4879,-4.76742 -0.1549,-0.0957 -2.3479,0.10533 -4.8735,0.44673 -4.7658,0.64424 -12.8127,1.24712 -16.9731,1.27163 l -2.4,0.0141 1.0399,0.89023 c 3.6301,3.1076 10.2706,4.01363 15.7188,2.14469 z m -4.2474,-6.76029 c 2.6148,-0.27465 4.8134,-0.55863 4.8858,-0.63105 0.2242,-0.22422 -1.5456,-0.79804 -5.9709,-1.93586 -3.4918,-0.89783 -4.8388,-1.09321 -7.52,-1.09083 -4.224,0.004 -9.1602,1.09725 -12.7735,2.82971 l -2.6527,1.27185 9.6386,0.0278 c 6.6709,0.0192 11.1025,-0.12599 14.3927,-0.47159 z m -78.9113,-16.94393 c 11.6516,-1.5852 20.1488,-4.95377 23.4294,-9.28818 2.6191,-3.46036 5.083,-13.25172 6.0366,-23.98853 0.4529,-5.09925 0.4366,-21.32699 -0.027,-26.56 -0.1869,-2.112 -0.4262,-4.8592 -0.5316,-6.10488 l -0.1917,-2.26488 -2.598,-0.97757 c -10.8352,-4.07706 -28.5128,-8.57529 -51.398,-13.07869 -18.1296,-3.56759 -36.661,-6.1766 -52.2905,-7.36191 l -2.8505,-0.21618 0.2087,2.46963 c 0.2378,2.81243 1.1567,5.7296 4.5515,14.44964 1.3095,3.36334 2.3808,6.22005 2.3808,6.34824 0,0.1282 0.432,1.16642 0.96,2.30717 0.528,1.14075 0.96,2.14544 0.96,2.23266 0,0.42164 8.9424,22.54737 11.3147,27.99543 5.7517,13.20885 9.5312,21.24392 10.7548,22.86458 2.7974,3.70514 7.8769,7.12503 13.0452,8.78304 3.5033,1.12385 9.6683,2.40376 13.6853,2.8412 4.0406,0.43999 18.0736,0.1596 22.56,-0.45077 z m 120.336,-0.17149 c 14.2309,-1.10695 22.5141,-4.22177 29.2702,-11.00668 3.607,-3.6224 6.2027,-7.48196 9.5845,-14.25134 5.8648,-11.73985 10.1115,-24.462 12.7669,-38.2472 1.0639,-5.52327 1.4911,-8.52397 3.3936,-23.84 0.8854,-7.128 1.6768,-13.35013 1.7587,-13.82697 l 0.1489,-0.86697 -2.1494,0.16664 c -22.7337,1.76252 -53.7892,8.75711 -79.1486,17.82659 -13.581,4.85705 -26.0996,11.10672 -31.8857,15.91839 -0.3149,0.26185 -0.3609,1.84461 -0.2071,7.11952 0.1088,3.73054 0.3314,8.1508 0.4946,9.8228 0.1632,1.672 0.2884,3.544 0.2781,4.16 -0.054,3.23857 2.0557,16.55604 3.5352,22.31585 1.3105,5.10181 3.3592,9.27219 5.7022,11.6077 4.5499,4.53526 12.0391,8.47842 20.9225,11.01602 7.5253,2.14967 15.9091,2.83443 25.5354,2.08565 z m 118.6452,-41.74307 c 0.812,-1.0324 1.5868,-4.09985 3.2738,-12.96215 1.4369,-7.54819 1.9011,-12.25142 1.3171,-13.34271 -0.2972,-0.55528 -0.8955,-0.68816 -4.5969,-1.0209 -2.3403,-0.21038 -11.1672,-1.16442 -19.6152,-2.12008 -19.3067,-2.18401 -22.428,-2.47362 -23.9311,-2.22037 -0.666,0.11223 -1.386,0.0603 -1.6,-0.11537 -0.2139,-0.17568 -2.6209,-0.54269 -5.3489,-0.81557 -7.8972,-0.78997 -9.5999,-0.90071 -9.6008,-0.62437 -5e-4,0.14265 -0.3605,2.55381 -0.8,5.35813 -0.4396,2.80432 -0.7992,5.25232 -0.7991,5.44 0,0.23528 4.4466,0.36815 14.32,0.42791 7.8759,0.0477 15.5439,0.16377 17.0399,0.25801 9.0076,0.56742 16.3648,1.91063 19.0344,3.47512 2.3986,1.40564 2.5497,2.06151 2.4501,10.62843 -0.065,5.56974 0.011,7.46822 0.3049,7.64996 0.2152,0.13295 0.8719,0.22366 1.4595,0.20157 0.5876,-0.0221 1.393,0.0903 1.7897,0.24975 0.3968,0.15946 1.611,0.29905 2.6982,0.31021 1.7386,0.0178 2.0524,-0.0758 2.6044,-0.77757 z m -190.2602,-6.26646 c 3.9154,-0.5594 8.1345,-1.02277 9.3756,-1.02972 l 2.2565,-0.0126 -0.1044,-1.94666 c -0.058,-1.07067 -0.1856,-2.85843 -0.2848,-3.97281 l -0.1804,-2.02614 -1.4918,0.18341 c -0.8204,0.10087 -5.0917,0.63488 -9.4917,1.18669 -4.4,0.55181 -9.4035,1.02104 -11.1188,1.04274 l -3.1188,0.0394 v 1.63172 c -7e-4,0.89745 0.089,2.69915 0.1993,4.00378 l 0.2005,2.37207 3.3205,-0.2274 c 1.8262,-0.12506 6.524,-0.68508 10.4395,-1.24448 z m -13.4561,-9.25054 c 1.1981,-0.51317 13.7858,-1.96716 19.0441,-2.19974 2.9232,-0.1293 5.0142,-0.36061 5.2324,-0.57883 0.2141,-0.21403 0.4318,-2.05392 0.5295,-4.47502 0.1459,-3.61174 0.2654,-4.29743 0.9833,-5.64057 1.6055,-3.00355 8.7202,-7.90209 17.2651,-11.88721 15.7608,-7.35039 34.7759,-13.56342 55.8154,-18.23723 15.0586,-3.3452 26.6843,-5.19066 37.5311,-5.95771 5.5692,-0.39383 7.9026,-0.19411 9.0162,0.77169 1.0482,0.90896 1.0871,3.01369 0.1989,10.75947 -0.3733,3.256 -0.7685,7 -0.8782,8.32 -0.1097,1.32 -0.3414,3.60575 -0.5149,5.07944 -0.1736,1.47368 -0.2733,2.71498 -0.2217,2.75843 0.052,0.0435 3.2181,0.15297 7.0367,0.24338 l 6.9427,0.16436 0.1692,-0.8428 c 2.0891,-10.40712 3.7825,-21.98554 6.137,-41.96281 0.2593,-2.2 0.9706,-7.6 1.5807,-12 0.6101,-4.4 1.6851,-12.248 2.3888,-17.44 0.7037,-5.192 1.4989,-10.736 1.767,-12.32 0.6419,-3.7909 1.0767,-8.26584 0.8291,-8.53218 -0.3883,-0.41767 -17.153,-1.74436 -25.6373,-2.02883 -2.904,-0.0974 -6.216,-0.24011 -7.36,-0.31721 -1.144,-0.0771 -6.904,-0.22134 -12.8,-0.32055 -5.896,-0.0992 -11.728,-0.24251 -12.96,-0.31847 -4.8774,-0.3007 -28.3398,-0.64171 -42.88,-0.62323 -13.2155,0.0168 -22.1345,0.29218 -30.88,0.95343 -5.18,0.39166 -17.5491,1.44681 -18.56,1.58326 -1.0543,0.14231 -7.801,0.602 -14.24,0.97026 -14.8039,0.84666 -29.2123,2.15511 -44,3.99569 -26.0062,3.23692 -36.3853,4.73802 -47.3111,6.84248 -1.4702,0.28318 -2.6981,0.35333 -3.2772,0.18723 -0.6153,-0.17646 -1.5179,-0.0973 -2.6889,0.23585 l -1.7628,0.50146 v 1.31541 c 0,1.96688 2.2859,14.03385 4.6397,24.5154 3.678,16.37892 5.2971,23.21498 7.2562,30.63679 1.2432,4.70977 2.5495,9.66117 2.9028,11.00312 l 0.6423,2.4399 3.3988,0.54553 c 12.6289,2.02707 38.8224,7.73494 49.358,10.75567 6.8818,1.97311 14.6146,4.57854 17.3658,5.85106 1.3888,0.64236 2.7607,1.16793 3.0488,1.16793 0.9442,0 1.9459,0.95414 1.9508,1.85815 0,0.47402 0.2214,1.48436 0.4864,2.2452 0.4744,1.362 0.87,3.88809 1.2743,8.13665 0.113,1.188 0.2593,2.16 0.325,2.16 0.066,0 0.4503,-0.14168 0.8545,-0.31485 z m 198.3351,-16.45955 c 0,-0.0739 0.3722,-1.83792 0.827,-3.92 2.6601,-12.17696 4.4678,-23.40649 6.6618,-41.3856 5.2071,-42.66875 5.3267,-44.20901 5.5429,-71.40648 l 0.162,-20.36648 -0.9169,-0.17423 c -0.5042,-0.0958 -3.9408,-0.25917 -7.6368,-0.36299 -3.696,-0.10381 -9.024,-0.25298 -11.84,-0.33149 -30.3338,-0.84566 -79.346,-0.85864 -97.92,-0.0259 -2.64,0.11836 -7.968,0.35082 -11.84,0.51657 -3.872,0.16576 -8.624,0.37209 -10.56,0.45852 -1.936,0.0864 -5.464,0.24131 -7.84,0.34418 -6.8541,0.29677 -26.5496,1.68039 -36.16,2.54027 -4.84,0.43306 -12.256,1.00622 -16.48,1.27371 -4.224,0.26749 -10.128,0.64066 -13.12,0.82928 -2.992,0.18861 -8.896,0.69461 -13.12,1.12444 -16.2764,1.65626 -26.8264,2.70542 -33.6,3.34142 -3.872,0.36356 -10.424,1.01536 -14.56,1.44844 -4.136,0.43309 -12.344,1.29142 -18.24,1.9074 -5.896,0.61598 -12.808,1.34242 -15.36,1.61431 -8.4337,0.89853 -13.6821,1.96608 -17.0259,3.46314 -2.2538,1.00909 -8.2591,5.00369 -10.6541,7.08698 -1.056,0.91854 -2.2496,1.84212 -2.6524,2.05239 l -0.7323,0.3823 0.1873,7.26213 c 0.3079,11.93103 1.6156,27.1892 3.6942,43.10212 0.8048,6.16085 6.1015,36.81364 6.5742,38.04535 0.1232,0.32101 0.8432,0.45536 2.5803,0.48147 1.3251,0.0199 2.7197,0.10586 3.099,0.19098 0.3793,0.0851 3.6417,0.45456 7.2497,0.82099 3.608,0.36643 10.0001,1.16404 14.2046,1.77248 4.2045,0.60843 7.6997,1.05106 7.7672,0.98362 0.067,-0.0674 -0.5911,-2.69938 -1.4634,-5.84875 -3.3124,-11.95947 -5.2861,-20.35163 -8.3799,-35.63137 -2.7143,-13.40531 -3.2832,-17.13536 -3.6631,-24.01477 -0.1215,-2.2 -0.2818,-4.10377 -0.3562,-4.2306 -0.1974,-0.33626 0.7673,-2.08648 1.2441,-2.25724 0.2237,-0.0801 0.6283,-0.0323 0.8991,0.10617 0.3171,0.16218 1.2914,-0.14478 2.7368,-0.86224 1.7677,-0.87744 2.8526,-1.17515 5.1076,-1.4016 1.5748,-0.15813 6.1905,-0.86342 10.2572,-1.5673 7.2081,-1.24761 43.6548,-5.93311 53.566,-6.88632 8.0831,-0.77739 24.4961,-2.03414 33.76,-2.58502 4.752,-0.28257 12.744,-0.85862 17.76,-1.2801 5.016,-0.42148 12.288,-0.95054 16.16,-1.17569 9.1638,-0.53285 45.919,-0.54473 63.52,-0.0205 7.304,0.21753 16.232,0.47362 19.84,0.56907 15.9695,0.42252 40.2435,2.17281 44.1099,3.18057 2.8673,0.74736 2.9374,0.888 2.7786,5.57378 -0.1474,4.34702 -0.851,10.17543 -3.3462,27.71705 -0.8763,6.16 -2.1844,16.096 -2.9069,22.08 -1.7607,14.58128 -3.6054,27.474 -5.0042,34.97322 -0.6333,3.39527 -1.0601,6.26452 -0.9485,6.37612 0.1116,0.1116 3.4776,0.53173 7.4801,0.93362 8.302,0.83359 26.6369,2.9591 27.1172,3.1436 0.451,0.17324 1.44,0.20006 1.44,0.039 z m -172.48,-138.26636 c 5.016,-0.43524 13.296,-1.07786 18.4,-1.42805 5.104,-0.35019 10.288,-0.71439 11.52,-0.80934 2.0519,-0.15814 19.6902,-0.95807 38.72,-1.75602 4.224,-0.17712 8.689,-0.32289 9.9223,-0.32393 l 2.2423,-0.002 -0.1037,-1.36 c -0.086,-1.12667 0.208,-1.99138 1.7137,-5.04 0.9996,-2.024 2.7216,-5.64183 3.8267,-8.03961 1.105,-2.39779 2.8888,-5.95166 3.964,-7.89749 1.0751,-1.94582 1.9547,-3.84217 1.9547,-4.21409 0,-1.61835 -5.1038,-5.87588 -9.4524,-7.88504 -5.8133,-2.68593 -17.5248,-6.22567 -30.4083,-9.19078 -11.3598,-2.61444 -14.7035,-3.12421 -21.7393,-3.31434 -5.2603,-0.14214 -6.495,-0.0782 -9.1586,0.47452 -6.9812,1.44864 -15.2587,5.72837 -27.1614,14.04333 -5.5093,3.84867 -18.245,13.99031 -21.682,17.26573 -2.3438,2.23362 -2.6417,2.64612 -2.64,3.65512 0,1.48342 1.3772,3.63723 3.4785,5.45014 0.9004,0.77688 4.3385,3.21331 7.6403,5.4143 5.0894,3.39265 6.0496,4.1591 6.308,5.03518 0.3007,1.01935 0.3268,1.03121 1.92,0.87349 0.8884,-0.0879 5.7192,-0.516 10.7352,-0.95123 z m 102.0271,-197.66463 c 4.4008,-2.16187 8.9196,-4.7069 11.6334,-6.55199 0.9026,-0.61368 1.3747,-1.30399 2.0054,-2.93261 2.188,-5.648977 4.6804,-16.501527 6.4054,-27.889997 0.4665,-3.08 1.4796,-9.56 2.2513,-14.4 1.7596,-11.03546 2.0171,-13.40744 1.4029,-12.92124 -0.245,0.19398 -2.6775,1.909 -5.4055,3.81116 -6.8765,4.79484 -16.4289,11.99542 -21.2139,15.99112 -5.5288,4.61673 -10.4882,10.25436 -12.634,14.36165 -1.2676,2.42633 -1.1436,4.71039 0.6709,12.35731 2.7907,11.760777 3.9157,15.640617 5.0892,17.550587 0.8846,1.43975 3.0015,2.92941 4.1629,2.92941 0.5176,0 3.0454,-1.03472 5.632,-2.3054 z m -165.0671,-1.56384 c 3.9931,-0.44026 4.0682,-0.46817 3.3626,-1.24791 -0.539,-0.59562 -0.5391,-0.67744 0,-1.81043 0.4934,-1.03975 0.5414,-1.86271 0.3876,-6.64952 -0.2064,-6.426977 -0.9524,-9.646597 -3.3381,-14.407707 -4.0526,-8.08772 -8.5217,-12.23161 -20.8906,-19.37056 -4.4175,-2.54964 -19.5097,-10.04157 -19.7481,-9.80317 -0.083,0.0828 0.8161,2.42937 1.9977,5.21456 3.4997,8.24946 5.4032,14.25497 8.8064,27.78398 3.333,13.249857 3.8348,14.664427 5.7833,16.303997 2.1254,1.78835 7.0217,3.60635 11.6407,4.32213 2.1158,0.32788 7.2982,0.18305 12,-0.33537 z"
         id="path2" />
    </g>
    <text
       xml:space="preserve"
       style="font-size:112.769px;font-family:Nasalization;-inkscape-font-specification:Nasalization;text-align:start;writing-mode:lr-tb;direction:ltr;text-anchor:start;fill:#000000;stroke-width:17.2433"
       x="256.79135"
       y="146.46004"
       id="text1"><tspan
         sodipodi:role="line"
         id="tspan1"
         x="256.79135"
         y="146.46004"
         style="font-size:112.769px;stroke-width:17.2433">TINA</tspan></text>
  </g>
</svg>
