<?xml version="1.0" encoding="UTF-8" standalone="no"?>
<!-- Created with Inkscape (http://www.inkscape.org/) -->

<svg
   width="600mm"
   height="210mm"
   viewBox="0 0 600 210"
   version="1.1"
   id="svg1"
   xml:space="preserve"
   xmlns="http://www.w3.org/2000/svg"
   xmlns:svg="http://www.w3.org/2000/svg"><defs
     id="defs1" /><path
     id="text4"
     style="font-size:50.4273px;line-height:1.25;font-family:'Red Hat Display';-inkscape-font-specification:'Red Hat Display';display:none;stroke:#000000;stroke-width:4.5;stroke-dasharray:none;stroke-opacity:1"
     d="M 186.94747,175.60112 171.82934,175.39545 127.20793,62.333184 77.242985,182.35351 61.4012,182.28729 126.44576,31.439729 Z" /><g
     id="g8"
     transform="translate(2.9934187,-1.4967094)"
     style="display:none"><path
       id="path1"
       style="fill:#000000;stroke:none;stroke-width:5.11436;stroke-dasharray:none"
       d="m 202.49048,58.71425 c -0.26339,0.0089 -0.16935,0.545456 0.0677,1.567415 0.97444,4.201745 -1.50862,10.727844 -6.20324,16.298085 -19.40873,23.035058 -69.55574,51.66829 -112.010735,63.95636 -25.493667,7.37884 -39.787381,8.33849 -50.594327,3.39759 -1.621619,-0.74139 -1.666246,-0.65202 -0.859896,1.72584 2.409293,7.10459 10.836813,9.73461 27.180253,8.48209 55.541955,-4.25665 106.961435,-40.36994 121.428245,-51.34675 23.9473,-18.772581 32.41993,-33.872371 23.57582,-42.016336 -1.52777,-1.406853 -2.28531,-2.07443 -2.58382,-2.064294 z" /><path
       id="path1-3"
       style="fill:#000000;stroke:none;stroke-width:7.24451;stroke-dasharray:none"
       d="m 188.86885,54.438589 c -7.65492,0.109966 -19.30661,2.491485 -35.10472,7.291989 -5.06778,1.539971 -4.21623,2.089111 9.85343,0.81688 9.95454,-0.900073 22.4837,-1.01865 27.84269,-0.262824 l -0.001,0.0011 c 7.56529,1.06719 9.75834,0.883711 9.80774,-0.818385 0.0364,-1.206652 -1.27102,-3.368612 -2.90361,-4.80542 -1.74714,-1.537682 -4.90108,-2.289736 -9.49403,-2.223755 z m 13.30139,20.761838 c -0.0109,0.01733 -0.0195,0.03434 -0.03,0.05167 h 0.03 z" /><path
       id="path1-6"
       style="fill:#000000;stroke:none;stroke-width:6.31268;stroke-dasharray:none"
       d="m 65.905673,105.22683 c -0.0664,0.006 -0.200647,0.0818 -0.412338,0.23618 -9.8845,5.31063 -23.63011,16.26759 -28.463054,22.68902 -4.80298,6.38154 -5.02847,9.17335 -0.937547,11.58591 2.915264,1.71922 2.494921,2.05295 4.34651,-3.45659 1.258445,-3.74419 3.495509,-6.57737 13.836153,-17.52436 1.495002,-1.57487 12.508184,-13.6102 11.630276,-13.53016 z" /></g><rect
     style="fill:#ffffff;fill-rule:evenodd;stroke-width:0.155328"
     id="rect7"
     width="600"
     height="210"
     x="0"
     y="2.8421709e-14" /><path
     id="text6"
     style="font-size:174.52px;line-height:1.25;font-family:'Red Hat Display';-inkscape-font-specification:'Red Hat Display';stroke:#000000;stroke-width:4.5;stroke-dasharray:none;stroke-opacity:1"
     d="m 339.47338,87.758147 c -5.41925,0 -10.24955,1.295491 -14.4907,3.887313 -4.12333,2.474 -7.54002,6.008277 -10.24966,10.60284 V 89.702051 h -13.07683 v 88.533829 h 13.07683 v -60.61309 c 2.3562,-5.89047 5.53722,-10.36751 9.54274,-13.43056 4.12334,-3.18087 8.8946,-4.771101 14.31383,-4.771101 1.53152,0 3.06324,0.117585 4.59476,0.353196 1.53153,0.235615 3.06271,0.647955 4.59424,1.236995 V 88.995131 c -2.47401,-0.824666 -5.24217,-1.236984 -8.30521,-1.236984 z m 159.5729,0 c -5.41924,0 -10.24904,1.295491 -14.49018,3.887313 -4.12333,2.474 -7.54003,6.008277 -10.24964,10.60284 V 89.702051 h -13.07684 v 88.533829 h 13.07684 v -60.61309 c 2.35619,-5.89047 5.5372,-10.36751 9.54272,-13.43056 4.12333,-3.18087 8.89459,-4.771101 14.31383,-4.771101 1.53152,0 3.06272,0.117585 4.59423,0.353196 1.53153,0.235615 3.06325,0.647955 4.59477,1.236995 V 88.995131 c -2.474,-0.824666 -5.24268,-1.236984 -8.30573,-1.236984 z m 53.19165,0.176329 c -5.41923,0 -10.8385,0.707071 -16.25773,2.120782 -5.41924,1.413722 -11.30989,3.651971 -17.67161,6.715025 l 4.94796,10.072787 c 5.30144,-2.70962 10.13174,-4.65365 14.4907,-5.83175 4.47675,-1.2959 8.89475,-1.943398 13.2537,-1.943398 7.65762,0 13.4892,1.825928 17.49473,5.478028 4.00554,3.53429 6.0081,8.83545 6.0081,15.90402 v 11.66352 c -7.77543,-4.00553 -16.43424,-6.00862 -25.97681,-6.00862 -10.83848,0 -19.43877,2.4154 -25.80048,7.2456 -6.36172,4.83019 -9.54273,11.42738 -9.54273,19.79186 0,5.30143 1.35508,9.95511 4.06471,13.96062 2.82742,4.00553 6.65593,7.12749 11.48612,9.36587 4.94799,2.23838 10.66201,3.35725 17.14152,3.35725 5.53707,0 10.66159,-0.82464 15.37397,-2.47398 4.83019,-1.76714 9.24818,-4.35867 13.2537,-7.77516 v 8.65895 h 12.72364 v -59.55296 c 0,-9.896 -3.06344,-17.49447 -9.18954,-22.795907 -6.00828,-5.301433 -14.60803,-7.952537 -25.79995,-7.952537 z m -154.44912,0.176868 c -8.36446,0 -16.022,2.061618 -22.97275,6.184961 -6.83296,4.005511 -12.25222,9.483845 -16.25776,16.434595 -4.00552,6.95077 -6.00808,14.72588 -6.00808,23.32598 0,8.6001 2.00256,16.37572 6.00808,23.32649 4.00554,6.95076 9.4248,12.48761 16.25776,16.61095 6.95075,4.00553 14.60829,6.00861 22.97275,6.00861 8.48229,0 16.14035,-2.00308 22.97331,-6.00861 6.83294,-4.12334 12.25222,-9.66019 16.25774,-16.61095 4.00552,-6.95077 6.00809,-14.72639 6.00809,-23.32649 0,-8.6001 -2.00257,-16.37521 -6.00809,-23.32598 -4.00552,-6.95075 -9.4248,-12.429084 -16.25774,-16.434595 -6.83296,-4.123343 -14.49102,-6.184961 -22.97331,-6.184961 z m -193.50223,1.590707 v 56.018339 c 0,6.83294 1.4136,12.84117 4.24103,18.0248 2.94524,5.06581 7.00996,9.07147 12.19358,12.0167 5.18362,2.82743 11.1328,4.24104 17.84794,4.24104 11.54533,0 20.79362,-4.00566 27.74438,-12.01671 v 10.24966 h 13.07685 V 89.702051 h -13.07685 v 65.030469 c -2.5918,4.35896 -6.00851,7.77566 -10.24966,10.24966 -4.12333,2.35619 -8.83552,3.53411 -14.13695,3.53411 -7.53981,0 -13.54804,-2.23826 -18.0248,-6.71502 -4.47677,-4.59458 -6.71502,-10.8385 -6.71502,-18.73173 V 89.702051 Z m 193.50223,10.072274 c 6.00829,0 11.42757,1.531715 16.25775,4.594775 4.948,3.06304 8.83609,7.18628 11.66351,12.36991 2.94525,5.0658 4.41791,10.83833 4.41791,17.31787 0,6.36172 -1.47266,12.13477 -4.41791,17.31839 -2.82742,5.18362 -6.71551,9.30686 -11.66351,12.36992 -4.83018,3.06304 -10.24946,4.59476 -16.25775,4.59476 -6.00829,0 -11.48607,-1.53172 -16.43407,-4.59476 -4.8302,-3.06306 -8.71827,-7.1863 -11.66352,-12.36992 -2.82742,-5.18362 -4.24102,-10.95667 -4.24102,-17.31839 0,-6.47954 1.4136,-12.25207 4.24102,-17.31787 2.94525,-5.18363 6.83332,-9.30687 11.66352,-12.36991 4.948,-3.06306 10.42578,-4.594775 16.43407,-4.594775 z m 151.09136,35.873255 c 5.18362,0 9.83728,0.58897 13.96063,1.76707 4.12333,1.06029 8.01088,2.82768 11.66298,5.30168 v 16.61096 c -3.53429,3.53429 -7.48089,6.12634 -11.83985,7.77566 -4.35894,1.64935 -9.18926,2.47398 -14.49068,2.47398 -6.59735,0 -12.01661,-1.53171 -16.25776,-4.59475 -4.12333,-3.18085 -6.18495,-7.24557 -6.18495,-12.19357 0,-5.18363 2.06162,-9.30687 6.18495,-12.36991 4.24115,-3.18086 9.89611,-4.77112 16.96468,-4.77112 z" /><path
     id="path5"
     style="fill:#000000;fill-opacity:1;stroke-width:0.0626802"
     d="m 192.94046,76.235597 c -0.19454,0.0128 -39.81754,19.35686 -44.1872,21.366648 -18.74786,7.958955 -36.20697,17.618355 -54.050206,27.378415 -7.857762,4.26345 -24.788911,14.58697 -31.417671,19.15685 -0.672393,0.46363 -3.04784,2.10623 -5.278597,3.65059 -2.230894,1.54371 -4.781893,3.29681 -5.669115,3.89513 -0.73559,0.49607 -1.633987,1.13018 -2.196248,1.54851 -1.9308,5.79142 -4.396813,12.98511 -6.848571,20.10686 l 6.064411,8.3604 c 3.315737,-2.9409 16.075594,-15.1877 19.516313,-17.86051 5.135715,-3.98968 11.022484,-8.0998 18.437893,-12.87318 4.056984,-2.61124 15.073021,-9.19244 19.229231,-11.48796 1.66473,-0.91925 4.08656,-2.2585 5.38124,-2.97649 13.77105,-7.63066 32.082,-16.69218 48.32508,-23.91564 1.89887,-0.84424 33.54814,-15.947592 33.62008,-15.952302 0.0219,-7.2e-4 -0.0502,-3.750904 -0.40398,-9.151374 -0.25521,-3.896679 -0.40209,-8.025865 -0.47258,-10.022813 -0.0273,-0.770647 -0.0432,-1.223554 -0.0501,-1.223134 z M 50.141423,153.23174 c 4.414154,-13.24021 6.030608,-19.14998 -1.718821,-0.1081 -0.324151,0.95588 -0.305447,1.07951 0.158331,1.04906 0.263015,-0.0173 0.64376,-0.23307 1.260192,-0.71313 0.08298,-0.0648 0.184419,-0.14161 0.300298,-0.22783 z" /><path
     id="text4-6"
     style="font-size:50.4273px;line-height:1.25;font-family:'Red Hat Display';-inkscape-font-specification:'Red Hat Display';stroke:#000000;stroke-width:5.06399;stroke-dasharray:none;stroke-opacity:1"
     d="M 178.55154,176.10837 161.55538,175.31988 115.53517,46.511421 54.915242,179.66003 37.100028,179.00176 115.81644,11.736674 Z" /><g
     id="g1"
     transform="matrix(0.69787224,0,0,0.69787224,315.32961,-260.59402)"><path
       id="path1-1"
       style="fill:#000000;stroke:none;stroke-width:5.11436;stroke-dasharray:none"
       d="m 193.98955,509.48085 c -0.26339,0.009 -0.16935,0.54545 0.0677,1.56741 0.97444,4.20175 -1.50862,10.72785 -6.20324,16.29809 -19.40873,23.03505 -69.55574,51.66829 -112.010734,63.95636 -25.493667,7.37884 -39.787381,8.33849 -50.594327,3.39759 -1.621619,-0.74139 -1.666246,-0.65202 -0.859896,1.72584 2.409293,7.10459 10.836813,9.73461 27.180253,8.48209 55.541954,-4.25665 106.961434,-40.36994 121.428244,-51.34675 23.9473,-18.77258 32.41993,-33.87237 23.57582,-42.01634 -1.52777,-1.40685 -2.28531,-2.07443 -2.58382,-2.06429 z" /><path
       id="path1-3-5"
       style="fill:#000000;stroke:none;stroke-width:6.64597;stroke-dasharray:none"
       d="m 181.46688,507.12313 c -7.02247,0.10088 -17.71151,2.28564 -32.20439,6.68954 -4.64908,1.41274 -3.86789,1.9165 9.03935,0.74938 9.1321,-0.8257 20.62611,-0.93449 25.54234,-0.24111 l -0.001,0.001 c 6.94026,0.97902 8.95212,0.8107 8.99744,-0.75077 0.0334,-1.10697 -1.16601,-3.09031 -2.66372,-4.40841 -1.60279,-1.41064 -4.49616,-2.10056 -8.70964,-2.04003 z m 12.20244,19.04651 c -0.01,0.0159 -0.0179,0.0315 -0.0275,0.0474 h 0.0275 z" /><path
       id="path1-6-9"
       style="fill:#000000;stroke:none;stroke-width:5;stroke-dasharray:none"
       d="m 52.952374,560.75584 c -0.05259,0.005 -0.158924,0.0648 -0.326595,0.18707 -7.829087,4.20632 -18.716393,12.88486 -22.54436,17.971 -3.804234,5.05454 -3.982835,7.26581 -0.742591,9.1767 2.309055,1.36172 1.97612,1.62605 3.442684,-2.73782 0.99676,-2.96561 2.768642,-5.20965 10.959021,-13.88029 1.184127,-1.24739 9.907194,-10.78005 9.211841,-10.71666 z" /></g></svg>
