<?xml version="1.0" encoding="UTF-8" standalone="no"?>
<!-- Created with Inkscape (http://www.inkscape.org/) -->

<svg
   version="1.1"
   id="svg1"
   width="210mm"
   height="296.99997mm"
   viewBox="0 0 793.7008 1122.5196"
   xml:space="preserve"
   sodipodi:docname="aurora-page.svg"
   inkscape:version="1.4.2 (ebf0e940d0, 2025-05-08)"
   xmlns:inkscape="http://www.inkscape.org/namespaces/inkscape"
   xmlns:sodipodi="http://sodipodi.sourceforge.net/DTD/sodipodi-0.dtd"
   xmlns:xlink="http://www.w3.org/1999/xlink"
   xmlns="http://www.w3.org/2000/svg"
   xmlns:svg="http://www.w3.org/2000/svg"><sodipodi:namedview
     id="namedview1"
     pagecolor="#ffffff"
     bordercolor="#000000"
     borderopacity="0.25"
     inkscape:showpageshadow="2"
     inkscape:pageopacity="0.0"
     inkscape:pagecheckerboard="0"
     inkscape:deskcolor="#d1d1d1"
     inkscape:document-units="mm"
     inkscape:zoom="0.82772571"
     inkscape:cx="389.01776"
     inkscape:cy="726.69"
     inkscape:window-width="1536"
     inkscape:window-height="888"
     inkscape:window-x="0"
     inkscape:window-y="0"
     inkscape:window-maximized="1"
     inkscape:current-layer="svg1" /><defs
     id="defs1"><linearGradient
       id="linearGradient12"><stop
         style="stop-color:#fcd68d;stop-opacity:1;"
         offset="0"
         id="stop20" /><stop
         style="stop-color:#deae5e;stop-opacity:1;"
         offset="0.5"
         id="stop24" /><stop
         style="stop-color:#d2a152;stop-opacity:1;"
         offset="1"
         id="stop21" /></linearGradient><linearGradient
       id="linearGradient6"><stop
         style="stop-color:#481738;stop-opacity:1;"
         offset="0"
         id="stop6" /><stop
         style="stop-color:#390b2c;stop-opacity:1;"
         offset="0.5"
         id="stop8" /><stop
         style="stop-color:#2e0223;stop-opacity:1;"
         offset="1"
         id="stop7" /></linearGradient><linearGradient
       id="linearGradient1"><stop
         style="stop-color:#231e3c;stop-opacity:1;"
         offset="0"
         id="stop1" /><stop
         style="stop-color:#221d3a;stop-opacity:1;"
         offset="0.5"
         id="stop3" /><stop
         style="stop-color:#10101f;stop-opacity:1;"
         offset="1"
         id="stop2" /></linearGradient><linearGradient
       id="linearGradient93"><stop
         style="stop-color:#77462e;stop-opacity:1;"
         offset="0"
         id="stop93" /><stop
         style="stop-color:#793419;stop-opacity:1;"
         offset="0.5"
         id="stop95" /><stop
         style="stop-color:#692b16;stop-opacity:1;"
         offset="1"
         id="stop94" /></linearGradient><linearGradient
       id="linearGradient89"><stop
         style="stop-color:#582517;stop-opacity:1;"
         offset="0.14724392"
         id="stop90" /><stop
         style="stop-color:#6a2d18;stop-opacity:1;"
         offset="0.5"
         id="stop92" /><stop
         style="stop-color:#7c3519;stop-opacity:1;"
         offset="0.71934998"
         id="stop91" /></linearGradient><linearGradient
       id="linearGradient86"><stop
         style="stop-color:#4c51a2;stop-opacity:1;"
         offset="0"
         id="stop87" /><stop
         style="stop-color:#271e81;stop-opacity:1;"
         offset="0.5"
         id="stop89" /><stop
         style="stop-color:#180b40;stop-opacity:1;"
         offset="1"
         id="stop88" /></linearGradient><linearGradient
       id="linearGradient84"><stop
         style="stop-color:#4c51a2;stop-opacity:1;"
         offset="0"
         id="stop84" /><stop
         style="stop-color:#271e81;stop-opacity:1;"
         offset="0.5"
         id="stop86" /><stop
         style="stop-color:#180b40;stop-opacity:1;"
         offset="1"
         id="stop85" /></linearGradient><linearGradient
       id="linearGradient79"><stop
         style="stop-color:#1d1932;stop-opacity:1;"
         offset="0"
         id="stop79" /><stop
         style="stop-color:#1a172d;stop-opacity:1;"
         offset="1"
         id="stop80" /></linearGradient><linearGradient
       id="linearGradient77"><stop
         style="stop-color:#1e1936;stop-opacity:1;"
         offset="0"
         id="stop77" /><stop
         style="stop-color:#1a172d;stop-opacity:1;"
         offset="1"
         id="stop78" /></linearGradient><linearGradient
       id="linearGradient72"><stop
         style="stop-color:#4c51a2;stop-opacity:1;"
         offset="0"
         id="stop73" /><stop
         style="stop-color:#271e81;stop-opacity:1;"
         offset="0.5"
         id="stop75" /><stop
         style="stop-color:#180b40;stop-opacity:1;"
         offset="1"
         id="stop74" /></linearGradient><linearGradient
       id="linearGradient69"><stop
         style="stop-color:#4d79ba;stop-opacity:1;"
         offset="0"
         id="stop70" /><stop
         style="stop-color:#436aa6;stop-opacity:1;"
         offset="0.5"
         id="stop72" /><stop
         style="stop-color:#314c7c;stop-opacity:1;"
         offset="1"
         id="stop71" /></linearGradient><linearGradient
       id="linearGradient66"><stop
         style="stop-color:#3b1429;stop-opacity:1;"
         offset="0"
         id="stop67" /><stop
         style="stop-color:#2d0019;stop-opacity:1;"
         offset="0.5"
         id="stop69" /><stop
         style="stop-color:#230111;stop-opacity:1;"
         offset="1"
         id="stop68" /></linearGradient><linearGradient
       id="linearGradient63"><stop
         style="stop-color:#404097;stop-opacity:1;"
         offset="0"
         id="stop64" /><stop
         style="stop-color:#271e81;stop-opacity:1;"
         offset="0.5"
         id="stop66" /><stop
         style="stop-color:#180b40;stop-opacity:1;"
         offset="1"
         id="stop65" /></linearGradient><linearGradient
       id="linearGradient61"><stop
         style="stop-color:#4c51a2;stop-opacity:1;"
         offset="0"
         id="stop61" /><stop
         style="stop-color:#271e81;stop-opacity:1;"
         offset="0.37643611"
         id="stop63" /><stop
         style="stop-color:#180b40;stop-opacity:1;"
         offset="1"
         id="stop62" /></linearGradient><linearGradient
       id="linearGradient59"><stop
         style="stop-color:#77462e;stop-opacity:1;"
         offset="0"
         id="stop59" /><stop
         style="stop-color:#70311a;stop-opacity:1;"
         offset="1"
         id="stop60" /></linearGradient><linearGradient
       id="linearGradient51"><stop
         style="stop-color:#93437f;stop-opacity:1;"
         offset="0"
         id="stop51" /><stop
         style="stop-color:#7a2e68;stop-opacity:1;"
         offset="0.4475337"
         id="stop53" /><stop
         style="stop-color:#501e3f;stop-opacity:1;"
         offset="1"
         id="stop52" /></linearGradient><linearGradient
       id="linearGradient49"><stop
         style="stop-color:#3d152a;stop-opacity:1;"
         offset="0"
         id="stop49" /><stop
         style="stop-color:#270514;stop-opacity:1;"
         offset="1"
         id="stop50" /></linearGradient><linearGradient
       id="linearGradient45"><stop
         style="stop-color:#fcd68d;stop-opacity:1;"
         offset="0"
         id="stop45" /><stop
         style="stop-color:#e8b961;stop-opacity:1;"
         offset="0.5"
         id="stop47" /><stop
         style="stop-color:#b7843c;stop-opacity:1;"
         offset="1"
         id="stop46" /></linearGradient><linearGradient
       id="linearGradient43"><stop
         style="stop-color:#91437d;stop-opacity:1;"
         offset="0.4285067"
         id="stop43" /><stop
         style="stop-color:#652854;stop-opacity:1;"
         offset="1"
         id="stop44" /></linearGradient><linearGradient
       id="linearGradient38"><stop
         style="stop-color:#3a2742;stop-opacity:1;"
         offset="0"
         id="stop38" /><stop
         style="stop-color:#291733;stop-opacity:1;"
         offset="1"
         id="stop39" /></linearGradient><linearGradient
       id="linearGradient30"><stop
         style="stop-color:#638da2;stop-opacity:1;"
         offset="0"
         id="stop30" /><stop
         style="stop-color:#7ca7b9;stop-opacity:1;"
         offset="0.81811047"
         id="stop31" /></linearGradient><linearGradient
       id="linearGradient28"><stop
         style="stop-color:#3f302c;stop-opacity:1;"
         offset="0"
         id="stop28" /><stop
         style="stop-color:#564f4d;stop-opacity:1;"
         offset="1"
         id="stop29" /></linearGradient><linearGradient
       xlink:href="#linearGradient28"
       id="linearGradient29"
       x1="485.71582"
       y1="687.78638"
       x2="325.46393"
       y2="727.92444"
       gradientUnits="userSpaceOnUse" /><linearGradient
       xlink:href="#linearGradient30"
       id="linearGradient31"
       x1="477.39929"
       y1="691.61908"
       x2="354.76172"
       y2="708.36334"
       gradientUnits="userSpaceOnUse" /><linearGradient
       xlink:href="#linearGradient38"
       id="linearGradient39"
       x1="234.5889"
       y1="689.66315"
       x2="250.23756"
       y2="695.73242"
       gradientUnits="userSpaceOnUse" /><linearGradient
       xlink:href="#linearGradient43"
       id="linearGradient44"
       x1="239.65979"
       y1="684.67084"
       x2="255.832"
       y2="698.55267"
       gradientUnits="userSpaceOnUse" /><linearGradient
       xlink:href="#linearGradient45"
       id="linearGradient46"
       x1="243.68739"
       y1="690.65662"
       x2="252.80257"
       y2="693.23291"
       gradientUnits="userSpaceOnUse" /><linearGradient
       xlink:href="#linearGradient49"
       id="linearGradient50"
       x1="255.06641"
       y1="699.22266"
       x2="272.43359"
       y2="710.06055"
       gradientUnits="userSpaceOnUse" /><linearGradient
       xlink:href="#linearGradient51"
       id="linearGradient52"
       x1="276.67664"
       y1="712.36877"
       x2="286.29297"
       y2="720.44727"
       gradientUnits="userSpaceOnUse" /><linearGradient
       xlink:href="#linearGradient59"
       id="linearGradient60"
       x1="258.17773"
       y1="715.76068"
       x2="260.71716"
       y2="717.47247"
       gradientUnits="userSpaceOnUse" /><linearGradient
       xlink:href="#linearGradient61"
       id="linearGradient62"
       x1="245.45274"
       y1="712.51593"
       x2="257.46899"
       y2="724.02783"
       gradientUnits="userSpaceOnUse" /><linearGradient
       xlink:href="#linearGradient63"
       id="linearGradient65"
       x1="277.35352"
       y1="710.67188"
       x2="258.91406"
       y2="725.60156"
       gradientUnits="userSpaceOnUse" /><linearGradient
       xlink:href="#linearGradient66"
       id="linearGradient68"
       x1="285.21457"
       y1="722.0224"
       x2="289.3627"
       y2="722.0224"
       gradientUnits="userSpaceOnUse" /><linearGradient
       xlink:href="#linearGradient69"
       id="linearGradient71"
       x1="257.39258"
       y1="719.08984"
       x2="259.11429"
       y2="721.65521"
       gradientUnits="userSpaceOnUse" /><linearGradient
       xlink:href="#linearGradient72"
       id="linearGradient74"
       x1="244.55115"
       y1="724.57178"
       x2="248.88606"
       y2="742.02875"
       gradientUnits="userSpaceOnUse" /><linearGradient
       xlink:href="#linearGradient77"
       id="linearGradient78"
       x1="266.00592"
       y1="731.82098"
       x2="276.51868"
       y2="731.82098"
       gradientUnits="userSpaceOnUse" /><linearGradient
       xlink:href="#linearGradient79"
       id="linearGradient80"
       x1="248.36462"
       y1="730.83887"
       x2="251.21646"
       y2="730.83887"
       gradientUnits="userSpaceOnUse" /><linearGradient
       xlink:href="#linearGradient84"
       id="linearGradient85"
       x1="251.7561"
       y1="723.99609"
       x2="275.39474"
       y2="744.83881"
       gradientUnits="userSpaceOnUse" /><linearGradient
       xlink:href="#linearGradient86"
       id="linearGradient88"
       x1="272.2832"
       y1="718.87695"
       x2="274.62354"
       y2="740.40692"
       gradientUnits="userSpaceOnUse" /><linearGradient
       xlink:href="#linearGradient89"
       id="linearGradient91"
       x1="247.06638"
       y1="742.99475"
       x2="247.41798"
       y2="749.46118"
       gradientUnits="userSpaceOnUse" /><linearGradient
       xlink:href="#linearGradient93"
       id="linearGradient94"
       x1="263.08417"
       y1="730.39307"
       x2="268.66226"
       y2="733.05072"
       gradientUnits="userSpaceOnUse" /><linearGradient
       xlink:href="#linearGradient1"
       id="linearGradient2"
       x1="278.1535"
       y1="729.52753"
       x2="286.86359"
       y2="730.59827"
       gradientUnits="userSpaceOnUse" /><linearGradient
       xlink:href="#linearGradient6"
       id="linearGradient7"
       x1="251.11539"
       y1="748.5683"
       x2="273.72418"
       y2="748.5683"
       gradientUnits="userSpaceOnUse" /><linearGradient
       xlink:href="#linearGradient12"
       id="linearGradient21-2"
       x1="-183.57491"
       y1="179.50185"
       x2="-179.62794"
       y2="182.88269"
       gradientUnits="userSpaceOnUse"
       gradientTransform="translate(464.84915,549.36319)" /></defs><rect
     style="fill:#ffffff;stroke-width:0.336935"
     id="rect5"
     width="794.10968"
     height="1121.3086"
     x="-0.40885174"
     y="1.2110029" /><path
     id="path2-2-6"
     style="display:inline;fill:none;stroke:#000000;stroke-width:0.367167;stroke-dasharray:none"
     d="m 282.53235,725.66241 -0.20454,0.26333 c -0.30521,0.39404 -0.59217,1.42544 -0.80849,2.90298 -0.21069,1.43908 -0.56702,6.24235 -0.47028,6.33908 0.33544,0.33545 0.75348,-0.54201 0.88902,-1.865 0.0577,-0.56283 0.17365,-0.96925 0.31727,-1.11288 0.25587,-0.25587 1.4852,-0.58922 1.76999,-0.47993 0.10294,0.0395 0.22776,0.34073 0.27701,0.66916 0.10643,0.71044 0.35536,0.98562 0.66193,0.73119 0.19642,-0.163 0.18716,-0.72012 -0.0242,-1.47122 -0.0479,-0.17034 0.0492,-0.24392 0.40586,-0.31083 0.42872,-0.0804 0.46866,-0.12669 0.46866,-0.54195 v -0.45337 l -0.60555,0.0394 -0.60556,0.0394 -0.49041,-1.38507 c -0.5382,-1.51921 -1.05882,-2.69212 -1.37621,-3.1011 z m 0.0491,1.80542 c 4.1e-4,-7e-5 10e-4,2e-5 10e-4,0 0.16324,0.0124 1.25898,2.61383 1.10966,2.79347 l -8.2e-4,8.3e-4 h -8.3e-4 c -0.0298,0.0257 -0.39527,0.086 -0.81251,0.13286 l -0.75856,0.0853 c -0.0153,-1.01728 0.17731,-2.03737 0.45658,-3.0093 l 8.2e-4,-8.2e-4 8.2e-4,-8.2e-4 c 3.8e-4,-1.5e-4 0.002,-8.3e-4 0.002,-8.3e-4 z" /><path
     id="path47"
     style="fill:#ffffff;fill-opacity:1;stroke-width:0.009375"
     d="m 250.50195,687.41797 c -0.49712,0.056 -0.93628,0.46089 -1.32617,1.04492 -0.20082,0.3008 -0.63288,1.10457 -0.75195,1.41797 a 0.26327605,0.26327605 0 0 0 0,0.002 c -0.0105,0.0281 -0.02,0.053 -0.0274,0.0859 -0.004,0.0165 -0.008,0.0314 -0.008,0.0723 -1e-5,0.0102 -3.2e-4,0.0226 0.002,0.0391 0.002,0.0165 0.0174,0.0659 0.0176,0.0664 2.1e-4,5e-4 0.0798,0.10522 0.0801,0.10547 1.6e-4,1.3e-4 0.0779,0.0429 0.0781,0.043 1.8e-4,7e-5 0.0877,0.0156 0.0879,0.0156 1e-4,0 0.0545,-0.006 0.0547,-0.006 2.4e-4,-5e-5 0.0104,-0.003 0.0137,-0.004 0.007,-0.002 0.0105,-0.003 0.0137,-0.004 0.006,-0.002 0.0101,-0.004 0.0156,-0.006 0.0111,-0.004 0.0244,-0.008 0.041,-0.0137 0.0333,-0.0117 0.0806,-0.0267 0.13672,-0.0469 0.11217,-0.0403 0.26338,-0.0956 0.42968,-0.15625 0.70272,-0.25633 1.2976,-0.42455 1.47266,-0.44336 0.0622,-0.007 0.12077,-0.0166 0.17578,-0.0312 0.0275,-0.007 0.0539,-0.0165 0.084,-0.0293 0.0301,-0.0128 0.0653,-0.0157 0.12695,-0.0898 0.0759,-0.0914 0.0755,-0.13821 0.0937,-0.20313 0.0182,-0.0649 0.0338,-0.13829 0.0469,-0.21679 0.0262,-0.15701 0.0446,-0.33602 0.0449,-0.5 6.4e-4,-0.33235 -0.0562,-0.61211 -0.20703,-0.83008 -0.15084,-0.21797 -0.42429,-0.34307 -0.69532,-0.3125 z" /><path
     id="path48"
     style="fill:#ffffff;fill-opacity:1;stroke-width:0.009375"
     d="m 245.17187,688.0332 c -0.0337,0.0108 -0.0539,0.0258 -0.0703,0.0391 -0.0329,0.0265 -0.0546,0.052 -0.0801,0.084 -0.0509,0.064 -0.11134,0.15169 -0.19336,0.26758 -0.11415,0.16129 -0.2777,0.41808 -0.41601,0.64258 -0.0692,0.11224 -0.13177,0.21629 -0.17774,0.29687 -0.023,0.0403 -0.0422,0.073 -0.0566,0.10156 -0.007,0.0143 -0.0138,0.0272 -0.0195,0.041 -0.003,0.007 -0.005,0.0135 -0.008,0.0234 -0.002,0.005 -0.004,0.0117 -0.006,0.0195 -0.002,0.008 -0.002,0.0325 -0.002,0.0332 0,0.0143 0.008,0.0481 0.008,0.0488 2.4e-4,7.6e-4 0.0288,0.0541 0.0293,0.0547 5e-4,6e-4 0.0422,0.0367 0.043,0.0371 7.7e-4,4.4e-4 0.0292,0.0125 0.041,0.0156 0.0474,0.0125 0.068,0.006 0.0879,0.002 0.0398,-0.007 0.0731,-0.0186 0.12305,-0.0371 0.0998,-0.0371 0.25483,-0.10219 0.50781,-0.21093 a 0.15490163,0.15490163 0 0 0 0.002,0 l 0.32813,-0.14258 a 0.15490163,0.15490163 0 0 0 0.0918,-0.14063 l 0.008,-0.53711 c 0.002,-0.1565 0.006,-0.27314 0.004,-0.36132 -0.001,-0.0441 -0.002,-0.0806 -0.01,-0.11914 -0.007,-0.0386 -0.0122,-0.10273 -0.10156,-0.14844 -0.0443,-0.0227 -0.0991,-0.0206 -0.13282,-0.01 z" /><path
     id="path1-8"
     style="fill:#000000;stroke:#000000;stroke-width:0.39318;stroke-dasharray:none;stroke-opacity:1"
     d="M 251.01173 676.99416 C 250.81373 676.99595 250.58857 677.00947 250.30665 677.02932 C 249.63297 677.07676 248.38524 677.27618 247.53321 677.47267 C 246.28633 677.76021 245.8037 677.94775 245.06055 678.43752 C 244.55274 678.77219 243.2795 679.46392 242.23048 679.97267 C 237.7594 682.14103 236.09553 684.38213 233.75196 691.39455 C 232.93049 693.85253 232.63323 695.28553 232.5293 697.28518 C 232.38784 700.00761 232.72339 701.03877 234.77149 704.17971 C 235.60611 705.45966 235.7954 705.65764 236.78516 706.28322 C 239.43561 707.9585 243.0385 708.84688 245.01368 708.31057 L 245.75001 708.10939 L 247.69923 709.22268 C 248.77109 709.83418 249.66255 710.37947 249.68165 710.43557 C 249.68196 710.43742 249.68384 710.44327 249.6836 710.44533 C 249.66842 710.51006 249.40921 710.66431 249.08204 710.79885 C 247.14057 711.59733 244.23681 714.20922 244.61329 714.81838 C 244.66979 714.9098 245.03564 715.22312 245.42579 715.51564 C 246.85221 716.58509 249.29493 718.71418 249.29493 718.88869 C 249.29493 718.98735 249.2301 719.10892 249.1504 719.15822 C 248.76647 719.39551 246.91925 723.73631 245.27344 728.26955 C 244.37128 730.75447 242.15218 737.60657 242.01954 738.31643 C 241.89012 739.00905 242.26409 739.70154 243.3379 740.75588 L 244.1836 741.58596 L 244.27735 743.08596 C 244.39293 744.9431 244.70155 746.69424 245.02344 747.31057 C 245.38137 747.99589 246.76693 749.55589 247.17579 749.7344 C 247.67989 749.95449 248.2457 749.75221 249.51368 748.90041 C 250.10855 748.50078 250.61252 748.19282 250.63282 748.21682 C 250.64469 748.23086 250.63752 749.32911 250.61719 751.01565 L 251.31837 751.01565 C 251.33763 748.28545 251.37112 746.21106 251.39844 746.21096 C 251.42952 746.21084 251.96053 746.53549 252.57813 746.93166 C 254.00195 747.845 254.85339 748.21919 256.35743 748.59377 C 258.29003 749.07509 260.0881 749.20202 262.67188 749.03908 C 265.82771 748.84006 270.11976 748.21897 272.45899 747.62307 C 273.02087 747.47999 273.51187 747.38929 273.57423 747.41604 L 273.57618 747.41799 L 273.57813 747.41994 C 273.61369 747.45544 273.56827 748.42255 273.47657 749.56838 C 273.4386 750.04247 273.40763 750.52511 273.38282 751.01565 L 274.20118 751.01565 C 274.29998 748.8632 274.46008 746.83529 274.58399 746.63479 C 274.65788 746.51538 274.89784 746.5114 275.50196 746.62307 C 278.56589 747.18946 282.92026 746.80615 283.76954 745.89455 C 285.03004 744.54156 287.05254 731.71075 286.62891 727.75393 L 286.49024 726.46486 L 287.58399 725.334 C 288.18566 724.71263 288.93961 723.85766 289.25977 723.43361 L 289.8418 722.66213 L 289.83204 721.26174 C 289.81966 719.57949 289.67079 718.43462 289.43555 718.19924 C 289.33259 718.09626 288.82934 718.01879 288.19337 718.00979 L 287.12501 717.99416 L 286.60743 717.0215 C 285.24212 714.45061 281.44115 709.11009 277.21485 703.82619 C 276.87301 703.3988 276.13357 702.25453 275.57032 701.28322 C 273.47099 697.6631 271.38197 694.88113 268.58204 691.97267 C 266.75504 690.07486 261.30946 685.38704 260.23048 684.78322 C 260.12653 684.72504 259.91397 684.01676 259.75587 683.20119 C 259.42095 681.47348 258.92084 680.60861 257.7168 679.67971 C 256.81116 678.98102 254.77506 678.01438 252.92188 677.40236 C 251.96284 677.08568 251.60572 676.98878 251.01173 676.99416 z M 250.73048 677.32619 C 250.77601 677.32556 250.80967 677.32962 250.82618 677.33596 C 250.96229 677.38819 250.76433 677.59852 250.22462 677.97658 L 249.41993 678.53908 L 247.66212 678.57424 C 246.74031 678.59216 245.97762 678.56969 245.90821 678.52541 L 245.90626 678.52541 L 245.90626 678.52346 L 245.9043 678.52346 L 245.9043 678.5215 L 245.9043 678.51955 C 245.90431 678.47079 245.98709 678.36071 246.08985 678.27541 C 246.31827 678.08583 250.04752 677.33569 250.73048 677.32619 z M 251.30079 677.65041 C 251.66948 677.63008 252.12589 677.81657 253.09571 678.18557 C 255.62857 679.14927 256.47289 679.58168 257.38087 680.38088 C 259.04734 681.84765 259.44401 683.12134 259.56446 687.37892 C 259.66502 690.93259 259.59649 691.25346 258.05079 694.46682 C 257.51815 695.57412 257.03216 696.48088 256.96876 696.48049 C 256.90538 696.48008 256.60019 696.32583 256.29102 696.13869 C 255.98183 695.95156 254.79038 695.36655 253.64258 694.83986 C 252.53065 694.32962 251.61282 693.84946 251.55665 693.74807 L 251.55665 693.74611 L 251.55469 693.74416 L 251.55469 693.74221 L 251.55469 693.74025 C 251.55469 693.6612 251.77399 693.08383 252.04102 692.459 C 253.15302 689.8569 253.46937 687.29624 253.05079 684.31252 C 252.92403 683.40891 252.72539 682.34443 252.60743 681.94728 C 252.29368 680.89074 251.22575 679.55226 250.31837 679.0801 L 249.57423 678.69533 L 250.03516 678.35353 C 250.65126 677.89711 250.93209 677.67073 251.30079 677.65041 z M 245.55274 678.53713 C 245.55387 678.53701 245.55753 678.53713 245.5586 678.53713 C 245.55967 678.53713 245.56145 678.53701 245.56251 678.53713 C 245.56355 678.53737 245.56734 678.53872 245.56837 678.53908 C 245.56938 678.53955 245.57323 678.54045 245.57423 678.54103 C 245.59953 678.559 245.6211 678.61462 245.6211 678.67775 C 245.6211 678.75543 245.55301 678.82033 245.47071 678.82033 C 245.38841 678.82033 245.36021 678.75545 245.40821 678.67775 C 245.45326 678.60492 245.51698 678.5444 245.55274 678.53713 z M 248.2461 678.89064 C 249.54761 678.95023 250.45406 679.42151 251.38087 680.43557 C 251.99296 681.1053 252.12907 681.36351 252.32227 682.21291 C 252.44664 682.75972 252.58958 683.59271 252.63868 684.06252 L 252.72657 684.91603 L 252.17579 684.79885 C 249.97615 684.33442 246.60661 685.68046 244.98438 687.67189 C 243.44782 689.55819 242.2072 692.69814 241.64649 696.11525 C 241.37169 697.78965 241.34991 698.1805 241.48829 698.9883 C 241.67792 700.09536 242.20988 700.94031 242.97657 701.35353 C 243.2469 701.49924 243.46826 701.64923 243.49415 701.69924 L 243.4961 701.70119 L 243.4961 701.70314 L 243.49805 701.7051 L 243.49805 701.70705 L 243.49805 701.709 C 243.46329 701.86293 241.67561 702.58044 240.66993 702.84182 C 240.09034 702.99246 238.94873 703.18088 238.13282 703.25978 C 235.56976 703.50746 235.36782 703.48341 234.80665 702.87307 C 234.19212 702.20469 233.42722 700.75761 233.11133 699.66408 C 232.82056 698.65752 232.88125 696.5107 233.25196 694.71486 C 233.7838 692.13847 235.91515 686.62434 237.0879 684.79103 C 237.75753 683.74422 239.11349 682.33618 240.18165 681.57619 C 242.01861 680.26917 244.65043 679.2285 246.79688 678.96291 C 247.33386 678.89646 247.81226 678.87078 248.2461 678.89064 z M 251.11329 684.95119 C 251.4872 684.94212 251.81996 684.98113 252.11915 685.07033 C 252.73008 685.25248 252.75925 685.28717 252.88087 685.95314 C 253.20648 687.73538 252.3769 691.26992 251.03321 693.81838 C 249.78752 696.18098 247.32062 699.03503 245.14258 700.63478 C 243.80822 701.61486 243.89081 701.58107 243.41993 701.33791 C 242.75431 700.99423 242.27297 700.45497 241.93946 699.67971 C 241.67005 699.0535 241.63849 698.79137 241.70899 697.75197 C 241.77879 696.72255 242.15473 694.60167 242.45313 693.55471 L 242.54298 693.24416 L 242.92383 693.52736 C 243.39446 693.87531 243.84794 693.74542 244.38477 693.10744 C 245.09514 692.26321 245.86974 689.17489 245.6836 687.93361 C 245.59748 687.35925 245.61823 687.3185 246.20899 686.84572 C 247.13061 686.10813 247.70372 685.80014 248.8711 685.41213 C 249.75426 685.11858 250.4901 684.9663 251.11329 684.95119 z M 260.9336 686.09377 C 262.09592 685.99889 265.34347 689.93282 273.21094 698.75783 C 274.65886 700.38199 276.68166 705.17222 276.85548 706.13283 C 276.99932 706.92777 276.97384 707.25241 276.68555 708.38283 L 276.55079 708.91408 L 275.55469 708.91408 C 272.71557 708.91408 267.32036 710.77068 264.26954 712.79885 C 263.73182 713.15634 262.95569 713.81618 262.54493 714.26564 L 261.79688 715.084 L 259.53712 714.14455 C 255.44312 712.44432 247.6413 708.55788 246.91212 707.85549 C 246.74967 707.69895 246.76346 707.64539 247.00587 707.51564 C 247.16428 707.43086 247.37928 707.27971 247.48243 707.17971 C 247.58563 707.07963 248.08281 706.68579 248.5879 706.30471 C 251.14684 704.374 254.54608 701.07819 255.95509 699.16408 C 257.58546 696.94927 259.03373 694.21131 259.91602 691.6758 C 260.33636 690.46752 260.48685 690.07606 260.40235 688.63869 C 260.30666 687.01179 260.40528 686.1369 260.9336 686.09377 z M 250.66993 687.31057 C 250.57851 687.30949 250.47856 687.32314 250.36524 687.35158 C 249.39451 687.59522 248.41777 689.1526 247.80665 691.43361 C 247.30706 693.29838 247.36603 693.93359 248.06641 694.22268 C 248.71685 694.49116 249.51191 694.10089 250.0879 693.23049 C 250.56827 692.50463 251.19635 690.62495 251.41798 689.24416 C 251.57424 688.27051 251.56671 688.11252 251.35352 687.78713 C 251.13713 687.45685 250.94419 687.3138 250.66993 687.31057 z M 250.58399 687.46096 C 250.62338 687.46035 250.66205 687.46223 250.70118 687.46682 C 251.19943 687.52512 251.45704 688.11608 251.33594 688.92385 C 251.25763 689.44603 251.18601 689.55757 250.93751 689.56057 C 250.77148 689.56257 250.22384 689.71102 249.71876 689.89064 C 249.21367 690.07024 248.68871 690.26639 248.55274 690.32619 C 248.20166 690.48061 248.23858 690.32758 248.83594 689.13674 C 249.37669 688.05877 249.99315 687.46998 250.58399 687.46096 z M 245.35743 687.72072 C 245.35919 687.72049 245.3597 687.72072 245.36133 687.72072 L 245.36329 687.72072 L 245.36524 687.72072 L 245.36719 687.72072 L 245.36915 687.72267 C 245.37014 687.7232 245.37402 687.72393 245.37501 687.72463 C 245.43251 687.77568 245.47879 688.12132 245.47852 688.53322 L 245.47852 689.34572 L 244.81251 689.62892 C 244.44628 689.78434 244.09792 689.93115 244.03712 689.95705 C 243.99332 689.97574 243.95349 689.97158 243.93555 689.94924 C 243.92993 689.94093 243.92579 689.92833 243.92579 689.91603 C 243.92579 689.59856 245.13395 687.74958 245.35743 687.72072 z M 251.33008 694.06252 C 251.78204 694.0639 256.67249 696.66454 256.69337 696.93166 L 256.69337 696.93361 C 256.66787 697.26514 255.49762 698.96253 254.35938 700.31643 C 251.8163 703.34135 246.93194 707.086 244.91016 707.56252 C 244.40739 707.68111 243.77392 707.7726 243.50196 707.7676 C 242.22512 707.74007 239.19872 706.95934 238.70899 706.53127 C 238.45383 706.30822 237.70899 704.28306 237.70899 703.81252 C 237.70899 703.6351 237.91653 703.56888 238.66798 703.50588 C 240.04385 703.39054 241.82817 702.90028 242.99024 702.32033 C 245.42745 701.10401 248.5477 698.2689 250.23829 695.73244 C 250.79594 694.89579 251.27168 694.15049 251.29688 694.07619 L 251.29883 694.07424 L 251.30079 694.07228 L 251.30274 694.07033 L 251.30469 694.06838 C 251.31014 694.0662 251.32086 694.06249 251.33008 694.06252 z M 236.20899 703.56643 C 236.30495 703.56474 236.41322 703.56618 236.52735 703.57228 L 237.32227 703.61525 L 237.79298 704.95705 C 238.05224 705.69524 238.26654 706.3146 238.26954 706.334 C 238.27182 706.3506 238.26832 706.36457 238.26173 706.37307 L 238.25977 706.37502 C 238.13164 706.47171 237.1022 705.73592 236.48243 705.0801 C 236.06829 704.64189 235.73048 704.01058 235.73048 703.66994 C 235.73048 703.66495 235.73179 703.659 235.73438 703.65432 C 235.76904 703.60485 235.9511 703.57096 236.20899 703.56643 z M 277.16407 704.44924 L 277.16602 704.44924 C 277.20839 704.40852 278.81941 706.47842 281.34571 709.82424 C 283.12771 712.18432 285.40557 715.53669 286.23048 717.01174 C 286.89905 718.20727 286.87626 718.61597 286.03712 720.52932 C 285.28621 722.24152 284.74114 722.86385 284.04884 722.79885 C 283.503 722.74754 280.05694 722.0537 278.40235 721.66213 L 277.34766 721.41213 L 276.97852 720.4258 C 276.27059 718.52703 275.74259 717.70328 274.97266 717.30275 C 274.75897 717.19157 274.58399 717.04107 274.58399 716.96877 C 274.58399 716.89649 274.78387 716.50123 275.02735 716.08986 C 275.80756 714.77171 277.08283 712.1255 277.48048 711.00197 C 277.91756 709.76702 277.8813 709.27312 277.34571 709.13869 C 277.00002 709.05193 277.00079 709.04889 277.21485 708.45314 C 277.56106 707.48963 277.62682 705.95276 277.35743 705.16213 C 277.23649 704.80733 277.15343 704.49765 277.16407 704.45119 L 277.16407 704.44924 z M 275.85743 709.61916 L 277.29884 709.61916 L 277.20509 710.00783 C 277.01797 710.7818 275.76056 713.53996 274.88673 715.09377 C 274.17136 716.3658 273.93024 716.68361 273.68165 716.68361 C 273.11832 716.68361 271.70253 717.1061 270.8086 717.54104 C 269.19412 718.32654 267.98359 719.70149 267.31251 721.50979 C 267.09729 722.08968 266.98079 722.20521 266.33985 722.47658 C 265.22275 722.94958 263.27969 723.69518 260.99024 724.52932 C 258.50618 725.43503 257.91212 725.60827 257.91212 725.43166 C 257.91212 725.3598 258.38717 724.19209 258.9668 722.83791 C 259.54644 721.48372 260.24597 719.79153 260.52149 719.07814 C 262.00796 715.22918 263.43911 713.70168 267.25001 711.8926 C 270.37352 710.40979 273.36599 709.61916 275.85743 709.61916 z M 250.22071 710.66213 L 253.67774 712.32228 C 255.57913 713.23586 257.31573 714.08348 257.53712 714.2051 C 257.9394 714.42612 257.94043 714.42625 257.88673 715.66018 C 257.84036 716.72541 257.78059 716.97125 257.44923 717.44533 C 257.15242 717.87006 257.06552 718.15878 257.06641 718.71682 C 257.06764 719.41234 257.40635 722.62496 257.57813 723.57033 C 257.63891 723.90493 257.60891 724.02836 257.46876 724.02736 C 256.73844 724.01763 252.7064 721.12899 248.56446 717.64846 C 245.6683 715.21478 245.27505 714.80381 245.48048 714.41994 C 245.70386 714.00255 247.11292 712.82501 248.73438 711.69728 L 250.22071 710.66213 z M 258.26563 714.48439 L 259.82423 715.09377 L 261.38282 715.70314 L 260.68165 717.11135 C 259.98443 718.51178 259.97764 718.52003 259.47657 718.50393 C 258.87517 718.48455 257.94136 718.31441 257.83009 718.20314 C 257.8294 718.20246 257.82877 718.20003 257.82813 718.19924 C 257.7909 718.14283 257.82954 717.86944 257.91993 717.5801 C 258.01319 717.28142 258.12934 716.46168 258.17774 715.75978 L 258.26563 714.48439 z M 273.38087 717.43166 C 273.64865 717.44341 273.68949 717.5503 273.4004 717.72463 C 272.68191 718.15789 271.42177 719.33074 270.83204 720.11525 C 269.41785 721.99653 268.74528 723.7709 267.9961 727.59572 C 267.70741 729.06959 267.41007 730.27913 267.31837 730.3633 L 267.31641 730.36525 L 267.31446 730.36525 L 267.31251 730.36721 L 267.31055 730.36721 L 267.3086 730.36721 C 267.2309 730.35751 267.01444 730.32048 266.82813 730.28518 L 266.48829 730.22072 L 266.58399 728.32424 C 266.79074 724.2045 267.76323 721.01012 269.31641 719.34963 C 270.04548 718.57021 271.486 717.78581 272.67579 717.51955 C 272.97902 717.45169 273.2202 717.42461 273.38087 717.43166 z M 274.27149 717.53518 C 274.43129 717.51828 274.70667 717.6807 275.10938 718.02541 C 275.80497 718.6208 276.2401 719.60064 277.24024 722.8301 C 277.62526 724.07339 278.24311 725.88416 278.61329 726.85549 C 278.98347 727.8268 279.44423 729.03596 279.63673 729.54104 C 279.92269 730.29123 279.98552 730.70203 279.97852 731.78713 C 279.96886 733.41838 279.78531 734.2589 279.15235 735.56447 C 278.14166 737.64923 275.2696 739.86265 272.60548 740.61135 C 271.66149 740.87569 269.91306 741.03928 269.68555 740.88283 C 269.59459 740.82027 269.11781 739.72082 268.62696 738.43947 L 267.73438 736.10939 L 267.73243 734.55666 C 267.73082 733.13728 267.76769 732.92517 268.14259 732.1133 C 268.61064 731.09965 269.14393 730.58188 269.86134 730.44729 C 270.49625 730.32818 270.55939 730.4037 270.2793 730.94533 C 269.94468 731.59245 269.71176 733.42974 269.85743 734.27346 C 269.89681 734.50143 269.92293 734.64493 269.94532 734.6758 L 269.94727 734.67775 L 269.94923 734.67971 L 269.95118 734.67971 L 269.95118 734.68166 L 269.95313 734.68166 L 269.95509 734.68166 L 269.95704 734.68166 L 269.95899 734.68166 L 269.95899 734.67971 L 269.96094 734.67971 L 269.9629 734.67775 C 269.99594 734.62434 270.02106 734.2465 270.06837 733.4258 C 270.24043 730.44478 270.575 730.16106 273.98243 730.11916 C 274.63471 730.11114 275.11698 730.05073 275.14649 729.97268 L 275.14844 729.97072 L 275.14844 729.96877 L 275.14844 729.96682 L 275.14844 729.96486 L 275.14844 729.96291 L 275.14844 729.96096 L 275.14844 729.959 L 275.14649 729.95705 L 275.14649 729.9551 C 275.08458 729.87523 274.39616 729.82229 273.33204 729.82229 L 271.51759 729.82229 L 271.42579 728.74221 C 271.19929 726.06283 271.34462 722.96806 271.83009 720.12893 C 271.91748 719.61788 272.2353 719.24093 273.31251 718.37111 C 273.7399 718.02601 274.11073 717.69504 274.13673 717.63674 C 274.16394 717.5755 274.20896 717.54179 274.27149 717.53518 z M 287.41602 718.3926 C 287.55742 718.39041 287.77553 718.4117 288.11134 718.44729 C 288.63586 718.50294 289.08423 718.56591 289.10743 718.58791 C 289.22313 718.69771 289.4165 721.34433 289.3418 721.79689 C 289.25465 722.32465 288.28612 723.61365 286.89649 725.05471 C 286.21983 725.75642 286.05729 725.84194 285.95899 725.54885 C 285.50495 724.19395 285.1797 723.15211 285.1797 723.05471 C 285.1797 722.98806 285.39914 722.57213 285.66602 722.12893 C 286.24878 721.16116 287.15821 719.02853 287.15821 718.63088 C 287.15821 718.46371 287.18035 718.39625 287.41602 718.3926 z M 257.47657 718.80666 L 258.6836 718.83986 C 259.56562 718.86405 259.89019 718.92346 259.89063 719.05861 C 259.89101 719.16025 259.54032 720.10589 259.11134 721.16018 C 258.68236 722.21445 258.27609 723.17515 258.20899 723.29494 C 258.18654 723.33506 258.16559 723.36081 258.14649 723.36721 C 258.14559 723.36742 258.14153 723.36904 258.14063 723.36916 L 258.13868 723.36916 C 258.13779 723.36909 258.13371 723.36933 258.13282 723.36916 L 258.13087 723.36916 C 258.12998 723.36879 258.12589 723.36572 258.12501 723.36525 C 258.03901 723.30948 257.96111 722.7581 257.77149 721.06447 C 257.68885 720.32627 257.58884 719.515 257.54884 719.26369 L 257.47657 718.80666 z M 249.38087 719.54885 L 249.38282 719.5508 C 249.41237 719.6218 249.34746 720.23383 249.23243 720.93947 C 248.85503 723.25559 248.18368 730.17411 247.88477 734.83596 C 247.56689 739.79364 247.71565 740.85735 248.88673 742.02932 C 249.39105 742.53404 249.57618 742.82834 249.57618 743.12307 C 249.57618 743.3608 249.50447 743.52029 249.4004 743.50979 C 248.97348 743.46909 247.48669 743.14066 247.06641 742.99416 C 246.14084 742.67151 243.25231 740.18762 242.62696 739.1758 C 242.35695 738.73899 242.34753 738.63236 242.50391 737.93361 C 242.59208 737.53966 242.69182 737.21316 242.73633 737.17385 C 242.73704 737.17335 242.74152 737.17027 242.74219 737.16994 L 242.74415 737.16994 L 242.7461 737.16994 C 242.78512 737.16994 243.2327 737.52286 243.74219 737.9551 C 244.76353 738.82155 245.30195 739.20304 245.40235 739.13088 L 245.4043 739.12893 L 245.40626 739.12697 L 245.40626 739.12502 L 245.40821 739.12502 L 245.40821 739.12307 L 245.40821 739.12111 C 245.39384 739.05522 244.9251 738.64051 244.33008 738.16994 C 243.70579 737.67622 243.13019 737.12931 243.05079 736.9551 C 242.93455 736.69999 243.09179 736.0642 243.85548 733.68947 C 245.63878 728.14428 249.10524 719.27321 249.38087 719.54885 z M 250.26368 719.93361 C 250.34285 719.93361 250.57169 720.07052 251.09766 720.43166 C 251.11875 720.44615 251.00841 721.40508 250.85157 722.56252 C 250.69473 723.71995 250.535 724.91966 250.4961 725.23049 C 250.39451 726.04272 249.75903 734.24357 249.56641 737.23439 C 249.47671 738.6295 249.44721 740.26531 249.50001 740.87111 C 249.54868 741.42959 249.56441 741.89564 249.53712 741.96486 C 249.53663 741.96581 249.53372 741.97001 249.53321 741.97072 L 249.53126 741.97268 L 249.5293 741.97268 L 249.52735 741.97268 C 249.3002 741.97268 248.73317 741.02845 248.58204 740.39846 C 248.33785 739.3806 248.47544 736.1505 249.00587 730.38869 C 249.69606 722.89152 250.05105 719.93361 250.26368 719.93361 z M 271.35743 720.42775 L 271.2754 720.78127 C 270.92535 722.2845 270.86115 726.28465 271.14259 728.9883 L 271.22462 729.77932 L 270.38868 729.91408 C 269.59791 730.04143 269.51499 730.02554 268.88868 729.64064 C 268.46144 729.37807 268.22657 729.13455 268.22657 728.9551 C 268.22657 728.5094 269.03316 725.25425 269.43946 724.06252 C 269.84511 722.87273 270.60555 721.33957 271.06641 720.78127 L 271.35743 720.42775 z M 251.66407 720.78127 C 251.70259 720.78127 252.28175 721.18675 252.95118 721.68361 C 254.83453 723.08148 256.45741 724.13195 257.13477 724.39064 C 257.70395 724.60799 257.74285 724.6526 257.6211 724.97268 C 257.39078 725.57846 257.45572 725.86721 257.82227 725.86721 L 258.1543 725.86721 L 258.23829 730.35354 C 258.34606 736.09387 258.77967 740.28389 259.67774 744.28322 C 259.99586 745.69993 260.53022 747.56516 260.80665 748.22463 C 260.8988 748.4445 260.81788 748.4708 260.08204 748.459 C 258.39691 748.43318 256.07017 747.88432 254.45118 747.13088 C 253.12596 746.51417 250.58561 744.72754 250.42188 744.2969 C 250.35048 744.10909 250.22343 742.99605 250.14063 741.82424 C 250.02101 740.13017 250.03668 739.00852 250.21094 736.34768 C 250.73394 728.36156 251.44114 720.78127 251.66407 720.78127 z M 277.6211 721.8301 C 277.72858 721.82637 277.98236 721.88539 278.25196 721.98049 C 279.09359 722.27743 283.59752 723.18166 284.23243 723.18166 C 284.49318 723.18166 284.71264 723.19601 284.75196 723.21291 L 284.75391 723.21291 L 284.75587 723.21486 L 284.75782 723.21682 L 284.75782 723.21877 C 284.76068 723.2779 285.5753 725.61773 285.80274 726.22072 C 285.93691 726.5766 286.01749 727.29247 286.02149 728.15432 C 286.0472 733.84856 285.23968 738.15489 285.04688 738.34768 C 284.75803 738.63654 278.21689 738.58994 277.92384 738.29689 L 277.92384 738.29494 L 277.92188 738.29299 L 277.92188 738.29104 C 277.90994 738.22396 278.15416 737.86291 278.48634 737.46291 C 279.79113 735.89168 280.33975 734.47681 280.47266 732.34572 C 280.5754 730.69832 280.50597 730.39256 279.32227 727.30275 C 278.34254 724.74534 277.4513 721.96279 277.57227 721.84182 L 277.57423 721.83986 C 277.58328 721.83435 277.60043 721.83082 277.6211 721.8301 z M 266.66798 722.79885 C 266.78649 722.79228 266.79617 722.85034 266.77344 722.95314 C 266.49605 724.20998 266.10676 726.35856 266.03516 727.02346 L 265.94727 727.82814 L 265.04688 728.12893 C 263.54457 728.62886 263.29119 728.87061 262.58204 730.50393 L 261.95509 731.95119 L 262.11719 733.06447 C 262.3905 734.93976 262.50007 735.09897 264.05274 735.84963 L 265.4004 736.50197 L 265.40235 738.63674 C 265.40472 741.65063 265.73794 742.72231 267.09962 744.084 C 268.29889 745.28326 271.30853 746.49416 273.0879 746.49416 C 273.42179 746.49416 273.69911 746.54894 273.73243 746.61721 C 273.73369 746.62064 273.73634 746.62738 273.73634 746.63088 C 273.73634 746.63211 273.73648 746.63354 273.73634 746.63479 C 273.66279 746.95629 268.94093 747.91074 265.4004 748.31447 C 264.73989 748.38979 263.54853 748.49199 262.75196 748.54299 L 261.30274 748.63674 L 261.01759 747.97072 C 260.32375 746.35203 259.51443 742.81098 259.12891 739.71291 C 258.76988 736.82786 258.61674 734.37322 258.52344 729.9551 L 258.43555 725.77932 L 260.61134 725.02541 C 261.80793 724.61097 263.69998 723.90808 264.81446 723.46291 C 265.97162 723.00068 266.47046 722.8098 266.66798 722.79885 z M 260.74024 728.26174 C 260.47824 728.26889 260.23363 728.41953 260.19727 728.73635 C 260.17217 728.95474 260.22947 729.22599 260.32227 729.33791 C 260.69316 729.7848 261.44532 729.48785 261.44532 728.89455 C 261.44532 728.48134 261.07711 728.25255 260.74024 728.26174 z M 265.85938 728.41604 C 265.89794 728.41753 265.92335 728.42586 265.93751 728.44143 C 265.96001 728.47116 265.95009 728.52773 265.91798 728.61135 C 265.86608 728.74658 265.82423 729.11025 265.82423 729.41994 C 265.82423 729.91876 265.79133 729.97395 265.54102 729.89455 C 265.34275 729.83158 265.25977 729.86808 265.25977 730.01955 C 265.25977 730.23244 266.81053 730.81252 267.38087 730.81252 C 268.04497 730.81252 268.073 730.93332 267.61134 731.84572 C 267.23834 732.58292 267.16145 732.91042 267.11915 733.94533 C 267.09155 734.62012 267.13967 735.50518 267.22657 735.91018 C 267.30936 736.29619 267.36044 736.63163 267.34571 736.68166 L 267.34571 736.68361 L 267.34376 736.68557 L 267.34376 736.68752 C 267.29154 736.73976 264.86749 735.76824 263.83399 735.28127 C 262.94137 734.86068 262.80111 734.63828 262.56446 733.27932 C 262.36745 732.14802 262.42179 731.84126 263.08399 730.3926 C 263.56574 729.33872 263.65231 729.23553 264.32423 728.90822 C 264.72161 728.71465 265.26371 728.51336 265.5293 728.46096 C 265.68693 728.42985 265.79329 728.41347 265.85938 728.41604 z M 268.13673 729.78322 C 268.20415 729.77291 268.3109 729.82533 268.50977 729.93947 C 268.81161 730.11266 268.87495 730.21551 268.76368 730.34963 C 268.68174 730.44845 268.46406 730.52932 268.2793 730.52932 C 267.94426 730.52932 267.86482 730.33646 268.0254 729.91799 C 268.0564 729.83717 268.08429 729.79124 268.13673 729.78322 z M 261.25977 733.99416 C 260.80203 733.99423 260.48262 734.50254 260.8086 735.00002 C 261.06487 735.39116 261.39169 735.42567 261.75196 735.09963 C 262.10878 734.77677 262.07455 734.39269 261.66602 734.12502 C 261.5273 734.03412 261.38794 733.99414 261.25977 733.99416 z M 266.17774 736.77541 L 266.67188 736.97268 L 267.16602 737.17189 L 267.11915 738.08205 C 267.00079 740.37257 268.39339 742.46482 270.82813 743.65432 C 272.34484 744.39531 273.90104 744.79851 275.39454 744.83791 C 276.65732 744.87124 276.72298 744.92594 276.35743 745.63283 C 276.17662 745.98249 276.05054 746.04021 275.27735 746.12111 C 271.50685 746.51521 267.71365 744.90619 266.48829 742.39455 C 266.16889 741.73989 266.0985 741.36812 266.0293 739.99611 C 265.9842 739.1025 265.99891 738.01091 266.06251 737.57229 L 266.17774 736.77541 z M 267.58985 737.24025 L 268.29102 739.1426 C 268.67684 740.1889 269.11608 741.16687 269.26563 741.31643 C 269.5072 741.55806 269.6733 741.57877 270.75391 741.50197 C 272.07981 741.4078 273.35124 741.04751 274.62305 740.40627 C 275.5519 739.93795 275.48532 739.8739 275.70313 741.44729 C 275.78677 742.05139 275.98528 742.93155 276.14454 743.40432 C 276.29885 743.86233 276.4069 744.27973 276.39259 744.35158 C 276.39229 744.35256 276.39295 744.35665 276.39259 744.35744 L 276.39063 744.3594 C 276.38995 744.36038 276.38762 744.36236 276.38673 744.3633 C 276.24855 744.47582 274.46479 744.27786 273.35938 744.0215 C 272.37942 743.79423 270.0867 742.76087 269.54688 742.30275 C 269.37958 742.16078 268.92287 741.61784 268.53321 741.09768 C 267.75663 740.06102 267.46938 739.13363 267.54688 737.91994 L 267.58985 737.24025 z M 277.38673 738.60158 L 278.28126 738.73244 C 279.82674 738.96079 283.06963 739.04559 284.04102 738.88283 C 284.51809 738.80363 284.93841 738.76168 285.00587 738.78713 C 285.00678 738.78758 285.011 738.79055 285.01173 738.79104 L 285.01368 738.79299 L 285.01563 738.79494 C 285.18822 739.05811 284.10909 743.78441 283.60548 744.9551 C 283.27367 745.7264 283.32003 745.70492 281.50587 745.99611 L 281.50587 745.99416 C 280.76768 746.11266 279.3509 746.21066 278.35743 746.21096 C 276.68182 746.2115 276.56121 746.19422 276.68165 745.96486 C 276.91863 745.51361 277.02225 744.49585 276.86329 744.18166 C 276.71384 743.88625 275.8546 740.27723 275.85548 739.94924 C 275.85578 739.8577 276.20003 739.51662 276.6211 739.19143 L 277.38673 738.60158 z M 262.01173 740.44143 C 261.88305 740.43955 261.75672 740.47752 261.6543 740.56252 C 261.36405 740.80344 261.38721 741.50253 261.69141 741.67971 C 262.02855 741.87605 262.0737 741.86847 262.43946 741.57229 C 262.68608 741.37257 262.73667 741.22886 262.66407 740.93947 C 262.58895 740.64008 262.29482 740.44555 262.01173 740.44143 z M 244.98438 742.42775 C 245.05879 742.42822 245.35651 742.63718 245.67774 742.91994 C 246.42438 743.57716 247.04103 743.7874 248.58204 743.90627 C 249.56119 743.98178 249.71876 744.02874 249.71876 744.25393 C 249.71876 744.3976 249.94092 744.76149 250.2129 745.06252 C 250.65308 745.54983 250.70704 745.6969 250.70704 746.3965 C 250.70704 747.15029 250.68341 747.20215 250.10743 747.66994 C 249.77717 747.93815 249.04973 748.44998 248.49219 748.80861 C 247.93465 749.16724 247.45138 749.46096 247.41798 749.46096 C 247.32096 749.46096 245.99974 748.02456 245.59766 747.48244 C 245.2609 747.0284 245.21688 746.80548 245.06641 744.74611 C 244.97601 743.51259 244.93386 742.47241 244.97266 742.43361 L 244.97462 742.43166 L 244.97657 742.42971 C 244.97832 742.42899 244.98211 742.42798 244.98438 742.42775 z " /><path
     id="path4-4"
     style="fill:#000000"
     d="m 466.11915,306.00196 c -7.22981,0.19848 -17.38308,3.77813 -19.47265,7.80469 -1.2047,2.32126 -0.9515,3.84452 1.7832,10.67383 0.84888,2.12018 1.54167,4.13208 1.54102,4.4707 -7.9e-4,0.33864 -1.93347,1.29609 -4.29688,2.13086 -13.80142,4.87473 -25.86887,13.78042 -46.26563,34.13867 -16.40834,16.37742 -35.07929,36.90427 -49.10547,53.99024 -33.05154,40.26167 -63.95581,82.03733 -83.13476,112.3711 -3.56588,5.63986 -6.53992,10.30983 -6.60938,10.3789 -0.0695,0.0691 -4.95642,0.54257 -10.85937,1.05274 -11.48087,0.99221 -46.55476,1.2096 -118.98829,0.73437 -19.91079,-0.13066 -37.756978,0.0226 -46.660156,0.4043 -2.15591,0.0924 -4.257748,0.18234 -6.308594,0.26758 -2.642717,0.09 -5.496425,0.19498 -8.683594,0.3164 -5.087747,0.19383 -10.251105,0.39776 -14.869141,0.58789 -13.811784,0.48003 -25.074051,0.76768 -35.554689,0.95118 -5.766251,0.008 -12.2870846,-0.008 -19.04296914,-0.0449 v 1.13868 c 19.17200014,0.0422 38.58567214,-0.10613 47.66797014,-0.44922 5.610682,-0.21195 14.274384,-0.58608 21.589844,-0.91602 9.393976,-0.42581 21.382299,-0.69886 38.779299,-0.83594 4.05158,0.008 8.66868,0.0294 14.0293,0.0586 42.92586,0.23391 63.17412,0.25843 74.55469,-0.01 33.72547,0.14589 37.76246,0.0526 49.76953,-0.94726 7.31945,-0.60946 13.38986,-1.02604 13.48828,-0.92774 0.0983,0.0983 -2.67538,4.76392 -6.16211,10.36914 -22.45715,36.102 -41.21679,68.46738 -50.27344,86.73047 -6.68668,13.48399 -8.53863,17.5643 -17.01953,37.48243 -2.39394,5.62248 -5.57648,13.05369 -7.07227,16.51367 -7.32784,16.95001 -9.89036,24.33374 -10.79101,31.12305 -0.38833,2.92749 0.31912,3.83681 1.88476,2.41992 0.54574,-0.49384 2.57675,-3.83876 4.51172,-7.43164 4.50349,-8.36177 8.29939,-13.13933 15.00391,-18.88867 20.5404,-17.61396 39.25589,-25.8063 70.38281,-30.8086 13.13917,-2.11151 24.05262,-2.89411 45.08594,-3.24023 18.71565,-0.30787 41.00522,0.3143 47.87696,1.33984 l 2.44726,0.36719 -3.36718,0.67773 c -4.71122,0.94849 -9.86684,2.88163 -16.29102,6.10938 -7.62888,3.83311 -9.79484,5.52126 -11.28906,8.80078 -2.61832,5.74646 -2.86621,11.99119 -1.29297,32.59961 1.37849,18.05681 1.32666,18.78509 -0.13086,19.31641 -55.10424,20.09256 -168.57747,17.2543 -193.44141,19.63867 l 3.29101,2.65429 c 1.81072,1.45897 9.79871,7.31904 17.75196,13.02344 7.95326,5.70439 19.06435,13.9006 24.68945,18.2168 5.6251,4.31621 13.69045,10.47641 17.92383,13.68555 l 7.69726,5.83398 -6.64843,0.36133 c -3.65671,0.19882 -7.71032,0.57472 -9.00782,0.83789 -1.2975,0.26316 -6.01522,0.73845 -10.48437,1.05274 -10.43108,0.73341 -13.70905,1.73279 -10.35352,3.1582 1.16644,0.49554 2.57272,0.44891 16.90625,-0.56445 15.83875,-1.11991 19.75708,-1.16268 27.20313,-0.29493 10.30395,1.20104 13.85891,1.08979 21.92383,-0.68359 8.38798,-1.84454 17.40801,-2.89682 20.76367,-2.42383 1.35097,0.19057 5.40365,1.06331 9.00781,1.93945 8.02455,1.95175 10.78758,1.81971 17.78711,-0.85156 2.71465,-1.0359 6.4936,-2.15165 8.40039,-2.47851 3.65042,-0.62607 5.69367,-0.36924 17.58594,2.20898 8.52166,1.84755 18.42099,1.18811 31.71875,-2.11133 10.51889,-2.61007 14.60379,-3.15429 27.52344,-3.67578 17.25263,-0.69645 21.71453,-1.67894 23.74609,-5.21875 0.84219,-1.46735 0.9733,-1.50317 6.9043,-1.87695 3.3246,-0.20931 15.83499,-0.17983 27.80078,0.0664 36.61847,0.7511 40.67202,0.51107 47.18165,-2.79492 2.2756,-1.15569 3.00663,-1.84378 3.46875,-3.26172 0.32201,-0.9882 0.85242,-1.886 1.18164,-1.99609 0.32936,-0.11009 5.84699,0.076 12.25976,0.4082 23.5405,1.22108 28.14137,1.26642 31.81446,0.32227 4.30323,-1.10602 6.68713,-2.88259 7.14453,-5.32031 0.25793,-1.37469 0.56381,-1.77779 1.20312,-1.58985 9.60946,2.82487 18.4848,4.24046 23.98828,3.82422 4.23599,-0.32032 6.36789,-1.22957 8.14454,-3.47266 l 1.22656,-1.54882 11.23242,2.86914 c 10.00788,2.55515 11.31938,2.7801 12.02344,2.07617 0.70366,-0.70392 0.69135,-0.89639 -0.10156,-1.77344 -0.4899,-0.54141 -2.3628,-1.41481 -4.16016,-1.94141 -1.79749,-0.5266 -3.43487,-1.04358 -3.64063,-1.14843 0,0 -0.009,-0.01 -0.0137,-0.0137 h -0.002 c -0.13604,-0.181 0.6975,-1.57791 1.9043,-3.17383 1.24573,-1.64729 4.93608,-6.88705 8.19922,-11.64453 21.43227,-31.24645 29.6059,-42.22969 39.5957,-53.20899 4.88396,-5.36783 7.04688,-8.36434 7.04688,-9.76563 0,-0.54534 -0.8999,-1.56142 -2.0586,-2.32812 -1.74612,-1.15556 -2.95278,-1.43316 -7.99414,-1.83984 -20.7113,-1.67089 -34.08602,-3.08751 -53.90625,-5.71094 -30.62679,-4.0529 -35.49491,-4.43869 -56.53321,-4.45703 l -19.04882,-0.0156 0.29882,-3.14258 c 0.16513,-1.72999 0.4461,-4.79807 0.625,-6.8164 l 0.32422,-3.66797 28.65039,0.16601 c 48.29265,0.28282 103.20251,-1.74021 140.20118,-5.16796 19.9218,-1.84572 22.6513,-2.65588 29.20313,-8.64454 4.39314,-4.01543 4.70898,-4.4414 3.28711,-4.4414 -0.54679,0 -1.68825,-0.73493 -2.53516,-1.63282 -0.84678,-0.89789 -4.25254,-3.45956 -7.56836,-5.69335 -10.61404,-7.15025 -15.02457,-11.54607 -21.8418,-21.76758 -5.15577,-7.73005 -8.26135,-13.27512 -17.47266,-31.19336 -4.81737,-9.3708 -10.00004,-19.28038 -11.51562,-22.01954 -7.28839,-13.17325 -15.38591,-27.15368 -22.48242,-38.81445 l -7.80469,-12.82227 4.7793,-0.39257 c 7.35182,-0.6028 40.7918,-1.26121 69,-1.35938 1.71402,-0.006 3.37499,-0.0173 4.98047,-0.0312 v 0.0391 c 8.27171,-0.0139 17.5959,0.007 25.55078,0.0742 13.01193,0.10989 24.11015,0.4161 31.1875,0.86328 19.50552,1.23229 37.45782,2.71215 55.01329,4.55663 V 528.453 c -3.29595,-0.3599 -5.01647,-0.55417 -7.85118,-0.83398 -35.11882,-3.46654 -50.5143,-4.43821 -79.47266,-4.70312 -0.85603,-0.0507 -1.94315,-0.0978 -3.27344,-0.13867 -1.25458,-0.0386 -5.27373,0.10023 -6.95703,0.0742 -4.89934,-0.0203 -9.77368,-0.0351 -14.16406,-0.043 l -0.004,0.19726 c -23.67643,-0.0277 -56.07672,0.0785 -70.27734,0.75782 -8.47644,0.40552 -9.50906,0.36459 -10.13867,-0.41211 -0.38545,-0.47557 -4.27835,-6.35798 -8.65039,-13.07227 -12.57601,-19.31367 -55.85717,-83.31471 -74.52735,-110.20313 -9.44301,-13.59952 -18.02181,-26.54522 -26.74609,-40.36523 -13.45883,-21.31964 -17.83976,-29.13561 -17.41211,-31.0586 0.14496,-0.65168 0.67253,-2.71056 1.17187,-4.57812 0.49947,-1.86757 0.91854,-5.10001 0.93164,-7.18164 0.0301,-4.63545 -1.54694,-8.20009 -4.36133,-9.85352 -1.35229,-0.79445 -3.43845,-1.10284 -5.84765,-1.03711 z m 1.79883,5.06836 c 2.35593,0.19149 2.94321,1.24178 3.3457,4.17774 0.76277,5.56535 -2.96769,16.90001 -6.0957,18.51757 -0.87339,0.45162 -2.90635,0.77997 -4.81445,0.77735 -3.13614,-0.004 -3.36097,-0.0906 -4.45703,-1.70508 -0.63525,-0.93512 -1.32172,-2.75749 -1.52735,-4.05078 -0.20577,-1.29329 -1.14714,-4.56009 -2.08789,-7.26172 -0.94075,-2.70165 -1.57837,-5.25321 -1.41992,-5.66602 0.67601,-1.76165 8.26303,-4.31643 14.05274,-4.73242 1.23694,-0.0888 2.21858,-0.12042 3.0039,-0.0566 z m -16.22266,23.41602 h 0.006 l -0.0137,0.0215 c 1.71531,-0.0581 0.49862,3.36343 -3.29492,15.76563 -7.62665,24.93245 -10.3038,37.93724 -12.30469,59.76367 -0.43604,4.75749 -1.25296,13.13302 -1.81836,18.61133 -2.44872,23.72628 -2.63305,43.19221 -0.57422,61.07422 4.18055,36.30886 8.08354,55.73558 21.05469,104.84766 11.46646,43.41433 23.80648,81.45054 29.38086,90.5625 0.51965,0.84927 0.84534,1.55804 0.78125,1.68359 h -0.0137 c -10e-4,1.3e-4 -0.0137,0 -0.0137,0 -0.55071,0 -18.35884,-4.23907 -34.12891,-8.12304 -40.47334,-9.96804 -64.86748,-13.66006 -111.14063,-16.82032 -7.95719,-0.54337 -44.62352,-0.34634 -54.60742,0.29297 -22.57852,1.44573 -42.79601,5.10965 -56.57227,10.25586 -15.38449,5.74673 -25.62884,11.58691 -37.17969,21.19336 -2.59499,2.15817 -6.19206,5.4182 -7.99414,7.2461 -1.80207,1.82789 -3.27539,3.2015 -3.27539,3.05078 0,-0.80733 5.00761,-13.13143 6.52149,-16.04883 0.97247,-1.87416 3.53388,-7.29916 5.69336,-12.05664 15.0554,-33.16858 25.47698,-51.77013 59.61133,-106.41993 20.45587,-32.7501 32.75579,-51.47783 45.5664,-69.37304 36.56251,-51.07405 77.64159,-101.0611 107.50587,-130.81837 18.48591,-18.41963 29.1591,-26.67887 42.62304,-32.98828 2.02331,-0.94813 3.40782,-1.69432 4.1875,-1.7207 z m 18.67579,1.71093 -0.0156,0.0195 c 0.40877,-0.005 0.72715,0.70589 1.63867,2.52539 0.64993,1.29749 1.94487,3.53685 2.875,4.97851 0.93014,1.44166 3.29468,5.21702 5.25586,8.38867 10.05988,16.26839 19.96563,31.64009 41.20704,62.38282 11.72975,16.97648 58.42906,86.84155 67.28125,100.65625 20.95403,32.70095 35.0648,57.14249 51.75976,89.64454 4.73927,9.22664 10.13508,19.20773 11.99024,22.18164 8.28602,13.28267 16.40772,22.20366 26.58008,29.19336 2.79971,1.9237 4.9602,3.55381 4.97461,3.75 -1.18465,0.31114 -29.33609,1.89964 -54.11524,3.05468 -15.71412,0.73249 -38.24283,1.80652 -50.06445,2.38672 -11.82163,0.58021 -32.11098,1.1641 -45.08594,1.29883 -12.97495,0.13473 -27.4484,0.33846 -32.16407,0.45117 l -8.57421,0.20313 0.28125,-1.40235 c 0.15452,-0.77273 0.57332,-6.28443 0.93164,-12.24609 0.51703,-8.60004 0.51892,-18.77682 0.0176,-49.26172 -0.66199,-40.15323 -1.34472,-53.85007 -3.99804,-80.10156 -0.71401,-7.06414 -1.77072,-18.91387 -2.34961,-26.33204 -2.57887,-33.04434 -5.20822,-57.14574 -8.93164,-81.92187 -0.82332,-5.47831 -2.22312,-15.56601 -3.11328,-22.41602 -3.15055,-24.24371 -4.81687,-34.89188 -8.07227,-51.60547 -0.72726,-3.73367 -0.7218,-3.78239 0.50781,-4.9375 0.58243,-0.54723 0.90379,-0.88666 1.1836,-0.89063 z m -5.26172,3.41993 c 0.78505,0.49768 5.60206,29.43097 8.18945,49.1875 1.01952,7.78497 3.0269,22.52982 4.45899,32.76562 3.82486,27.34011 5.95748,46.98455 8.11132,74.70508 0.44796,5.76665 1.51229,17.67852 2.36719,26.47266 0.85504,8.79414 1.91058,20.94502 2.3457,27 0.43525,6.05497 1.07871,14.54612 1.42969,18.8711 0.94429,11.64417 0.93204,87.30857 -0.0176,94.36328 -0.77797,5.78735 -0.82581,6.29197 -1.40234,14.91992 -0.63014,9.42952 -0.72971,9.5417 -3.51172,3.88672 l -2.35547,-4.78711 0.66211,-3.2207 c 1.68085,-8.15627 2.06847,-16.57601 2.05274,-44.61133 -0.017,-29.15373 -0.26717,-34.62847 -2.61524,-56.61914 -0.69279,-6.48748 -2.68802,-28.89865 -4.43164,-49.80274 -4.61372,-55.31493 -6.22872,-69.28731 -12.88867,-111.56055 -1.87639,-11.91009 -4.69875,-31.84484 -6.27344,-44.29883 -1.57482,-12.45399 -3.01107,-23.62494 -3.19141,-24.82422 l -0.32812,-2.18164 3.60156,-0.19336 c 1.98071,-0.1072 3.69072,-0.13983 3.79688,-0.0723 z m -10.25,4.73828 c 0.17746,0.28716 1.51759,10.1714 2.97656,21.96289 1.45909,11.79149 4.28779,31.9368 6.28711,44.76758 6.54829,42.02495 8.45906,57.90061 11.51172,95.67383 0.86211,10.6683 1.6894,20.58851 1.83789,22.04492 l 0.24219,2.37695 -8.07618,0.76954 c -6.04655,0.57537 -14.49584,1.21307 -18.77929,1.41797 l -6.42774,0.30859 c -0.78691,-1.93386 -4.34637,-24.86418 -6.32031,-40.78711 -2.25634,-18.19693 -2.23511,-42.25408 0.0606,-63.19532 0.41075,-3.74832 1.2299,-11.88484 1.81836,-18.08398 1.33708,-14.08518 2.25518,-20.50334 4.50195,-31.45508 2.5001,-12.18634 9.66641,-36.93457 10.36719,-35.80078 z m -70.65235,83.38086 c -1.57155,0.0416 -2.61889,0.57532 -5.80273,2.70117 -5.81213,3.88057 -8.02194,5.71839 -14.86328,12.35156 -11.92648,11.56371 -27.22252,28.99294 -40.72657,46.40821 -15.82407,20.40712 -21.73754,29.21443 -33.08984,49.27734 -12.58086,22.23439 -17.37535,31.72125 -29.14258,57.66797 -6.9901,15.41328 -10.09956,23.20203 -11.0293,27.63477 -0.52674,2.5111 -0.486,2.8296 0.44531,3.5293 0.56356,0.42334 5.74313,2.3117 11.50977,4.19336 5.76665,1.88136 12.60813,4.23972 15.20312,5.24023 2.59499,1.00064 5.09038,1.82869 5.54883,1.8418 0.52987,0.0157 1.08864,-0.7865 1.53516,-2.20313 0.3865,-1.22541 0.89473,-2.48262 1.125,-2.79297 0.23014,-0.31048 1.38269,-3.36415 2.5625,-6.78515 2.07638,-6.02191 6.94956,-18.82171 8.76172,-23.01367 1.06513,-2.46399 3.82733,-3.86639 14.16601,-7.19727 6.36192,-2.04965 40.02696,-14.09505 56.2754,-20.13477 4.21949,-1.56845 15.7787,-6.17154 25.6875,-10.22851 9.9088,-4.05697 21.25424,-8.43243 25.20898,-9.72461 7.8526,-2.56571 8.83335,-3.28046 9.91211,-7.2168 1.13327,-4.1354 -0.40379,-23.25595 -2.18359,-27.16211 -2.05384,-4.50766 -8.82505,-3.13127 -26.66797,5.41992 -4.73232,2.26792 -8.68558,4.04373 -8.78125,3.94727 -0.73171,-0.73159 -3.07306,-32.62988 -3.89258,-53.03907 -0.75517,-18.8092 -0.41778,-28.54838 1.57617,-45.60937 0.26933,-2.30666 0.31429,-4.37554 0.0996,-4.5957 -0.21389,-0.22014 -1.43839,-0.446 -2.72265,-0.50196 -0.25321,-0.0105 -0.48709,-0.0129 -0.71094,-0.008 z m -1.63476,5.48242 c 0.002,-4.3e-4 0.005,-4e-5 0.008,0 0.005,9e-5 0.01,0.002 0.0156,0.002 0.0301,9.8e-4 0.0507,0.0103 0.0664,0.0254 0.15963,0.1596 0.031,2.49283 -0.28711,5.18554 -1.63183,13.81619 -1.63346,31.83049 -0.0117,59.1543 0.67103,11.30008 3.12031,39.48155 3.46094,39.82227 0.13722,0.13713 1.23927,-0.23999 2.44922,-0.83985 6.91119,-3.42623 23.19494,-10.76456 26.47656,-11.93164 2.10771,-0.74952 4.62417,-1.36328 5.59375,-1.36328 1.52659,0 1.83765,0.22783 2.31445,1.70313 1.08819,3.36756 1.75348,9.70489 1.82032,17.34179 0.0668,7.5317 0.0312,7.8051 -1.14453,8.76172 -0.792,0.64448 -1.70197,0.89374 -2.6211,0.71875 -2.28372,-0.43477 -8.60216,1.78055 -30.70703,10.77344 -11.48676,4.67316 -24.6932,9.87707 -29.3457,11.5625 -4.65251,1.68547 -13.41182,4.87414 -19.4668,7.08594 -6.05498,2.21176 -17.98561,6.42739 -26.51172,9.36719 -15.76169,5.43458 -19.75671,7.22094 -21.25,9.5 -0.98151,1.49787 -8.99403,22.84937 -10.77344,28.70703 -0.67417,2.21954 -1.46362,4.01061 -1.75195,3.98047 -0.28833,-0.0302 -4.06369,-1.30456 -8.38867,-2.83203 -4.32499,-1.5274 -10.74947,-3.54181 -14.27735,-4.47657 l -6.41211,-1.69921 2.04883,-3.72071 c 1.12842,-2.04623 3.3859,-6.78683 5.01367,-10.53515 1.62776,-3.74832 3.26101,-7.28662 3.63086,-7.86329 0.36985,-0.57666 1.44762,-2.81993 2.39453,-4.98242 7.66925,-17.51666 30.82167,-59.81142 42.31446,-77.29883 16.02944,-24.39026 48.36954,-63.25659 64.21484,-77.17578 6.78499,-5.96004 10.42636,-8.89924 11.11914,-8.97071 0.003,-2.5e-4 0.005,-0.002 0.008,-0.002 z m -16.36915,41.44922 c -0.1823,-10e-4 -0.36766,0.0266 -0.55468,0.0859 -1.13839,0.36132 -16.38984,16.05349 -20.91797,21.52148 -5.18789,6.26471 -16.11189,21.1466 -21.35547,29.09375 -8.80043,13.33761 -12.30615,20.07494 -19.51563,37.48438 -5.29117,12.77688 -5.21368,12.50207 -4.15039,14.125 1.46434,2.23478 3.23132,1.77261 14.13867,-3.70312 5.52471,-2.77359 10.28002,-5.22065 10.56836,-5.43555 0.28833,-0.2149 9.72575,-5.02505 20.97071,-10.69141 11.24496,-5.66635 20.96164,-10.71119 21.59375,-11.21094 1.13865,-0.90028 1.15596,-1.12245 1.62305,-24.23632 0.25924,-12.83079 0.44808,-28.2181 0.42187,-34.19336 -0.0459,-10.35715 -0.0978,-10.91735 -1.16406,-11.98243 -0.57444,-0.5741 -1.11103,-0.85345 -1.65821,-0.85742 z m -2.07226,9.13867 c 0.29973,-0.0201 0.30513,1.18954 0.13672,4.86524 -0.13866,3.02749 -0.40572,15.29593 -0.58985,27.26172 -0.28611,18.60327 -0.40875,23.1859 -0.68554,25.21484 -0.12713,0.92786 -12.63616,7.84955 -30.97266,17.13867 -11.38912,5.76963 -21.76891,11.10146 -23.06641,11.84766 -1.2975,0.7462 -2.53958,1.3574 -2.75976,1.36133 -0.22005,0.004 -0.0246,-0.87775 0.43554,-1.95899 0.45963,-1.08125 1.78078,-4.32371 2.93555,-7.20703 3.7955,-9.47682 8.26153,-18.98681 10.61328,-22.59375 0.60169,-0.92292 2.43775,-3.90745 4.08203,-6.63476 3.51504,-5.82972 11.64356,-17.28502 19.92774,-28.08204 7.75217,-10.10352 18.78846,-21.13563 19.94336,-21.21289 z M 476.959,532.75978 c 0.449,0.006 0.73858,0.0442 0.79492,0.10742 v 0.002 0.004 0.002 0.004 0.002 0.004 0.002 c 0,1.30228 2.85562,32.33976 3.67383,39.93164 2.0486,19.00853 2.52701,27.84289 2.81836,52.16016 0.18991,15.86243 -0.15308,30.17011 -0.98243,41.02149 -0.20983,2.74532 -0.53969,5.0031 -0.74218,5.10742 -0.94389,0 -8.42183,-22.89013 -15.50196,-47.45117 -9.91654,-34.40021 -22.96329,-86.7967 -22,-88.35547 0.1692,-0.27373 2.35741,-0.50386 4.86328,-0.51172 0.427,-10e-4 0.90225,-0.01 1.42383,-0.0254 0.95494,0.0292 1.95014,0.0237 2.95899,-0.0332 5.70994,-0.3223 13.97348,-0.99883 18.36328,-1.5039 1.58315,-0.18216 3.07087,-0.34216 4.33008,-0.4668 z m -80.2754,44.42383 c -0.98321,0.0469 -2.989,0.68001 -6.78515,2.10156 -3.72119,1.39341 -9.11286,3.33597 -11.98242,4.31446 -6.16415,2.10173 -8.74161,4.16384 -9.7129,7.77734 -0.49894,1.85576 -0.45492,3.82224 0.22266,9.96094 1.99972,18.11879 2.79109,22.03249 4.60352,22.76172 2.02567,0.81503 18.23082,-0.84727 22.94531,-2.35352 3.55108,-1.13452 8.78565,-4.07108 10.15234,-5.69531 1.83865,-2.18506 1.78928,-3.82145 -0.42773,-14.0293 -2.61347,-12.03309 -6.32476,-23.02172 -8.34375,-24.69727 -0.12975,-0.10708 -0.34423,-0.15628 -0.67188,-0.14062 z m -1.02148,4.80469 c 0.34626,0 3.44281,9.30262 4.44922,13.36718 2.41702,9.76214 3.73395,17.09531 3.23828,18.02149 -0.80052,1.49575 -7.66128,4.34051 -13.63867,5.6543 -5.97936,1.31407 -14.20095,2.1233 -14.83594,1.46093 -0.21625,-0.22558 -0.39321,-1.72803 -0.39453,-3.33789 0,-1.60985 -0.46947,-6.81674 -1.03906,-11.57422 -0.56959,-4.75749 -1.04493,-9.75978 -1.04493,-11.11328 -0.0157,-3.82671 1.09086,-4.68149 9.95118,-7.68945 4.18082,-1.41934 8.84672,-3.07783 10.37109,-3.68555 1.52449,-0.60774 2.84899,-1.10351 2.94336,-1.10351 z m 314.70899,36.73437 v 0.002 c -0.18165,0.0105 -0.34093,0.0373 -0.47461,0.082 -0.37785,0.12647 0.60381,0.6571 2.18164,1.18164 3.30442,1.09856 10.19164,4.95234 13.86329,7.75586 3.45107,2.63507 5.36196,2.89988 10.23242,1.42383 5.9095,-1.79099 6.44098,-1.80705 10.17187,-0.31446 4.16666,1.66693 8.53621,1.80193 11.61914,0.35938 1.15333,-0.53965 3.61631,-2.06832 5.47461,-3.39649 1.85843,-1.32816 3.63935,-2.41406 3.95704,-2.41406 0.31769,0 1.51069,0.97041 2.65039,2.1582 2.53326,2.63993 6.59916,4.64911 9.41211,4.64649 1.15333,-9.1e-4 3.59216,-0.47198 5.41992,-1.04492 4.33311,-1.3583 6.18036,-1.31345 8.16015,0.19531 0.63987,0.48759 1.32245,0.95237 2.04102,1.39062 v -1.70312 c -0.35213,-0.22604 -0.69955,-0.46035 -1.04102,-0.70313 -2.93614,-2.08755 -4.32067,-2.20268 -8.99218,-0.73828 -6.32536,1.98277 -9.87993,1.14221 -14.25196,-3.36914 -1.28177,-1.32252 -2.75909,-2.40625 -3.2832,-2.40625 -0.52397,0 -3.06886,1.46863 -5.65625,3.26172 -4.48291,3.10657 -4.87722,3.26822 -8.32227,3.46289 -3.05397,0.17255 -4.07826,-0.007 -6.60156,-1.16211 -3.72185,-1.70418 -4.88403,-1.70205 -10.26758,-0.002 -5.28841,1.67062 -6.84657,1.47853 -10.51953,-1.28516 -5.18054,-3.89799 -13.04896,-7.53133 -15.77344,-7.38086 z m -549.08009,21.52539 c -0.25439,-4e-4 -0.8109,0.34186 -1.35742,0.85352 -1.76604,1.65385 -6.02493,3.31012 -9.5625,3.7168 -4.40061,0.50589 -9.0927,-0.20417 -15.22461,-2.3086 -2.89328,-0.99304 -6.10488,-1.80859 -7.13672,-1.80859 -1.22685,0 -4.03068,1.06172 -8.10547,3.06445 -9.39387,4.61712 -12.61349,5.58555 -18.55078,5.58594 -4.941236,0 -5.016191,-0.0171 -9.617189,-2.48828 -2.550561,-1.36958 -5.028932,-2.49038 -5.50586,-2.49024 -0.476927,0 -2.753888,0.58221 -5.060547,1.29688 -8.680507,2.6891 -14.613999,3.57816 -21.75586,3.25195 -5.957339,-0.27208 -7.931772,-0.65995 -21.714844,-4.25781 -8.338571,-2.17665 -15.256404,-3.86273 -15.373048,-3.74609 -0.331713,0.33172 19.369056,5.63854 28.437501,7.66015 9.541572,2.1271 18.842551,1.55197 29.384767,-1.81445 5.609375,-1.79119 7.202582,-1.72373 10.832031,0.46484 2.898002,1.74756 5.545801,2.72572 8.275391,3.05469 5.142008,0.61952 12.222298,-1.31598 20.591798,-5.62695 7.46217,-3.84347 7.6956,-3.87025 14.4043,-1.65821 10.03633,3.30927 15.20481,3.63398 21.35742,1.33204 2.87979,-1.07744 6.33873,-3.4954 5.78906,-4.04493 -0.0249,-0.0249 -0.0602,-0.0352 -0.10742,-0.0352 z m 526.70314,23.61133 -0.006,0.004 c 0,0.7532 -4.52138,2.98367 -7.60352,3.75195 -10.53238,2.62592 -53.06661,5.54162 -104.32226,7.15039 -9.22664,0.28964 -31.57903,0.52799 -49.67188,0.5293 h -32.89649 l 0.0137,-1.70312 c 0,-0.93708 0.18273,-1.97288 0.39453,-2.29883 0.2764,-0.42516 9.71054,-0.66862 33.41211,-0.86914 18.59547,-0.15727 39.78481,-0.63674 48.49219,-1.09375 8.5058,-0.44665 23.84037,-1.17769 34.07617,-1.62696 29.1192,-1.27797 60.26006,-2.88073 69.5918,-3.58203 4.6854,-0.35255 8.51953,-0.47115 8.51953,-0.26172 z m -311.79298,7.81055 c 3.27178,-0.0275 6.2189,0.0989 8.5,0.41016 4.20153,0.57273 31.32739,4.94513 31.60157,5.09375 -1.3e-4,0 0,5.7e-4 0,0.0137 0.0472,0.10747 -0.11275,0.71322 -0.375,1.40234 -0.3228,0.84756 -0.33317,3.60317 -0.0312,7.54297 1.49107,19.40869 1.66787,22.26195 1.40234,22.52735 -0.16016,0.16016 -3.47987,1.30302 -7.37891,2.54101 -6.86873,2.18084 -7.06306,2.21291 -6.27343,1.00781 0.95858,-1.46302 0.82453,-5.29355 -0.58594,-16.72265 -0.96801,-7.84395 -3.20157,-15.94051 -5.04297,-18.28125 -0.91008,-1.15713 -1.50293,-1.37696 -3.69531,-1.37696 -2.81766,0 -4.85431,0.81324 -6.45508,2.58203 -0.99907,1.10365 -1.00155,1.25455 -0.0293,10.9336 0.54193,5.39706 1.02251,12.95124 1.06445,16.78711 0.0878,8.10214 0.23108,8.38808 4.50586,8.97851 2.1566,0.2979 2.57741,0.49248 1.80664,0.82813 -3.75474,1.63484 -50.13238,15.62572 -58.99218,17.79687 -4.16562,1.02082 -7.71839,1.85547 -7.89454,1.85547 -0.52738,0 -2.32526,-27.98126 -2.32421,-36.17187 0.001,-8.99282 0.8944,-12.88562 3.51953,-15.33789 1.92868,-1.80155 12.81355,-7.20139 17.67968,-8.77149 6.43073,-2.07481 19.17058,-3.55114 28.98633,-3.63476 z m -4.04492,4.31836 c -2.51124,0.10747 -5.30731,1.56655 -6.44531,3.64844 -0.84376,1.5435 -0.91853,3.42611 -0.83203,21.08398 0.0931,18.80634 0.12712,19.41631 1.16211,20.25391 0.93459,0.75675 1.4404,0.78204 4.09765,0.21875 4.20886,-0.89226 8.33566,-2.77519 9.30078,-4.24805 1.4705,-2.24427 0.74606,-16.21346 -1.57226,-30.34961 -1.58819,-9.68325 -1.52054,-9.47055 -3.36914,-10.23633 -0.70183,-0.29069 -1.50472,-0.40714 -2.3418,-0.37109 z m -21.07227,1.76172 c -2.85265,0.0983 -7.60356,3.08868 -9.66015,6.33203 l -1.54297,2.43555 0.0117,15.7539 c 0.0131,16.88579 0.41428,21.79746 1.92383,23.47071 0.78977,0.87535 1.39773,1.00824 3.60937,0.78125 3.19092,-0.32752 9.37226,-3.01852 10.05469,-4.37696 0.69632,-1.3857 0.78828,-18.05984 0.16797,-29.98828 -0.56159,-10.79779 -1.20941,-13.47034 -3.46875,-14.26758 -0.31678,-0.1114 -0.68433,-0.15464 -1.0918,-0.14062 z m 42.69727,1.23047 c 0.96263,0.0524 1.83418,0.36443 2.125,0.9082 1.03879,1.94192 3.21038,11.1889 4.23828,18.04688 1.36119,9.08339 1.38665,12.04434 0.11524,13.19531 -0.69449,0.62843 -1.94232,0.86914 -4.52735,0.86914 h -3.56836 l 0.33008,-2.39844 c 0.42909,-3.13037 -0.50871,-18.59475 -1.49219,-24.61133 -0.70772,-4.3318 -0.69767,-4.75832 0.10743,-5.36133 0.6574,-0.492 1.70936,-0.70111 2.67187,-0.64843 z m 28.04297,0.33789 c 0.75163,10e-4 1.55406,0.13612 2.25195,0.42773 3.69262,1.54284 5.20091,6.28711 5.78321,18.1875 l 0.34961,7.16211 -2.57032,0.32227 c -1.41283,0.17746 -3.42639,0.43337 -4.47461,0.5664 l -1.90429,0.24219 -0.31641,-2.74805 c -0.84416,-7.34461 -1.98231,-22.48883 -1.73828,-23.125 0.25413,-0.66238 1.36647,-1.03685 2.61914,-1.03515 z m -49.30859,0.15625 v 0.006 c 1.14232,0.0341 1.18574,0.80552 2.73632,11.01367 1.59487,10.49936 2.32299,23.70075 1.3711,24.84766 -0.35256,0.42477 -2.26289,1.14459 -4.2461,1.5957 -1.98333,0.45111 -3.70043,0.81836 -3.81445,0.81836 -0.39161,0 -0.75848,-26.98689 -0.43359,-31.88867 0.35609,-5.37176 0.96082,-6.37891 3.82226,-6.37891 0.21559,0 0.40116,-0.0137 0.56446,-0.0137 z m 57.23828,0.54492 c 0.20576,0 11.66828,2.46858 16.32812,3.51562 1.13158,0.25425 1.28348,1.00223 2.60352,12.75977 l 0.32812,2.90625 -6.99414,2.00195 c -3.84609,1.10091 -7.24616,2.09949 -7.55664,2.21875 -0.37129,0.14299 -0.78062,-2.46516 -1.19726,-7.625 -0.62909,-7.78877 -1.56783,-12.33529 -3.01368,-14.59765 -0.36972,-0.57928 -0.585,-1.06708 -0.52734,-1.16407 h 0.0156 z m -79.63282,2.09961 c 1.06132,0 1.26776,2.2082 1.56055,16.77344 0.15347,7.64081 0.37231,15.57698 0.48633,17.63672 l 0.20703,3.74609 -2.88477,1.10547 c -3.42512,1.31073 -4.66957,1.38489 -5.08398,0.30469 -0.16868,-0.43944 -0.32473,-8.38659 -0.3457,-17.66211 -0.0354,-15.75789 0.0278,-16.95293 0.95507,-18.20508 1.12554,-1.5203 4.13261,-3.69922 5.10547,-3.69922 z m 100.87891,2.53906 0.002,0.006 c 0.55779,-0.0131 1.59931,0.18807 3.20703,0.60156 2.04427,0.52582 3.84998,1.09035 4.01367,1.25391 0.16357,0.16369 0.40669,2.60718 0.53906,5.42969 l 0.24024,5.13086 -3.46875,0.83008 c -1.80397,0.43245 -3.30578,0.65541 -3.47461,0.52929 10e-6,-2.5e-4 0,-0.002 0,-0.0117 1.3e-4,0 0,-3.1e-4 0,-0.0137 -0.0131,-0.17693 -0.35796,-3.15524 -0.77539,-6.61523 -0.41743,-3.45999 -0.76954,-6.56087 -0.76954,-6.89258 0,-0.1578 0.1537,-0.24032 0.48633,-0.24805 z m 11.26367,2.86133 c 0.0301,-0.0564 1.52038,0.26881 3.31446,0.7207 l 3.26367,0.82032 v 2.77734 2.77539 l -2.64648,0.56836 c -1.45581,0.31219 -2.84726,0.56641 -3.08985,0.56641 0,1.3e-4 -3.1e-4,2.6e-4 -0.0137,0 0,1.3e-4 -5.7e-4,0 -0.0137,0 -0.34417,-0.28821 -1.10126,-7.71218 -0.82617,-8.22266 z m 11.33594,2.4668 c 0.56723,-0.0131 1.42586,0.18842 2.7168,0.54687 1.91912,0.53302 2.34231,1.18932 1.5625,2.41211 -0.21192,0.33211 -1.50347,0.77145 -2.87305,0.97656 l -2.49219,0.3711 v -2.1543 c 0,-1.50588 0.14048,-2.1298 1.08594,-2.15234 z m 8.38281,2.16601 c 0.22703,0.004 0.45348,0.0319 0.63477,0.10547 0.0773,0.0315 0.11909,0.0623 0.12695,0.0898 -2.6e-4,9.1e-4 0,0.0137 0,0.0137 1.3e-4,0 0,-10e-4 0,0.0117 1.3e-4,0 0,5.7e-4 0,0.0137 -0.0773,0.076 -0.46014,0.12635 -1.04297,0.11718 -0.52371,-0.0131 -0.83833,-0.055 -0.89062,-0.11914 -1.3e-4,-7.8e-4 1.3e-4,-0.0137 0,-0.0137 1.3e-4,0 0,-0.0137 0,-0.0137 0.0223,-0.0328 0.10181,-0.0669 0.24414,-0.10352 0.17096,-0.0448 0.54936,-0.10813 0.92773,-0.10156 z m 28.4629,5.16407 c 17.0217,0 28.88108,0.99519 59.57812,5 15.47257,2.01846 37.29578,4.38067 43.49414,4.70898 3.03745,0.16094 6.76978,0.41957 8.29493,0.57422 l 2.77343,0.28125 -4.86914,5.20312 c -8.94984,9.56424 -15.8242,18.33917 -25.84375,32.98633 -13.24809,19.36649 -25.30117,36.17188 -25.9414,36.17188 -0.1903,0 -2.07984,-0.58972 -4.19922,-1.31055 -5.03336,-1.71191 -6.45603,-1.68983 -7.8125,0.13086 -0.59134,0.79292 -1.45559,1.83543 -1.91797,2.31445 -2.04178,2.11557 -11.63691,1.60745 -21.98633,-1.16211 -6.54855,-1.75267 -8.44821,-1.88736 -10.10547,-0.72656 -0.90117,0.63119 -1.16406,1.33396 -1.16406,3.10156 0,2.21545 -0.0717,2.30997 -2.23047,3.08008 -3.61346,1.28884 -7.20206,1.46319 -17.58203,0.85743 -15.45671,-0.90182 -31.7373,-0.93208 -32.79102,-0.0606 -0.9958,0.82372 -1.14701,2.72617 -0.28516,3.58789 0.84757,0.84757 -1.61721,1.9837 -6.48046,2.98828 -4.82367,0.99632 -11.85354,1.04776 -34.40821,0.25 -12.13158,-0.42438 -19.74906,-0.42471 -29.00781,0.0117 -13.82291,0.6498 -15.93362,1.12092 -15.48828,3.45117 0.45334,2.37114 -3.93475,3.18939 -19.52344,3.64063 -11.3308,0.32791 -17.24728,1.07646 -26.8418,3.39453 -16.76915,4.05159 -23.44824,4.38766 -35.01758,1.75781 -11.82189,-2.68726 -14.40561,-2.57227 -23.55859,1.05469 -7.07174,2.80233 -10.4938,2.92249 -17.85938,0.625 -4.64491,-1.449 -5.5078,-1.55114 -12.8418,-1.4961 -7.04107,0.0524 -8.73745,0.25883 -16.21679,1.9668 -8.54931,1.95228 -11.84233,2.20043 -17.77149,1.33399 -2.8423,-0.41546 -3.34382,-0.71655 -7.11914,-4.26172 -6.19718,-5.81907 -35.92426,-28.43141 -53.38672,-40.60938 -5.5504,-3.87073 -10.09375,-7.08428 -10.09375,-7.14063 1.3e-4,-0.0551 12.20979,-0.12856 27.13086,-0.16015 38.00194,-0.0799 56.41402,-1.0432 90.03907,-4.71289 24.40629,-2.66366 35.26113,-4.42628 55.04492,-8.93946 5.76664,-1.31546 12.13598,-2.73851 14.1543,-3.1621 14.90285,-3.12735 36.27055,-9.41166 77.0625,-22.66407 58.18363,-18.90254 73.18599,-22.06055 104.77149,-22.06055 z m 46.51953,32.62695 c -1.33459,0.0197 -2.04185,2.06193 -2.61524,6.95703 -0.33761,2.88332 -1.08817,7.56617 -1.66601,10.40625 -0.80655,3.96378 -0.90695,5.3332 -0.43945,5.89649 0.33499,0.40367 0.82085,0.73632 1.07812,0.73632 0.83918,0 2.50724,-3.31959 3.0957,-6.15429 0.31651,-1.52489 0.78289,-2.64489 1.03321,-2.49024 0.2502,0.15465 1.75412,0.0769 3.34375,-0.17187 l 2.89062,-0.45508 1.40039,3.29297 c 1.4528,3.41818 2.4631,4.32187 3.69336,3.30078 1.26669,-1.05123 0.78761,-3.22304 -1.89453,-8.59375 -2.87494,-5.75656 -6.58927,-11.04048 -8.64062,-12.28516 -0.48309,-0.29318 -0.90565,-0.44496 -1.2793,-0.43945 z m -17.70508,2.54687 c -2.82173,-0.10354 -6.01541,0.89218 -7.21094,2.7168 -1.13354,1.72986 -2.66771,16.7094 -1.86523,18.20899 0.61035,1.14049 2.33652,1.40568 2.92773,0.44921 0.20341,-0.32923 0.51345,-2.46886 0.6875,-4.7539 l 0.31446,-4.1543 6.12304,3.9668 c 3.36668,2.18176 6.46252,3.96471 6.88086,3.96484 1.1321,0 2.06837,-1.38283 1.70703,-2.52148 -0.17457,-0.54993 -2.31745,-2.22324 -4.76172,-3.7168 -2.44427,-1.4937 -4.4414,-2.88109 -4.4414,-3.08594 0,-0.20484 0.6909,-0.7633 1.5293,-1.24023 3.30363,-1.8794 4.47107,-6.20277 2.27148,-8.40235 -0.91086,-0.91087 -2.46921,-1.36952 -4.16211,-1.43164 z m -19.42188,1.52735 c -2.58005,0 -4.98689,1.51651 -6.08203,3.82422 -1.05635,2.22553 -1.66995,7.40399 -1.18359,9.99609 0.38965,2.07691 2.5104,4.90813 4.19727,5.59961 2.40509,0.98596 6.16861,-0.61515 8.11328,-3.45312 1.99853,-2.91834 1.1537,-11.69453 0.84179,-12.37891 -0.95807,-2.10214 -3.50404,-3.43753 -5.88672,-3.58789 z m -19.56445,0.0801 c -1.17338,-0.0249 -2.33893,0.1021 -3.24219,0.40039 -3.33378,1.10025 -3.96298,2.30056 -4.57031,8.70508 -0.71061,7.49179 -0.69294,11.43015 0.0566,12.17968 0.39607,0.39646 0.91698,0.43761 1.50977,0.1211 0.69567,-0.37221 0.98942,-1.51093 1.27343,-4.91993 l 0.36915,-4.43359 6.29296,4.15625 c 3.46012,2.28621 6.46102,4.1582 6.66993,4.1582 0.20878,0 0.8091,-0.31483 1.33203,-0.69726 1.67325,-1.22345 0.51246,-2.70692 -4.42969,-5.66797 -2.5811,-1.54638 -4.70117,-2.93339 -4.70117,-3.08398 0.021,-0.16133 0.84991,-0.73252 1.86523,-1.2793 3.24833,-1.74926 4.53468,-6.39794 2.32422,-8.39844 -0.81781,-0.74023 -2.79432,-1.19335 -4.75,-1.23437 z m 57.97266,1.23242 1.91992,3.13672 c 1.05595,1.72646 1.87729,3.16969 1.82617,3.20508 -0.0511,0.0354 -1.09684,0.19325 -2.32226,0.3496 -2.13877,0.27287 -2.2261,0.22847 -2.19727,-1.10742 0.017,-0.76539 0.1979,-2.33495 0.40235,-3.48828 z m -20.19336,0.78515 c 2.52959,0 3.05691,0.77256 1.59375,2.33008 -0.62135,0.66133 -2.06044,1.56623 -3.19922,2.01367 l -2.07031,0.81446 v -1.75586 c 0,-2.31426 1.17568,-3.40235 3.67578,-3.40235 z m -18.35742,0.47071 c 0.82738,-0.0328 1.66481,0.33305 2.41015,1.1582 0.83223,0.92188 0.99175,1.88527 0.95899,5.79492 -0.0354,4.24792 -0.1588,4.80409 -1.31055,5.91797 -2.0123,1.94559 -3.40948,2.12972 -4.89648,0.64258 -1.6705,-1.67036 -2.19106,-4.6127 -1.44532,-8.16797 0.68583,-3.26969 2.46305,-5.27269 4.28321,-5.3457 z m -59.50391,0.61523 c -1.37849,0.0472 -2.24059,1.86933 -2.58594,5.4668 -0.44521,4.63717 -1.14335,8.9365 -2.22656,13.69726 -0.46749,2.05515 -0.70104,4.12014 -0.52149,4.5879 0.86251,2.24781 3.23726,-0.37133 4.17579,-4.60352 l 0.70898,-3.19727 3.77148,-0.57031 c 4.29248,-0.64888 4.12957,-0.74179 5.8711,3.34375 1.37286,3.2208 2.64327,4.18877 3.8789,2.95313 0.55294,-0.55359 0.71398,-1.28254 0.48633,-2.22657 -0.92162,-3.82289 -7.19625,-14.27444 -10.67773,-17.78515 -1.06539,-1.07417 -1.98071,-1.62971 -2.74414,-1.66602 z m 39.97656,0.49414 c 3.59603,-0.0131 2.79689,1.80785 -1.8125,4.125 -1.21388,0.61021 -2.30327,1.10938 -2.41992,1.10938 -0.52738,0 0.65446,-4.37017 1.29102,-4.77344 0.39266,-0.24875 1.71599,-0.46094 2.9414,-0.46094 z m -13.12695,1.6836 c -0.0944,0 -0.17269,0.0309 -0.22852,0.0859 -0.22307,0.22254 -0.53154,2.62043 -0.68554,5.32813 -0.30589,5.37911 -1.34414,7.67202 -3.62891,8.00976 -2.32068,0.34299 -5.63049,-4.23405 -6.78906,-9.39062 -0.58086,-2.58529 -1.13489,-3.25685 -2.31836,-2.80273 -1.31926,0.50629 -1.08038,2.94576 0.70898,7.24414 1.49317,3.58659 3.60411,6.24331 6.01758,7.57226 2.74532,1.51164 5.72902,0.0549 7.71484,-3.76562 1.51112,-2.90718 1.6961,-10.2859 0.29297,-11.69336 -0.37326,-0.37732 -0.80063,-0.59562 -1.08398,-0.58789 z m -55.78321,2.27148 c -1.66512,0.0328 -3.99829,0.54046 -5.44336,1.34766 -2.59617,1.45005 -4.00835,3.20138 -4.46484,5.5332 -0.42031,2.1469 1.16117,3.82873 4.79297,5.09766 4.37794,1.5296 5.20863,2.08042 5.38281,3.57031 0.19436,1.66394 -1.22325,2.7295 -4.35742,3.2793 -2.46289,0.4321 -3.40625,1.09809 -3.40625,2.39453 0,0.5173 0.29388,1.05764 0.6543,1.20312 4.00179,1.61479 11.40234,-2.55738 11.40234,-6.42969 0,-2.17625 -1.16211,-4.35984 -2.78516,-5.22851 -0.71637,-0.38348 -2.79968,-1.0887 -4.63085,-1.56641 -5.31357,-1.38622 -4.75534,-3.42435 1.81445,-6.61133 1.78307,-0.865 3.12464,-1.80737 2.98047,-2.0957 -0.18139,-0.36278 -0.94039,-0.51393 -1.93946,-0.49414 z m 29.98633,0.57031 1.35157,1.79688 c 1.81466,2.41439 3.3645,5.12375 3.07617,5.375 -0.12975,0.11271 -1.35699,0.35001 -2.72656,0.5293 l -2.48633,0.32812 0.0371,-1.69336 c 0.021,-0.93158 0.19977,-2.73741 0.39453,-4.01367 z m -49.58594,2.55469 c -2.4389,-0.0655 -7.12009,2.02583 -8.73632,4.42383 -2.48857,3.69249 -0.98207,7.05165 3.79101,8.46094 1.26892,0.3747 2.84442,1.08986 3.50195,1.58593 1.01912,0.76866 1.12031,1.11767 0.68165,2.36524 -0.5072,1.44218 -2.07162,2.28812 -5.63672,3.05273 -1.56354,0.33538 -2.24512,1.36265 -1.75391,2.64258 0.43197,1.12554 4.28492,0.99097 7.00586,-0.24414 4.18318,-1.89893 5.65036,-6.76434 2.99023,-9.92578 -0.96919,-1.15188 -2.37052,-1.90757 -4.98242,-2.68555 -2.79866,-0.83341 -3.63086,-1.30386 -3.63086,-2.05273 0,-1.34848 2.95689,-3.81186 5.94532,-4.95313 1.77967,-0.67968 2.44744,-1.20343 2.32031,-1.81836 -0.11795,-0.56998 -0.68314,-0.82954 -1.4961,-0.85156 z m 199.3711,88.32422 c -0.53499,0.0498 -2.56321,1.66108 -4.55664,3.62305 -7.11001,6.99796 -16.61724,12.78142 -24.32226,14.79687 -5.37203,1.40535 -12.0372,1.48216 -19.27539,0.22071 -7.30923,-1.27365 -8.27471,-1.02784 -14.93165,3.79687 -16.13521,11.69398 -28.39283,15.69591 -36.50781,11.91797 -1.51637,-0.70602 -3.81517,-2.01128 -5.10742,-2.90039 -3.99969,-2.75174 -7.61587,-4.19141 -10.58203,-4.19141 -3.4613,-0.0131 -4.60319,0.44901 -9.80274,3.88672 -9.79242,6.47411 -19.32862,9.98571 -29.32812,10.80274 -15.6242,1.27652 -42.62599,-1.63995 -70.86133,-7.6543 -12.06487,-2.56983 -15.77651,-3.61437 -17.16797,-4.82812 -0.8283,-0.72174 -0.91992,-0.7123 -0.91992,0.0937 0,1.20247 2.48221,2.18248 10.92773,4.3164 18.27175,4.61633 36.8299,7.56065 58.53516,9.28711 5.04949,0.4017 17.68755,0.29195 21.90625,-0.1914 8.52402,-0.97653 19.31944,-5.23052 27.40625,-10.79297 4.21096,-2.89643 6.47695,-3.82276 9.40234,-3.84766 2.30967,-0.0197 6.3142,1.65926 9.98047,4.18164 4.64844,3.19826 7.68421,4.24552 12.27735,4.23242 4.60467,-0.0131 7.06363,-0.53369 11.81836,-2.52148 4.35657,-1.82134 13.32923,-7.01369 18.34765,-10.61719 2.30666,-1.6562 4.75235,-3.30574 5.4336,-3.66406 1.6414,-0.86368 5.02722,-0.79489 11.9375,0.24219 6.32405,0.94914 9.99373,0.77281 16.82812,-0.81446 7.32509,-1.7013 16.61498,-7.18196 23.84766,-14.06445 2.47337,-2.35358 4.34938,-3.74697 4.80469,-3.57227 1.10641,0.42464 3.54433,4.18421 6.35937,9.79883 3.49957,6.98026 7.58629,13.1202 9.9961,15.01953 4.83454,3.81044 11.16597,6.10069 18.56445,6.7168 8.23097,0.68558 23.9013,-1.01697 31.79492,-3.45508 2.09578,-0.64744 3.08472,-1.06635 3.11133,-1.23437 v -0.0117 l -0.0117,-0.0137 c -0.20275,-0.17549 -2.30608,0.13899 -5.89844,0.99023 -7.87016,1.86603 -13.76622,2.52046 -23.23046,2.57813 -9.27683,0.0564 -12.54277,-0.57555 -18.74415,-3.63672 -5.51252,-2.72107 -8.39369,-6.09426 -13.39062,-15.67188 -4.5968,-8.81051 -7.28761,-12.81445 -8.61524,-12.81445 -0.0131,0 -0.0181,-7.9e-4 -0.0273,0 z m 110.76368,179.57025 c 1.9338,0.4166 29.7797,2.826 39.05469,3.379 13.20772,0.7875 17.36032,1.4033 21.9414,3.2578 2.20522,0.8928 5.18919,1.9234 6.63086,2.289 1.75994,0.4463 3.67229,0.6711 5.66016,0.6836 v -1.2207 c -3.34576,-0.03 -6.61723,-0.856 -11.00586,-2.6699 -5.45551,-2.255 -7.89548,-2.6171 -24.53711,-3.6406 -7.49664,-0.4611 -15.75462,-1.0591 -18.34961,-1.3262 -4.96338,-0.5108 -21.19634,-1.1402 -19.39453,-0.752 z" /></svg>
