<?xml version="1.0" encoding="UTF-8" standalone="no"?>
<!-- Created with Inkscape (http://www.inkscape.org/) -->

<svg
   version="1.1"
   id="svg1"
   width="210mm"
   height="296.99997mm"
   viewBox="0 0 793.70081 1122.5196"
   sodipodi:docname="vincent.svg"
   inkscape:version="1.4.2 (ebf0e940d0, 2025-05-08)"
   xmlns:inkscape="http://www.inkscape.org/namespaces/inkscape"
   xmlns:sodipodi="http://sodipodi.sourceforge.net/DTD/sodipodi-0.dtd"
   xmlns="http://www.w3.org/2000/svg"
   xmlns:svg="http://www.w3.org/2000/svg">
  <sodipodi:namedview
     id="namedview1"
     pagecolor="#ffffff"
     bordercolor="#000000"
     borderopacity="0.25"
     inkscape:showpageshadow="2"
     inkscape:pageopacity="0.0"
     inkscape:pagecheckerboard="0"
     inkscape:deskcolor="#d1d1d1"
     inkscape:document-units="mm"
     inkscape:zoom="0.29264523"
     inkscape:cx="567.23972"
     inkscape:cy="671.46148"
     inkscape:window-width="1536"
     inkscape:window-height="888"
     inkscape:window-x="0"
     inkscape:window-y="0"
     inkscape:window-maximized="1"
     inkscape:current-layer="svg1" />
  <defs
     id="defs1" />
  <rect
     style="fill:#ffffff;stroke:#000000;stroke-width:0.217698;stroke-opacity:0"
     id="rect1"
     width="793.70081"
     height="1122.5197"
     x="0"
     y="-7.1054274e-14" />
  <g
     id="g1">
    <g
       id="g7"
       transform="matrix(0.61603775,0,0,0.61603775,159.2482,-852.2447)">
      <path
         style="fill:#000000"
         d="m 761.09976,3022.9702 c -20.03043,-0.4593 -42.32045,-4.7149 -67.04001,-12.7992 -23.71265,-7.755 -33.70917,-14.4013 -56.41204,-37.5066 -7.0018,-7.1259 -11.12532,-11.7386 -21.33391,-23.8644 -16.51076,-19.6117 -20.31634,-24.0458 -26.9151,-31.36 -10.89003,-12.0708 -15.8955,-18.3195 -19.60665,-24.4762 -6.77561,-11.2405 -11.12793,-24.8453 -11.72277,-36.6438 -0.39817,-7.8977 -0.39286,-9.379 0.0481,-13.4109 0.24848,-2.272 0.38977,-4.2925 0.31396,-4.4901 -0.0758,-0.1975 -0.91043,-0.554 -1.85472,-0.7922 -3.53384,-0.8913 -15.66273,-4.969 -20.75688,-6.9784 -9.38707,-3.7028 -12.52711,-5.6334 -14.21684,-8.741 -1.27181,-2.3389 -1.41586,-5.1697 -0.553,-10.8674 1.90891,-12.6053 3.46498,-35.4373 3.12958,-45.92 -0.42658,-13.3326 -1.23557,-18.4858 -7.40994,-47.2 -0.81367,-3.784 -2.89511,-13.864 -4.62543,-22.4 -4.38104,-21.6126 -4.82244,-23.5541 -8.47557,-37.28 -5.22012,-19.6136 -8.21019,-28.9439 -18.35641,-57.28 -2.64683,-7.392 -5.6122,-15.5204 -6.58971,-18.063 -0.97751,-2.5426 -1.86531,-5.1346 -1.97288,-5.76 -0.10758,-0.6254 -0.4131,-1.914 -0.67894,-2.8636 -0.27884,-0.996 -0.41909,-2.3953 -0.33148,-3.3071 0.13274,-1.3814 0.0668,-1.6169 -0.52376,-1.8699 -0.89459,-0.3831 -15.70977,-4.5792 -30.43563,-8.6203 -11.5772,-3.177 -28.4318,-7.3713 -47.68,-11.8654 -5.28,-1.2328 -12.12,-2.8854 -15.2,-3.6726 -8.41515,-2.1506 -15.08043,-3.6709 -15.35369,-3.502 -0.48613,0.3004 -9.27197,18.3483 -10.82851,22.2439 -3.09142,7.7369 -14.32738,42.8551 -18.78348,58.708 -4.15653,14.7872 -12.11465,48.8796 -12.02898,51.532 0.1689,5.2289 4.80489,23.2216 12.03789,46.72 3.42875,11.1392 5.3964,18.1405 7.21434,25.6702 3.55646,14.7303 4.5128,18.3919 6.0839,23.2933 1.54699,4.8263 1.63102,5.2617 1.4816,7.6765 -0.33774,5.458 -3.14526,10.8332 -9.5258,18.2378 l -2.75936,3.2022 -0.21943,5.12 c -0.12069,2.816 -0.35351,7.136 -0.51737,9.6 -0.16386,2.464 -0.45313,7 -0.64282,10.08 -1.18494,19.2406 -2.90288,31.918 -5.32756,39.3143 -2.04657,6.2428 -5.98888,12.648 -10.31809,16.764 -4.76967,4.5348 -10.2261,7.6623 -26.11265,14.967 -5.632,2.5896 -15.064,6.9427 -20.96,9.6735 -21.16874,9.8048 -25.04368,11.3864 -60.16,24.5552 -31.799,11.9248 -40.31381,14.7216 -55.36,18.1836 -12.95851,2.9816 -22.74504,4.0304 -37.12001,3.978 -12.00295,-0.044 -20.42353,-0.9281 -32.873813,-3.4526 -21.27815,-4.3145 -32.66353,-9.9572 -45.80707,-22.7022 -9.16459,-8.8868 -16.67359,-19.3148 -22.58229,-31.3608 -6.32387,-12.8925 -8.52624,-20.7081 -9.59972,-34.0667 -0.22511,-2.8012 0.34996,-9.1762 1.1254,-12.4757 1.20556,-5.1296 4.61661,-12.5888 8.35576,-18.2721 1.09479,-1.6641 3.33789,-4.4157 4.98466,-6.1148 6.39446,-6.5977 12.5631,-9.9441 31.48688,-17.0813 3.58061,-1.3505 12.94956,-5.0304 20.8199,-8.1777 16.46554,-6.5844 19.08729,-7.5242 29.438713,-10.5533 10.98056,-3.2131 19.25043,-6.548 21.1088,-8.5123 0.85277,-0.9014 0.85482,-0.9153 0.39399,-2.6661 -0.70058,-2.6618 -0.93494,-7.0143 -0.45585,-8.466 0.28432,-0.8614 1.86733,-2.7397 5.37504,-6.3776 8.92639,-9.2575 12.35374,-13.3148 16.28624,-19.2799 5.94684,-9.0206 7.01083,-13.2461 6.19348,-24.5965 -0.44333,-6.1565 -0.83599,-8.9023 -2.88298,-20.16 -5.08482,-27.9648 -6.10352,-34.8637 -6.92237,-46.88 -1.89769,-27.848 2.53895,-56.9702 15.28332,-100.32 3.76169,-12.7954 15.40956,-47.9055 21.39141,-64.48 2.50902,-6.952 7.55412,-21.6515 11.21134,-32.6656 9.30384,-28.0195 13.38096,-38.5309 19.78723,-51.0144 5.0035,-9.75 13.24383,-22.4507 15.26967,-23.5349 0.7527,-0.4028 0.77251,-0.5153 0.78164,-4.4392 0.007,-2.8253 0.24534,-5.3619 0.80064,-8.5059 3.65905,-20.7166 3.5283,-18.7986 3.42408,-50.2282 -0.095,-28.6382 -0.12036,-28.1395 2.0349,-39.972 0.60511,-3.322 1.45278,-7.431 1.8837,-9.131 0.43092,-1.6999 0.69881,-3.4146 0.59532,-3.8103 -0.11718,-0.4481 0.0155,-0.9446 0.35183,-1.3162 0.62722,-0.6931 3.97266,-11.6766 5.12384,-16.8223 1.47135,-6.5769 1.82144,-12.6954 1.14433,-20 -0.17131,-1.848 -0.33128,-3.936 -0.35549,-4.64 -0.22636,-6.5804 -1.57483,-20.7721 -2.53887,-26.72 -1.38858,-8.5671 -4.94687,-23.3669 -10.54039,-43.84 -3.05397,-11.178 -4.46877,-17.4129 -5.62747,-24.8 -0.46931,-2.992 -0.87577,-5.4657 -0.90324,-5.497 -0.0275,-0.031 -1.25067,0.2225 -2.71823,0.5642 -5.51153,1.2834 -15.87737,2.6645 -28.36432,3.7793 -15.18726,1.3558 -23.78095,1.7296 -39.52,1.7188 -27.22936,-0.019 -47.44291,-1.6077 -62.720013,-4.9309 -9.67093,-2.1037 -26.6528,-7.4602 -36.67727,-11.569 -3.74893,-1.5366 -11.21296,-5.1841 -13.2848,-6.492 -0.67387,-0.4254 -1.36964,-0.7734 -1.54616,-0.7734 -0.17652,0 -3.16738,2.3461 -6.64636,5.2135 -3.47897,2.8674 -11.29341,9.156 -17.36541,13.9746 -6.072,4.8185 -13.5522904,10.8605 -16.62287036,13.4265 -3.07058004,2.5659 -6.67915004,5.5536 -8.01903004,6.6391 -1.33989,1.0856 -2.58266,2.1656 -2.76172,2.4 -0.2229296,0.2919 -0.1397196,2.696 0.26397,7.6263 0.47761,5.8331 0.5734,9.8426 0.50459,21.12 l -0.0849,13.92 -0.8478796,1.44 c -0.99115,1.6833 -2.82635,3.2044 -10.7036,8.8716 -10.07917,7.2514 -18.04634,12.2484 -19.52859,12.2484 -0.45565,0 -0.92298,0.3835 -1.35064,1.1083 -1.18445,2.0075 -4.30519,2.6486 -8.57642,1.7619 -2.34962,-0.4878 -9.94343,-3.515 -16.3804,-6.53 -29.24202,-13.6965 -59.938197,-30.5933 -81.285897,-44.744 -8.87985,-5.8861 -13.83517,-9.4719 -14.60151,-10.566 -1.04963,-1.4986 -0.0108,-3.3246 1.65373,-2.9068 0.87811,0.2203 0.85609,0.5116 0.43882,-5.8034 -0.16281,-2.464 -0.39159,-11.0268 -0.50839,-19.0285 -0.11681,-8.0016 -0.25309,-14.7696 -0.30286,-15.04 -0.0498,-0.2703 -0.19498,-5.3155 -0.32268,-11.2115 -0.12771,-5.896 -0.27307,-10.792 -0.32303,-10.88 -0.0499,-0.088 -0.19347,-4.768 -0.31892,-10.4 -0.12545,-5.632 -0.29997,-10.672 -0.38781,-11.2 -0.0879,-0.528 -0.23306,-17.1178 -0.3227,-36.8662 l -0.16298,-35.9062 3.15586,-2.0353 c 1.73572,-1.1194 5.24386,-3.2307 7.79586,-4.6919 8.04009,-4.6035 14.0338,-8.3822 14.55336,-9.1752 0.35488,-0.5416 0.79896,-0.7652 1.51972,-0.7652 1.18566,0 15.27446,6.8581 26.67982,12.9872 4.06609,2.185 7.50739,3.9728 7.64733,3.9728 0.13993,0 1.49313,-1.1929 3.007097,-2.6508 2.73124,-2.6302 10.17019,-8.9174 14.05711,-11.8808 1.11344,-0.8489 2.09465,-1.7264 2.18046,-1.95 0.0858,-0.2237 -0.28335,-1.8268 -0.82037,-3.5625 -1.85176,-5.9852 -3.81151,-17.5054 -4.53793,-26.6759 -0.38736,-4.8902 -0.22036,-13.2808 0.36941,-18.56 0.44168,-3.9537 1.71226,-9.6422 2.92481,-13.0948 3.34821,-9.5337 11.59902,-20.8958 22.19086,-30.559 7.96008,-7.2622 28.70167,-24.108 36.77743,-29.8696 9.82761,-7.0116 15.7169896,-10.4316 31.6908996,-18.4031 14.3144404,-7.1434 23.3148804,-12.0097 45.6000004,-24.6544 9.82511,-5.5749 12.36647,-7.1272 12.5542,-7.6684 0.0745,-0.2149 -0.19092,-3.4147 -0.5899,-7.1107 -2.71346,-25.1363 -2.29445,-32.6717 2.12714,-38.2544 3.78094,-4.7739 25.68361,-18.3987 53.103963,-33.0339 11.83893,-6.3189 15.25068,-7.5166 22.24461,-7.8091 4.73984,-0.1982 8.40994,0.2224 17.6,2.0167 13.55173,2.646 22.72391,5.4618 39.6728,12.1791 16.29971,6.4601 22.53195,10.5983 28.46651,18.9016 0.6604,0.924 1.33318,1.68 1.49507,1.68 0.3881,0 16.0516,-10.4596 22.89789,-15.2905 2.96325,-2.091 10.64373,-7.4002 17.06773,-11.7983 6.424,-4.3981 15.784,-10.9468 20.8,-14.5526 5.016,-3.6057 16.248,-11.5045 24.96,-17.5529 16.43893,-11.4127 41.48383,-29.0844 42.67704,-30.113 0.15237,-0.1313 0.0664,-0.5394 -0.19096,-0.9069 -0.27277,-0.3894 -0.43587,-1.235 -0.391,-2.027 0.0423,-0.7473 0.16794,-3.0148 0.27912,-5.0388 0.63342,-11.531 1.33826,-18.4271 2.14999,-21.035 0.38835,-1.2477 1.66766,-2.325 2.76091,-2.325 0.43933,0 2.55911,-1.0069 4.71062,-2.2375 2.15151,-1.2307 4.61664,-2.5454 5.47806,-2.9215 0.86143,-0.3762 1.60216,-0.7132 1.64607,-0.749 0.0439,-0.036 0.35534,-2.6451 0.69208,-5.7985 0.77319,-7.2407 0.99278,-13.5034 1.00888,-28.7735 0.0102,-9.6483 -0.0897,-12.7218 -0.48355,-14.88 -0.84766,-4.6449 -0.60808,-5.799 1.30344,-6.2788 2.43386,-0.6108 10.83892,5.9075 19.68143,15.2634 10.98934,11.6274 19.19958,22.1026 31.12339,39.7093 l 3.39558,5.0139 2.47945,0.8144 c 2.6259,0.8624 11.52914,3.4182 16.87946,4.8454 3.60823,0.9625 20.38211,5.713 25.31674,7.1698 5.15898,1.5231 39.80446,12.6119 45.08327,14.4296 10.03659,3.4559 24.15802,9.5724 24.56819,10.6413 0.39158,1.0204 -0.57389,1.2745 -2.22416,0.5854 -4.31429,-1.8017 -17.19694,-6.6906 -21.70403,-8.2365 -4.24957,-1.4577 -16.40378,-5.3806 -36.64001,-11.826 -1.848,-0.5886 -4.224,-1.3681 -5.28,-1.7321 -1.056,-0.3641 -3.27663,-1.0235 -4.93474,-1.4655 -1.65811,-0.4419 -3.12019,-0.8687 -3.24908,-0.9483 -0.27305,-0.1688 -18.42982,-5.443 -24.29618,-7.0576 -3.47211,-0.9556 -12.09733,-3.6503 -13.41099,-4.1898 -0.30271,-0.1243 -0.39142,-0.03 -0.26981,0.2869 0.133,0.3466 10.18868,15.9468 10.63622,16.5008 0.038,0.047 3.43863,1.1015 7.55687,2.3432 22.71837,6.8494 63.9494,20.9361 66.57711,22.7461 0.46717,0.3218 1.00417,0.5851 1.19333,0.5851 0.86847,0 7.67173,-2.1632 14.15769,-4.5017 4.34293,-1.5658 7.49525,-2.5321 8.07079,-2.4738 0.6428,0.065 1.2609,0.4878 1.93549,1.3238 1.32305,1.6398 1.35053,2.0867 1.42024,23.0917 0.0315,9.504 0.12416,18.36 0.20583,19.68 0.0817,1.32 0.23171,5.352 0.33343,8.96 0.10172,3.608 0.26306,7.9198 0.35854,9.5817 0.22448,3.9073 -0.0752,6.2887 -0.89434,7.1079 -0.63597,0.636 -0.63517,0.6437 0.50538,4.8537 2.54791,9.405 4.03977,17.5511 4.01306,21.9131 -0.014,2.2937 -0.71056,6.2423 -1.38506,7.8518 -0.70708,1.6873 -2.30999,3.6415 -3.69119,4.5002 -1.69118,1.0513 -3.30411,1.6276 -8.57755,3.065 -2.60427,0.7098 -6.46303,1.8041 -8.57503,2.4318 -2.112,0.6278 -5.784,1.5621 -8.16,2.0764 -2.376,0.5143 -4.91676,1.0942 -5.64613,1.2888 l -1.32612,0.3538 1.75532,3.7279 c 6.40857,13.6104 12.13338,26.7976 18.03827,41.5514 5.35038,13.3683 8.53074,21.0334 14.4021,34.7111 2.63659,6.1421 5.0957,11.9905 5.4647,12.9964 0.36899,1.006 0.76111,1.9208 0.87138,2.033 0.11026,0.1122 2.93648,0.3686 6.28048,0.5698 20.72041,1.2464 49.15742,6.2386 63.30952,11.114 11.94354,4.1146 21.97048,10.7807 21.97048,14.6065 0,1.5248 -0.9707,3.1266 -2.47168,4.0785 -0.76878,0.4875 -4.59516,1.9277 -8.50305,3.2003 -3.9079,1.2726 -9.47517,3.1896 -12.37171,4.26 -6.17361,2.2814 -6.38257,2.0687 3.01858,3.0739 3.33967,0.3571 7.51567,0.9295 9.28,1.2721 1.76432,0.3426 5.29586,0.9337 7.84786,1.3136 6.53457,0.9728 16.17211,2.6864 22.56,4.0113 5.18322,1.075 34.81873,8.282 42.82911,10.4155 l 3.7891,1.0092 3.74813,-0.3921 c 9.87889,-1.0334 22.46186,-0.1256 39.68305,2.8632 7.26441,1.2607 11.22359,2.2396 17.47062,4.3195 14.72871,4.9037 28.85104,12.5396 40.8,22.0604 4.90056,3.9048 15.92793,14.8697 20.61698,20.5003 11.06617,13.2882 22.74467,30.8997 29.25827,44.1224 14.0556,28.5331 20.1073,52.8798 25.6216,103.0776 3.1714,28.8702 4.1908,43.5337 4.6826,67.36 0.2897,14.0293 -0.82,35.3866 -2.1327,41.0474 -0.3444,1.4853 -0.329,1.5463 0.5596,2.2113 6.8976,5.1626 15.5305,20.9937 18.9793,34.8046 4.0214,16.1037 5.2961,29.2143 5.2908,54.4167 0,17.9996 -0.2056,21.5877 -1.9436,34.56 -2.612,19.4951 -5.1055,29.5882 -13.7757,55.7612 -3.2023,9.6671 -3.347,10.2194 -2.9752,11.36 0.8051,2.4693 4.5305,10.2315 9.6541,20.115 2.9093,5.6121 7.2318,13.9478 9.6055,18.5238 5.9759,11.5203 7.7672,15.7324 10.6829,25.12 5.9185,19.0553 8.1814,33.3946 9.3929,59.52 0.9565,20.6259 -0.2707,31.4567 -4.8044,42.4 -4.7101,11.3691 -12.6014,21.9432 -21.2125,28.4241 -13.9274,10.4821 -29.0852,14.9061 -53.0204,15.4748 -11.4281,0.2716 -20.83769,-0.7064 -37.76005,-3.9246 -14.37762,-2.7342 -21.73566,-4.883 -28.48,-8.3171 -6.03721,-3.074 -8.20566,-5.2767 -12.93987,-13.1444 -5.65727,-9.4018 -9.86466,-15.2779 -15.05472,-21.0257 -6.38359,-7.0696 -9.02487,-8.6303 -21.92541,-12.9557 -4.664,-1.5638 -9.416,-3.2262 -10.56,-3.6943 -6.91131,-2.8277 -15.48327,-9.7531 -17.48572,-14.1271 -1.24368,-2.7165 -1.00075,-5.6159 0.83037,-9.91 6.24636,-14.6484 12.70096,-22.1 30.07441,-34.72 8.30366,-6.0318 12.92777,-8.7329 22.71007,-13.2657 9.78457,-4.5339 13.09442,-7.2945 14.08432,-11.7469 0.16967,-0.7631 0.46619,-3.8354 0.65895,-6.8274 0.82311,-12.7765 2.43939,-24.6478 5.16282,-37.92 1.85404,-9.0354 2.85071,-11.52 4.62106,-11.52 0.43105,0 0.78372,-0.062 0.78372,-0.1374 0,-0.076 -2.5372,-4.2155 -5.63823,-9.2 -15.44944,-24.8328 -18.46791,-29.7648 -22.29122,-36.4226 -4.61239,-8.0319 -8.80681,-16.3698 -10.78551,-21.44 -3.30824,-8.477 -5.85627,-20.0613 -7.07377,-32.16 -1.03844,-10.3193 -0.13015,-27.5111 1.9696,-37.28 l 0.3783,-1.76 -6.709,-11.04 c -3.68995,-6.072 -7.93274,-13.056 -9.42841,-15.52 -4.00281,-6.5943 -6.05916,-10.4281 -11.59061,-21.6093 -2.74013,-5.5389 -6.76911,-13.5987 -8.95327,-17.9107 -2.18417,-4.312 -6.01752,-12.448 -8.51856,-18.08 -5.27476,-11.8781 -8.41822,-18.4621 -13.61638,-28.5198 l -3.7385,-7.2335 -2.31386,4.4367 c -2.16513,4.1514 -4.53717,8.1483 -11.49516,19.3692 -4.7071,7.591 -5.63707,8.9377 -6.53556,9.4637 -0.47292,0.277 -1.14787,1.0542 -1.49987,1.7273 -1.30923,2.5034 -6.64117,8.3978 -16.45994,18.1964 -11.28266,11.2595 -13.55212,13.7367 -16.96974,18.5236 -6.99428,9.7965 -8.66791,14.3482 -7.54362,20.5164 2.91,15.9651 3.64642,23.9709 3.84131,41.76 0.16822,15.3551 -0.31839,21.3437 -2.36846,29.1482 -1.49333,5.6849 -3.13322,9.723 -7.61875,18.7602 -2.3336,4.7017 -4.45844,9.3759 -4.72186,10.3873 -0.97014,3.7246 -0.48257,8.6845 2.55822,26.0243 2.52371,14.3912 2.93902,19.4304 1.80653,21.92 -0.32025,0.704 -0.80937,1.4679 -1.08695,1.6976 -0.64743,0.5357 -0.41866,1.0594 7.78579,17.8224 8.07229,16.493 13.45373,26.4287 19.23862,35.52 2.23458,3.5118 9.39862,14.9033 13.32471,21.1876 10.02544,16.0473 16.31951,29.1994 20.48836,42.8124 2.49884,8.1597 7.46299,27.3611 10.13437,39.2 2.95581,13.0993 3.95425,18.2839 7.84168,40.7193 8.03621,46.3792 14.04378,71.4758 28.47657,118.9607 6.96583,22.918 13.52348,47.5293 15.21956,57.12 0.52048,2.943 0.58801,10.1543 0.12587,13.44 -0.39886,2.8358 -1.94574,6.0321 -4.29337,8.8714 -0.97839,1.1833 -1.77889,2.3096 -1.77889,2.5029 0,0.6285 4.65654,6.1601 7.40244,8.7936 3.66154,3.5116 7.41515,5.9333 14.89046,9.6069 11.32015,5.5629 19.11532,8.6041 33.11422,12.9189 16.61597,5.1215 20.81937,6.6839 26.74536,9.9409 11.56312,6.3552 20.63703,16.8406 26.59357,30.7303 3.2171,7.5018 6.3516,17.9066 8.3393,27.6824 3.9483,19.4175 3.6377,47.5522 -0.7399,67.0327 -2.4755,11.0159 -7.2817,16.6848 -18.86603,22.2526 -5.15253,2.4764 -9.1301,3.9592 -15.41655,5.7472 -5.37392,1.5284 -14.69351,3.4304 -20.30287,4.1434 -6.91652,0.8792 -21.13034,1.4469 -30.72,1.227 z m 19.29237,-5.8648 c 7.03783,-0.4274 15.5788,-1.4275 19.26763,-2.2561 1.584,-0.3558 4.176,-0.9351 5.76,-1.2873 10.61111,-2.3596 23.46807,-7.6835 27.88097,-11.5452 5.77578,-5.0542 7.37668,-9.3362 9.37468,-25.0748 1.0821,-8.5243 1.3758,-13.3463 1.3728,-22.542 -0.01,-18.7865 -1.8078,-31.0184 -7.11759,-48.32 -4.81288,-15.6827 -12.9298,-27.5551 -23.78559,-34.7906 -6.95453,-4.6353 -12.92765,-7.2374 -29.96527,-13.0537 -7.73026,-2.6389 -17.94559,-6.6207 -23.36,-9.1053 -7.36125,-3.3781 -17.02807,-8.4187 -19.04157,-9.9291 -1.05686,-0.7927 -2.30105,-1.6863 -2.76485,-1.9857 -2.09574,-1.3528 -6.42445,-5.897 -10.09893,-10.6016 l -0.70534,-0.9031 -2.68407,2.3445 c -6.40471,5.5945 -13.83683,9.5575 -25.18524,13.4293 -11.92235,4.0677 -23.53182,6.4954 -36.80001,7.6956 -5.83734,0.528 -32.07766,0.5203 -39.96064,-0.012 -9.84115,-0.6641 -19.26869,-1.7442 -28.63393,-3.2803 -6.82633,-1.1197 -21.56314,-4.0627 -26.92402,-5.3769 -2.11122,-0.5175 -3.90663,-0.8729 -3.98979,-0.7897 -0.70692,0.7069 -0.38789,15.8796 0.44994,21.3983 1.17654,7.7496 3.53204,15.104 7.37932,23.04 4.46335,9.2066 7.65084,13.4083 23.66902,31.2 7.00155,7.7767 12.29436,13.9503 26.7394,31.1891 8.67026,10.3472 16.82148,19.2337 24.51908,26.7309 19.18487,18.6853 27.46494,24.102 46.51162,30.4273 20.78786,6.9036 38.09703,10.9179 55.04001,12.765 8.42224,0.9181 23.57928,1.2085 33.05237,0.6331 z m -640.7324,-71.1838 c 14.66003,-1.4588 29.69073,-5.1205 48.64,-11.8494 8.56474,-3.0413 47.00667,-17.442 56.16,-21.0379 9.40028,-3.693 21.01594,-8.8469 36,-15.9733 1.848,-0.8789 8.544,-3.9699 14.88,-6.8689 14.07711,-6.4408 16.51634,-7.6679 20.05383,-10.0883 3.05988,-2.0937 6.82869,-5.8435 8.81292,-8.7686 4.88673,-7.2038 7.25699,-16.766 8.87785,-35.8152 0.57993,-6.8157 1.33093,-18.9475 1.64411,-26.5593 l 0.2238,-5.4394 -3.5772,3.4279 c -11.33973,10.8661 -21.92908,18.4975 -33.18841,23.9178 -12.81857,6.1709 -24.73346,9.1706 -42.0469,10.5859 -5.88704,0.4813 -17.70215,0.489 -22.08,0.014 -14.80646,-1.6048 -31.5877,-7.3044 -51.36,-17.4439 -10.92642,-5.6032 -19.72314,-10.9128 -26.58667,-16.0474 -4.77091,-3.5691 -13.61013,-11.3823 -15.94762,-14.0966 -2.39612,-2.7822 -6.84978,-8.7686 -8.00474,-10.7595 -0.48499,-0.836 -0.95388,-1.52 -1.04198,-1.52 -0.0881,0 -0.54243,0.2719 -1.0096,0.6043 -2.78968,1.9847 -9.53836,4.7637 -17.24677,7.102 -11.30205,3.4284 -18.555373,5.9856 -29.682633,10.465 -6.336,2.5507 -16.704,6.6862 -23.04,9.1902 -12.53551,4.9539 -17.38237,7.0762 -21.58713,9.4521 -8.81098,4.9788 -13.67724,10.6968 -18.73569,22.0151 -4.0001,8.9502 -4.63987,16.6344 -2.3831,28.6231 1.3344,7.0888 3.77827,14.0647 7.93775,22.658 5.4165,11.1902 11.77291,20.0755 20.82262,29.1069 6.97904,6.965 13.00035,11.4323 19.9663,14.8133 11.46793,5.5662 29.84013,9.587 49.819253,10.9032 3.77985,0.249 18.97588,-0.1434 23.68001,-0.6116 z M 663.08356,2844.168 c 17.57993,-1.7514 32.76679,-5.6708 46.1762,-11.9171 7.03475,-3.2769 15.08062,-9.6774 19.44119,-15.4655 2.49033,-3.3056 2.75089,-4.2405 2.89444,-10.3854 0.1192,-5.1028 0.0657,-5.7389 -0.8639,-10.2614 -2.42069,-11.7772 -8.19073,-32.9147 -16.67843,-61.0986 -5.56267,-18.4712 -7.5484,-25.4628 -10.99712,-38.72 -5.97952,-22.9859 -11.01157,-46.8154 -15.23796,-72.16 -4.93204,-29.5763 -10.09872,-53.0119 -16.97524,-76.998 -4.94396,-17.2451 -9.69618,-27.1573 -24.29863,-50.682 -12.89511,-20.7742 -15.56679,-25.4383 -23.09631,-40.32 -6.02966,-11.9174 -10.65123,-21.5676 -12.79644,-26.72 -0.70805,-1.7006 -1.36955,-2.8546 -1.61535,-2.818 -0.22894,0.034 -4.80826,0.8683 -10.17626,1.8537 -20.86997,3.8312 -30.14517,5.7954 -46.08,9.7585 -4.84,1.2038 -10.6,2.5688 -12.8,3.0334 -13.2968,2.8082 -33.62603,5.1567 -64.16001,7.4119 -8.86254,0.6546 -25.35458,0.7409 -32.48,0.17 -15.00307,-1.2022 -24.54644,-2.375 -38.08,-4.6798 -4.664,-0.7943 -8.64063,-1.4454 -8.83696,-1.4469 -0.37925,0 -0.52011,2.2815 -1.09491,17.7572 -0.1765,4.752 -0.53094,12.96 -0.78764,18.24 -0.58791,12.0925 -1.04992,27.8719 -1.27423,43.52 -0.0959,6.688 -0.25896,14.3409 -0.36241,17.0064 l -0.18809,4.8464 3.15212,0.6976 c 24.28469,5.3742 46.27903,10.9429 71.47212,18.0958 12.21426,3.4679 18.26006,5.4257 19.31366,6.2545 1.05915,0.8331 1.0809,1.7308 0.0582,2.4009 -0.8912,0.584 -1.76252,0.4576 -6.56201,-0.952 -1.4906,-0.4378 -2.73976,-0.7664 -2.7759,-0.7302 -0.0361,0.036 0.7947,1.7916 1.84631,3.9011 2.16888,4.3506 4.08468,9.2978 9.78957,25.2795 15.48419,43.3774 19.94582,59.0774 27.41761,96.48 1.31847,6.6 3.84582,18.7979 5.61634,27.1066 3.25321,15.2666 4.64558,22.9935 5.66778,31.4534 1.42419,11.7866 0.0962,41.2676 -2.63056,58.4 -0.89098,5.5979 -0.58745,7.1801 1.76349,9.1924 1.95857,1.6765 4.00762,2.5475 14.16366,6.0206 11.39113,3.8956 19.0111,6.1732 19.8868,5.9442 0.36192,-0.095 1.10252,0.1074 1.66283,0.4537 1.65354,1.022 12.90979,3.558 27.58756,6.2155 14.4929,2.6241 26.76927,3.8483 44.7147,4.4591 6.69575,0.2279 23.51214,-0.1281 28.22381,-0.5975 z m -411.26383,-7.859 c 16.11999,-1.1816 27.79418,-3.6969 38.88,-8.3771 13.95639,-5.892 25.57028,-14.0995 39.95645,-28.237 8.48035,-8.3338 12.3392,-13.0588 14.6654,-17.9571 1.84779,-3.891 1.80149,-5.0487 -0.53027,-13.2578 -1.07483,-3.784 -3.10596,-11.776 -4.51364,-17.76 -3.26193,-13.8665 -3.8989,-16.2564 -7.33446,-27.52 -7.02659,-23.0369 -9.69182,-33.5478 -11.3546,-44.7794 -1.17368,-7.9279 -1.16015,-8.0737 2.06342,-22.2369 0.88424,-3.8851 2.3347,-10.2578 3.22325,-14.1616 2.92084,-12.8328 7.48876,-29.0063 13.45008,-47.6221 6.15861,-19.232 10.02997,-30.6001 11.82377,-34.72 1.90109,-4.3664 7.62499,-15.9136 8.85091,-17.8556 0.78375,-1.2415 0.79455,-1.3252 0.28277,-2.1915 -0.77931,-1.3193 -0.22993,-2.1929 1.37902,-2.1929 0.67077,0 1.67891,-0.2292 2.24032,-0.5092 0.92717,-0.4626 1.09081,-0.4634 1.7849,-0.01 0.42028,0.2754 0.84851,0.7665 0.95162,1.0914 0.15401,0.4852 1.45745,0.8601 7.30427,2.1009 3.91424,0.8306 8.82042,1.9182 10.90262,2.4168 2.58954,0.62 3.82138,0.793 3.89836,0.5476 0.0619,-0.1974 0.26972,-9.7909 0.46183,-21.3189 0.35241,-21.148 0.57342,-28.3983 1.44363,-47.36 0.26251,-5.72 0.63506,-14.144 0.8279,-18.72 0.19284,-4.576 0.45305,-9.508 0.57825,-10.96 0.1252,-1.452 0.21541,-2.64 0.20048,-2.64 -0.0149,0 -2.54021,-0.5136 -5.61172,-1.1413 -25.21268,-5.1526 -61.37826,-16.7594 -83.50456,-26.7996 -7.37157,-3.345 -24.58376,-11.8101 -33.92,-16.6822 -4.312,-2.2502 -12.52,-6.3515 -18.24,-9.114 -5.72,-2.7625 -12.10896,-6.0641 -14.19769,-7.3369 -2.08872,-1.2728 -3.93985,-2.2668 -4.1136,-2.2089 -0.17375,0.058 -0.4921,0.6178 -0.70745,1.2442 -0.21534,0.6264 -1.97727,3.5013 -3.91539,6.3888 -11.36272,16.9284 -18.17913,32.179 -27.93953,62.5102 -3.86964,12.0252 -8.94033,26.7979 -13.13257,38.2597 -2.91505,7.9699 -15.83239,46.6374 -19.04614,57.0138 -11.62357,37.5295 -17.40902,68.1153 -17.42333,92.1116 -0.01,16.4738 1.09357,26.3788 6.0773,54.5546 3.22421,18.2283 3.50128,20.331 3.73172,28.32 0.28189,9.7729 -0.44728,13.1646 -4.2653,19.84 -4.59368,8.0315 -9.18047,13.8615 -17.82009,22.6501 l -6.38013,6.4901 0.19694,2.3099 c 0.49691,5.828 2.6009,10.8259 6.78752,16.1232 3.56006,4.5046 6.67195,7.6834 11.98774,12.2457 5.59926,4.8055 7.20671,6.0242 12.8,9.7046 18.14077,11.9366 42.9846,23.0493 59.52,26.6234 5.92648,1.281 18.53712,1.7921 27.68,1.122 z m 608.00008,-197.4605 c 17.5064,-0.9052 28.7607,-3.9161 39.8061,-10.6496 11.1494,-6.7968 19.1331,-16.3415 24.8752,-29.739 2.2408,-5.2282 3.6357,-11.2197 4.2977,-18.4599 0.9186,-10.0473 -0.3882,-37.7661 -2.4366,-51.68 -1.8912,-12.8469 -6.6893,-30.5001 -11.1328,-40.96 -0.8225,-1.936 -4.1654,-8.632 -7.4287,-14.88 -8.8111,-16.8697 -12.3899,-24.1645 -14.4995,-29.5553 -2.4458,-6.2495 -2.9214,-7.9099 -2.9214,-10.1973 0,-1.6116 0.1218,-1.9984 0.8631,-2.7397 0.5998,-0.5997 1.1912,-1.938 1.9379,-4.3854 0.591,-1.9373 1.5681,-5.1424 2.1712,-7.1224 11.8411,-38.8754 15.1928,-65.3839 13.2408,-104.7199 -0.499,-10.0543 -1.5562,-18.562 -3.5193,-28.32 -2.0533,-10.2061 -3.5464,-14.7369 -7.3418,-22.2783 -4.5084,-8.9579 -8.3278,-14.1973 -12.461,-17.0934 -2.2441,-1.5726 -2.5709,-1.9238 -2.5709,-2.7627 0,-0.7741 0.1868,-1.0317 0.96,-1.3236 0.6274,-0.2368 0.9625,-0.5874 0.9672,-1.0122 0,-0.3574 0.1375,-2.3778 0.2968,-4.4898 0.1592,-2.112 0.3849,-5.856 0.5014,-8.32 0.1166,-2.464 0.3292,-6.496 0.4725,-8.96 0.1432,-2.464 0.2005,-7.72 0.1273,-11.68 -0.2365,-12.7849 -1.3914,-37.031 -1.8902,-39.68 -0.083,-0.44 -0.869,-7.928 -1.747,-16.64 -6.5906,-65.3926 -14.1684,-95.5194 -31.7935,-126.4 -5.3622,-9.395 -16.12781,-24.9445 -22.93035,-33.12 -14.26899,-17.1488 -26.62828,-27.1659 -43.64201,-35.3715 -10.33298,-4.9836 -17.91469,-7.657 -28.04219,-9.8882 -9.93579,-2.1889 -31.78183,-4.8086 -40.75238,-4.8868 -3.58602,-0.031 -12.37288,2.6176 -17.94793,5.4105 -11.81479,5.9188 -32.4714,20.8602 -42.13783,30.4792 -6.0619,6.0322 -9.08554,10.3149 -13.7467,19.4707 -7.51593,14.7635 -9.88057,27.47 -8.76628,47.1061 0.44699,7.8769 1.87674,15.1095 5.44022,27.52 6.44334,22.4402 14.44908,41.8933 26.60201,64.64 2.30379,4.312 7.5358,14.104 11.62669,21.76 14.92591,27.9334 22.61045,43.2126 28.64753,56.96 1.89359,4.312 4.87977,10.864 6.63595,14.56 13.92568,29.3075 16.76284,34.8646 23.44426,45.92 12.43272,20.5717 14.29447,23.5335 15.03753,23.9229 0.44078,0.2309 0.86343,0.798 0.95796,1.2852 0.093,0.4795 0.3323,1.5199 0.53169,2.3119 0.71546,2.8419 0.7049,3.4013 -0.0745,3.9472 -0.3974,0.2784 -0.83137,0.4388 -0.96436,0.3567 -0.31593,-0.1953 -0.50344,0.7843 -1.07498,5.6161 -1.75194,14.8106 -1.4406,26.1007 1.13299,41.0864 1.08363,6.3098 2.51716,11.8938 4.29195,16.7184 3.18588,8.6604 11.82345,24.3388 25.27352,45.8752 6.14275,9.8358 12.85749,20.9326 13.84591,22.8819 0.78765,1.5533 0.9185,2.2841 0.61555,3.4381 -0.18233,0.6945 -0.4192,0.88 -1.12377,0.88 -0.491,0 -1.16942,-0.2023 -1.50759,-0.4496 -0.58804,-0.43 -0.65403,-0.273 -1.51311,3.6 -2.58712,11.6636 -3.79758,18.4218 -4.99531,27.8896 -0.8549,6.7578 -0.92571,7.4936 -1.48059,15.3863 -0.52041,7.4023 -0.98995,9.8714 -2.30364,12.1135 -2.37795,4.0584 -5.65909,6.3952 -16.66858,11.8709 -5.64611,2.8081 -10.43522,5.4467 -13.18624,7.2648 -11.87424,7.8477 -21.96272,16.6134 -27.10734,23.5533 -3.19688,4.3124 -4.80454,7.1059 -7.03182,12.2187 -2.79476,6.4154 -2.74815,7.4519 0.47955,10.6657 5.37295,5.3498 9.89604,7.7503 22.40172,11.8892 13.84001,4.5806 16.40738,6.0353 23.24218,13.1693 5.47223,5.7118 11.05109,13.2417 15.84649,21.3883 3.87024,6.5748 4.80933,7.9359 6.61361,9.5849 4.33015,3.9575 12.6475,7.1155 26.03762,9.8862 13.88349,2.8728 26.97654,4.7526 35.66714,5.1207 2.822,0.1196 5.3469,0.2392 5.6109,0.266 0.264,0.027 3.072,-0.085 6.24,-0.2493 z M 478.37974,2443.999 c 35.30367,-2.5827 52.98239,-4.9892 72.64001,-9.888 16.518,-4.1164 30.6835,-7.0937 52.64,-11.0639 3.432,-0.6205 6.40992,-1.1916 6.6176,-1.2691 1.16474,-0.4342 0.64643,-4.8549 -3.11617,-26.578 -1.53504,-8.8624 -1.66581,-10.0206 -1.70211,-15.0748 -0.0331,-4.6126 -0.10537,-5.3808 -0.45875,-4.8782 -0.98353,1.3991 -2.61859,1.8376 -20.06057,5.3805 -26.68312,5.4201 -57.20509,10.1455 -75.36,11.6675 -20.43605,1.7131 -46.86504,1.465 -65.76001,-0.6175 -25.40065,-2.7994 -53.59917,-8.9277 -77.23405,-16.7849 -15.06073,-5.0068 -28.85896,-10.6232 -53.48596,-21.7708 -7.304,-3.3063 -17.88413,-8.0607 -23.5114,-10.5655 -26.29764,-11.7055 -38.18117,-17.8069 -47.03731,-24.1507 -1.5778,-1.1301 -2.90575,-2.0178 -2.95101,-1.9726 -0.0453,0.045 -0.10912,4.0344 -0.1419,8.8647 -0.10087,14.8595 -0.85217,24.351 -2.68355,33.9023 -1.24909,6.5144 -1.72043,9.587 -1.94855,12.7024 l -0.21545,2.9424 2.52459,1.6285 c 2.85601,1.8423 10.0576,5.5501 17.40458,8.9608 2.728,1.2665 10.42239,5.1256 17.09864,8.5758 23.22728,12.0037 39.70772,19.6461 53.46137,24.7914 12.72478,4.7604 34.82032,11.4361 50.56,15.2756 20.17149,4.9206 51.37062,9.6151 70.11298,10.5497 8.14607,0.4063 22.16194,0.1365 32.60702,-0.6276 z m 17.6,-55.3747 c 17.48508,-0.9575 35.8769,-3.2381 59.04325,-7.3213 6.95022,-1.225 14.43676,-2.5275 16.63676,-2.8944 2.2,-0.3669 6.16,-1.0891 8.8,-1.6047 23.32336,-4.5557 23.18426,-4.5365 24.46489,-3.3776 0.30003,0.2715 0.62287,0.4937 0.71743,0.4937 0.0946,0 0.49967,-0.9 0.90024,-2 0.40058,-1.1 2.20635,-4.952 4.01282,-8.56 3.61308,-7.2163 4.57403,-9.3839 5.9581,-13.44 2.40265,-7.0411 3.39115,-12.6878 3.6829,-21.038 l 0.20397,-5.8381 -2.37018,0.8309 c -4.81325,1.6873 -24.14401,5.5213 -39.33017,7.8007 -14.67838,2.2031 -31.85107,4.1064 -43.36,4.8056 -2.992,0.1818 -6.232,0.4019 -7.2,0.4892 -4.37788,0.3947 -39.63414,0.5287 -47.36001,0.1801 -24.51308,-1.1062 -46.85179,-3.9856 -74.88532,-9.6524 -6.24507,-1.2624 -12.36268,-2.4793 -13.59468,-2.7042 -3.97446,-0.7254 -24.63008,-5.8219 -30.24,-7.4612 -22.68346,-6.6285 -42.2204,-13.0425 -56.48001,-18.5425 -26.45726,-10.2045 -48.23214,-21.3877 -59.74962,-30.6863 -1.41268,-1.1405 -2.68093,-1.9545 -2.81833,-1.8087 -0.30542,0.3238 -2.29846,10.4606 -3.26085,16.5849 -0.63373,4.0328 -0.70137,5.623 -0.67757,15.9306 0.0248,10.7231 0.0646,11.4933 0.6264,12.1212 0.96279,1.076 5.19567,4.2125 9.12396,6.7608 8.2548,5.355 15.19041,8.8242 40.11601,20.0662 6.16,2.7783 14.8,6.7389 19.2,8.8014 29.20003,13.6872 48.84611,21.5583 68.64001,27.5002 15.04165,4.5153 28.11422,7.5431 44.88035,10.3949 16.36844,2.7841 27.67945,3.881 47.75965,4.6317 4.40105,0.1645 20.10104,-0.109 26.56,-0.4627 z m 24.64001,-55.6571 c 27.18885,-1.0798 59.66718,-5.2765 88,-11.3711 6.15217,-1.3233 9.20791,-1.8361 10.94211,-1.8361 h 0.81204 l -0.21046,-5.32 c -0.69842,-17.6545 -1.21319,-23.601 -2.87058,-33.16 -1.27518,-7.3547 2.73467,-21.6075 3.78368,-23.2358 0.69123,-1.0729 1.6496,-2.4038 2.12971,-2.9575 0.48011,-0.5537 1.61638,-1.9427 2.52504,-3.0867 3.32,-4.1799 8.20788,-9.365 17.06715,-18.105 8.05153,-7.9432 16.75369,-17.3093 16.40567,-17.6573 -0.0698,-0.07 -1.90387,0.098 -4.07566,0.372 -4.57609,0.5783 -23.66691,2.2604 -31.1487,2.7446 -2.816,0.1823 -11.384,0.619 -19.04,0.9705 -25.09401,1.1522 -33.58622,1.5895 -46.72,2.4056 -14.92611,0.9275 -32.15471,2.2834 -34.20816,2.6922 -1.66542,0.3316 -1.91933,0.2531 -2.72072,-0.8412 -0.5081,-0.6938 -0.54307,-0.9368 -0.2113,-1.468 0.21866,-0.3502 0.46726,-1.3739 0.55242,-2.275 0.77078,-8.1553 3.41549,-24.8628 5.57806,-35.2384 3.60935,-17.317 12.26986,-45.7698 20.69803,-68 5.36287,-14.1452 15.55885,-39.1853 20.45699,-50.24 7.43252,-16.7745 19.19708,-39.4702 31.9311,-61.6 5.13405,-8.9222 6.88654,-11.769 14.03346,-22.796 3.05282,-4.7102 7.68151,-11.948 10.28597,-16.084 10.77609,-17.1129 19.79737,-29.7207 25.59611,-35.7722 2.19567,-2.2913 3.27733,-3.6376 3.00066,-3.7346 -0.86075,-0.3019 -15.8669,-2.7048 -18.83262,-3.0156 -3.71201,-0.3891 -19.47049,-2.4487 -22.56,-2.9486 -1.232,-0.1993 -2.70398,-0.5529 -3.27107,-0.7856 -0.95803,-0.3933 -1.23101,-0.3366 -3.85376,0.801 -1.55248,0.6733 -4.5445,2.0937 -6.64893,3.1563 -3.37807,1.7057 -4.23854,2.3231 -7.34624,5.271 -6.14327,5.8275 -19.09648,20.088 -25.64057,28.2283 -6.12486,7.6189 -14.33602,19.6268 -22.10075,32.32 -24.23811,39.6226 -36.45988,66.2213 -47.76408,103.9506 -4.84686,16.1771 -7.72186,27.8252 -11.9781,48.5294 -2.13742,10.3973 -4.02707,19.3634 -9.4755,44.96 -4.94603,23.2363 -7.09269,33.1506 -7.51051,34.6874 -0.25831,0.9501 -0.39384,1.8501 -0.30119,2 0.0927,0.1499 0.63192,0.2726 1.19838,0.2726 1.26076,0 2.45231,0.7826 2.45231,1.6108 0,0.3379 -0.38065,0.8639 -0.8459,1.1687 -0.70527,0.4621 -1.99535,0.5911 -7.76,0.7756 -7.00621,0.2243 -42.55977,0.07 -45.7941,-0.199 -0.968,-0.08 -4.496,-0.2965 -7.84,-0.4801 -15.75028,-0.865 -34.97542,-3.7822 -52.96,-8.0363 -10.39612,-2.4591 -26.60057,-7.5555 -33.62245,-10.5746 -6.85985,-2.9495 -12.27718,-7.2037 -15.08676,-11.8478 -2.33334,-3.8568 -4.08442,-11.0549 -5.97892,-24.5773 -2.1025,-15.007 -2.62735,-24.2074 -2.74732,-48.16 -0.19183,-38.3016 1.28833,-61.4367 6.08804,-95.1567 2.37561,-16.6898 5.19808,-30.4195 8.79643,-42.7896 2.85895,-9.8284 8.37151,-23.4086 11.86205,-29.2223 l 1.03783,-1.7285 -7.97445,0.2141 c -4.38595,0.1178 -10.49446,0.347 -13.57446,0.5093 -3.08,0.1624 -7.65706,0.3039 -10.17125,0.3145 -4.24947,0.018 -4.55048,0.059 -4.27607,0.5792 0.19801,0.3756 0.0942,1.2975 -0.31516,2.8 -3.11051,11.4156 -6.94173,28.3003 -9.85946,43.4519 -7.19968,37.3874 -9.64336,55.8778 -10.41258,78.7881 -0.10046,2.992 -0.26954,6.376 -0.37574,7.52 -0.2374,2.5573 -0.19855,50.4457 0.0474,58.4 0.098,3.168 0.41612,11.4992 0.70705,18.5138 0.60306,14.5405 0.41096,18.9013 -1.00511,22.8162 -0.95033,2.6273 -1.96403,3.63 -3.66975,3.63 -1.54967,0 -9.96858,-4.2111 -14.65907,-7.3324 -1.80963,-1.2042 -3.28963,-2.0991 -3.28888,-1.9886 7.5e-4,0.1106 0.35694,2.1883 0.79155,4.6171 1.26218,7.0541 2.04152,13.8944 3.27036,28.7039 0.13624,1.642 0.35982,2.5195 0.70793,2.7784 0.4075,0.3032 0.42916,0.4593 0.1088,0.784 -0.57862,0.5867 -0.49232,1.7221 0.24,3.1576 0.76465,1.4988 0.86995,2.5092 0.20389,1.9564 -0.3647,-0.3027 -0.46539,0.6734 -0.61492,5.9608 -0.21183,7.4904 -0.85494,10.9521 -4.20309,22.6241 -1.15823,4.0378 -2.10588,7.5207 -2.10588,7.7398 0,1.0007 11.67932,9.1444 18.88,13.1646 11.08457,6.1886 29.41659,14.4976 43.84,19.8706 2.904,1.0818 5.65178,2.176 6.10617,2.4316 0.4544,0.2556 1.3904,0.6019 2.08,0.7695 0.68961,0.1677 4.85384,1.5514 9.25384,3.0748 29.69362,10.2812 61.44426,18.582 92.32,24.1358 38.27019,6.884 66.37929,8.8869 103.84001,7.3992 z m -67.76001,-108.4405 10,-0.047 v -0.9451 c 0,-0.8728 2.9908,-15.8474 4.95613,-24.8149 1.07986,-4.9273 8.75611,-41.3748 11.82791,-56.16 4.86451,-23.4139 7.50305,-33.9847 13.0167,-52.1486 7.27933,-23.9807 13.12264,-39.1277 22.67802,-58.7856 4.71411,-9.6982 8.66553,-16.8487 17.91854,-32.4258 8.99851,-15.1486 11.37028,-18.9812 16.73364,-27.04 8.11298,-12.1903 12.68996,-17.8209 28.20542,-34.6981 1.19261,-1.2973 1.22188,-1.3683 0.34365,-0.8344 -1.76607,1.0736 -7.6415,5.3897 -11.36,8.345 -5.85087,4.6501 -11.51651,9.7318 -18.34903,16.4576 -6.33874,6.2398 -7.57229,7.605 -14.12393,15.6316 -2.85864,3.5022 -4.28131,4.9063 -7.98281,7.8785 -5.09764,4.0932 -18.54547,17.2963 -24.95384,24.4998 -10.92164,12.2767 -18.59611,22.0045 -42.79091,54.24 -10.17165,13.552 -21.32644,28.384 -24.78841,32.96 -7.54638,9.9747 -11.26773,15.1116 -20.28409,28 -3.75531,5.368 -7.63315,10.8162 -8.61742,12.1071 -0.98426,1.291 -2.10415,2.803 -2.48864,3.36 -1.19021,1.7245 -1.67189,2.1329 -2.51548,2.1329 -1.40437,0 -2.2136,-1.2417 -3.66164,-5.6184 -0.75362,-2.2779 -2.77422,-8.0296 -4.49022,-12.7816 -6.93528,-19.2054 -11.48971,-34.6341 -18.04217,-61.12 -7.98447,-32.2743 -12.55169,-51.0371 -16.51359,-67.84 -5.10079,-21.6331 -8.14911,-34.1954 -8.98796,-37.04 l -0.63697,-2.16 h -9.37686 c -10.83723,0 -9.49155,-0.4628 -12.03297,4.1385 -2.36472,4.2814 -3.82369,7.7256 -6.69997,15.8167 -6.21804,17.4915 -9.38858,31.3288 -13.13483,57.3248 -4.04511,28.0698 -5.59214,52.2375 -5.60238,87.52 -0.008,28.1627 1.02349,43.1184 4.19405,60.8 1.80929,10.09 3.03164,13.362 6.29508,16.8506 4.32366,4.622 9.00087,7.0138 21.98498,11.2423 25.37357,8.2635 50.87828,12.9294 79.2,14.4892 6.77553,0.3732 22.78162,0.8062 27.52,0.7446 1.408,-0.018 7.06,-0.054 12.56,-0.08 z m 80.2873,-3.5579 c 13.678,-1.2346 29.03282,-2.112 70.19271,-4.0111 22.43297,-1.035 37.39303,-2.1726 53.12,-4.0394 3.08,-0.3656 5.64891,-0.7106 5.70868,-0.7668 0.0598,-0.056 1.44025,-2.3093 3.06773,-5.0068 1.62748,-2.6976 4.83515,-7.9324 7.12816,-11.6328 2.293,-3.7005 4.49472,-7.3725 4.89271,-8.16 0.6645,-1.315 3.73,-6.5069 4.54573,-7.699 0.27187,-0.3973 0.0692,-0.9862 -0.93611,-2.72 -0.70571,-1.2171 -4.27273,-7.8289 -7.92671,-14.6929 -3.65398,-6.864 -8.23546,-15.4317 -10.18107,-19.0394 -4.82095,-8.9393 -13.71245,-27.0674 -16.71586,-34.0806 -7.07582,-16.5226 -14.50907,-39.6254 -16.93672,-52.64 -1.4826,-7.9482 -2.20247,-22.4641 -1.48379,-29.92 1.38005,-14.3173 5.36617,-26.0086 13.41968,-39.36 5.6863,-9.427 13.40638,-17.0464 29.17757,-28.7972 11.88706,-8.8569 22.49534,-15.0779 30.32001,-17.7806 1.628,-0.5623 2.96,-1.1387 2.96,-1.2807 0,-0.3251 0.9784,-0.064 -13.12001,-3.5011 -6.6,-1.6091 -14.304,-3.4883 -17.12,-4.1761 -2.816,-0.6878 -7.496,-1.7513 -10.4,-2.3634 l -5.28,-1.1128 -1.70861,1.8259 c -6.71368,7.1748 -17.15381,21.669 -28.05267,38.946 -2.77566,4.4 -7.45456,11.744 -10.39756,16.32 -12.5069,19.4466 -23.96144,39.763 -36.11066,64.0478 -7.61239,15.2162 -11.52959,24.1751 -22.92546,52.4322 -13.947,34.5829 -24.55159,67.8167 -28.79475,90.24 -1.07657,5.6892 -4.65029,28.0244 -4.65029,29.0636 0,0.6669 -0.26556,0.67 8.20729,-0.095 z M -46.048943,2205.04 c -0.49111,-3.8902 -0.87821,-10.3811 -1.19752,-20.08 -0.19121,-5.808 -0.4697,-13.512 -0.61886,-17.12 -0.40217,-9.7278 -0.37875,-27.2269 0.0606,-45.334 0.60314,-24.8542 -0.51005,-55.478 -2.09045,-57.508 -0.20084,-0.258 -2.79915,-1.8638 -5.77402,-3.5684 -2.97487,-1.7047 -9.67087,-5.6528 -14.88,-8.7737 -13.04831,-7.8174 -18.22382,-10.8537 -34.111097,-20.0117 -23.73794,-13.6834 -29.85172,-17.3928 -41.90775,-25.4263 -8.18492,-5.454 -12.98414,-8.4327 -13.21493,-8.2019 -0.10477,0.1048 -0.0187,4.689 0.19119,10.1873 0.20993,5.4982 0.52277,14.2447 0.69519,19.4367 0.17243,5.192 0.45342,12.752 0.62442,16.8 0.171,4.048 0.39011,9.736 0.48691,12.64 0.0968,2.904 0.24934,6.504 0.33898,8 0.16792,2.8022 0.93146,25.5798 1.26577,37.76 0.44547,16.2303 0.73465,40.2727 0.50036,41.6 -0.13981,0.792 -0.33608,1.656 -0.43616,1.92 -0.18135,0.4784 4.0778,3.4705 13.01282,9.1416 24.60999,15.6201 57.268307,33.2063 84.203207,45.3426 3.79033,1.7078 11.67888,4.6909 12.44161,4.7048 0.53224,0.01 0.57949,-0.1643 0.40973,-1.509 z m -27.57134,-24.3457 c -1.584,-0.8434 -4.39201,-2.4043 -6.24001,-3.4687 -10.1416,-5.8413 -18.98963,-10.5999 -32.479997,-17.4681 -20.48094,-10.4273 -29.52106,-14.7272 -30.54926,-14.5307 -1.10682,0.2116 -2.56116,-0.4507 -4.15857,-1.8939 -2.95552,-2.6701 -3.05841,-3.3585 -4.01326,-26.8529 -1.168,-28.7392 -1.18181,-29.5742 -0.79385,-48 0.25112,-11.9269 0.28285,-21.9332 0.0949,-29.92 -0.15534,-6.6 -0.22392,-12.1853 -0.15241,-12.4118 0.0715,-0.2265 0.53502,-0.6213 1.03,-0.8773 0.83237,-0.4304 0.96766,-0.41 1.80122,0.2715 0.4957,0.4053 1.6201,1.1505 2.49868,1.6561 0.87858,0.5056 4.91058,3.0016 8.96,5.5468 4.04942,2.5451 10.17058,6.3554 13.60258,8.4673 13.29151,8.1789 46.398117,28.8667 49.439997,30.8944 1.76,1.1731 3.416,2.1429 3.68,2.155 1.08121,0.05 1.95216,0.552 2.37536,1.3703 0.67835,1.3118 1.09556,6.989 1.46153,19.8877 0.18226,6.424 0.47437,16.36 0.64912,22.08 0.34885,11.4188 1.08739,55.9845 0.97812,59.0233 -0.0376,1.0468 -0.26346,2.3701 -0.50182,2.9405 -0.51052,1.2219 -2.64737,2.6788 -3.91595,2.6701 -0.48749,0 -2.18236,-0.6962 -3.76635,-1.5396 z m 3.22445,-3.3343 c -0.31136,-1.5174 -0.53155,-9.8084 -0.82648,-31.12 -0.26612,-19.23 -0.69167,-36.3357 -1.53565,-61.7292 l -0.22232,-6.6892 -2.08,-1.1193 c -3.18248,-1.7125 -16.87774,-10.1489 -44.960007,-27.696 -11.79738,-7.3715 -25.44373,-16.2434 -27.36,-17.7875 -1.11267,-0.8965 -1.36589,-0.8184 -1.11084,0.3429 0.12101,0.5509 0.2568,15.9229 0.30175,34.16 0.0497,20.1629 0.22345,35.353 0.44332,38.7583 0.19886,3.08 0.58045,10.928 0.84797,17.44 0.66435,16.1715 0.7396,17.0166 1.60463,18.0223 0.5039,0.5858 1.06231,0.8393 1.94966,0.8849 1.51385,0.078 8.8946,3.5643 28.49702,13.4615 17.113427,8.6404 21.706207,11.1086 41.386497,22.2411 1.496,0.8462 2.83074,1.5412 2.96609,1.5444 0.13536,0 0.17962,-0.3182 0.0984,-0.7142 z m 30.76146,24.7711 c 6.16577,-3.6529 16.42041,-10.7506 23.21409,-16.0676 l 2.48,-1.941 -0.0159,-13.0212 c -0.0163,-13.3715 -0.57412,-22.6833 -1.67696,-27.9922 -0.28444,-1.3692 -0.33638,-2.2416 -0.14067,-2.3626 0.19123,-0.1182 0.2288,-1.5568 0.0979,-3.7491 -1.30176,-21.8053 -2.91546,-38.7034 -5.44305,-56.9974 -0.91026,-6.5882 -2.18383,-18.2864 -3.25547,-29.9027 -0.13812,-1.4971 -0.27127,-1.918 -0.4856,-1.535 -0.16241,0.2902 -2.63193,2.6487 -5.48781,5.2411 -2.85588,2.5923 -6.9269,6.5231 -9.0467,8.735 l -3.85419,4.0216 0.24172,1.6 c 0.96685,6.3997 1.67527,32.2776 1.34907,49.28 -0.50322,26.2289 -0.24055,85.6 0.37871,85.6 0.0609,0 0.80105,-0.409 1.64479,-0.9089 z m 304.481203,-13.575 c 1.10131,-2.9731 1.37162,-8.126 0.94123,-17.9427 -0.8227,-18.7647 -1.00596,-27.9161 -1.04819,-52.3428 -0.0889,-51.4377 1.54086,-67.358 12.69202,-123.9808 2.65923,-13.5029 8.20372,-36.0575 9.14776,-37.2124 0.35638,-0.436 -0.33053,-0.7574 -1.61877,-0.7574 -1.10967,0 -2.93601,-1.2037 -3.45116,-2.2747 -0.80457,-1.6726 -0.0333,-2.9852 4.20693,-7.16 13.36453,-13.1583 29.12162,-27.3695 38.02309,-34.293 0.484,-0.3764 0.88,-0.749 0.88,-0.8279 0,-0.079 -1.764,0.1151 -3.92,0.4312 -2.156,0.3161 -7.52001,1.0098 -11.92001,1.5416 -8.45269,1.0215 -12.4306,1.9691 -15.28281,3.6407 -4.87812,2.8587 -17.55892,20.1197 -27.66861,37.6621 -1.065,1.848 -4.47747,7.659 -7.58327,12.9132 -17.11513,28.9548 -24.24126,44.292 -31.02181,66.7668 -3.42827,11.3633 -4.36195,16.4433 -4.5876,24.96 -0.25085,9.468 0.82423,19.0593 4.23247,37.76 0.97833,5.368 2.55809,14.584 3.51059,20.48 2.45389,15.1897 2.52883,15.5212 8.64638,38.24 2.38719,8.8654 5.67202,21.9402 6.08451,24.2187 0.19708,1.0886 0.26922,1.1533 0.94358,0.8461 0.63189,-0.2879 1.08363,-0.085 3.35558,1.5069 3.17551,2.2252 13.36067,7.5363 14.2423,7.4267 0.43113,-0.054 0.81029,-0.5616 1.19579,-1.6023 z m -269.5784634,-57.13 c 6.09385,-5.0865 11.88683,-9.7648 25.5113504,-20.6023 4.752,-3.7799 10.224,-8.202 12.16,-9.8268 1.936,-1.6249 3.952,-3.1822 4.48,-3.4608 0.528,-0.2785 2.328,-1.7524 4,-3.2752 5.01215,-4.565 31.9566,-26.2658 51.68,-41.6226 6.864,-5.3443 22.272003,-17.5662 34.240013,-27.1598 29.13373,-23.3535 28.87215,-23.1416 38.52017,-31.2155 29.76945,-24.9124 48.4373,-39.4294 74.33132,-57.8036 1.34831,-0.9567 6.38831,-4.5587 11.2,-8.0043 4.81168,-3.4456 13.57251,-9.6967 19.46851,-13.8913 5.896,-4.1946 13.6,-9.7388 17.12,-12.3204 3.52,-2.5816 8.344,-6.0371 10.72,-7.6789 5.67775,-3.9231 14.11384,-10.3401 24.60449,-18.7157 4.68354,-3.7392 11.03552,-8.6121 14.11552,-10.8286 3.08,-2.2164 8.06884,-5.8367 11.08631,-8.0451 3.58893,-2.6266 5.76519,-4.0152 6.2927,-4.0152 0.76901,0 0.8158,-0.1075 1.00954,-2.32 0.37954,-4.3342 0.71307,-13.5016 0.68221,-18.7509 l -0.0308,-5.2309 -10.56,-4.234 c -5.808,-2.3288 -11.15659,-4.5419 -11.88575,-4.9182 -4.04156,-2.0854 -11.1683,-8.8412 -14.21586,-13.4759 -0.85708,-1.3034 -1.60948,-2.5233 -1.67199,-2.7109 -0.0625,-0.1875 -2.26302,1.0519 -4.89003,2.7544 -10.08102,6.5329 -15.49882,10.1361 -20.6048,13.7034 -15.1842,10.6084 -41.19227,28.8774 -51.21158,35.9728 -6.248,4.4247 -17.552,12.4242 -25.12,17.7767 -7.568,5.3525 -18.44,13.1129 -24.16,17.2453 -31.02577,22.4145 -43.89706,31.5407 -90.08001,63.8697 -20.064003,14.0452 -38.856003,27.2155 -41.760003,29.2674 -2.904,2.0519 -9.456,6.663 -14.56,10.2468 -11.60616,8.1495 -27.75045,19.5301 -44.96000036,31.6936 -7.30400004,5.1624 -15.12818964,10.6867 -17.38707964,12.2764 -3.92369,2.7612 -4.10054,2.9336 -3.96069,3.8623 0.67471,4.4803 1.66039,12.7836 2.47057,20.812 0.53283,5.28 1.68428,15 2.55878,21.6 2.18667,16.5032 3.72347,32.8887 4.67451,49.84 0.12097,2.156 0.27422,3.92 0.34057,3.92 0.0663,0 2.6727396,-2.1303 5.7919896,-4.7339 z m 4.64618004,-49.8094 c -2.64123004,-0.8255 -5.51443004,-3.465 -7.16615004,-6.5832 -1.5625,-2.9497 -0.61033,-8.5789 2.27851,-13.4704 1.94673,-3.2963 4.56496004,-5.2681 8.24839,-6.2117 1.81806,-0.4658 2.15557,-0.4671 3.714,-0.014 3.8405904,1.1165 6.7821204,4.2671 8.1937504,8.7763 1.58059,5.0489 -0.0464,10.6372 -4.27928,14.6982 -3.1242804,2.9974 -7.1147004,4.0159 -10.98922036,2.8048 z M 7.6535066,2078.72 c 0.84896,-0.528 1.64397,-1.176 1.7667,-1.44 0.12272,-0.264 0.46945,-0.912 0.7705104,-1.44 2.18048,-3.8242 2.58903,-5.0621 2.58751,-7.84 -10e-4,-2.3193 -0.13727,-3.0145 -0.92333,-4.7192 -1.0882,-2.3599 -2.9797404,-4.227 -5.1044804,-5.0384 -1.72738,-0.6597 -3.12772,-0.4125 -5.53366,0.9771 -4.50565,2.6022 -7.73639,10.6153 -6.05499,15.018 0.67608,1.7703 2.9359,4.1475 4.74373004,4.9902 2.12795996,0.9918 5.71480996,0.7568 7.74800996,-0.5077 z M 159.55597,1964.2909 c -2.13294,-0.843 -5.06892,-3.6515 -6.32911,-6.0544 -1.32403,-2.5246 -1.26412,-5.752 0.1795,-9.6702 1.86702,-5.0673 4.03799,-7.6959 7.85337,-9.5088 3.65272,-1.7356 5.63758,-1.6032 9.05227,0.6038 2.44858,1.5826 3.95951,3.6356 5.01005,6.8075 0.99736,3.0114 1.05209,5.5145 0.18142,8.2975 -1.23402,3.9444 -4.07086,7.5571 -7.19272,9.16 -2.26686,1.1638 -6.30668,1.332 -8.75478,0.3646 z m 8.41755,-2.6909 c 0.84895,-0.528 1.64063,-1.176 1.75928,-1.44 0.11864,-0.264 0.5345,-1.056 0.92412,-1.76 2.22091,-4.013 2.44286,-4.6966 2.44132,-7.52 -0.001,-2.3207 -0.13711,-3.0141 -0.92539,-4.7238 -1.0414,-2.2586 -2.76491,-3.9943 -4.90711,-4.9419 -1.24351,-0.5501 -1.62415,-0.5853 -2.88751,-0.2672 -1.98648,0.5002 -3.10608,1.1208 -4.74091,2.6277 -1.73778,1.6019 -2.76529,3.3401 -3.8048,6.4368 -1.47345,4.3893 -0.94165,7.5019 1.72368,10.0885 2.10671,2.0445 3.60587,2.6351 6.44864,2.5406 2.05742,-0.068 2.65915,-0.2263 3.96868,-1.0407 z m 118.02104,-86.7033 c -2.67637,-0.8365 -5.52132,-3.4472 -7.16682,-6.5767 -2.07104,-3.9388 0.37316,-12.5438 4.7028,-16.5567 2.70598,-2.508 6.87522,-3.9656 9.39897,-3.286 1.83181,0.4932 5.04759,2.7778 6.2638,4.45 1.41987,1.9523 2.70642,5.89 2.70642,8.2835 0,5.4474 -4.06625,11.7141 -8.732,13.4573 -2.12061,0.7923 -5.06925,0.8862 -7.17317,0.2286 z M 293.73352,1872 c 0.84896,-0.528 1.64397,-1.176 1.7667,-1.44 0.12273,-0.264 0.46946,-0.912 0.77051,-1.44 2.18048,-3.8242 2.58904,-5.0621 2.58752,-7.84 -10e-4,-2.3193 -0.13728,-3.0145 -0.92334,-4.7192 -1.07848,-2.3389 -2.97674,-4.2259 -5.04612,-5.0162 -1.22328,-0.4671 -1.67633,-0.4962 -2.86123,-0.1837 -4.22015,1.1133 -7.36488,4.7445 -8.76539,10.1214 -1.02532,3.9365 -0.393,6.6373 2.13018,9.0986 2.08784,2.0367 3.47826,2.5753 6.3725,2.4686 2.04804,-0.075 2.66512,-0.2388 3.96867,-1.0495 z m 107.68132,259.2491 c 0.003,-0.853 0.43043,-4.093 0.95053,-7.2 2.16263,-12.9194 3.02503,-20.4107 3.68948,-32.0491 0.26627,-4.664 0.63043,-11 0.80925,-14.08 0.17881,-3.08 0.46394,-8.84 0.63362,-12.8 0.50549,-11.797 0.91931,-21.9071 1.12643,-27.52 0.10716,-2.904 0.39924,-8.304 0.64906,-12 0.24983,-3.696 0.6054,-9.096 0.79017,-12 0.18477,-2.904 0.62115,-8.592 0.96973,-12.64 0.34858,-4.048 0.72136,-9.232 0.82841,-11.52 l 0.19464,-4.16 -5.23821,-4.9275 c -7.25756,-6.8271 -10.75616,-9.591 -22.28361,-17.6042 -2.33496,-1.6231 -4.71096,-3.4277 -5.28,-4.0101 l -1.0346,-1.059 -7.84,-0.6821 c -4.312,-0.3752 -10.13245,-0.7766 -12.93432,-0.892 -4.42497,-0.1822 -5.07043,-0.1475 -4.91245,0.2642 1.52428,3.9722 8.32922,30.4116 12.87683,50.0307 1.50866,6.5086 8.80841,36.3178 14.5754,59.52 5.7105,22.9749 10.93987,40.1956 18.73203,61.6857 2.21283,6.1028 2.68781,6.7443 2.69761,3.6434 z m 9.45573,-12.0491 c 2.2631,-3.256 5.62093,-8.008 7.46185,-10.56 1.84091,-2.552 4.93629,-6.872 6.87862,-9.6 1.94233,-2.728 9.01017,-12.232 15.7063,-21.12 6.69613,-8.888 14.9125,-19.8326 18.2586,-24.3213 25.81901,-34.6355 39.03809,-50.3447 54.88381,-65.2224 2.728,-2.5613 4.99795,-4.7437 5.04433,-4.8497 0.1945,-0.4443 -38.09867,-9.3432 -53.63504,-12.4641 -8.69459,-1.7466 -12.55366,-2.0391 -16.40478,-1.2437 -1.41481,0.2922 -3.28429,0.2911 -8.17926,-0.01 -3.48989,-0.211 -9.08126,-0.4633 -12.42526,-0.5607 -6.91129,-0.2013 -7.23093,-0.1247 -8.41085,2.0143 -1.18319,2.1448 -1.63552,5.1607 -2.14965,14.3324 -0.26637,4.752 -0.69322,10.656 -0.94856,13.12 -0.25533,2.464 -0.5544,5.632 -0.66461,7.04 -0.11021,1.408 -0.54039,5.584 -0.95596,9.28 -0.6927,6.1607 -1.08735,11.41 -1.59988,21.28 -0.1051,2.024 -0.39624,6.344 -0.64698,9.6 -0.25075,3.256 -0.819,12.76 -1.2628,21.12 -1.44158,27.1558 -2.60118,39.3087 -5.48077,57.44 -0.1315,0.828 -0.0939,1.167 0.10643,0.96 0.17035,-0.176 2.16136,-2.984 4.42446,-6.24 z m 22.15367,-62.3821 c -3.33141,-1.0661 -4.94274,-3.8707 -4.07513,-7.0927 0.77703,-2.8857 3.46613,-5.3345 6.19568,-5.6422 1.84234,-0.2076 3.97915,0.9628 5.24212,2.8714 0.72662,1.0981 0.86657,1.6446 0.83547,3.2623 -0.0407,2.1184 -1.05505,5.2095 -1.98582,6.0519 -0.31337,0.2836 -0.99435,0.5075 -1.51329,0.4975 -0.51894,-0.01 -1.59153,0.061 -2.38353,0.157 -0.792,0.096 -1.83398,0.049 -2.3155,-0.1052 z m 3.4782,-2.1396 c 1.26983,-0.6026 1.56828,-1.0654 2.0377,-3.1601 1.07468,-4.7954 -4.16517,-6.8346 -6.73448,-2.6208 -1.31822,2.1619 -0.51079,4.8647 1.74694,5.8477 1.29337,0.5632 1.63873,0.5554 2.94984,-0.067 z m -0.70229,-45.8381 c -1.47221,-0.8977 -3.30421,-3.2018 -3.53841,-4.4502 -0.30759,-1.6396 0.092,-5.0186 0.77548,-6.5584 0.76458,-1.7224 2.84259,-3.6001 4.55034,-4.1118 1.54357,-0.4624 3.63958,-0.048 5.13096,1.0136 2.06853,1.4729 3.33302,6.5199 2.42021,9.6598 -0.66468,2.2865 -1.55049,3.3603 -3.53375,4.2838 -2.01996,0.9405 -4.41948,1.008 -5.80483,0.1632 z m 5.20126,-3.5619 c 1.57349,-1.1572 1.90939,-2.4002 1.36164,-5.0387 -0.43486,-2.0947 -1.69517,-3.5996 -3.01458,-3.5996 -1.25674,0 -2.65373,0.8467 -3.22747,1.9562 -0.71161,1.3761 -1.0777,4.0223 -0.73045,5.2799 0.66948,2.4247 3.31985,3.087 5.61086,1.4022 z m -264.06168,114.2418 c 16.89744,-0.8783 38.28579,-3.2067 45.51904,-4.9554 1.64141,-0.3968 3.03901,-0.7762 3.10578,-0.8431 0.0668,-0.067 -0.51556,-3.5776 -1.29407,-7.8016 -4.52389,-24.5454 -5.67357,-33.4095 -5.68618,-43.84 -0.0112,-9.2755 0.85103,-15.0031 3.80574,-25.28 5.51922,-19.1967 12.5421,-35.8851 22.96052,-54.5607 5.30418,-9.5081 19.66036,-33.6522 23.11772,-38.8793 7.40487,-11.1951 14.27166,-20.5659 17.85269,-24.3625 1.83199,-1.9423 2.35374,-2.6823 2.05673,-2.9169 -0.70099,-0.5539 -4.50971,-1.9283 -5.99797,-2.1644 -0.792,-0.1257 -1.59511,-0.3533 -1.78469,-0.5057 -0.21609,-0.1737 -1.52932,0.5921 -3.52,2.0528 -1.74642,1.2813 -7.35131,5.2657 -12.45531,8.854 -10.32755,7.2607 -28.7659,20.5387 -39.04,28.1138 -14.53277,10.7151 -27.0968,20.7669 -42.88,34.3059 -25.31539,21.7159 -58.6879,48.5622 -96.640013,77.7415 -10.0201,7.7039 -40.91602,32.3726 -41.2779,32.9581 -0.23086,0.3735 7.681,4.3331 12.7979,6.4048 12.07323,4.8882 30.36522,10.4266 40.64,12.3048 10.784573,1.9714 26.786043,3.3683 43.680013,3.8131 6.63378,0.1747 28.50304,-0.1 35.04,-0.4392 z m -222.429703,-59.2126 c 1.57066,-2.3735 5.3023,-6.3484 7.04699,-7.5064 0.94874,-0.6298 2.11596,-1.6796 2.59382,-2.3331 0.47786,-0.6534 1.89484,-2.1509 3.14885,-3.3278 1.62838,-1.5282 2.06313,-2.0862 1.52114,-1.9525 -0.5353,0.1321 0.14823,-0.7272 2.32,-2.9167 2.96523,-2.9895 3.07889,-3.1566 3.07889,-4.5275 0,-0.7829 -0.11734,-1.4235 -0.26075,-1.4235 -0.14341,0 -2.25779,-1.242 -4.69863,-2.76 -6.76049,-4.2044 -29.36625,-16.6742 -42.56062,-23.4773 -7.93912,-4.0934 -13.64152,-7.2103 -25.9027,-14.1581 -5.270487,-2.9866 -15.350487,-8.3832 -22.399997,-11.9925 -7.04952,-3.6093 -13.14414,-6.7677 -13.54359,-7.0187 -0.65754,-0.4132 -0.82412,-0.3824 -1.76,0.3253 -0.56855,0.4299 -4.63372,3.0011 -9.03372,5.7137 -10.18499,6.279 -14.87705,9.3062 -14.8787,9.5994 -7.1e-4,0.1275 0.4667,0.4688 1.0387,0.7586 2.34933,1.1902 7.01074,4.1097 16.56,10.3718 15.11969,9.9151 17.72472,11.4817 46.559997,28.0017 14.00791,8.0252 35.31727,20.6232 42.68452,25.2348 5.38993,3.3739 7.50442,4.6813 7.57097,4.6813 0.0327,0 0.44438,-0.5816 0.91483,-1.2925 z m 41.8965396,-37.0797 c 9.88523,-6.9857 23.8771504,-16.8629 31.0931504,-21.9494 7.216,-5.0865 16.72,-11.7874 21.12,-14.8908 14.38282,-10.1446 36.81803,-25.8923 52.640003,-36.9489 28.44358,-19.8768 48.45765,-34.0562 65.44001,-46.3623 21.20352,-15.3649 53.48146,-38.3429 78.56,-55.9251 17.33475,-12.1532 21.85286,-15.3287 35.68,-25.0777 15.53488,-10.9531 19.54693,-13.6133 28.8,-19.0953 4.31462,-2.5563 6.06409,-3.4583 6.70726,-3.4583 0.68792,0 0.64964,-0.1923 -0.75676,-3.8011 -2.63281,-6.7558 -3.56871,-12.9319 -3.76394,-24.8389 -0.12907,-7.8716 -0.0903,-8.739 0.43589,-9.7536 0.81676,-1.5749 2.43083,-2.5664 4.17768,-2.5664 1.58484,0 6.21277,1.4496 8.7779,2.7494 2.97019,1.5051 12.43869,7.474 18.27813,11.5225 l 5.69616,3.9491 3.26384,-2.7584 c 1.79512,-1.5172 4.92985,-4.3569 6.96607,-6.3105 l 3.70223,-3.5521 1.18708,-7.04 c 2.46635,-14.6267 3.45188,-25.9542 4.03695,-46.4 0.18635,-6.512 0.48071,-14.936 0.65414,-18.72 0.17343,-3.784 0.45686,-11.632 0.62984,-17.44 0.17298,-5.808 0.38423,-12.9 0.46944,-15.76 l 0.15492,-5.2 h -1.23066 c -1.06806,0 -1.47875,0.2437 -3.10841,1.8447 -2.13454,2.0969 -24.08863,17.8687 -48.43775,34.7976 -9.06401,6.3018 -20.94401,14.6522 -26.40001,18.5564 -5.456,3.9041 -13.664,9.664 -18.24,12.7996 -4.576,3.1356 -12.208,8.3895 -16.96,11.6752 -10.32497,7.139 -15.83549,10.8192 -21.48377,14.3476 -2.31207,1.4443 -4.35118,2.8044 -4.53135,3.0225 -0.23011,0.2784 -0.0798,1.1106 0.50511,2.7964 1.73434,4.9987 0.86747,12.1258 -2.95805,24.32 -2.4421,7.7844 -6.27337,14.9032 -11.20528,20.8205 -3.8315,4.5969 -15.18417,13.5329 -20.80666,16.3775 -4.12914,2.089 -11.14631,3.9481 -18.34936,4.8613 -8.16084,1.0346 -24.91156,0.4851 -39.09064,-1.2825 -1.38112,-0.1721 -1.55122,-0.096 -4.16,1.8677 -1.496,1.1259 -6.032,4.4038 -10.08001,7.2841 -8.64372,6.1505 -29.790503,21.8358 -37.137903,27.5465 -12.89874,10.0255 -30.56265,22.9559 -58.2221,42.6199 -11.4303,8.1262 -21.6637704,15.6409 -41.92,30.783 -15.6018,11.6627 -22.50107,16.6859 -34.72,25.2789 -3.96,2.7849 -12.212,8.6769 -18.33778,13.0933 -6.12578,4.4164 -12.03845,8.6778 -13.13928,9.4698 -3.44069,2.4754 -7.55123,5.7226 -12.32157,9.7335 -2.52924,2.1266 -4.96615,4.168 -5.41534,4.5365 l -0.81672,0.67 4.13534,2.3418 c 6.37442,3.6097 14.94662,8.3264 19.01535,10.4629 13.79891,7.2457 17.67978,9.3279 24.8,13.3054 22.77765,12.7243 25.82963,14.6209 26.88929,16.7099 0.96867,1.9096 1.12484,2.109 1.47967,1.8897 0.17861,-0.1104 8.41266,-5.9162 18.2978896,-12.9019 z M 527.59014,1978.8097 c 0.35321,-0.3133 2.60137,-3.0122 4.99591,-5.9975 12.94839,-16.143 28.78668,-30.3275 48.69264,-43.6085 12.18615,-8.1304 17.89809,-10.9618 35.34106,-17.5188 8.01505,-3.013 11.73307,-4.2416 16.4672,-5.4417 3.30553,-0.8379 4.91385,-1.47 5.29052,-2.0795 0.49313,-0.7979 -5.4623,-4.9186 -10.87772,-7.5266 -10.18594,-4.9053 -28.51832,-9.1993 -53.12,-12.4423 -6.5422,-0.8624 -5.74293,-1.0077 -10.16803,1.8492 -5.75096,3.7128 -9.54128,7.409 -16.33773,15.9319 -1.75965,2.2066 -3.08707,3.5055 -4.62149,4.5221 -2.76827,1.8342 -3.10274,2.2186 -5.76101,6.622 -2.99504,4.9612 -3.16464,5.0535 -10.13774,5.5149 -4.86116,0.3217 -5.69238,0.2918 -10.73558,-0.3858 -5.81665,-0.7815 -8.41121,-0.7571 -10.87843,0.1024 -0.792,0.2759 -1.584,0.7468 -1.76,1.0464 -2.42595,4.1304 -7.51237,7.2347 -13.86868,8.4642 -2.75177,0.5323 -9.31308,0.2073 -11.22338,-0.5559 -1.36761,-0.5464 -1.42303,-0.545 -1.76,0.044 -2.21542,3.8713 -7.62798,6.0496 -13.103,5.2735 -3.47732,-0.4929 -9.50617,-2.1189 -10.45344,-2.8192 l -0.8652,-0.6397 -1.19922,1.2281 c -2.81626,2.8841 -7.67681,4.3483 -13.44708,4.0508 -4.04337,-0.2085 -6.60049,-0.8157 -9.16231,-2.1757 l -1.80232,-0.9568 -2.1874,0.6756 c -4.19958,1.2971 -15.81596,2.1171 -18.61604,1.314 -0.82676,-0.2371 -1.35872,-0.1595 -2.55789,0.373 -1.19506,0.5307 -2.35678,0.7014 -5.51404,0.8105 -4.66843,0.1613 -8.39566,-0.4723 -13.75719,-2.3385 -6.05991,-2.1094 -8.88244,-3.8246 -10.40281,-6.3219 -0.2271,-0.373 -1.29091,-0.668 -3.66427,-1.0159 -4.44695,-0.6518 -7.02364,-1.3218 -10.02841,-2.6077 -5.92131,-2.5339 -9.90463,-5.7118 -11.54019,-9.2066 -1.3441,-2.872 -2.43179,-6.3528 -2.65627,-8.5005 -0.11112,-1.0632 -0.31011,-1.933 -0.44219,-1.933 -0.13209,0 -1.87557,1.0987 -3.87442,2.4417 -14.0252,9.4229 -27.47176,20.5287 -44.11426,36.435 -2.904,2.7756 -6.612,6.2105 -8.24,7.6331 -1.628,1.4226 -2.96,2.6999 -2.96,2.8384 0,0.4198 8.77442,0.2639 14.56,-0.2587 6.44488,-0.5822 45.8561,-0.8934 55.51764,-0.4385 18.94596,0.8921 43.38935,3.7774 77.12827,9.1043 25.68661,4.0555 51.28372,9.4678 83.19411,17.5906 3.784,0.9633 7.168,1.8011 7.52,1.8619 0.91096,0.1575 2.37953,-0.2921 3.13039,-0.9581 z m -114.9662,-1.3086 c 0.008,-2.1268 1.178,-6.9256 2.16705,-8.8849 1.05293,-2.0859 3.38478,-4.4725 4.68984,-4.8 1.42489,-0.3577 0.89898,-0.6648 -1.82109,-1.0634 -8.14284,-1.1934 -30.776,-4.1635 -30.88639,-4.0531 -0.0714,0.072 1.64675,1.3161 3.81824,2.7659 7.80734,5.2125 15.53895,11.4074 20.08116,16.09 0.77715,0.8012 1.53315,1.3824 1.68,1.2916 0.14684,-0.091 0.26888,-0.6965 0.27119,-1.3461 z M -64.880793,1960.378 c 6.98528,-4.9841 16.44451,-11.7249 21.02051,-14.9796 12.15937,-8.6483 20.65791,-14.902 30.4,-22.37 17.7398496,-13.5987 43.2387,-32.0501 55.52,-40.1753 8.07641,-5.3432 15.27835,-10.5663 30.4,-22.0471 28.023193,-21.2761 46.399003,-34.8249 54.937013,-40.5059 1.96735,-1.3091 3.47935,-2.4672 3.36,-2.5738 -0.11935,-0.1065 -3.025,-0.6593 -6.45701,-1.2285 -3.432,-0.5692 -6.70421,-1.234 -7.27159,-1.4772 -1.70302,-0.7301 -1.85462,-2.6324 -0.30176,-3.7867 0.79288,-0.5893 1.31492,-0.6689 4.16,-0.6337 2.88052,0.036 13.61519,1.4286 17.97336,2.3325 0.88,0.1825 4.048,0.4774 7.04,0.6553 2.992,0.1779 8.032,0.4868 11.2,0.6864 10.31685,0.6501 22.81409,-0.1056 29.40779,-1.7782 5.87089,-1.4893 8.9268,-3.0833 16.23983,-8.4711 5.33908,-3.9336 9.57125,-8.0436 12.38481,-12.0273 2.34723,-3.3235 5.60871,-9.7849 7.25862,-14.3802 2.74095,-7.634 4.5705,-16.9264 4.00993,-20.3667 -0.66948,-4.1086 -3.06047,-8.1533 -7.36881,-12.4655 -4.97499,-4.9795 -10.52073,-8.0185 -24.65217,-13.5093 -13.99055,-5.436 -24.69899,-8.6128 -36.8,-10.9172 -9.80023,-1.8662 -13.39648,-2.2199 -17.96968,-1.7672 -4.37918,0.4334 -6.67878,1.3267 -16.1012,6.254 -20.06499,10.4928 -43.713253,24.6534 -51.598463,30.8972 -2.26906,1.7967 -3.67029,4.221 -4.31015,7.4571 -0.70366,3.5587 -0.41069,11.9536 0.83758,24 0.6383,6.16 1.31588,13 1.50571,15.2 0.79945,9.2649 -0.77073,17.5589 -3.52219,18.605 -0.71805,0.273 -0.94024,0.1988 -1.55949,-0.5212 -0.87906,-1.0219 -0.9185,-2.3309 -0.22672,-7.5238 0.29587,-2.221 0.40771,-4.4657 0.28209,-5.6617 l -0.20814,-1.9817 -1.26477,0.7984 c -0.69562,0.4391 -3.73972,2.252 -6.76468,4.0287 -3.02495,1.7767 -7.37191,4.4108 -9.65991,5.8536 -11.41639,7.1991 -22.79995,13.5318 -38.7200004,21.5402 -20.8493496,10.4879 -28.2422296,15.2978 -47.0806696,30.6311 -22.07445,17.9673 -28.51247,24.2181 -34.76217,33.7514 -5.50347,8.395 -7.75127,15.7103 -8.5802,27.9236 -0.65865,9.7043 0.50268,22.7311 3.20192,35.9164 0.3603,1.76 0.65645,3.308 0.6581,3.44 0.002,0.132 0.15579,0.24 0.34251,0.24 0.18672,0 6.05472,-4.0779 13.04,-9.062 z m 466.052813,-29.1969 c 0.0984,-0.098 -0.30488,-0.8979 -0.89622,-1.7767 -1.36337,-2.0259 -1.73562,-3.2986 -1.95517,-6.6844 -0.32626,-5.0314 1.48131,-15.8241 3.69664,-22.0719 1.08054,-3.0474 1.05118,-3.1651 -1.05612,-4.2365 -0.71578,-0.3639 -2.13579,-1.2271 -3.15558,-1.9182 -3.1278,-2.1196 -7.14031,-3.884 -9.15414,-4.0252 -1.45902,-0.1024 -7.24278,0.634 -7.56938,0.9636 -0.19401,0.1959 -2.06043,8.599 -2.50721,11.2882 -0.98252,5.9138 -1.76017,21.1094 -1.13963,22.2689 0.89931,1.6804 10.66707,5.3978 16.14453,6.1444 1.5262,0.208 7.39512,0.2449 7.59228,0.048 z m 44.45406,-0.7419 c 3.64565,-1.4127 5.77496,-3.868 6.83301,-7.8792 0.9036,-3.4256 1.30011,-12.1874 0.84613,-18.6972 -0.2208,-3.1661 -0.4873,-6.2855 -0.59221,-6.9321 l -0.19076,-1.1755 -2.59126,0.2133 c -1.42518,0.1173 -6.19125,0.3376 -10.59125,0.4895 -5.18889,0.1792 -8.4481,0.4284 -9.27524,0.7091 -1.20866,0.4103 -1.30445,0.5412 -1.83484,2.5067 -0.94687,3.5088 -1.27122,6.948 -1.26816,13.4462 0.003,6.0203 0.4533,12.1187 1.00089,13.5501 0.14515,0.3795 0.56843,0.9642 0.94063,1.2995 0.3722,0.3353 0.67672,0.7802 0.67672,0.9886 0,0.492 1.22254,1.0405 4,1.7947 3.16354,0.8591 9.44174,0.6955 12.04634,-0.3137 z m -26.12634,-0.046 c 2.86457,-0.384 5.92181,-1.1707 5.91654,-1.5225 -0.002,-0.1271 -0.21034,-0.9128 -0.46318,-1.7461 -1.22917,-4.0506 -1.44296,-19.9267 -0.33725,-25.0449 0.66284,-3.0682 0.66968,-3.0401 -0.74006,-3.0401 -0.67317,0 -2.2824,-0.36 -3.57605,-0.8 -2.53326,-0.8616 -4.65555,-0.9909 -7.84,-0.4777 -1.056,0.1702 -3.12286,0.4955 -4.59303,0.7229 l -2.67303,0.4135 -0.77473,2.3906 c -2.23953,6.9108 -3.8355,16.5738 -3.56598,21.5907 0.10347,1.9261 0.34057,2.9562 0.95756,4.16 1.04121,2.0315 1.76025,2.6711 3.84846,3.4231 1.46172,0.5264 2.30627,0.5837 6.48075,0.4394 2.64,-0.091 5.952,-0.3202 7.36,-0.5089 z m 50.68612,-1.3125 c 3.33911,-1.1276 4.27297,-2.4774 6.06164,-8.7611 1.50385,-5.2831 1.67069,-8.0839 0.82389,-13.8303 -0.43135,-2.9271 -2.48793,-11.8326 -2.80602,-12.1507 -0.0564,-0.056 -1.16973,-0.393 -2.47408,-0.7479 -1.30435,-0.3549 -3.26364,-0.8895 -4.35398,-1.1879 -2.39376,-0.6553 -3.7173,-0.4419 -8.69312,1.4011 l -3.31555,1.228 0.20449,1.6039 c 0.74912,5.8753 0.87092,7.7013 0.88699,13.2971 0.0242,8.4399 -0.5741,13.1955 -2.01988,16.054 -0.33028,0.653 -0.6005,1.3068 -0.6005,1.4529 0,0.1461 1.188,0.45 2.64,0.6754 1.452,0.2254 3.72,0.677 5.04,1.0035 3.28591,0.813 6.1234,0.8004 8.60612,-0.038 z m 20.20171,-3.9348 c 5.52364,-1.1711 9.56606,-3.5762 10.94642,-6.5128 1.11998,-2.3826 0.55684,-4.1626 -5.43946,-17.1935 -4.01928,-8.7345 -3.74457,-8.2867 -5.27245,-8.5938 -0.74928,-0.1507 -2.73334,-0.3395 -4.40902,-0.4197 -2.83155,-0.1355 -3.21944,-0.077 -5.49331,0.8338 -1.34564,0.5389 -2.69004,0.9797 -2.98755,0.9797 -0.39151,0 -0.47591,0.1547 -0.30555,0.56 0.68779,1.6363 1.84235,6.1169 2.41191,9.36 1.32364,7.5369 1.15087,11.4362 -0.78366,17.6863 -0.75593,2.4423 -0.75854,2.4922 -0.14746,2.8192 1.76755,0.946 8.04565,1.2089 11.48013,0.4808 z m -116.37322,-4.9063 c 0.10909,-0.66 0.20288,-2.496 0.20843,-4.08 0.0123,-3.5118 0.72891,-11.1191 1.42579,-15.1356 0.48898,-2.8183 1.99141,-9.0313 2.24536,-9.2852 0.17173,-0.1718 -5.48479,-3.9906 -7.19419,-4.8569 -0.792,-0.4014 -2.06153,-1.1556 -2.82117,-1.676 -2.98532,-2.0451 -7.7043,-3.6369 -10.35428,-3.4928 -1.74474,0.095 -4.27982,3.1465 -5.62123,6.7665 -1.45235,3.9195 -2.3126,12.2209 -1.67804,16.1931 0.40187,2.5156 1.91932,6.6151 2.98156,8.0549 1.76626,2.394 6.79334,5.4131 11.26894,6.7678 1.79717,0.544 7.37316,1.7262 8.98235,1.9045 0.19697,0.022 0.44739,-0.5003 0.55648,-1.1603 z m 154.23596,-4.2248 c 4.90996,-0.3357 4.7847,-0.2534 7.52372,-4.946 1.97172,-3.3781 3.88208,-5.4119 6.54312,-6.9658 0.82802,-0.4835 2.13663,-1.7312 3.00473,-2.8648 6.34525,-8.2864 10.3421,-12.1153 17.02589,-16.3105 l 3.00803,-1.8881 -1.56803,-0.022 c -0.86241,-0.012 -4.23202,-0.2027 -7.48802,-0.4236 l -5.92,-0.4018 -5.19261,3.3837 c -9.76546,6.3634 -12.40978,7.9765 -15.60506,9.5195 -3.00572,1.4514 -3.34188,1.5415 -5.6,1.5 -1.32128,-0.024 -3.84233,-0.2717 -5.60233,-0.5499 -1.76,-0.2782 -7.016,-0.8679 -11.68001,-1.3105 -4.664,-0.4425 -9.17355,-0.8939 -10.02123,-1.003 l -1.54124,-0.1984 0.94472,1.873 c 2.84779,5.6458 7.66471,16.9961 7.93979,18.7088 0.29844,1.8581 0.40626,1.9158 2.52918,1.355 2.12306,-0.5609 5.64564,-0.4537 11.02879,0.3355 3.68646,0.5405 5.34487,0.5729 10.67056,0.2088 z m -234.62925,-2.7185 c 2.3703,-1.0804 7.20312,-2.2852 10.83867,-2.7022 1.672,-0.1917 6.28,-0.718 10.24,-1.1694 3.96001,-0.4514 9.21601,-1.1522 11.68001,-1.5574 l 4.48,-0.7366 5.92,-3.9674 c 3.256,-2.1821 6.72403,-4.387 7.70673,-4.8999 l 1.78673,-0.9325 0.40721,-2.4256 c 0.59327,-3.534 1.51049,-6.9304 2.39097,-8.8536 0.58141,-1.27 0.67068,-1.7241 0.36218,-1.8425 -0.54121,-0.2077 -2.42826,-3.6499 -3.52825,-6.4359 -1.55967,-3.9504 -0.67345,-6.6295 4.35671,-13.1706 2.902,-3.7737 4.54682,-6.6637 4.95452,-8.7054 l 0.21213,-1.0623 -3.48447,2.6239 c -1.91645,1.4431 -4.68712,3.6492 -6.15703,4.9023 -1.46991,1.2531 -4.01783,3.3584 -5.66206,4.6784 -1.64422,1.32 -7.56956,6.0863 -13.16743,10.5918 -10.91458,8.7847 -21.97329,17.2993 -32.25795,24.8369 -3.52,2.5799 -7.45402,5.4688 -8.74227,6.42 l -2.34227,1.7294 2.50773,0.8684 c 1.37926,0.4776 3.15328,1.2551 3.94227,1.7279 0.789,0.4728 1.52514,0.8609 1.63587,0.8626 0.11074,0 0.97474,-0.3495 1.92,-0.7803 z m 133.76547,-18.2402 c 3.02062,-1.4165 5.69601,-1.7744 13.33637,-1.7841 9.06863,-0.012 12.87195,-0.3869 15.57684,-1.5378 1.232,-0.5241 3.5263,-1.3436 5.09844,-1.821 3.41831,-1.038 4.81157,-0.9583 9.22721,0.5274 4.03204,1.3566 6.71264,1.4122 9.32109,0.1933 2.50127,-1.1688 3.90453,-1.3561 7.02707,-0.9377 1.43341,0.1921 4.33419,0.5045 6.44619,0.6942 12.71853,1.1426 21.07625,1.9987 25.38942,2.6006 2.70017,0.3769 5.52135,0.6162 6.26927,0.5319 2.16562,-0.2441 5.19942,-1.936 14.33621,-7.9952 7.98089,-5.2926 8.53602,-5.7221 8.27371,-6.4007 -0.15465,-0.4001 -0.85283,-2.0234 -1.55151,-3.6074 -6.10906,-13.85 -12.8763,-29.9693 -19.21113,-45.76 -4.42349,-11.0263 -9.92022,-23.9363 -15.19161,-35.68 -2.01453,-4.488 -3.83598,-8.6922 -4.04766,-9.3426 -0.21167,-0.6505 -0.55628,-1.1298 -0.76578,-1.0652 -9.65816,2.9774 -17.60472,6.4472 -23.42092,10.2265 -3.05209,1.9833 -11.36,8.1012 -11.36,8.3654 0,0.1022 0.56659,2.1545 1.25909,4.5608 2.67311,9.2885 4.22577,17.1381 5.32783,26.9351 0.63611,5.6549 0.47994,14.935 -0.32849,19.52 -1.52551,8.6518 -4.81514,10.6473 -19.53843,11.8521 -5.88898,0.4818 -6.77074,0.2993 -8.91604,-1.846 -3.60478,-3.6048 -9.30595,-14.766 -11.40423,-22.3261 -0.39078,-1.408 -0.78238,-2.6798 -0.87022,-2.8262 -0.0878,-0.1465 -0.57452,0.1311 -1.0815,0.6169 -1.18301,1.1334 -3.76978,1.3756 -4.62296,0.4328 -0.59793,-0.6607 -0.45191,-2.6657 0.83717,-11.4946 1.13463,-7.771 5.80405,-30.0749 7.97655,-38.1007 5.87508,-21.704 9.83103,-30.2689 17.55601,-38.0099 5.78528,-5.7972 15.09876,-12.4601 26.21441,-18.7538 l 3.24401,-1.8368 -0.6266,-1.1691 c -0.34463,-0.643 -0.6266,-1.2783 -0.6266,-1.4118 0,-0.6832 -7.25598,-15.8075 -8.05154,-16.7825 -0.21849,-0.2678 -1.61147,0.9357 -4.84753,4.1882 -7.23945,7.2762 -10.91122,9.7451 -21.82093,14.6728 -6.57067,2.9678 -19.3118,7.0577 -28.08643,9.0157 -16.78045,3.7445 -33.8348,4.6269 -49.02841,2.5367 -1.93316,-0.2659 -3.70064,-0.6377 -3.92773,-0.8262 -0.2271,-0.1885 -0.46305,-0.2862 -0.52435,-0.2171 -0.0613,0.069 -0.35492,1.8536 -0.6525,3.9656 -0.29757,2.112 -1.26199,8.088 -2.14316,13.28 -2.64939,15.6107 -3.09015,18.3809 -3.65423,22.9666 -0.29724,2.4164 -0.66706,4.5302 -0.82182,4.6974 -0.15475,0.1672 -0.28137,0.3967 -0.28137,0.51 0,0.1133 1.40911,1.3704 3.13135,2.7935 3.69201,3.0508 12.3666,11.8328 16.80488,17.013 6.17561,7.208 12.35374,15.8987 15.20672,21.3912 2.33515,4.4955 5.17705,12.718 5.17705,14.9787 0,0.5518 -0.29964,1.3842 -0.66587,1.8498 l -0.66587,0.8465 0.6687,2.8484 c 0.74367,3.1676 1.76946,12.518 1.49379,13.6163 -0.50299,2.0041 -3.36577,3.8288 -7.76304,4.9482 -3.38012,0.8605 -9.86714,1.7176 -11.56662,1.5283 -4.4463,-0.4952 -10.98844,-9.0356 -15.49493,-20.2279 -2.832,-7.0335 -6.32616,-17.3095 -6.32616,-18.6046 0,-0.4251 -0.46362,-0.6858 -2.16,-1.2142 l -0.72,-0.2243 -0.006,6.0216 c -0.007,6.7797 -0.46765,16.3005 -0.96843,20.012 -0.62844,4.6576 -2.20378,7.9498 -6.24428,13.0495 -2.44609,3.0873 -3.98053,6.0419 -3.9809,7.6653 -1.5e-4,0.659 0.58307,2.3043 1.44455,4.0752 l 1.4448,2.9699 1.20581,-1.2058 c 1.88587,-1.8859 3.35026,-2.4681 6.14459,-2.4431 2.04916,0.018 2.88704,0.2182 5.73178,1.3672 1.83248,0.7402 4.15457,1.9074 5.1602,2.5938 1.00562,0.6865 2.74542,1.711 3.86621,2.2768 1.1208,0.5658 2.85998,1.6085 3.86485,2.3171 2.06467,1.4561 3.09248,1.5639 6.73118,0.706 3.99485,-0.9419 7.382,-0.4617 11.5147,1.6325 0.86098,0.4363 3.43445,2.0292 5.71883,3.5397 l 4.15341,2.7464 2.62942,-0.2025 c 1.44618,-0.1114 4.35742,-0.2844 6.46942,-0.3844 3.54326,-0.1679 4.0131,-0.1202 6.08,0.6181 3.00152,1.0722 3.8447,1.0395 6.60679,-0.2557 z m -26.38819,-39.5965 c -0.10216,-0.2553 -0.17798,-0.1794 -0.19334,0.1933 -0.0139,0.3374 0.0617,0.5264 0.16807,0.42 0.10634,-0.1063 0.1177,-0.3823 0.0253,-0.6133 z m -0.96,-5.76 c -0.10216,-0.2553 -0.17798,-0.1794 -0.19334,0.1933 -0.0139,0.3374 0.0617,0.5264 0.16807,0.42 0.10634,-0.1063 0.1177,-0.3823 0.0253,-0.6133 z m -26.18766,-3.492 c 3.6729,-3.3675 8.30808,-6.1294 12.68906,-7.5609 l 0.96,-0.3137 -2.18537,-0.9981 c -4.16665,-1.9031 -19.84636,-7.4389 -19.99671,-7.06 -0.25807,0.6503 5.77047,17.8847 6.25601,17.8847 0.0814,0 1.10602,-0.8784 2.27701,-1.952 z m 71.05788,-7.0047 c 7.47162,-9.9379 15.01271,-17.01 23.55118,-22.0866 1.584,-0.9418 3.19466,-1.8995 3.57923,-2.1283 l 0.69923,-0.4159 -0.95337,-3.6063 c -1.42158,-5.3772 -1.89429,-6.6936 -2.36424,-6.5836 -0.91207,0.2135 -7.82926,6.7536 -11.77563,11.1338 -2.30106,2.554 -7.07308,7.7856 -10.60448,11.6259 -3.53141,3.8402 -6.61859,7.3066 -6.86041,7.7032 -0.38864,0.6373 -0.31766,1.1361 0.61154,4.2977 0.57816,1.9673 1.14609,3.5768 1.26206,3.5768 0.11598,0 1.40067,-1.5825 2.85489,-3.5167 z m -59.16882,1.7342 c 0,-0.088 -0.288,-0.01 -0.64,0.1825 -0.352,0.1884 -0.64,0.4145 -0.64,0.5025 0,0.088 0.288,0.01 0.64,-0.1825 0.352,-0.1884 0.64,-0.4145 0.64,-0.5025 z m 7.36,0.3768 c 0,-0.069 -0.216,-0.2087 -0.48,-0.31 -0.264,-0.1013 -0.48,-0.045 -0.48,0.1258 0,0.1704 0.216,0.3099 0.48,0.3099 0.264,0 0.48,-0.057 0.48,-0.1257 z m 6.25715,-1.3943 c -2.57862,-7.1222 -4.70224,-11.4975 -8.15388,-16.7995 -6.64954,-10.2142 -17.74802,-22.8466 -25.94327,-29.5287 -5.57126,-4.5427 -7.07051,-5.662 -19.10399,-14.2621 -15.87206,-11.3436 -25.52337,-16.8883 -29.44992,-16.9191 -1.63121,-0.013 -1.58421,-0.1552 -1.80468,5.4692 -0.27927,7.1245 0.89717,18.2828 2.54303,24.1202 0.96487,3.4221 3.04314,7.9314 4.95881,10.7592 1.77113,2.6145 7.19171,8.1981 9.88877,10.1861 2.79237,2.0582 5.24301,3.2484 10.14932,4.9291 2.25426,0.7722 6.04266,2.1995 8.41866,3.1717 5.97441,2.4445 20.73985,7.902 25.76,9.5212 6.8086,2.196 12.33769,4.6806 19.84,8.9154 1.584,0.8941 2.98161,1.6283 3.1058,1.6315 0.1242,0 0.0303,-0.5342 -0.20865,-1.1942 z m 42.67702,-13.3393 c 2.56621,-2.8046 6.60681,-7.2686 8.97912,-9.92 10.07741,-11.2629 14.81118,-15.471 27.07267,-24.0663 2.97772,-2.0874 6.78204,-4.4662 8.45404,-5.2864 7.59936,-3.7275 19.07435,-7.461 29.41401,-9.5701 1.6863,-0.344 4.866,-1.1135 7.066,-1.7099 2.2,-0.5965 6.592,-1.7595 9.76,-2.5845 3.168,-0.8249 6.44504,-1.7934 7.28233,-2.1521 1.81641,-0.7782 3.27737,-2.3424 3.73843,-4.0026 0.43173,-1.5547 0.43381,-6.8605 0.004,-10.3372 -1.42711,-11.5451 -7.64482,-31.7476 -10.59694,-34.4315 -1.88817,-1.7166 -7.29678,-2.2868 -12.02895,-1.2681 -8.64774,1.8616 -25.38072,9.3245 -38.31893,17.0903 -13.73073,8.2414 -22.04011,15.2373 -26.6743,22.4577 -3.86514,6.0223 -8.50956,18.1256 -11.3594,29.6026 -5.32682,21.4524 -7.51401,30.9499 -8.694,37.7523 l -1.05378,6.0749 1.1449,-1.2749 c 0.6297,-0.7012 3.24454,-3.5696 5.81075,-6.3742 z m -81.10882,-47.2339 c 0.27496,-2.7352 0.71473,-6.0959 0.97728,-7.4681 0.78813,-4.1192 0.87011,-4.1109 -3.28263,-0.3306 -2.068,1.8826 -4.55494,4.0144 -5.52653,4.7374 -0.9716,0.723 -1.8356,1.4071 -1.92,1.5203 -0.0844,0.1131 1.93441,1.7335 4.48626,3.6008 2.55185,1.8672 4.66808,3.2867 4.70272,3.1542 0.0347,-0.1324 0.28795,-2.4787 0.5629,-5.214 z m 46.73465,-39.7936 c 11.09006,-1.4748 20.96745,-3.6678 30.72,-6.8205 13.73944,-4.4416 23.01702,-9.1534 29.92,-15.1955 3.38514,-2.963 7.96724,-7.8701 8.19746,-8.7789 0.17616,-0.6953 -2.86794,-6.3968 -8.75023,-16.3887 -3.21101,-5.4543 -12.44157,-20.1913 -13.02044,-20.7877 -0.33105,-0.341 -0.76318,0.072 -2.34448,2.24 -4.9242,6.7517 -9.8712,10.8331 -18.32231,15.1163 -3.73431,1.8927 -5.8901,2.7994 -14.87744,6.2574 -6.2467,2.4035 -18.51933,5.1977 -28.96256,6.594 -2.2,0.2941 -7.096,0.6238 -10.88,0.7326 l -6.88,0.1978 -0.22454,5.6 c -0.5769,14.3881 -0.95129,21.3104 -1.37589,25.44 -0.25334,2.464 -0.46489,4.66 -0.4701,4.88 -0.006,0.2526 0.44589,0.4 1.22591,0.4 0.67946,0 3.16346,0.2142 5.52,0.476 6.64243,0.7378 6.58521,0.7357 16.92462,0.639 6.63159,-0.062 10.99085,-0.2549 13.6,-0.6018 z m 86.96,-12.1469 c 1.716,-0.8524 3.12,-1.6701 3.12,-1.8172 0,-0.1471 -0.1377,-0.6296 -0.30601,-1.0723 -0.1683,-0.4427 -0.67378,-4.736 -1.12329,-9.5408 -0.4495,-4.8048 -1.24121,-11.976 -1.75934,-15.936 -0.51814,-3.96 -1.10596,-8.64 -1.30628,-10.4 -0.20031,-1.76 -0.39167,-3.2287 -0.42524,-3.2639 -0.0336,-0.035 -2.79226,1.6339 -6.13043,3.7091 -3.33817,2.0751 -7.32234,4.5519 -8.8537,5.5039 -1.53136,0.952 -2.79136,1.8214 -2.8,1.9321 -0.009,0.1106 1.93527,3.7106 4.3198,8 6.19239,11.139 10.10695,19.3572 11.53931,24.2254 0.069,0.2347 0.23345,0.3778 0.36535,0.318 0.13191,-0.06 1.64383,-0.806 3.35983,-1.6583 z m 45.67764,-7.9545 c -0.20233,-4.0985 -0.44766,-17.2078 -0.54518,-29.1318 -0.0975,-11.924 -0.28478,-21.68 -0.41613,-21.68 -0.13135,0 -3.1958,1.0743 -6.80988,2.3874 -6.74437,2.4503 -11.82231,4.0126 -13.0419,4.0126 -0.68307,0 -0.68788,0.043 -0.47184,4.24 0.13755,2.672 0.0346,7.4353 -0.2785,12.88 -0.67682,11.7715 -1.26354,25.4374 -1.09915,25.6017 0.0742,0.074 1.49621,-0.1459 3.15995,-0.4891 7.20619,-1.4869 13.64061,-0.063 16.34806,3.6165 1.10241,1.4984 3.14279,5.5391 3.1822,6.3019 0.0161,0.3114 0.0825,0.348 0.18275,0.1008 0.0866,-0.2136 -0.008,-3.7416 -0.21038,-7.84 z m -35.99541,3.4779 c 2.11078,-0.9407 5.08041,-2.1773 6.59918,-2.7479 l 2.7614,-1.0376 0.1966,-2.1321 c 0.10814,-1.1726 0.3455,-5.9481 0.52749,-10.6121 0.18198,-4.664 0.47088,-10.7095 0.64199,-13.4345 0.34969,-5.5689 0.41007,-16.484 0.10151,-18.3514 -0.36505,-2.2094 -0.442,-2.2417 -24.9104,-10.4586 -26.50179,-8.8997 -44.22596,-14.5962 -44.51513,-14.307 -0.053,0.053 2.19462,3.6174 4.99471,7.9209 l 5.09107,7.8245 2.17468,0.7712 c 1.19607,0.4242 5.27067,1.9138 9.05467,3.3103 3.784,1.3964 10.06273,3.6727 13.95273,5.0583 3.89,1.3857 8.19198,3.0295 9.55995,3.6529 1.36797,0.6234 2.82364,1.1334 3.23481,1.1334 0.9575,0 2.05251,1.1705 2.05251,2.194 0,0.4363 0.21436,2.3891 0.47635,4.3396 2.00691,14.9413 4.00365,33.4609 4.00365,37.1335 0,0.7991 0.037,1.4529 0.0822,1.4529 0.0452,0 1.80922,-0.7696 3.92,-1.7103 z M 387.97974,1699.163 c 10.28841,-1.1195 20.84324,-3.3428 31.09171,-6.5493 12.79947,-4.0047 20.58183,-8.1657 26.85404,-14.3581 3.15368,-3.1136 7.01497,-8.0426 7.01336,-8.9527 -4.8e-4,-0.2768 -2.35172,-4.1033 -5.22496,-8.5033 -9.35384,-14.3242 -13.4904,-20.698 -17.34108,-26.72 -11.04123,-17.267 -18.71749,-28.2536 -25.66603,-36.7344 -10.79203,-13.1718 -27.00499,-29.5743 -28.12523,-28.4541 -0.10891,0.1089 0.0485,2.2885 0.34982,4.8435 0.8051,6.827 0.51519,34.9346 -0.45238,43.86 -0.68298,6.3002 -1.30963,13.4645 -2.11366,24.165 -0.25788,3.432 -0.60596,12.936 -0.77353,21.12 -0.16756,8.184 -0.37895,15.888 -0.46974,17.12 -0.0908,1.232 -0.24696,5.408 -0.34701,9.28 -0.10006,3.872 -0.25002,7.7344 -0.33326,8.5831 -0.0832,0.8486 -0.0632,1.6856 0.0446,1.86 0.25425,0.4114 9.70752,0.07 15.49339,-0.5597 z m 94.88,-11.4941 c 1.936,-1.1985 4.78442,-2.8514 6.32983,-3.6731 l 2.80982,-1.4941 -2.80982,-0.7377 c -2.62636,-0.6895 -17.2803,-5.8487 -25.76983,-9.0727 -2.068,-0.7853 -3.76,-1.3665 -3.76,-1.2915 0,0.075 2.35041,3.9127 5.22313,8.5281 2.87272,4.6155 5.77265,9.3277 6.44429,10.4717 2.32689,3.9634 1.65944,3.7696 5.04749,1.4652 1.6308,-1.1093 4.54909,-2.9974 6.48509,-4.1959 z m -122.12288,-31.6224 c 0.81558,-0.5902 2.20288,-1.4781 3.08288,-1.9732 0.88,-0.495 1.89954,-1.1662 2.26564,-1.4916 0.38824,-0.345 1.45513,-0.6899 2.56,-0.8276 l 1.89436,-0.236 0.23465,-2.8793 c 0.12905,-1.5835 0.45305,-5.1147 0.72,-7.8469 0.26694,-2.7322 0.48535,-5.4876 0.48535,-6.1231 v -1.1553 l -4.38589,-1.4958 c -6.81903,-2.3255 -6.86101,-2.2685 -7.76751,10.5419 -0.18682,2.64 -0.40275,5.52 -0.47986,6.4 -0.36061,4.1152 -0.51687,8.16 -0.31526,8.16 0.12252,0 0.89006,-0.4829 1.70564,-1.0731 z m 11.86339,-27.6886 c 0.19949,-1.651 0.2976,-3.0668 0.21802,-3.1464 -0.0796,-0.08 -1.74469,0.7513 -3.70025,1.8464 -1.95555,1.0951 -3.5004,2.0463 -3.43298,2.1137 0.13399,0.134 6.42415,2.2865 6.50359,2.2255 0.0269,-0.021 0.21212,-1.3883 0.41162,-3.0392 z"
         id="path2" />
      <path
         id="path7-1"
         style="fill:#000000;fill-opacity:1;stroke:#000000;stroke-width:0.807047;stroke-opacity:0"
         d="m 607.6737,1920.2794 c -111.22572,132.6018 -121.42021,331.1228 -122.71876,333.0272 -14.00068,0.4773 -120.01036,-7.0883 -188.63276,-37.383 -0.0425,-0.3822 -0.0566,-4.1113 -0.0566,-4.1113 0,0 -12.48976,-175.6484 15.51643,-258.1837 -3.54094,-1.4056 -9.05701,-0.3191 -13.0645,-0.8789 0,0.1492 -0.29313,1.2165 -0.65039,2.3731 -14.30979,49.3924 -17.44728,151.056 -17.91305,255.4608 -9.18302,-5.1298 -32.73929,-11.5109 -32.73929,-11.5109 1.20193,14.8805 3.23843,29.0819 -2.18257,43.3764 -0.18334,0.8471 -0.37198,1.5578 -0.56641,2.0097 -0.24511,0.5699 -0.36253,0.9247 -0.42578,1.1817 -0.0153,0.068 -0.0309,0.134 -0.0449,0.2052 -0.067,0.4094 0.0556,0.451 -0.13086,0.871 l 6.27539,5.9297 c 17.08807,16.1406 56.01437,31.2274 101.6543,44.8379 5.016,1.4959 11.71286,3.5673 14.88086,4.6035 6.63283,2.1695 23.71723,6.4312 28.64843,7.1465 1.8428,0.2672 8.3528,1.503 14.4649,2.7442 38.0269,7.7225 68.686,10.7229 103.7656,10.1562 19.6244,-0.317 33.6042,-1.2653 52.9609,-3.5918 41.12615,-4.9429 41.95835,-9.8335 53.04287,-10.347 3.01149,0.3634 -4.92062,-51.6753 8.07949,-56.2496 -41.00245,-5.4288 -82.22054,0.6674 -123.30206,1.8876 3.12384,-205.575 114.92946,-301.3494 127.24776,-333.4736 0.2676,-0.6979 -22.3452,-2.1837 -24.109,-0.081 z m -363.60939,326.4393 c -0.007,0.072 -0.0167,0.153 -0.0273,0.2403 0.0488,0.4519 0.51768,1.2615 1.39257,2.3496 z" />
    </g>
  </g>
</svg>
